<?xml version="1.0" encoding="utf-8" standalone="yes"?>
<!DOCTYPE svg PUBLIC "-//W3C//DTD SVG 1.1//EN" "http://www.w3.org/Graphics/SVG/1.1/DTD/svg11.dtd">
<svg width="876" height="1788" viewBox="0 0 876 1788" style="fill:none;stroke:none;fill-rule:evenodd;clip-rule:evenodd;stroke-linecap:round;stroke-linejoin:round;stroke-miterlimit:1.5;" version="1.1" xmlns="http://www.w3.org/2000/svg" xmlns:xlink="http://www.w3.org/1999/xlink"><style class="text-font-style fontImports" data-font-family="Roboto">@import url('https://fonts.googleapis.com/css2?family=Roboto:wght@400;700&amp;display=block');</style><g id="items" style="isolation: isolate"><g id="blend" style="mix-blend-mode: normal"><g id="g-root-cp_0_g-0_4g2o5y14a9zwg-fill" data-item-order="-1400964" transform="translate(98, 122)"></g><g id="g-root-cp_0_g-0_1_1hapoly14a9yx6-fill" data-item-order="-1400958" transform="translate(98, 300)"></g><g id="g-root-cp_0_g-0_2_dcyml214aa0i4-fill" data-item-order="-1400951" transform="translate(350, 242)"></g><g id="g-root-cp_1_g-1_1hbyms614aa13a-fill" data-item-order="-1400948" transform="translate(62, 160)"></g><g id="g-root-cp_0_g-0_3_qpo34m14aa13c-fill" data-item-order="-1400916" transform="translate(98, 468)"></g><g id="g-root-cp_0_g-0_4_1ltnk5y14a9zbe-fill" data-item-order="-1400909" transform="translate(350, 410)"></g><g id="g-root-cp_2_g-2_qrjidy14aa03o-fill" data-item-order="-1400906" transform="translate(62, 328)"></g><g id="g-root-cp_0_g-0_5_1qaq0gm14aa0pa-fill" data-item-order="-1400874" transform="translate(98, 636)"></g><g id="g-root-cp_0_g-0_6_qtexna14a9z40-fill" data-item-order="-1400867" transform="translate(350, 578)"></g><g id="g-root-cp_3_g-3_1qclfpy14a9zpm-fill" data-item-order="-1400864" transform="translate(62, 496)"></g><g id="g-root-cp_0_g-0_7_zqaw2e14a9zpo-fill" data-item-order="-1400832" transform="translate(98, 804)"></g><g id="g-root-cp_0_g-0_8_hzncnq14a9yx2-fill" data-item-order="-1400825" transform="translate(350, 746)"></g><g id="g-root-cp_4_g-4_18n6uhi14aa134-fill" data-item-order="-1400822" transform="translate(62, 664)"></g><g id="g-root-cp_0_g-0_9_8vw6ae14abdai-fill" data-item-order="-1400790" transform="translate(98, 972)"></g><g id="g-root-cp_0_g-0_10_1q5q7rq14abfgk-fill" data-item-order="-1400783" transform="translate(350, 914)"></g><g id="g-root-cp_5_g-5_dcyml214abeoe-fill" data-item-order="-1400780" transform="translate(62, 832)"></g><g id="g-root-cp_0_g-0_11_1cwrlqu14abcw0-fill" data-item-order="-1400748" transform="translate(98, 1140)"></g><g id="g-root-cp_0_g-0_12_deu1ue14abdoq-fill" data-item-order="-1400741" transform="translate(350, 1082)"></g><g id="g-root-cp_6_g-6_v7d0ie14abdho-fill" data-item-order="-1400738" transform="translate(62, 1000)"></g><g id="g-root-cp_0_g-0_13_58yqe14abe9y-fill" data-item-order="-1400706" transform="translate(98, 1308)"></g><g id="g-root-cp_0_g-0_14_1luwic614abfns-fill" data-item-order="-1400699" transform="translate(350, 1250)"></g><g id="g-root-cp_7_g-7_4mbf1214abfnu-fill" data-item-order="-1400696" transform="translate(62, 1168)"></g><g id="g-root-cp_0_g-0_15_18lxwba14abd38-fill" data-item-order="-1400664" transform="translate(98, 1476)"></g><g id="g-root-cp_0_g-0_16_meudp214abfgu-fill" data-item-order="-1400657" transform="translate(350, 1418)"></g><g id="g-root-cp_8_g-8_1d30cly14abeh4-fill" data-item-order="-1400654" transform="translate(62, 1336)"></g><g id="g-root-cp_0_g-0_17_i0waty14abf9e-fill" data-item-order="-1400622" transform="translate(98, 1668)"></g><g id="g-root-cp_0_g-0_18_1uljpw614acsuk-fill" data-item-order="-1400615" transform="translate(350, 1598)"></g><g id="g-root-cp_9_g-9_13z968m14acsum-fill" data-item-order="-1400612" transform="translate(62, 1504)"></g><g id="g-root-tx_escolhae_3djh214ao1s2-fill" data-item-order="0" transform="translate(554, 746)"><g id="tx_escolhae_3djh214ao1s2-fill" stroke="none" fill="#f4f4f4"><g><text style="font: 15px Roboto, sans-serif; white-space: pre;" font-size="15px" font-family="Roboto, sans-serif"><tspan x="12" y="28" dominant-baseline="ideographic">Escolha e configure um banco de </tspan><tspan x="12" y="46" dominant-baseline="ideographic">dados para gerenciar dados.</tspan></text></g></g></g><g id="g-root-tx_4_1hd7xli14aa0w5-fill" data-item-order="0" transform="translate(176, 728)"><g id="tx_4_1hd7xli14aa0w5-fill" stroke="none" fill="#a6da37"><g><text style="font: bold 30px Roboto, sans-serif; white-space: pre;" font-weight="bold" font-size="30px" font-family="Roboto, sans-serif"><tspan x="13.39" y="46" dominant-baseline="ideographic">4</tspan></text></g></g></g><g id="g-root-tx_bancoded_1hbyms614ao1s1-fill" data-item-order="0" transform="translate(554, 710)"><g id="tx_bancoded_1hbyms614ao1s1-fill" stroke="none" fill="#a6da37"><g><text style="font: bold 20px Roboto, sans-serif; white-space: pre;" font-weight="bold" font-size="20px" font-family="Roboto, sans-serif"><tspan x="12" y="34" dominant-baseline="ideographic">Banco de Dados</tspan></text></g></g></g><g id="g-root-tx_5_5vvme14abdoq-fill" data-item-order="0" transform="translate(176, 896)"><g id="tx_5_5vvme14abdoq-fill" stroke="none" fill="#ffe711"><g><text style="font: bold 30px Roboto, sans-serif; white-space: pre;" font-weight="bold" font-size="30px" font-family="Roboto, sans-serif"><tspan x="13.39" y="46" dominant-baseline="ideographic">5</tspan></text></g></g></g><g id="g-root-ic_key_zmke6u14abdhc-fill" data-item-order="0" transform="translate(266, 890)"></g><g id="g-root-tx_autentic_147dp0614a9ypy-fill" data-item-order="0" transform="translate(554, 878)"><g id="tx_autentic_147dp0614a9ypy-fill" stroke="none" fill="#ffe711"><g><text style="font: bold 20px Roboto, sans-serif; white-space: pre;" font-weight="bold" font-size="20px" font-family="Roboto, sans-serif"><tspan x="12" y="34" dominant-baseline="ideographic">Autenticação</tspan></text></g></g></g><g id="g-root-ic_refr_mbq09i14ao0sr-fill" data-item-order="0" transform="translate(266, 722)"></g><g id="g-root-tx_implemen_zkoyxi14abeh3-fill" data-item-order="0" transform="translate(554, 914)"><g id="tx_implemen_zkoyxi14abeh3-fill" stroke="none" fill="#f4f4f4"><g><text style="font: 15px Roboto, sans-serif; white-space: pre;" font-size="15px" font-family="Roboto, sans-serif"><tspan x="12" y="28" dominant-baseline="ideographic">Implemente mecanismos de </tspan><tspan x="12" y="46" dominant-baseline="ideographic">autenticação seguros.</tspan></text></g></g></g><g id="g-root-tx_implemen_4otbdi14ajt39-fill" data-item-order="0" transform="translate(554, 578)"><g id="tx_implemen_4otbdi14ajt39-fill" stroke="none" fill="#f4f4f4"><g><text style="font: 15px Roboto, sans-serif; white-space: pre;" font-size="15px" font-family="Roboto, sans-serif"><tspan x="12" y="28" dominant-baseline="ideographic">Implemente lógica do lado do </tspan><tspan x="12" y="46" dominant-baseline="ideographic">servidor usando Node.js.</tspan></text></g></g></g><g id="g-root-ic_sear_zqbbva14actu5-fill" data-item-order="0" transform="translate(266, 1058)"></g><g id="g-root-tx_3_qnsnva14ao2rs-fill" data-item-order="0" transform="translate(176, 560)"><g id="tx_3_qnsnva14ao2rs-fill" stroke="none" fill="#43dd93"><g><text style="font: bold 30px Roboto, sans-serif; white-space: pre;" font-weight="bold" font-size="30px" font-family="Roboto, sans-serif"><tspan x="13.39" y="46" dominant-baseline="ideographic">3</tspan></text></g></g></g><g id="g-root-tx_testes_vb4aty14abe2r-fill" data-item-order="0" transform="translate(554, 1046)"><g id="tx_testes_vb4aty14abe2r-fill" stroke="none" fill="#f79438"><g><text style="font: bold 20px Roboto, sans-serif; white-space: pre;" font-weight="bold" font-size="20px" font-family="Roboto, sans-serif"><tspan x="12" y="34" dominant-baseline="ideographic">Testes</tspan></text></g></g></g><g id="g-root-tx_6_18kpdxy14al7nq-fill" data-item-order="0" transform="translate(176, 1064)"><g id="tx_6_18kpdxy14al7nq-fill" stroke="none" fill="#f79438"><g><text style="font: bold 30px Roboto, sans-serif; white-space: pre;" font-weight="bold" font-size="30px" font-family="Roboto, sans-serif"><tspan x="13.39" y="46" dominant-baseline="ideographic">6</tspan></text></g></g></g><g id="g-root-tx_backendc_18lxwba14ajuo4-fill" data-item-order="0" transform="translate(554, 542)"><g id="tx_backendc_18lxwba14ajuo4-fill" stroke="none" fill="#43dd93"><g><text style="font: bold 20px Roboto, sans-serif; white-space: pre;" font-weight="bold" font-size="20px" font-family="Roboto, sans-serif"><tspan x="12" y="34" dominant-baseline="ideographic">Backend com Node.js</tspan></text></g></g></g><g id="g-root-tx_realizet_1hduhue14acu8c-fill" data-item-order="0" transform="translate(554, 1082)"><g id="tx_realizet_1hduhue14acu8c-fill" stroke="none" fill="#f4f4f4"><g><text style="font: 15px Roboto, sans-serif; white-space: pre;" font-size="15px" font-family="Roboto, sans-serif"><tspan x="12" y="28" dominant-baseline="ideographic">Realize testes abrangentes para </tspan><tspan x="12" y="46" dominant-baseline="ideographic">garantir a qualidade do código.</tspan></text></g></g></g><g id="g-root-ic_node_qwjb2u14ajv9q-fill" data-item-order="0" transform="translate(266, 554)"></g><g id="g-root-ic_arro_1430gk614ammtl-fill" data-item-order="0" transform="translate(266, 1226)"></g><g id="g-root-tx_utilizef_dcc5hy14ah0xu-fill" data-item-order="0" transform="translate(554, 410)"><g id="tx_utilizef_dcc5hy14ah0xu-fill" stroke="none" fill="#f4f4f4"><g><text style="font: 15px Roboto, sans-serif; white-space: pre;" font-size="15px" font-family="Roboto, sans-serif"><tspan x="12" y="28" dominant-baseline="ideographic">Utilize frameworks como React </tspan><tspan x="12" y="46" dominant-baseline="ideographic">para criar SPAs interativas.</tspan></text></g></g></g><g id="g-root-tx_versiona_1d1ru8m14al91j-fill" data-item-order="0" transform="translate(554, 1214)"><g id="tx_versiona_1d1ru8m14al91j-fill" stroke="none" fill="#fb6762"><g><text style="font: bold 20px Roboto, sans-serif; white-space: pre;" font-weight="bold" font-size="20px" font-family="Roboto, sans-serif"><tspan x="12" y="34" dominant-baseline="ideographic">Versionamento e Deploy</tspan></text></g></g></g><g id="g-root-tx_7_qwju1i14abe9u-fill" data-item-order="0" transform="translate(176, 1232)"><g id="tx_7_qwju1i14abe9u-fill" stroke="none" fill="#fb6762"><g><text style="font: bold 30px Roboto, sans-serif; white-space: pre;" font-weight="bold" font-size="30px" font-family="Roboto, sans-serif"><tspan x="13.39" y="46" dominant-baseline="ideographic">7</tspan></text></g></g></g><g id="g-root-tx_2_1lvizfa14aju2y-fill" data-item-order="0" transform="translate(176, 392)"><g id="tx_2_1lvizfa14aju2y-fill" stroke="none" fill="#1ac3fb"><g><text style="font: bold 30px Roboto, sans-serif; white-space: pre;" font-weight="bold" font-size="30px" font-family="Roboto, sans-serif"><tspan x="13.39" y="46" dominant-baseline="ideographic">2</tspan></text></g></g></g><g id="g-root-tx_usegitpa_1hjgrme14al79k-fill" data-item-order="0" transform="translate(554, 1250)"><g id="tx_usegitpa_1hjgrme14al79k-fill" stroke="none" fill="#f4f4f4"><g><text style="font: 15px Roboto, sans-serif; white-space: pre;" font-size="15px" font-family="Roboto, sans-serif"><tspan x="12" y="28" dominant-baseline="ideographic">Use Git para controle de versão e </tspan><tspan x="12" y="46" dominant-baseline="ideographic">ferramentas de deploy.</tspan></text></g></g></g><g id="g-root-tx_frontend_1ha37iu14agzcx-fill" data-item-order="0" transform="translate(554, 374)"><g id="tx_frontend_1ha37iu14agzcx-fill" stroke="none" fill="#1ac3fb"><g><text style="font: bold 20px Roboto, sans-serif; white-space: pre;" font-weight="bold" font-size="20px" font-family="Roboto, sans-serif"><tspan x="12" y="34" dominant-baseline="ideographic">Frontend Moderno</tspan></text></g></g></g><g id="g-root-ic_scri_1d15gba14actfp-fill" data-item-order="0" transform="translate(266, 1394)"></g><g id="g-root-ic_2_v4v45y14ah0qr-fill" data-item-order="0" transform="translate(266, 386)"></g><g id="g-root-tx_typescri_m8m5sm14acruz-fill" data-item-order="0" transform="translate(554, 1382)"><g id="tx_typescri_m8m5sm14acruz-fill" stroke="none" fill="#f366bb"><g><text style="font: bold 20px Roboto, sans-serif; white-space: pre;" font-weight="bold" font-size="20px" font-family="Roboto, sans-serif"><tspan x="12" y="34" dominant-baseline="ideographic">TypeScript</tspan></text></g></g></g><g id="g-root-tx_8_13zw6ae14aifim-fill" data-item-order="0" transform="translate(176, 1400)"><g id="tx_8_13zw6ae14aifim-fill" stroke="none" fill="#f366bb"><g><text style="font: bold 30px Roboto, sans-serif; white-space: pre;" font-weight="bold" font-size="30px" font-family="Roboto, sans-serif"><tspan x="13.39" y="46" dominant-baseline="ideographic">8</tspan></text></g></g></g><g id="g-root-tx_aprendah_4l2guu14acrnu-fill" data-item-order="0" transform="translate(554, 242)"><g id="tx_aprendah_4l2guu14acrnu-fill" stroke="none" fill="#f4f4f4"><g><text style="font: 15px Roboto, sans-serif; white-space: pre;" font-size="15px" font-family="Roboto, sans-serif"><tspan x="12" y="28" dominant-baseline="ideographic">Aprenda HTML, CSS e JavaScript </tspan><tspan x="12" y="46" dominant-baseline="ideographic">para construir interfaces básicas.</tspan></text></g></g></g><g id="g-root-tx_adotetyp_18k300m14acs1w-fill" data-item-order="0" transform="translate(554, 1418)"><g id="tx_adotetyp_18k300m14acs1w-fill" stroke="none" fill="#f4f4f4"><g><text style="font: 15px Roboto, sans-serif; white-space: pre;" font-size="15px" font-family="Roboto, sans-serif"><tspan x="12" y="28" dominant-baseline="ideographic">Adote TypeScript para melhor </tspan><tspan x="12" y="46" dominant-baseline="ideographic">manutenção do código.</tspan></text></g></g></g><g id="g-root-tx_fundamen_1uoo3bq14acu0x-fill" data-item-order="0" transform="translate(554, 206)"><g id="tx_fundamen_1uoo3bq14acu0x-fill" stroke="none" fill="#4f91fc"><g><text style="font: bold 20px Roboto, sans-serif; white-space: pre;" font-weight="bold" font-size="20px" font-family="Roboto, sans-serif"><tspan x="12" y="34" dominant-baseline="ideographic">Fundamentos da Web</tspan></text></g></g></g><g id="g-root-ic_code_4mbf1214acttv-fill" data-item-order="0" transform="translate(266, 218)"></g><g id="g-root-tx_graphql_hvak0m14aidqn-fill" data-item-order="0" transform="translate(554, 1550)"><g id="tx_graphql_hvak0m14aidqn-fill" stroke="none" fill="#cb68f9"><g><text style="font: bold 20px Roboto, sans-serif; white-space: pre;" font-weight="bold" font-size="20px" font-family="Roboto, sans-serif"><tspan x="12" y="34" dominant-baseline="ideographic">GraphQL</tspan></text></g></g></g><g id="g-root-tx_9_92rx7a14as9vm-fill" data-item-order="0" transform="translate(176, 1580)"><g id="tx_9_92rx7a14as9vm-fill" stroke="none" fill="#cb68f9"><g><text style="font: bold 30px Roboto, sans-serif; white-space: pre;" font-weight="bold" font-size="30px" font-family="Roboto, sans-serif"><tspan x="13.39" y="46" dominant-baseline="ideographic">9</tspan></text></g></g></g><g id="g-root-ic_q_zp2guu14aifpl-fill" data-item-order="0" transform="translate(266, 1574)"></g><g id="g-root-tx_roteirod_1cw54nq14acu80-fill" data-item-order="0" transform="translate(206, 38)"><g id="tx_roteirod_1cw54nq14acu80-fill" stroke="none" fill="#f4f4f4"><g><text style="font: bold 25px Roboto, sans-serif; white-space: pre;" font-weight="bold" font-size="25px" font-family="Roboto, sans-serif"><tspan x="15.84" y="43" dominant-baseline="ideographic">Roteiro de Desenvolvimento Full Stack</tspan></text></g></g></g><g id="g-root-tx_exploreg_dgq02e14aigow-fill" data-item-order="0" transform="translate(554, 1586)"><g id="tx_exploreg_dgq02e14aigow-fill" stroke="none" fill="#f4f4f4"><g><text style="font: 15px Roboto, sans-serif; white-space: pre;" font-size="15px" font-family="Roboto, sans-serif"><tspan x="12" y="31" dominant-baseline="ideographic">Explore GraphQL para </tspan><tspan x="12" y="49" dominant-baseline="ideographic">gerenciamento avançado de </tspan><tspan x="12" y="67" dominant-baseline="ideographic">dados.</tspan></text></g></g></g><g id="g-root-tx_1_zrju8m14afkzk-fill" data-item-order="0" transform="translate(176, 224)"><g id="tx_1_zrju8m14afkzk-fill" stroke="none" fill="#4f91fc"><g><text style="font: bold 30px Roboto, sans-serif; white-space: pre;" font-weight="bold" font-size="30px" font-family="Roboto, sans-serif"><tspan x="13.39" y="46" dominant-baseline="ideographic">1</tspan></text></g></g></g><g id="g-root-cp_0_g-0_4g2o5y14a9zwg-stroke" data-item-order="-1400964" transform="translate(98, 122)"><g id="cp_0_g-0_4g2o5y14a9zwg-stroke" fill="none" stroke-linecap="round" stroke-linejoin="round" stroke-miterlimit="4" stroke="#d3d3d3" stroke-width="2"><g><path d="M 58 82L 10 68.29L 10 22M 58 82L 58 36M 58 82L 106.0001 68.29L 106.0001 22M 10 22L 58 36M 10 22L 58 10L 106.0001 22M 58 36L 106.0001 22"></path></g></g></g><g id="g-root-cp_0_g-0_1_1hapoly14a9yx6-stroke" data-item-order="-1400958" transform="translate(98, 300)"><g id="cp_0_g-0_1_1hapoly14a9yx6-stroke" fill="none" stroke-linecap="round" stroke-linejoin="round" stroke-miterlimit="4" stroke="#d3d3d3" stroke-width="2"><g><path d="M 58 72L 10 58.29L 10 10L 58 24M 58 72L 58 24M 58 72L 106.0001 58.29L 106.0001 10L 58 24"></path></g></g></g><g id="g-root-cp_0_g-0_2_dcyml214aa0i4-stroke" data-item-order="-1400951" transform="translate(350, 242)"><g id="cp_0_g-0_2_dcyml214aa0i4-stroke" fill="none" stroke-linecap="round" stroke-linejoin="round" stroke-miterlimit="4" stroke="#d3d3d3" stroke-width="2" stroke-dasharray="0.1, 6.0"><g><path d="M 10 10L 178 10"></path></g></g></g><g id="g-root-cp_1_g-1_1hbyms614aa13a-stroke" data-item-order="-1400948" transform="translate(62, 160)"><g id="cp_1_g-1_1hbyms614aa13a-stroke" fill="none" stroke-linecap="round" stroke-linejoin="round" stroke-miterlimit="4" stroke="#4f91fc" stroke-width="2"><g><path d="M 46 30.29L 46 10L 10 20L 46 30.29ZM 142 30.2904L 142 10L 178 20.0004L 142 30.2904ZM 46 30.29L 94 44M 10 20L 10 56M 142 30.2904L 94 44M 178 20.0004L 178 56M 94 44L 94 56M 10 56L 10 128M 94 56L 94 128M 178 56L 178 128M 94 164L 94 128M 94 164L 10 140L 10 128M 94 164L 178 140.001L 178 128.001"></path></g></g></g><g id="g-root-cp_0_g-0_3_qpo34m14aa13c-stroke" data-item-order="-1400916" transform="translate(98, 468)"><g id="cp_0_g-0_3_qpo34m14aa13c-stroke" fill="none" stroke-linecap="round" stroke-linejoin="round" stroke-miterlimit="4" stroke="#d3d3d3" stroke-width="2"><g><path d="M 58 72L 10 58.29L 10 10L 58 24M 58 72L 58 24M 58 72L 106.0001 58.29L 106.0001 10L 58 24"></path></g></g></g><g id="g-root-cp_0_g-0_4_1ltnk5y14a9zbe-stroke" data-item-order="-1400909" transform="translate(350, 410)"><g id="cp_0_g-0_4_1ltnk5y14a9zbe-stroke" fill="none" stroke-linecap="round" stroke-linejoin="round" stroke-miterlimit="4" stroke="#d3d3d3" stroke-width="2" stroke-dasharray="0.1, 6.0"><g><path d="M 10 10L 178 10"></path></g></g></g><g id="g-root-cp_2_g-2_qrjidy14aa03o-stroke" data-item-order="-1400906" transform="translate(62, 328)"><g id="cp_2_g-2_qrjidy14aa03o-stroke" fill="none" stroke-linecap="round" stroke-linejoin="round" stroke-miterlimit="4" stroke="#1ac3fb" stroke-width="2"><g><path d="M 46 30.29L 46 10L 10 20L 46 30.29ZM 142 30.2904L 142 10L 178 20.0004L 142 30.2904ZM 46 30.29L 94 44M 10 20L 10 56M 142 30.2904L 94 44M 178 20.0004L 178 56M 94 44L 94 56M 10 56L 10 128M 94 56L 94 128M 178 56L 178 128M 94 164L 94 128M 94 164L 10 140L 10 128M 94 164L 178 140.001L 178 128.001"></path></g></g></g><g id="g-root-cp_0_g-0_5_1qaq0gm14aa0pa-stroke" data-item-order="-1400874" transform="translate(98, 636)"><g id="cp_0_g-0_5_1qaq0gm14aa0pa-stroke" fill="none" stroke-linecap="round" stroke-linejoin="round" stroke-miterlimit="4" stroke="#d3d3d3" stroke-width="2"><g><path d="M 58 72L 10 58.29L 10 10L 58 24M 58 72L 58 24M 58 72L 106.0001 58.29L 106.0001 10L 58 24"></path></g></g></g><g id="g-root-cp_0_g-0_6_qtexna14a9z40-stroke" data-item-order="-1400867" transform="translate(350, 578)"><g id="cp_0_g-0_6_qtexna14a9z40-stroke" fill="none" stroke-linecap="round" stroke-linejoin="round" stroke-miterlimit="4" stroke="#d3d3d3" stroke-width="2" stroke-dasharray="0.1, 6.0"><g><path d="M 10 10L 178 10"></path></g></g></g><g id="g-root-cp_3_g-3_1qclfpy14a9zpm-stroke" data-item-order="-1400864" transform="translate(62, 496)"><g id="cp_3_g-3_1qclfpy14a9zpm-stroke" fill="none" stroke-linecap="round" stroke-linejoin="round" stroke-miterlimit="4" stroke="#43dd93" stroke-width="2"><g><path d="M 46 30.29L 46 10L 10 20L 46 30.29ZM 142 30.2904L 142 10L 178 20.0004L 142 30.2904ZM 46 30.29L 94 44M 10 20L 10 56M 142 30.2904L 94 44M 178 20.0004L 178 56M 94 44L 94 56M 10 56L 10 128M 94 56L 94 128M 178 56L 178 128M 94 164L 94 128M 94 164L 10 140L 10 128M 94 164L 178 140.001L 178 128.001"></path></g></g></g><g id="g-root-cp_0_g-0_7_zqaw2e14a9zpo-stroke" data-item-order="-1400832" transform="translate(98, 804)"><g id="cp_0_g-0_7_zqaw2e14a9zpo-stroke" fill="none" stroke-linecap="round" stroke-linejoin="round" stroke-miterlimit="4" stroke="#d3d3d3" stroke-width="2"><g><path d="M 58 72L 10 58.29L 10 10L 58 24M 58 72L 58 24M 58 72L 106.0001 58.29L 106.0001 10L 58 24"></path></g></g></g><g id="g-root-cp_0_g-0_8_hzncnq14a9yx2-stroke" data-item-order="-1400825" transform="translate(350, 746)"><g id="cp_0_g-0_8_hzncnq14a9yx2-stroke" fill="none" stroke-linecap="round" stroke-linejoin="round" stroke-miterlimit="4" stroke="#d3d3d3" stroke-width="2" stroke-dasharray="0.1, 6.0"><g><path d="M 10 10L 178 10"></path></g></g></g><g id="g-root-cp_4_g-4_18n6uhi14aa134-stroke" data-item-order="-1400822" transform="translate(62, 664)"><g id="cp_4_g-4_18n6uhi14aa134-stroke" fill="none" stroke-linecap="round" stroke-linejoin="round" stroke-miterlimit="4" stroke="#a6da37" stroke-width="2"><g><path d="M 46 30.29L 46 10L 10 20L 46 30.29ZM 142 30.2904L 142 10L 178 20.0004L 142 30.2904ZM 46 30.29L 94 44M 10 20L 10 56M 142 30.2904L 94 44M 178 20.0004L 178 56M 94 44L 94 56M 10 56L 10 128M 94 56L 94 128M 178 56L 178 128M 94 164L 94 128M 94 164L 10 140L 10 128M 94 164L 178 140.001L 178 128.001"></path></g></g></g><g id="g-root-cp_0_g-0_9_8vw6ae14abdai-stroke" data-item-order="-1400790" transform="translate(98, 972)"><g id="cp_0_g-0_9_8vw6ae14abdai-stroke" fill="none" stroke-linecap="round" stroke-linejoin="round" stroke-miterlimit="4" stroke="#d3d3d3" stroke-width="2"><g><path d="M 58 72L 10 58.29L 10 10L 58 24M 58 72L 58 24M 58 72L 106.0001 58.29L 106.0001 10L 58 24"></path></g></g></g><g id="g-root-cp_0_g-0_10_1q5q7rq14abfgk-stroke" data-item-order="-1400783" transform="translate(350, 914)"><g id="cp_0_g-0_10_1q5q7rq14abfgk-stroke" fill="none" stroke-linecap="round" stroke-linejoin="round" stroke-miterlimit="4" stroke="#d3d3d3" stroke-width="2" stroke-dasharray="0.1, 6.0"><g><path d="M 10 10L 178 10"></path></g></g></g><g id="g-root-cp_5_g-5_dcyml214abeoe-stroke" data-item-order="-1400780" transform="translate(62, 832)"><g id="cp_5_g-5_dcyml214abeoe-stroke" fill="none" stroke-linecap="round" stroke-linejoin="round" stroke-miterlimit="4" stroke="#ffe711" stroke-width="2"><g><path d="M 46 30.29L 46 10L 10 20L 46 30.29ZM 142 30.2904L 142 10L 178 20.0004L 142 30.2904ZM 46 30.29L 94 44M 10 20L 10 56M 142 30.2904L 94 44M 178 20.0004L 178 56M 94 44L 94 56M 10 56L 10 128M 94 56L 94 128M 178 56L 178 128M 94 164L 94 128M 94 164L 10 140L 10 128M 94 164L 178 140.001L 178 128.001"></path></g></g></g><g id="g-root-cp_0_g-0_11_1cwrlqu14abcw0-stroke" data-item-order="-1400748" transform="translate(98, 1140)"><g id="cp_0_g-0_11_1cwrlqu14abcw0-stroke" fill="none" stroke-linecap="round" stroke-linejoin="round" stroke-miterlimit="4" stroke="#d3d3d3" stroke-width="2"><g><path d="M 58 72L 10 58.29L 10 10L 58 24M 58 72L 58 24M 58 72L 106.0001 58.29L 106.0001 10L 58 24"></path></g></g></g><g id="g-root-cp_0_g-0_12_deu1ue14abdoq-stroke" data-item-order="-1400741" transform="translate(350, 1082)"><g id="cp_0_g-0_12_deu1ue14abdoq-stroke" fill="none" stroke-linecap="round" stroke-linejoin="round" stroke-miterlimit="4" stroke="#d3d3d3" stroke-width="2" stroke-dasharray="0.1, 6.0"><g><path d="M 10 10L 178 10"></path></g></g></g><g id="g-root-cp_6_g-6_v7d0ie14abdho-stroke" data-item-order="-1400738" transform="translate(62, 1000)"><g id="cp_6_g-6_v7d0ie14abdho-stroke" fill="none" stroke-linecap="round" stroke-linejoin="round" stroke-miterlimit="4" stroke="#f79438" stroke-width="2"><g><path d="M 46 30.29L 46 10L 10 20L 46 30.29ZM 142 30.2904L 142 10L 178 20.0004L 142 30.2904ZM 46 30.29L 94 44M 10 20L 10 56M 142 30.2904L 94 44M 178 20.0004L 178 56M 94 44L 94 56M 10 56L 10 128M 94 56L 94 128M 178 56L 178 128M 94 164L 94 128M 94 164L 10 140L 10 128M 94 164L 178 140.001L 178 128.001"></path></g></g></g><g id="g-root-cp_0_g-0_13_58yqe14abe9y-stroke" data-item-order="-1400706" transform="translate(98, 1308)"><g id="cp_0_g-0_13_58yqe14abe9y-stroke" fill="none" stroke-linecap="round" stroke-linejoin="round" stroke-miterlimit="4" stroke="#d3d3d3" stroke-width="2"><g><path d="M 58 72L 10 58.29L 10 10L 58 24M 58 72L 58 24M 58 72L 106.0001 58.29L 106.0001 10L 58 24"></path></g></g></g><g id="g-root-cp_0_g-0_14_1luwic614abfns-stroke" data-item-order="-1400699" transform="translate(350, 1250)"><g id="cp_0_g-0_14_1luwic614abfns-stroke" fill="none" stroke-linecap="round" stroke-linejoin="round" stroke-miterlimit="4" stroke="#d3d3d3" stroke-width="2" stroke-dasharray="0.1, 6.0"><g><path d="M 10 10L 178 10"></path></g></g></g><g id="g-root-cp_7_g-7_4mbf1214abfnu-stroke" data-item-order="-1400696" transform="translate(62, 1168)"><g id="cp_7_g-7_4mbf1214abfnu-stroke" fill="none" stroke-linecap="round" stroke-linejoin="round" stroke-miterlimit="4" stroke="#fb6762" stroke-width="2"><g><path d="M 46 30.29L 46 10L 10 20L 46 30.29ZM 142 30.2904L 142 10L 178 20.0004L 142 30.2904ZM 46 30.29L 94 44M 10 20L 10 56M 142 30.2904L 94 44M 178 20.0004L 178 56M 94 44L 94 56M 10 56L 10 128M 94 56L 94 128M 178 56L 178 128M 94 164L 94 128M 94 164L 10 140L 10 128M 94 164L 178 140.001L 178 128.001"></path></g></g></g><g id="g-root-cp_0_g-0_15_18lxwba14abd38-stroke" data-item-order="-1400664" transform="translate(98, 1476)"><g id="cp_0_g-0_15_18lxwba14abd38-stroke" fill="none" stroke-linecap="round" stroke-linejoin="round" stroke-miterlimit="4" stroke="#d3d3d3" stroke-width="2"><g><path d="M 58 72L 10 58.29L 10 10L 58 24M 58 72L 58 24M 58 72L 106.0001 58.29L 106.0001 10L 58 24"></path></g></g></g><g id="g-root-cp_0_g-0_16_meudp214abfgu-stroke" data-item-order="-1400657" transform="translate(350, 1418)"><g id="cp_0_g-0_16_meudp214abfgu-stroke" fill="none" stroke-linecap="round" stroke-linejoin="round" stroke-miterlimit="4" stroke="#d3d3d3" stroke-width="2" stroke-dasharray="0.1, 6.0"><g><path d="M 10 10L 178 10"></path></g></g></g><g id="g-root-cp_8_g-8_1d30cly14abeh4-stroke" data-item-order="-1400654" transform="translate(62, 1336)"><g id="cp_8_g-8_1d30cly14abeh4-stroke" fill="none" stroke-linecap="round" stroke-linejoin="round" stroke-miterlimit="4" stroke="#f366bb" stroke-width="2"><g><path d="M 46 30.29L 46 10L 10 20L 46 30.29ZM 142 30.2904L 142 10L 178 20.0004L 142 30.2904ZM 46 30.29L 94 44M 10 20L 10 56M 142 30.2904L 94 44M 178 20.0004L 178 56M 94 44L 94 56M 10 56L 10 128M 94 56L 94 128M 178 56L 178 128M 94 164L 94 128M 94 164L 10 140L 10 128M 94 164L 178 140.001L 178 128.001"></path></g></g></g><g id="g-root-cp_0_g-0_17_i0waty14abf9e-stroke" data-item-order="-1400622" transform="translate(98, 1668)"><g id="cp_0_g-0_17_i0waty14abf9e-stroke" fill="none" stroke-linecap="round" stroke-linejoin="round" stroke-miterlimit="4" stroke="#d3d3d3" stroke-width="2"><g><path d="M 58 72L 10 58.29L 10 10L 58 24M 58 72L 58 24M 58 72L 106.0001 58.29L 106.0001 10L 58 24"></path></g></g></g><g id="g-root-cp_0_g-0_18_1uljpw614acsuk-stroke" data-item-order="-1400615" transform="translate(350, 1598)"><g id="cp_0_g-0_18_1uljpw614acsuk-stroke" fill="none" stroke-linecap="round" stroke-linejoin="round" stroke-miterlimit="4" stroke="#d3d3d3" stroke-width="2" stroke-dasharray="0.1, 6.0"><g><path d="M 10 10L 178 10"></path></g></g></g><g id="g-root-cp_9_g-9_13z968m14acsum-stroke" data-item-order="-1400612" transform="translate(62, 1504)"><g id="cp_9_g-9_13z968m14acsum-stroke" fill="none" stroke-linecap="round" stroke-linejoin="round" stroke-miterlimit="4" stroke="#cb68f9" stroke-width="2"><g><path d="M 46 30.29L 46 10L 10 20L 46 30.29ZM 142 30.2904L 142 10L 178 20.0004L 142 30.2904ZM 46 30.29L 94 44M 10 20L 10 56M 142 30.2904L 94 44M 178 20.0004L 178 56M 94 44L 94 56M 10 56L 10 152M 94 56L 94 152M 178 56L 178 152M 94 188L 94 152M 94 188L 10 164L 10 152M 94 188L 178 164.001L 178 152.001"></path></g></g></g><g id="g-root-tx_escolhae_3djh214ao1s2-stroke" data-item-order="0" transform="translate(554, 746)"></g><g id="g-root-tx_4_1hd7xli14aa0w5-stroke" data-item-order="0" transform="translate(176, 728)"></g><g id="g-root-tx_bancoded_1hbyms614ao1s1-stroke" data-item-order="0" transform="translate(554, 710)"></g><g id="g-root-tx_5_5vvme14abdoq-stroke" data-item-order="0" transform="translate(176, 896)"></g><g id="g-root-ic_key_zmke6u14abdhc-stroke" data-item-order="0" transform="translate(266, 890)"><g id="ic_key_zmke6u14abdhc-stroke" fill="none" stroke-linecap="round" stroke-linejoin="round" stroke-miterlimit="4" stroke="#ffe711" stroke-width="2"><g><path d="M 42.810001 50.462002C 41.833622 51.438122 40.250832 51.437984 39.27462 50.461689C 38.298416 49.485397 38.298416 47.902603 39.27462 46.926311C 40.250832 45.95002 41.833622 45.949879 42.810001 46.925999C 43.785519 47.902821 43.785519 49.48518 42.810001 50.462002ZM 10 10M 48.096001 45.883999L 56.706001 37.293999C 56.894161 37.106426 56.999943 36.851685 57 36.585999L 57 34C 57 33.447716 56.552284 33 56 33L 53.400002 33C 53.144054 32.999924 52.89782 33.097984 52.712002 33.274002L 43.854 41.641998C 40.328316 40.148323 36.238579 41.362339 34.098885 44.53775C 31.959192 47.713158 32.369568 51.959496 35.077744 54.666393C 37.785919 57.373291 42.032452 57.78167 45.206848 55.64048C 48.381248 53.49929 49.593338 49.408978 48.098 45.883999ZM 16.5 19.5C 16.5 24.19442 20.30558 28 25 28C 29.69442 28 33.5 24.19442 33.5 19.5C 33.5 14.80558 29.69442 11 25 11C 20.30558 11 16.5 14.80558 16.5 19.5ZM 27 45L 11 45C 10.999902 39.114559 14.680733 33.857452 20.211155 31.844276C 25.741575 29.831099 31.940599 31.491751 35.723999 36"></path></g></g></g><g id="g-root-tx_autentic_147dp0614a9ypy-stroke" data-item-order="0" transform="translate(554, 878)"></g><g id="g-root-ic_refr_mbq09i14ao0sr-stroke" data-item-order="0" transform="translate(266, 722)"><g id="ic_refr_mbq09i14ao0sr-stroke" fill="none" stroke-linecap="round" stroke-linejoin="round" stroke-miterlimit="4" stroke="#a6da37" stroke-width="2"><g><path d="M 11.042 19.001999C 11.042 23.420277 19.54859 27.002001 30.042 27.002001C 40.535408 27.002001 49.042 23.420277 49.042 19.001999C 49.042 14.583722 40.535408 11.002 30.042 11.002C 19.54859 11.002 11.042 14.583722 11.042 19.001999ZM 30.042 35C 19.549999 35 11.042 31.42 11.042 27M 28.042 43.958C 18.49 43.537998 11.042 40.136002 11.042 36M 28.042 52.958C 18.49 52.537998 11.042 49.136002 11.042 45.001999L 11.042 19M 49.042 19.001999L 49.042 29.002001M 48.040001 41.001999L 57.040001 41.001999L 57.040001 32.001999M 56.355999 41C 54.533989 35.843327 49.455761 32.570965 44.007027 33.042435C 38.558289 33.513908 34.117638 37.609924 33.208473 43.002922C 32.299309 48.395924 35.151657 53.721413 40.144676 55.953178C 45.137695 58.184944 51.008087 56.758327 54.420002 52.484001"></path></g></g></g><g id="g-root-tx_implemen_zkoyxi14abeh3-stroke" data-item-order="0" transform="translate(554, 914)"></g><g id="g-root-tx_implemen_4otbdi14ajt39-stroke" data-item-order="0" transform="translate(554, 578)"></g><g id="g-root-ic_sear_zqbbva14actu5-stroke" data-item-order="0" transform="translate(266, 1058)"><g id="ic_sear_zqbbva14actu5-stroke" fill="none" stroke-linecap="round" stroke-linejoin="round" stroke-miterlimit="4" stroke="#f79438" stroke-width="2"><g><path d="M 45.166 45.09L 57.077999 57M 11 30.969999C 11 42.015694 19.954306 50.970001 31 50.970001C 42.045696 50.970001 51 42.015694 51 30.970001C 51 19.924305 42.045696 10.97 31 10.97C 19.954306 10.97 11 19.924305 11 30.970001ZM 38 25L 44 31L 38 37M 24 25L 18 31L 24 37M 34 23L 28 39"></path></g></g></g><g id="g-root-tx_3_qnsnva14ao2rs-stroke" data-item-order="0" transform="translate(176, 560)"></g><g id="g-root-tx_testes_vb4aty14abe2r-stroke" data-item-order="0" transform="translate(554, 1046)"></g><g id="g-root-tx_6_18kpdxy14al7nq-stroke" data-item-order="0" transform="translate(176, 1064)"></g><g id="g-root-tx_backendc_18lxwba14ajuo4-stroke" data-item-order="0" transform="translate(554, 542)"></g><g id="g-root-tx_realizet_1hduhue14acu8c-stroke" data-item-order="0" transform="translate(554, 1082)"></g><g id="g-root-ic_node_qwjb2u14ajv9q-stroke" data-item-order="0" transform="translate(266, 554)"><g id="ic_node_qwjb2u14ajv9q-stroke" fill="none" stroke-linecap="round" stroke-linejoin="round" stroke-miterlimit="4" stroke="#43dd93" stroke-width="2"><g><path d="M 26.9 53.080002L 32.900002 56.720001C 33.518803 57.077267 34.281197 57.077267 34.900002 56.720001L 53.16 45.759998C 53.781269 45.401318 54.162849 44.73737 54.16 44.02L 54.16 24C 54.162849 23.282631 53.781269 22.618683 53.16 22.26L 35.040001 11.28C 34.421196 10.922734 33.658802 10.922734 33.040001 11.28L 14.7 22.24C 14.078732 22.598682 13.697152 23.26263 13.7 23.98L 13.7 44C 13.697152 44.717369 14.078732 45.381317 14.7 45.740002L 20.18 49.02C 21.550299 49.840054 23.255424 49.861053 24.645504 49.074997C 26.035582 48.28894 26.896448 46.816933 26.9 45.220001L 26.9 25.880001M 33 38C 32.996193 39.95676 34.45718 41.606812 36.400002 41.839996C 38.12677 42.053387 39.873238 42.053387 41.600002 41.840004C 43.54282 41.606812 45.003803 39.95676 45 38C 44.992313 36.255989 43.722317 34.774323 42 34.5L 39 34L 36 33.5C 34.277679 33.225674 33.007683 31.744011 33 30C 32.996193 28.04324 34.45718 26.393185 36.400002 26.16C 38.12677 25.946617 39.873238 25.946617 41.600002 26.160002C 43.54282 26.393185 45.003803 28.04324 45 30"></path></g></g></g><g id="g-root-ic_arro_1430gk614ammtl-stroke" data-item-order="0" transform="translate(266, 1226)"><g id="ic_arro_1430gk614ammtl-stroke" fill="none" stroke-linecap="round" stroke-linejoin="round" stroke-miterlimit="4" stroke="#fb6762" stroke-width="2"><g><path d="M 23.94796 22.671879L 20.273441 22.671879C 15.85516 22.671879 12.273439 26.253599 12.273439 30.671801L 12.273439 41.125C 12.273439 45.543201 15.85516 49.125 20.273441 49.125L 31.763201 49.125M 48.891201 33.711601C 52.620602 33.711601 55.7286 30.4484 55.7286 26.718941C 55.7286 22.9895 52.620602 19.88162 48.891201 19.88162C 47.492599 19.88162 46.0942 20.347801 45.006401 21.124779C 44.074001 16.307579 39.878403 12.57812 34.750401 12.57812C 29.000799 12.57812 24.183601 17.239941 24.183601 23.144901C 24.183601 29.04986 28.8454 33.711601 34.750401 33.711601L 48.891201 33.711601ZM 10 10M 41.109398 49.125L 55.726601 49.125M 10 10M 26.144541 42.828201L 32.4394 49.119202L 26.144541 55.4142M 10 10M 46.6954 55.421799L 40.399002 49.129398L 46.6954 42.833"></path></g></g></g><g id="g-root-tx_utilizef_dcc5hy14ah0xu-stroke" data-item-order="0" transform="translate(554, 410)"></g><g id="g-root-tx_versiona_1d1ru8m14al91j-stroke" data-item-order="0" transform="translate(554, 1214)"></g><g id="g-root-tx_7_qwju1i14abe9u-stroke" data-item-order="0" transform="translate(176, 1232)"></g><g id="g-root-tx_2_1lvizfa14aju2y-stroke" data-item-order="0" transform="translate(176, 392)"></g><g id="g-root-tx_usegitpa_1hjgrme14al79k-stroke" data-item-order="0" transform="translate(554, 1250)"></g><g id="g-root-tx_frontend_1ha37iu14agzcx-stroke" data-item-order="0" transform="translate(554, 374)"></g><g id="g-root-ic_scri_1d15gba14actfp-stroke" data-item-order="0" transform="translate(266, 1394)"><g id="ic_scri_1d15gba14actfp-stroke" fill="none" stroke-linecap="round" stroke-linejoin="round" stroke-miterlimit="4" stroke="#f366bb" stroke-width="2"><g><path d="M 13 11L 55 11C 55 11 57 11 57 13L 57 55C 57 55 57 57 55 57L 13 57C 13 57 11 57 11 55L 11 13C 11 13 11 11 13 11M 41 46C 41 48.761425 43.238575 51 46 51C 48.761425 51 51 48.761425 51 46C 51 43.240002 49 42 46 41C 43 40 41 38.760002 41 36C 41 33.238579 43.238575 31 46 31C 48.761425 31 51 33.238579 51 36M 24 31L 36 31M 30 31L 30 51"></path></g></g></g><g id="g-root-ic_2_v4v45y14ah0qr-stroke" data-item-order="0" transform="translate(266, 386)"><g id="ic_2_v4v45y14ah0qr-stroke" fill="none" stroke-linecap="round" stroke-linejoin="round" stroke-miterlimit="4" stroke="#1ac3fb" stroke-width="2"><g><path d="M 33 45C 33 51.627419 38.372581 57 45 57C 51.627419 57 57 51.627419 57 45C 57 38.372581 51.627419 33 45 33C 38.372581 33 33 38.372581 33 45M 48 50.200001C 46.143593 51.271797 43.856407 51.271797 42 50.200001M 45 33C 46.656857 33 48 34.343147 48 36C 48 37.656853 46.656857 39 45 39M 50.25 42C 50.664215 42 51 42.335789 51 42.75M 49.5 42.75C 49.5 42.335789 49.835789 42 50.25 42M 50.25 43.5C 49.835789 43.5 49.5 43.164215 49.5 42.75M 51 42.75C 51 43.164215 50.664215 43.5 50.25 43.5M 39.75 42C 40.164215 42 40.5 42.335789 40.5 42.75M 39 42.75C 39 42.335789 39.335785 42 39.75 42M 39.75 43.5C 39.335785 43.5 39 43.164215 39 42.75M 40.5 42.75C 40.5 43.164215 40.164215 43.5 39.75 43.5M 28.5 45L 15 45C 12.790861 45 11 43.209141 11 41L 11 15C 11 12.790861 12.790861 11 15 11L 45 11C 47.209141 11 49 12.790861 49 15L 49 29M 22.146 21.612L 17.864 25.982L 22.146 30.35M 37.129997 21.612L 41.412003 25.982L 37.129997 30.35M 26.997999 31.444L 31.368 21.612"></path></g></g></g><g id="g-root-tx_typescri_m8m5sm14acruz-stroke" data-item-order="0" transform="translate(554, 1382)"></g><g id="g-root-tx_8_13zw6ae14aifim-stroke" data-item-order="0" transform="translate(176, 1400)"></g><g id="g-root-tx_aprendah_4l2guu14acrnu-stroke" data-item-order="0" transform="translate(554, 242)"></g><g id="g-root-tx_adotetyp_18k300m14acs1w-stroke" data-item-order="0" transform="translate(554, 1418)"></g><g id="g-root-tx_fundamen_1uoo3bq14acu0x-stroke" data-item-order="0" transform="translate(554, 206)"></g><g id="g-root-ic_code_4mbf1214acttv-stroke" data-item-order="0" transform="translate(266, 218)"><g id="ic_code_4mbf1214acttv-stroke" fill="none" stroke-linecap="round" stroke-linejoin="round" stroke-miterlimit="4" stroke="#4f91fc" stroke-width="2"><g><path d="M 28.300039 18.17502L 28.300039 13.57502C 28.300039 12.37502 29.10004 11.575012 30.299999 11.575012L 49.5 11.575012C 49.900002 11.575012 50.5 11.775012 50.700001 11.975012L 55.5 15.975019C 55.900002 16.375019 56.299999 16.975019 56.299999 17.57502L 56.299999 42.575001C 56.299999 43.775002 55.5 44.575001 54.299999 44.575001L 39.299999 44.575001M 10 10M 36.299999 19.974979L 33.299999 22.974979L 36.299999 25.974979M 10 10M 48.299999 19.974979L 51.299999 22.974979L 48.299999 25.974979M 10 10M 40.299999 26.97504L 44.299999 17.97504M 37.099998 56.424999C 35.299999 51.224998 30.299999 47.424999 24.49996 47.424999C 18.699959 47.424999 13.49996 51.224998 11.699952 56.424999M 24.299999 29.42498L 24.299999 23.42498M 13.2998 35.224998L 35.299801 35.224998M 16.0998 37.424999C 16.299801 41.825001 19.899799 45.424999 24.299801 45.424999C 28.899799 45.424999 32.499802 41.825001 32.499802 37.224998L 32.499802 33.625C 32.499802 29.024981 28.899799 25.42498 24.299801 25.42498C 19.899799 25.42498 16.299801 29.024981 16.0998 33.424999L 16.0998 37.424999Z"></path></g></g></g><g id="g-root-tx_graphql_hvak0m14aidqn-stroke" data-item-order="0" transform="translate(554, 1550)"></g><g id="g-root-tx_9_92rx7a14as9vm-stroke" data-item-order="0" transform="translate(176, 1580)"></g><g id="g-root-ic_q_zp2guu14aifpl-stroke" data-item-order="0" transform="translate(266, 1574)"><g id="ic_q_zp2guu14aifpl-stroke" fill="none" stroke-linecap="round" stroke-linejoin="round" stroke-miterlimit="4" stroke="#cb68f9" stroke-width="2"><g><path d="M 49.759998 47.186001C 56.936928 38.941833 56.528912 26.554605 48.825024 18.800594C 41.121136 11.046584 28.736811 10.558243 20.446278 17.681557C 12.155745 24.804871 10.773596 37.121513 17.279078 45.905205C 23.784557 54.688896 35.969093 56.957623 45.200001 51.104L 48.880001 54.784C 50.055317 55.943993 51.944683 55.943993 53.119999 54.783997C 53.686127 54.224213 54.004711 53.461159 54.004711 52.665001C 54.004711 51.868847 53.686127 51.105793 53.120003 50.546001ZM 34 48.346001C 25.715731 48.346001 19.000002 41.630272 19.000002 33.346001C 19.000002 25.061729 25.715731 18.346003 34 18.346001C 42.284271 18.346001 49 25.061729 49.000004 33.346001C 49.01075 36.856667 47.77787 40.257706 45.52 42.946003L 41.799999 39.225998C 41.239868 38.65976 40.476486 38.341125 39.68 38.341125C 38.883522 38.341125 38.120136 38.65976 37.560001 39.226002C 36.400005 40.401314 36.400005 42.29068 37.559998 43.466L 40.799999 46.706001C 38.698952 47.793571 36.365822 48.35627 34 48.346001ZM 49 33.346001C 49.01075 36.856667 47.77787 40.257706 45.52 42.946003L 41.799999 39.225998C 41.239868 38.65976 40.476486 38.341125 39.68 38.341125C 38.883522 38.341125 38.120136 38.65976 37.560001 39.226002C 36.400005 40.401314 36.400005 42.29068 37.559998 43.466L 40.799999 46.706001C 38.698952 47.793571 36.365822 48.35627 34 48.346001C 25.715731 48.346001 19.000002 41.630272 19.000002 33.346001C 19.000002 25.061729 25.715731 18.346003 34 18.346001C 42.284271 18.346001 49 25.061729 49.000004 33.346001Z"></path></g></g></g><g id="g-root-tx_roteirod_1cw54nq14acu80-stroke" data-item-order="0" transform="translate(206, 38)"></g><g id="g-root-tx_exploreg_dgq02e14aigow-stroke" data-item-order="0" transform="translate(554, 1586)"></g><g id="g-root-tx_1_zrju8m14afkzk-stroke" data-item-order="0" transform="translate(176, 224)"></g></g></g></svg>