<?xml version="1.0" encoding="utf-8" standalone="yes"?>
<!DOCTYPE svg PUBLIC "-//W3C//DTD SVG 1.1//EN" "http://www.w3.org/Graphics/SVG/1.1/DTD/svg11.dtd">
<svg width="983" height="468" viewBox="0 0 983 468" style="fill:none;stroke:none;fill-rule:evenodd;clip-rule:evenodd;stroke-linecap:round;stroke-linejoin:round;stroke-miterlimit:1.5;" version="1.1" xmlns="http://www.w3.org/2000/svg" xmlns:xlink="http://www.w3.org/1999/xlink"><style class="text-font-style fontImports" data-font-family="Roboto">@import url('https://fonts.googleapis.com/css2?family=Roboto:wght@400;700&amp;display=block');</style><g id="items" style="isolation: isolate"><g id="blend" style="mix-blend-mode: normal"><g id="g-root-cp_1_g-1_18n6eoq17mgbgj-fill" data-item-order="10999607312" transform="translate(38, 62)"><g id="cp_1_g-1_18n6eoq17mgbgj-fill" stroke="none" fill="#ffe711"><g><path d="M 10 10L 214 10L 214 202L 10 202Z"></path></g></g></g><g id="g-root-cp_2_g-2_958usa17mgc99-fill" data-item-order="10999607320" transform="translate(266, 62)"><g id="cp_2_g-2_958usa17mgc99-fill" stroke="none" fill="#f79438"><g><path d="M 10 10L 214 10L 214 202L 10 202Z"></path></g></g></g><g id="g-root-cp_3_g-3_13ym9cq17mhs7j-fill" data-item-order="10999607328" transform="translate(494, 62)"><g id="cp_3_g-3_13ym9cq17mhs7j-fill" stroke="none" fill="#fb6762"><g><path d="M 10 10L 214 10L 214 202L 10 202Z"></path></g></g></g><g id="g-root-cp_4_g-4_m7ypy217mhrex-fill" data-item-order="10999607336" transform="translate(722, 62)"><g id="cp_4_g-4_m7ypy217mhrex-fill" stroke="none" fill="#f366bb"><g><path d="M 10 10L 214 10L 214 202L 10 202Z"></path></g></g></g><g id="g-root-cp_1_g-1_1_4hb6je17mhqmb-fill" data-item-order="10999607346" transform="translate(38, 254)"><g id="cp_1_g-1_1_4hb6je17mhqmb-fill" stroke="none" fill="#ffe711"><g><path d="M 10 10L 214 10L 214 34L 10 34ZM 10 34L 214 34L 214 154L 10 154ZM 10 154L 214 154L 214 178L 10 178Z"></path></g></g></g><g id="g-root-cp_2_g-2_1_1hbbpwa17mhsss-fill" data-item-order="10999607362" transform="translate(266, 254)"><g id="cp_2_g-2_1_1hbbpwa17mhsss-fill" stroke="none" fill="#f79438"><g><path d="M 10 10L 214 10L 214 34L 10 34ZM 10 34L 214 34L 214 154L 10 154ZM 10 154L 214 154L 214 178L 10 178Z"></path></g></g></g><g id="g-root-cp_3_g-3_1_de74yi17mhr7x-fill" data-item-order="10999607378" transform="translate(494, 254)"><g id="cp_3_g-3_1_de74yi17mhr7x-fill" stroke="none" fill="#fb6762"><g><path d="M 10 10L 214 10L 214 34L 10 34ZM 10 34L 214 34L 214 154L 10 154ZM 10 154L 214 154L 214 178L 10 178Z"></path></g></g></g><g id="g-root-cp_4_g-4_1_1uonniy17mhq86-fill" data-item-order="10999607394" transform="translate(722, 254)"><g id="cp_4_g-4_1_1uonniy17mhq86-fill" stroke="none" fill="#f366bb"><g><path d="M 10 10L 214 10L 214 34L 10 34ZM 10 34L 214 34L 214 154L 10 154ZM 10 154L 214 154L 214 178L 10 178Z"></path></g></g></g><g id="g-root-ic_5_1luw2je17mhq14-fill" data-item-order="10999985600" transform="translate(80, 98)"><g id="ic_5_1luw2je17mhq14-fill" stroke="none" fill="#f4f4f4"><g><path d="M 130 107.5C 130 103.357864 126.642143 100 122.5 100L 118.75 100C 118.059647 100 117.5 99.440353 117.5 98.75L 117.5 72.5C 117.5 66.97715 113.02285 62.5 107.5 62.5L 76.25 62.5C 75.559647 62.5 75 61.940353 75 61.25L 75 36.25C 75 35.559647 75.559647 35 76.25 35L 102.5 35C 106.642143 35 110 31.642136 110 27.5L 110 17.5C 110 13.357864 106.642143 10 102.5 10L 37.5 10C 33.357864 10 30 13.357864 30 17.5L 30 27.5C 30 31.642136 33.357864 35 37.5 35L 63.75 35C 64.440353 35 65 35.559647 65 36.25L 65 61.25C 65 61.940353 64.440353 62.5 63.75 62.5L 32.5 62.5C 26.977154 62.5 22.5 66.97715 22.5 72.5L 22.5 98.75C 22.5 99.440353 21.940357 100 21.25 100L 17.5 100C 13.357864 100 10 103.357864 10 107.5L 10 122.5C 10 126.642143 13.357864 130 17.5 130L 32.5 130C 36.642136 130 40 126.642143 40 122.5L 40 107.5C 40.015202 103.743523 37.266422 100.547272 33.549999 100C 32.946426 99.923973 32.495228 99.408325 32.499996 98.799988L 32.5 73.800003C 32.5 73.10965 33.059647 72.550003 33.75 72.550003L 63.75 72.550003C 64.440353 72.550003 65 73.10965 65 73.800003L 65 98.800003C 65 99.490356 64.440353 100.050003 63.75 100.050003L 62.5 100.050003C 58.377312 100.049911 55.027485 103.377411 55 107.5L 55 122.5C 55 126.642143 58.357864 130 62.5 130L 77.5 130C 81.642136 130 85 126.642143 85 122.5L 85 107.5C 85 103.357864 81.642136 100 77.5 100L 76.25 100C 75.559647 100 75 99.440353 75 98.75L 75 73.75C 75 73.059647 75.559647 72.5 76.25 72.5L 106.25 72.5C 106.940353 72.5 107.5 73.059647 107.5 73.75L 107.5 98.75C 107.504761 99.358322 107.053566 99.87397 106.449997 99.949997C 102.71463 100.499878 99.959747 103.724586 100 107.5L 100 122.5C 100 126.642143 103.357864 130 107.5 130L 122.5 130C 126.642143 130 130 126.642143 130 122.5Z"></path></g></g></g><g id="g-root-ic_flag_qunj6i17m3pja-fill" data-item-order="10999985600" transform="translate(308, 98)"><g id="ic_flag_qunj6i17m3pja-fill" stroke="none" fill="#f4f4f4"><g><path d="M 79 125C 79 127.761421 81.238571 130 84 130C 86.761421 130 89 127.761421 89 125L 89 107.050003C 89.014427 106.526451 89.353722 106.067398 89.849998 105.900002L 90.25 105.900002C 94.451157 104.459106 99.086227 105.089485 102.75 107.600006C 106.323578 110.013512 110.537758 111.302147 114.850006 111.300003C 117.355721 111.283638 119.840683 110.844116 122.200005 110L 126.850006 107.849998C 128.184845 107.244095 129.044266 105.915924 129.050003 104.450005L 129.050003 76.950005C 129.026764 75.674736 128.365295 74.496201 127.288818 73.81208C 126.212341 73.12796 124.864441 73.029526 123.699997 73.550003L 119.399994 75.549995C 115.215286 76.990295 110.59539 76.359467 106.949997 73.849998C 101.333145 70.062721 94.274818 69.101906 87.850006 71.25L 81.5 73.400002C 79.976944 73.914429 78.95121 75.342415 78.949997 76.950005ZM 67.300003 106.099998C 66.65847 103.893707 64.595856 102.408615 62.299999 102.5L 25 102.5C 22.238577 102.5 20 100.261421 20 97.5L 20 36.25C 20 35.559647 20.559643 35 21.25 35L 118.75 35C 119.440353 35 120 35.559647 120 36.25L 120 55C 120.019066 56.529881 120.737534 57.96682 121.949997 58.899998C 123.450813 60.055573 125.475754 60.263866 127.180374 59.438023C 128.88501 58.612175 129.976624 56.893997 130 55L 130 25C 130 16.715729 123.284271 10 115 10L 25 10C 16.715729 10 10 16.715729 10 25L 10 97.5C 10 105.784271 16.715729 112.5 25 112.5L 62.600002 112.5C 64.174133 112.550217 65.679916 111.855835 66.663773 110.626022C 67.647621 109.396202 67.99453 107.774719 67.600006 106.25ZM 58.25 20C 59.161697 18.528915 60.76931 17.633913 62.5 17.633913C 64.23069 17.633913 65.838303 18.528915 66.75 20C 67.74781 21.517324 67.74781 23.482677 66.750008 25.000002C 65.838303 26.471085 64.23069 27.366087 62.5 27.366087C 60.76931 27.366087 59.161697 26.471085 58.25 25C 57.252197 23.482677 57.252197 21.517324 58.250004 20.000002ZM 40.75 20C 41.661697 18.528915 43.269314 17.633913 45 17.633913C 46.730686 17.633913 48.338303 18.528915 49.25 20C 50.24781 21.517324 50.24781 23.482677 49.25 25.000002C 48.338303 26.471085 46.730686 27.366087 45 27.366087C 43.269314 27.366087 41.661697 26.471085 40.75 25C 39.752193 23.482677 39.752193 21.517324 40.750004 20.000002ZM 22.949999 20.449999C 23.736933 18.784575 25.375809 17.686695 27.215389 17.592625C 29.05497 17.498556 30.797289 18.423534 31.75 20C 32.74781 21.517324 32.74781 23.482677 31.750002 25.000002C 30.838303 26.471085 29.230688 27.366087 27.5 27.366087C 25.769312 27.366087 24.161697 26.471085 23.25 25C 22.783068 24.247766 22.524248 23.385038 22.5 22.5C 22.519463 21.794413 22.672144 21.098866 22.949999 20.449999Z"></path></g></g></g><g id="g-root-ic_1_1q6cc7u17m9d6s-fill" data-item-order="10999985600" transform="translate(536, 98)"><g id="ic_1_1q6cc7u17m9d6s-fill" stroke="none" fill="#f4f4f4"><g><path d="M 63.200001 38.099998C 63.200001 37.409645 62.640358 36.849998 61.950001 36.849998L 53.449997 36.849998C 51.521446 36.751175 49.822197 35.550613 49.084785 33.765865C 48.347374 31.981121 48.703644 29.931276 50 28.5L 67.099998 11.45C 69.031494 9.608729 72.068512 9.608729 74 11.45L 91.049995 28.5C 92.346359 29.931276 92.702629 31.981121 91.965218 33.765865C 91.227798 35.550613 89.528557 36.751175 87.600006 36.849998L 79.099998 36.849998C 78.409645 36.849998 77.849998 37.409645 77.849998 38.099998L 77.849998 59C 77.534836 62.811447 74.349457 65.744301 70.525002 65.744301C 66.700546 65.744301 63.515167 62.811447 63.200001 59ZM 115 80L 25 80C 16.715729 80 10 86.715729 10 95L 10 115C 10 123.284271 16.715729 130 25 130L 115 130C 123.284271 130 130 123.284271 130 115L 130 95C 130 86.715729 123.284271 80 115 80ZM 33.75 105.550003C 33.776928 103.490189 35.440189 101.826927 37.5 101.799995L 55 101.800003C 57.071072 101.800003 58.75 103.478935 58.75 105.550003C 58.75 107.621071 57.071072 109.300003 55 109.300003L 37.5 109.300003C 35.440189 109.273071 33.776928 107.609802 33.75 105.549995ZM 105 112.5C 100.857864 112.5 97.5 109.142143 97.5 105C 97.5 100.857864 100.857864 97.5 105 97.5C 109.142143 97.5 112.5 100.857864 112.5 105C 112.5 109.142143 109.142143 112.5 105 112.5Z"></path></g></g></g><g id="g-root-ic_sync_1utnjdm17mdkaq-fill" data-item-order="10999985600" transform="translate(764, 98)"><g id="ic_sync_1utnjdm17mdkaq-fill" stroke="none" fill="#f4f4f4"><g><path d="M 64.5 16.549999C 63.734428 16.019806 62.740711 15.949104 61.907784 16.365568C 61.07486 16.782032 60.535187 17.619423 60.499996 18.549999L 60.5 20C 60.5 20.690357 59.940357 21.25 59.25 21.25L 50.5 21.25C 42.215729 21.25 35.5 27.965729 35.5 36.25L 35.5 43.75C 35.5 44.440353 34.940353 45 34.25 45L 33 45C 32.069424 45.035187 31.232033 45.574856 30.815567 46.407784C 30.399103 47.240711 30.469807 48.234425 31 49L 38.5 59C 38.97718 59.623444 39.714939 59.992325 40.5 60C 41.29071 60.01656 42.038822 59.642506 42.499996 58.999996L 50 49C 50.576893 48.253719 50.674118 47.242531 50.25 46.400002C 49.820408 45.549667 48.952637 45.009724 48 45L 46.75 45C 46.059643 45 45.5 44.440353 45.5 43.75L 45.5 36.049999C 45.5 33.288578 47.738575 31.049999 50.5 31.049999L 59.25 31.049999C 59.940357 31.049999 60.5 31.609646 60.5 32.299999L 60.5 33.549999C 60.509724 34.502636 61.049671 35.370407 61.900002 35.799999C 62.26342 35.868965 62.636574 35.868965 62.999996 35.799999C 63.542744 35.811592 64.072762 35.634918 64.5 35.299999L 74.5 27.799999C 75.142502 27.338823 75.516556 26.590712 75.5 25.799999C 75.492317 25.014938 75.123436 24.27718 74.5 23.799999ZM 12.2 76.350006L 12.2 105C 12.19383 107.099075 13.085431 109.100632 14.65 110.5C 16.529278 112.726784 19.286324 114.02314 22.200001 114.049995L 35.950001 114.049995C 36.640354 114.049995 37.200001 114.609642 37.200001 115.299995L 37.200001 117.799995C 37.200001 118.490356 36.640354 119.049995 35.950001 119.049995L 29.700001 119.049995C 26.938576 119.049995 24.700001 121.288574 24.700001 124.049995C 24.700001 126.811432 26.938576 129.050003 29.700001 129.050003L 54.699997 129.050003C 57.461426 129.050003 59.699997 126.811432 59.699997 124.049995C 59.699997 121.288574 57.461426 119.049995 54.699997 119.049995L 48.450001 119.049995C 47.759644 119.049995 47.200001 118.490356 47.200001 117.799995L 47.200001 115C 47.200001 114.309647 47.759644 113.75 48.450001 113.75L 62.199997 113.75C 65.184647 113.822014 68.045357 112.556694 70 110.299995C 71.53054 108.880547 72.400253 106.887436 72.400002 104.800003L 72.399994 76.350006C 72.399994 70.827148 67.922852 66.350006 62.399998 66.350006L 22.4 66.350006C 19.713354 66.296257 17.11813 67.32605 15.199286 69.207275C 13.280441 71.088493 12.199463 73.662811 12.2 76.350006ZM 60.949997 98.850006L 23.450001 98.850006C 22.759644 98.850006 22.200001 98.290359 22.200001 97.600006L 22.200001 77.600006C 22.200001 76.909645 22.759644 76.350006 23.450001 76.350006L 60.949997 76.350006C 61.640358 76.350006 62.199997 76.909645 62.199997 77.600006L 62.199997 97.600006C 62.199997 98.290359 61.640358 98.850006 60.949997 98.850006ZM 127.799995 50C 127.801247 49.541935 127.551849 49.119869 127.150002 48.900002C 126.754189 48.644947 126.245796 48.644947 125.849991 48.899998C 120.561462 51.985012 114.520912 53.542747 108.400002 53.400002C 102.26281 53.546795 96.205101 51.989098 90.900002 48.900002C 90.504189 48.644947 89.995796 48.644947 89.599998 48.899998C 89.198151 49.119869 88.948753 49.541935 88.949997 50L 88.949997 56.149998C 88.949997 60.849998 96.949997 66.149994 108.400002 66.149994C 119.849998 66.149994 127.799995 61.149998 127.799995 56.149998ZM 88.949997 38.599998C 88.949997 43.299999 96.949997 48.599998 108.400002 48.599998C 119.849998 48.599998 127.799995 43.599998 127.799995 38.599998L 127.799995 32.550003C 127.790894 32.094807 127.544327 31.677549 127.149994 31.449997C 126.745193 31.227623 126.254807 31.227623 125.849998 31.450001C 120.561462 34.535011 114.520912 36.092751 108.400002 35.950001C 102.26281 36.096794 96.205101 34.539097 90.900002 31.450001C 90.495193 31.227623 90.004807 31.227623 89.599998 31.450001C 89.205658 31.677549 88.959091 32.094807 88.949997 32.549999ZM 88.949997 21.1C 88.949997 25.75 96.949997 31.099998 108.400002 31.099998C 119.849998 31.099998 127.799995 25.85 127.799995 21.1C 127.799995 16.35 119.799995 11.1 108.400002 11.1C 97 11.1 88.949997 16.4 88.949997 21.1Z"></path></g></g></g><g id="g-root-tx_gitegith_qp1cka17mgc93-fill" data-item-order="11000000000" transform="translate(80, 278)"><g id="tx_gitegith_qp1cka17mgc93-fill" stroke="none" fill="#2c2c2c"><g><text style="font: bold 20px Roboto, sans-serif; white-space: pre;" font-weight="bold" font-size="20px" font-family="Roboto, sans-serif"><tspan x="15.64" y="33.75" dominant-baseline="ideographic">Git e GitHub</tspan></text></g></g></g><g id="g-root-tx_implanta_3zr2y17mgef5-fill" data-item-order="11000000000" transform="translate(320, 278)"><g id="tx_implanta_3zr2y17mgef5-fill" stroke="none" fill="#2c2c2c"><g><text style="font: bold 20px Roboto, sans-serif; white-space: pre;" font-weight="bold" font-size="20px" font-family="Roboto, sans-serif"><tspan x="12.3" y="33.75" dominant-baseline="ideographic">Implantar </tspan><tspan x="15.36" y="57.75" dominant-baseline="ideographic">Frontend</tspan></text></g></g></g><g id="g-root-tx_implanta_1hgbowq17mgbnv-fill" data-item-order="11000000000" transform="translate(548, 278)"><g id="tx_implanta_1hgbowq17mgbnv-fill" stroke="none" fill="#2c2c2c"><g><text style="font: bold 20px Roboto, sans-serif; white-space: pre;" font-weight="bold" font-size="20px" font-family="Roboto, sans-serif"><tspan x="12.3" y="33.75" dominant-baseline="ideographic">Implantar </tspan><tspan x="16.69" y="57.75" dominant-baseline="ideographic">Backend</tspan></text></g></g></g><g id="g-root-tx_bancoded_qva3fe17mgdtx-fill" data-item-order="11000000000" transform="translate(746, 278)"><g id="tx_bancoded_qva3fe17mgdtx-fill" stroke="none" fill="#2c2c2c"><g><text style="font: bold 20px Roboto, sans-serif; white-space: pre;" font-weight="bold" font-size="20px" font-family="Roboto, sans-serif"><tspan x="16.41" y="33.75" dominant-baseline="ideographic">Banco de dados</tspan></text></g></g></g><g id="g-root-tx_ferramen_18hkb8a17mgc20-fill" data-item-order="11000000000" transform="translate(68, 314)"><g id="tx_ferramen_18hkb8a17mgc20-fill" stroke="none" fill="#2c2c2c"><g><text style="font: 15px Roboto, sans-serif; white-space: pre;" font-size="15px" font-family="Roboto, sans-serif"><tspan x="21.35" y="30.49" dominant-baseline="ideographic">Ferramentas para </tspan><tspan x="12.69" y="48.5" dominant-baseline="ideographic">controle de versão e </tspan><tspan x="36.79" y="66.51" dominant-baseline="ideographic">colaboração.</tspan></text></g></g></g><g id="g-root-tx_serviosd_1qegli217mgefi-fill" data-item-order="11000000000" transform="translate(770, 314)"><g id="tx_serviosd_1qegli217mgefi-fill" stroke="none" fill="#2c2c2c"><g><text style="font: 15px Roboto, sans-serif; white-space: pre;" font-size="15px" font-family="Roboto, sans-serif"><tspan x="19.78" y="27.5" dominant-baseline="ideographic">ElephantSQL, </tspan><tspan x="12.03" y="45.5" dominant-baseline="ideographic">MongoDB Atlas</tspan></text></g></g></g><g id="g-root-tx_platafor_mcc7ve17mgdfu-fill" data-item-order="11000000000" transform="translate(320, 338)"><g id="tx_platafor_mcc7ve17mgdfu-fill" stroke="none" fill="#2c2c2c"><g><text style="font: 15px Roboto, sans-serif; white-space: pre;" font-size="15px" font-family="Roboto, sans-serif"><tspan x="12.29" y="30.5" dominant-baseline="ideographic">Vercel, Netlify</tspan></text></g></g></g><g id="g-root-tx_platafor_7qllm17mgbnw-fill" data-item-order="11000000000" transform="translate(536, 338)"><g id="tx_platafor_7qllm17mgbnw-fill" stroke="none" fill="#2c2c2c"><g><text style="font: 15px Roboto, sans-serif; white-space: pre;" font-size="15px" font-family="Roboto, sans-serif"><tspan x="15.12" y="27.5" dominant-baseline="ideographic">Render, Railway, </tspan><tspan x="44.12" y="45.5" dominant-baseline="ideographic">Heroku</tspan></text></g></g></g><g id="g-root-cp_1_g-1_18n6eoq17mgbgj-stroke" data-item-order="10999607312" transform="translate(38, 62)"><g id="cp_1_g-1_18n6eoq17mgbgj-stroke" fill="none" stroke-linecap="round" stroke-linejoin="round" stroke-miterlimit="4" stroke="#2c2c2c" stroke-width="2"><g><path d="M 23 201L 201 201"></path></g></g></g><g id="g-root-cp_2_g-2_958usa17mgc99-stroke" data-item-order="10999607320" transform="translate(266, 62)"><g id="cp_2_g-2_958usa17mgc99-stroke" fill="none" stroke-linecap="round" stroke-linejoin="round" stroke-miterlimit="4" stroke="#2c2c2c" stroke-width="2"><g><path d="M 23 201L 201 201"></path></g></g></g><g id="g-root-cp_3_g-3_13ym9cq17mhs7j-stroke" data-item-order="10999607328" transform="translate(494, 62)"><g id="cp_3_g-3_13ym9cq17mhs7j-stroke" fill="none" stroke-linecap="round" stroke-linejoin="round" stroke-miterlimit="4" stroke="#2c2c2c" stroke-width="2"><g><path d="M 23 201L 201 201"></path></g></g></g><g id="g-root-cp_4_g-4_m7ypy217mhrex-stroke" data-item-order="10999607336" transform="translate(722, 62)"><g id="cp_4_g-4_m7ypy217mhrex-stroke" fill="none" stroke-linecap="round" stroke-linejoin="round" stroke-miterlimit="4" stroke="#2c2c2c" stroke-width="2"><g><path d="M 23 201L 201 201"></path></g></g></g><g id="g-root-cp_1_g-1_1_4hb6je17mhqmb-stroke" data-item-order="10999607346" transform="translate(38, 254)"></g><g id="g-root-cp_2_g-2_1_1hbbpwa17mhsss-stroke" data-item-order="10999607362" transform="translate(266, 254)"></g><g id="g-root-cp_3_g-3_1_de74yi17mhr7x-stroke" data-item-order="10999607378" transform="translate(494, 254)"></g><g id="g-root-cp_4_g-4_1_1uonniy17mhq86-stroke" data-item-order="10999607394" transform="translate(722, 254)"></g><g id="g-root-ic_5_1luw2je17mhq14-stroke" data-item-order="10999985600" transform="translate(80, 98)"></g><g id="g-root-ic_flag_qunj6i17m3pja-stroke" data-item-order="10999985600" transform="translate(308, 98)"></g><g id="g-root-ic_1_1q6cc7u17m9d6s-stroke" data-item-order="10999985600" transform="translate(536, 98)"></g><g id="g-root-ic_sync_1utnjdm17mdkaq-stroke" data-item-order="10999985600" transform="translate(764, 98)"></g><g id="g-root-tx_gitegith_qp1cka17mgc93-stroke" data-item-order="11000000000" transform="translate(80, 278)"></g><g id="g-root-tx_implanta_3zr2y17mgef5-stroke" data-item-order="11000000000" transform="translate(320, 278)"></g><g id="g-root-tx_implanta_1hgbowq17mgbnv-stroke" data-item-order="11000000000" transform="translate(548, 278)"></g><g id="g-root-tx_bancoded_qva3fe17mgdtx-stroke" data-item-order="11000000000" transform="translate(746, 278)"></g><g id="g-root-tx_ferramen_18hkb8a17mgc20-stroke" data-item-order="11000000000" transform="translate(68, 314)"></g><g id="g-root-tx_serviosd_1qegli217mgefi-stroke" data-item-order="11000000000" transform="translate(770, 314)"></g><g id="g-root-tx_platafor_mcc7ve17mgdfu-stroke" data-item-order="11000000000" transform="translate(320, 338)"></g><g id="g-root-tx_platafor_7qllm17mgbnw-stroke" data-item-order="11000000000" transform="translate(536, 338)"></g></g></g></svg>