<?xml version="1.0" encoding="utf-8" standalone="yes"?>
<!DOCTYPE svg PUBLIC "-//W3C//DTD SVG 1.1//EN" "http://www.w3.org/Graphics/SVG/1.1/DTD/svg11.dtd">
<svg width="744" height="640" viewBox="0 0 744 640" style="fill:none;stroke:none;fill-rule:evenodd;clip-rule:evenodd;stroke-linecap:round;stroke-linejoin:round;stroke-miterlimit:1.5;" version="1.1" xmlns="http://www.w3.org/2000/svg" xmlns:xlink="http://www.w3.org/1999/xlink"><style class="text-font-style fontImports" data-font-family="Roboto">@import url('https://fonts.googleapis.com/css2?family=Roboto:wght@400;700&amp;display=block');</style><g id="items" style="isolation: isolate"><g id="blend" style="mix-blend-mode: normal"><g id="g-root-sy_0_cu_zitt6217mnea2-fill" data-item-order="12999939858" transform="translate(305.999755859375, 216.6865234375)"><g id="sy_0_cu_zitt6217mnea2-fill" stroke="none" fill="#e8e8e8"><g><path d="M 54.78 406.78L 60.38 409.98L 61.98 405.18L 66 409.18L 70.02 405.18L 71.62 409.98L 77.22 406.78L 122 346L 94 358L 38 358L 10 346L 54.78 406.78ZM 94 298L 38 298L 10 310L 38 322L 94 322L 122 310L 94 298ZM 66 314.8C 54.95 314.8 46 312.65 46 310C 46 307.35 54.95 305.2 66 305.2C 77.05 305.2 86 307.35 86 310C 86 312.65 77.05 314.8 66 314.8ZM 94 226L 38 226L 10 238L 38 250L 94 250L 122 238L 94 226ZM 66 242.8C 54.95 242.8 46 240.65 46 238C 46 235.35 54.95 233.2 66 233.2C 77.05 233.2 86 235.35 86 238C 86 240.65 77.05 242.8 66 242.8ZM 94 154L 38 154L 10 166L 38 178L 94 178L 122 166L 94 154ZM 66 170.8C 54.95 170.8 46 168.65 46 166C 46 163.35 54.95 161.2 66 161.2C 77.05 161.2 86 163.35 86 166C 86 168.65 77.05 170.8 66 170.8ZM 94 82L 38 82L 10 94L 38 106L 94 106L 122 94L 94 82ZM 66 98.8C 54.95 98.8 46 96.65 46 94C 46 91.35 54.95 89.2 66 89.2C 77.05 89.2 86 91.35 86 94C 86 96.65 77.05 98.8 66 98.8ZM 94 10L 38 10L 10 22L 38 34L 94 34L 122 22L 94 10ZM 66 26.8C 54.95 26.8 46 24.65 46 22C 46 19.35 54.95 17.2 66 17.2C 77.05 17.2 86 19.35 86 22C 86 24.65 77.05 26.8 66 26.8Z"></path></g></g></g><g id="g-root-sy_0_cu_1_1cvj9pm17mnev7-fill" data-item-order="12999939860" transform="translate(306, 124.6865234375)"><g id="sy_0_cu_1_1cvj9pm17mnev7-fill" stroke="none" fill="#e8e8e8"><g><path d="M 54.779785 498.780176L 60.379785 501.980176L 61.979785 497.180176L 65.999785 501.180176L 70.019785 497.180176L 71.619785 501.980176L 77.219785 498.780176L 65.999785 514.000176L 54.779785 498.780176ZM 65.999756 406.800195C 77.045456 406.800195 85.999756 404.651195 85.999756 402.000195C 85.999756 399.349195 77.045456 397.200195 65.999756 397.200195C 54.954056 397.200195 45.999756 399.349195 45.999756 402.000195C 45.999756 404.651195 54.954056 406.800195 65.999756 406.800195ZM 65.999756 334.800195C 77.045456 334.800195 85.999756 332.651195 85.999756 330.000195C 85.999756 327.349195 77.045456 325.200195 65.999756 325.200195C 54.954056 325.200195 45.999756 327.349195 45.999756 330.000195C 45.999756 332.651195 54.954056 334.800195 65.999756 334.800195ZM 65.999756 262.800195C 77.045456 262.800195 85.999756 260.651195 85.999756 258.000195C 85.999756 255.349195 77.045456 253.200195 65.999756 253.200195C 54.954056 253.200195 45.999756 255.349195 45.999756 258.000195C 45.999756 260.651195 54.954056 262.800195 65.999756 262.800195ZM 65.999756 190.800195C 77.045456 190.800195 85.999756 188.651195 85.999756 186.000195C 85.999756 183.349195 77.045456 181.200195 65.999756 181.200195C 54.954056 181.200195 45.999756 183.349195 45.999756 186.000195C 45.999756 188.651195 54.954056 190.800195 65.999756 190.800195ZM 65.999756 118.800195C 77.045456 118.800195 85.999756 116.651195 85.999756 114.000195C 85.999756 111.349195 77.045456 109.200195 65.999756 109.200195C 54.954056 109.200195 45.999756 111.349195 45.999756 114.000195C 45.999756 116.651195 54.954056 118.800195 65.999756 118.800195ZM 10 34L 38 46L 94 46L 122 34L 122 42L 94 54L 38 54L 10 42L 10 34ZM 10 26L 38 38L 94 38L 122 26L 122 34L 94 46L 38 46L 10 34L 10 26ZM 10 26L 38 38L 94 38L 122 26L 122 10L 94 22L 38 22L 10 10L 10 26Z"></path></g></g></g><g id="g-root-sy_6_cu_m98q2217mnev8-fill" data-item-order="12999939864" transform="translate(389.999755859375, 516.6865234375)"><g id="sy_6_cu_m98q2217mnev8-fill" stroke="none" fill="#fb6762"><g><path d="M 10 58L 38 46L 38 10L 10 22L 10 58Z"></path></g></g></g><g id="g-root-sy_6_cu_1_8yeoru17mndad-fill" data-item-order="12999939866" transform="translate(333.999755859375, 528.6865234375)"><g id="sy_6_cu_1_8yeoru17mndad-fill" stroke="none" fill="#fb6762"><g><path d="M 66 10L 10 10L 10 46L 66 46L 66 10Z"></path></g></g></g><g id="g-root-sy_6_cu_2_1lt1p7u17mncb2-fill" data-item-order="12999939868" transform="translate(305.999755859375, 516.6865234375)"><g id="sy_6_cu_2_1lt1p7u17mncb2-fill" stroke="none" fill="#fb6762"><g><path d="M 38 22L 10 10L 10 46L 38 58L 38 22Z"></path></g></g></g><g id="g-root-sy_5_cu_v6r5ka17mncb3-fill" data-item-order="12999939872" transform="translate(389.999755859375, 444.6865234375)"><g id="sy_5_cu_v6r5ka17mncb3-fill" stroke="none" fill="#f79438"><g><path d="M 10 58L 38 46L 38 10L 10 22L 10 58Z"></path></g></g></g><g id="g-root-sy_5_cu_1_dfh52i17mneo8-fill" data-item-order="12999939874" transform="translate(333.999755859375, 456.6865234375)"><g id="sy_5_cu_1_dfh52i17mneo8-fill" stroke="none" fill="#f79438"><g><path d="M 66 10L 10 10L 10 46L 66 46L 66 10Z"></path></g></g></g><g id="g-root-sy_5_cu_2_4n3sa17mnd3d-fill" data-item-order="12999939876" transform="translate(305.999755859375, 444.6865234375)"><g id="sy_5_cu_2_4n3sa17mnd3d-fill" stroke="none" fill="#f79438"><g><path d="M 38 22L 10 10L 10 46L 38 58L 38 22Z"></path></g></g></g><g id="g-root-sy_4_cu_1heh59m17mnf9e-fill" data-item-order="12999939880" transform="translate(389.999755859375, 372.6865234375)"><g id="sy_4_cu_1heh59m17mnf9e-fill" stroke="none" fill="#ffe711"><g><path d="M 10 58L 38 46L 38 10L 10 22L 10 58Z"></path></g></g></g><g id="g-root-sy_4_cu_1_1d2ehnu17mndab-fill" data-item-order="12999939882" transform="translate(333.999755859375, 384.6865234375)"><g id="sy_4_cu_1_1d2ehnu17mndab-fill" stroke="none" fill="#ffe711"><g><path d="M 66 10L 10 10L 10 46L 66 46L 66 10Z"></path></g></g></g><g id="g-root-sy_4_cu_2_mg3y0a17mndac-fill" data-item-order="12999939884" transform="translate(305.999755859375, 372.6865234375)"><g id="sy_4_cu_2_mg3y0a17mndac-fill" stroke="none" fill="#ffe711"><g><path d="M 38 22L 10 10L 10 46L 38 58L 38 22Z"></path></g></g></g><g id="g-root-sy_3_cu_94nfmy17mnev9-fill" data-item-order="12999939888" transform="translate(389.999755859375, 300.6865234375)"><g id="sy_3_cu_94nfmy17mnev9-fill" stroke="none" fill="#a6da37"><g><path d="M 10 58L 38 46L 38 10L 10 22L 10 58Z"></path></g></g></g><g id="g-root-sy_3_cu_1_1lzag2y17mndvy-fill" data-item-order="12999939890" transform="translate(333.999755859375, 312.6865234375)"><g id="sy_3_cu_1_1lzag2y17mndvy-fill" stroke="none" fill="#a6da37"><g><path d="M 66 10L 10 10L 10 46L 66 46L 66 10Z"></path></g></g></g><g id="g-root-sy_3_cu_2_18egtey17moqvj-fill" data-item-order="12999939892" transform="translate(305.999755859375, 300.6865234375)"><g id="sy_3_cu_2_18egtey17moqvj-fill" stroke="none" fill="#a6da37"><g><path d="M 38 22L 10 10L 10 46L 38 58L 38 22Z"></path></g></g></g><g id="g-root-sy_2_cu_qn6sx617mot8o-fill" data-item-order="12999939896" transform="translate(389.999755859375, 228.6865234375)"><g id="sy_2_cu_qn6sx617mot8o-fill" stroke="none" fill="#43dd93"><g><path d="M 10 58L 38 46L 38 10L 10 22L 10 58Z"></path></g></g></g><g id="g-root-sy_2_cu_1_dccrmy17mornt-fill" data-item-order="12999939898" transform="translate(333.999755859375, 240.6865234375)"><g id="sy_2_cu_1_dccrmy17mornt-fill" stroke="none" fill="#43dd93"><g><path d="M 66 10L 10 10L 10 46L 66 46L 66 10Z"></path></g></g></g><g id="g-root-sy_2_cu_2_1lr69yi17morgq-fill" data-item-order="12999939900" transform="translate(305.999755859375, 228.6865234375)"><g id="sy_2_cu_2_1lr69yi17morgq-fill" stroke="none" fill="#43dd93"><g><path d="M 38 22L 10 10L 10 46L 38 58L 38 22Z"></path></g></g></g><g id="g-root-sy_1_cu_13zw9gq17mottv-fill" data-item-order="12999939904" transform="translate(390, 156.6865234375)"><g id="sy_1_cu_13zw9gq17mottv-fill" stroke="none" fill="#1ac3fb"><g><path d="M 10 58L 38 46L 38 10L 10 22L 10 58Z"></path></g></g></g><g id="g-root-sy_1_cu_1_qp286i17mos90-fill" data-item-order="12999939906" transform="translate(334, 168.6865234375)"><g id="sy_1_cu_1_qp286i17mos90-fill" stroke="none" fill="#1ac3fb"><g><path d="M 66 10L 10 10L 10 46L 66 46L 66 10Z"></path></g></g></g><g id="g-root-sy_1_cu_2_ddlpt617mottx-fill" data-item-order="12999939908" transform="translate(306, 156.6865234375)"><g id="sy_1_cu_2_ddlpt617mottx-fill" stroke="none" fill="#1ac3fb"><g><path d="M 38 22L 10 10L 10 46L 38 58L 38 22Z"></path></g></g></g><g id="g-root-sy_1_cu_3_1q88q9617mosum-fill" data-item-order="12999939910" transform="translate(305.99981689453125, 96.6865234375)"><g id="sy_1_cu_3_1q88q9617mosum-fill" stroke="none" fill="#1ac3fb"><g><path d="M 38.000169 50L 94.000169 50L 121.999969 38C 121.999969 38 122.529969 10 66.000169 10C 9.470169 10 10.000169 38 10.000169 38L 38.000169 50Z"></path></g></g></g><g id="g-root-tx_compatib_18mkzje17morgs-fill" data-item-order="13000000000" transform="translate(505.999755859375, 354.6865234375)"><g id="tx_compatib_18mkzje17morgs-fill" stroke="none" fill="#fffbd5"><g><text style="font: bold 20px Roboto, sans-serif; white-space: pre;" font-weight="bold" font-size="20px" font-family="Roboto, sans-serif"><tspan x="12" y="33.75" dominant-baseline="ideographic">Compatibilidade com </tspan><tspan x="12" y="57.75" dominant-baseline="ideographic">Node</tspan></text></g></g></g><g id="g-root-tx_integras_4otxii17mot1p-fill" data-item-order="13000000000" transform="translate(13.999755859375, 342.6865234375)"><g id="tx_integras_4otxii17mot1p-fill" stroke="none" fill="#f2ffd7"><g><text style="font: 15px Roboto, sans-serif; white-space: pre;" font-size="15px" font-family="Roboto, sans-serif"><tspan x="15.03" y="27.5" dominant-baseline="ideographic">Integra-se perfeitamente com </tspan><tspan x="173.88" y="45.5" dominant-baseline="ideographic">React</tspan></text></g></g></g><g id="g-root-tx_podeseru_v64oh617motmv-fill" data-item-order="13000000000" transform="translate(505.999755859375, 558.6865234375)"><g id="tx_podeseru_v64oh617motmv-fill" stroke="none" fill="#ffe9e8"><g><text style="font: 15px Roboto, sans-serif; white-space: pre;" font-size="15px" font-family="Roboto, sans-serif"><tspan x="12" y="27.5" dominant-baseline="ideographic">Pode ser usado com várias </tspan><tspan x="12" y="45.5" dominant-baseline="ideographic">outras tecnologias</tspan></text></g></g></g><g id="g-root-tx_aumentaa_1hbbgfe17w39xr-fill" data-item-order="13000000000" transform="translate(505.999755859375, 270.6865234375)"><g id="tx_aumentaa_1hbbgfe17w39xr-fill" stroke="none" fill="#dffff0"><g><text style="font: 15px Roboto, sans-serif; white-space: pre;" font-size="15px" font-family="Roboto, sans-serif"><tspan x="12" y="27.5" dominant-baseline="ideographic">Aumenta a legibilidade do </tspan><tspan x="12" y="45.5" dominant-baseline="ideographic">código</tspan></text></g></g></g><g id="g-root-ic_node_1d3mh2i17wd632-fill" data-item-order="13000000000" transform="translate(445.999755859375, 366.6865234375)"></g><g id="g-root-tx_compatib_1d0j2ei17mosg2-fill" data-item-order="13000000000" transform="translate(13.999755859375, 426.6865234375)"><g id="tx_compatib_1d0j2ei17mosg2-fill" stroke="none" fill="#fff0e2"><g><text style="font: bold 20px Roboto, sans-serif; white-space: pre;" font-weight="bold" font-size="20px" font-family="Roboto, sans-serif"><tspan x="21.12" y="33.75" dominant-baseline="ideographic">Compatibilidade com </tspan><tspan x="140.83" y="57.75" dominant-baseline="ideographic">Express</tspan></text></g></g></g><g id="g-root-tx_funciona_dilii217mot8r-fill" data-item-order="13000000000" transform="translate(505.999755859375, 414.6865234375)"><g id="tx_funciona_dilii217mot8r-fill" stroke="none" fill="#fffbd5"><g><text style="font: 15px Roboto, sans-serif; white-space: pre;" font-size="15px" font-family="Roboto, sans-serif"><tspan x="12" y="30.5" dominant-baseline="ideographic">Funciona bem com Node.js</tspan></text></g></g></g><g id="g-root-ic_fsx_zk1fxm17wd6hb-fill" data-item-order="13000000000" transform="translate(229.999755859375, 438.6865234375)"></g><g id="g-root-tx_compatib_v2yzmy17w3ax2-fill" data-item-order="13000000000" transform="translate(13.999755859375, 282.6865234375)"><g id="tx_compatib_v2yzmy17w3ax2-fill" stroke="none" fill="#f2ffd7"><g><text style="font: bold 20px Roboto, sans-serif; white-space: pre;" font-weight="bold" font-size="20px" font-family="Roboto, sans-serif"><tspan x="21.12" y="33.75" dominant-baseline="ideographic">Compatibilidade com </tspan><tspan x="160.5" y="57.75" dominant-baseline="ideographic">React</tspan></text></g></g></g><g id="g-root-ic_clos_1q5qh9m17wbrim-fill" data-item-order="13000000000" transform="translate(445.999755859375, 222.6865234375)"></g><g id="g-root-tx_legibili_htdwiy17w3bi8-fill" data-item-order="13000000000" transform="translate(505.999755859375, 210.6865234375)"><g id="tx_legibili_htdwiy17w3bi8-fill" stroke="none" fill="#dffff0"><g><text style="font: bold 20px Roboto, sans-serif; white-space: pre;" font-weight="bold" font-size="20px" font-family="Roboto, sans-serif"><tspan x="12" y="33.75" dominant-baseline="ideographic">Legibilidade do </tspan><tspan x="12" y="57.75" dominant-baseline="ideographic">Código</tspan></text></g></g></g><g id="g-root-tx_suportao_mcd3hm17motft-fill" data-item-order="13000000000" transform="translate(13.999755859375, 486.6865234375)"><g id="tx_suportao_mcd3hm17motft-fill" stroke="none" fill="#fff0e2"><g><text style="font: 15px Roboto, sans-serif; white-space: pre;" font-size="15px" font-family="Roboto, sans-serif"><tspan x="15.05" y="30.5" dominant-baseline="ideographic">Suporta o framework Express</tspan></text></g></g></g><g id="g-root-tx_melhoraa_1hckelm17w3c3t-fill" data-item-order="13000000000" transform="translate(49.999755859375, 198.6865234375)"><g id="tx_melhoraa_1hckelm17w3c3t-fill" stroke="none" fill="#e5f8ff"><g><text style="font: 15px Roboto, sans-serif; white-space: pre;" font-size="15px" font-family="Roboto, sans-serif"><tspan x="15.57" y="27.5" dominant-baseline="ideographic">Melhora a segurança do </tspan><tspan x="130.49" y="45.5" dominant-baseline="ideographic">código</tspan></text></g></g></g><g id="g-root-ic_add_18istm217w3bwr-fill" data-item-order="13000000000" transform="translate(445.999755859375, 510.6865234375)"></g><g id="g-root-ic_lock_4ikx6217w3axb-fill" data-item-order="13000000000" transform="translate(229.999755859375, 150.6865234375)"></g><g id="g-root-tx_segurana_8zmbje17w3bb6-fill" data-item-order="13000000000" transform="translate(13.999755859375, 162.6865234375)"><g id="tx_segurana_8zmbje17w3bb6-fill" stroke="none" fill="#e5f8ff"><g><text style="font: bold 20px Roboto, sans-serif; white-space: pre;" font-weight="bold" font-size="20px" font-family="Roboto, sans-serif"><tspan x="20.09" y="33.75" dominant-baseline="ideographic">Segurança do Código</tspan></text></g></g></g><g id="g-root-tx_aplicaes_1qa45ii17moruw-fill" data-item-order="13000000000" transform="translate(505.999755859375, 522.6865234375)"><g id="tx_aplicaes_1qa45ii17moruw-fill" stroke="none" fill="#ffe9e8"><g><text style="font: bold 20px Roboto, sans-serif; white-space: pre;" font-weight="bold" font-size="20px" font-family="Roboto, sans-serif"><tspan x="12" y="33.75" dominant-baseline="ideographic">Aplicações Adicionais</tspan></text></g></g></g><g id="g-root-ic_pent_1hapuy217weioc-fill" data-item-order="13000000000" transform="translate(229.999755859375, 294.6865234375)"></g><g id="g-root-sy_0_cu_zitt6217mnea2-stroke" data-item-order="12999939858" transform="translate(305.999755859375, 216.6865234375)"><g id="sy_0_cu_zitt6217mnea2-stroke" fill="none" stroke-linecap="round" stroke-linejoin="round" stroke-miterlimit="4" stroke="#2c2c2c" stroke-width="2"><g><path d="M 54.78 406.78L 60.38 409.98L 61.98 405.18L 66 409.18L 70.02 405.18L 71.62 409.98L 77.22 406.78L 122 346L 94 358L 38 358L 10 346L 54.78 406.78ZM 94 298L 38 298L 10 310L 38 322L 94 322L 122 310L 94 298ZM 66 314.8C 54.95 314.8 46 312.65 46 310C 46 307.35 54.95 305.2 66 305.2C 77.05 305.2 86 307.35 86 310C 86 312.65 77.05 314.8 66 314.8ZM 94 226L 38 226L 10 238L 38 250L 94 250L 122 238L 94 226ZM 66 242.8C 54.95 242.8 46 240.65 46 238C 46 235.35 54.95 233.2 66 233.2C 77.05 233.2 86 235.35 86 238C 86 240.65 77.05 242.8 66 242.8ZM 94 154L 38 154L 10 166L 38 178L 94 178L 122 166L 94 154ZM 66 170.8C 54.95 170.8 46 168.65 46 166C 46 163.35 54.95 161.2 66 161.2C 77.05 161.2 86 163.35 86 166C 86 168.65 77.05 170.8 66 170.8ZM 94 82L 38 82L 10 94L 38 106L 94 106L 122 94L 94 82ZM 66 98.8C 54.95 98.8 46 96.65 46 94C 46 91.35 54.95 89.2 66 89.2C 77.05 89.2 86 91.35 86 94C 86 96.65 77.05 98.8 66 98.8ZM 94 10L 38 10L 10 22L 38 34L 94 34L 122 22L 94 10ZM 66 26.8C 54.95 26.8 46 24.65 46 22C 46 19.35 54.95 17.2 66 17.2C 77.05 17.2 86 19.35 86 22C 86 24.65 77.05 26.8 66 26.8Z"></path></g></g></g><g id="g-root-sy_0_cu_1_1cvj9pm17mnev7-stroke" data-item-order="12999939860" transform="translate(306, 124.6865234375)"><g id="sy_0_cu_1_1cvj9pm17mnev7-stroke" fill="none" stroke-linecap="round" stroke-linejoin="round" stroke-miterlimit="4" stroke="#2c2c2c" stroke-width="2"><g><path d="M 54.779785 498.780176L 60.379785 501.980176L 61.979785 497.180176L 65.999785 501.180176L 70.019785 497.180176L 71.619785 501.980176L 77.219785 498.780176L 65.999785 514.000176L 54.779785 498.780176ZM 65.999756 406.800195C 77.045456 406.800195 85.999756 404.651195 85.999756 402.000195C 85.999756 399.349195 77.045456 397.200195 65.999756 397.200195C 54.954056 397.200195 45.999756 399.349195 45.999756 402.000195C 45.999756 404.651195 54.954056 406.800195 65.999756 406.800195ZM 65.999756 334.800195C 77.045456 334.800195 85.999756 332.651195 85.999756 330.000195C 85.999756 327.349195 77.045456 325.200195 65.999756 325.200195C 54.954056 325.200195 45.999756 327.349195 45.999756 330.000195C 45.999756 332.651195 54.954056 334.800195 65.999756 334.800195ZM 65.999756 262.800195C 77.045456 262.800195 85.999756 260.651195 85.999756 258.000195C 85.999756 255.349195 77.045456 253.200195 65.999756 253.200195C 54.954056 253.200195 45.999756 255.349195 45.999756 258.000195C 45.999756 260.651195 54.954056 262.800195 65.999756 262.800195ZM 65.999756 190.800195C 77.045456 190.800195 85.999756 188.651195 85.999756 186.000195C 85.999756 183.349195 77.045456 181.200195 65.999756 181.200195C 54.954056 181.200195 45.999756 183.349195 45.999756 186.000195C 45.999756 188.651195 54.954056 190.800195 65.999756 190.800195ZM 65.999756 118.800195C 77.045456 118.800195 85.999756 116.651195 85.999756 114.000195C 85.999756 111.349195 77.045456 109.200195 65.999756 109.200195C 54.954056 109.200195 45.999756 111.349195 45.999756 114.000195C 45.999756 116.651195 54.954056 118.800195 65.999756 118.800195ZM 10 34L 38 46L 94 46L 122 34L 122 42L 94 54L 38 54L 10 42L 10 34ZM 10 26L 38 38L 94 38L 122 26L 122 34L 94 46L 38 46L 10 34L 10 26ZM 10 26L 38 38L 94 38L 122 26L 122 10L 94 22L 38 22L 10 10L 10 26Z"></path></g></g></g><g id="g-root-sy_6_cu_m98q2217mnev8-stroke" data-item-order="12999939864" transform="translate(389.999755859375, 516.6865234375)"><g id="sy_6_cu_m98q2217mnev8-stroke" fill="none" stroke-linecap="round" stroke-linejoin="round" stroke-miterlimit="4" stroke="#2c2c2c" stroke-width="2"><g><path d="M 10 58L 38 46L 38 10L 10 22L 10 58Z"></path></g></g></g><g id="g-root-sy_6_cu_1_8yeoru17mndad-stroke" data-item-order="12999939866" transform="translate(333.999755859375, 528.6865234375)"><g id="sy_6_cu_1_8yeoru17mndad-stroke" fill="none" stroke-linecap="round" stroke-linejoin="round" stroke-miterlimit="4" stroke="#2c2c2c" stroke-width="2"><g><path d="M 66 10L 10 10L 10 46L 66 46L 66 10Z"></path></g></g></g><g id="g-root-sy_6_cu_2_1lt1p7u17mncb2-stroke" data-item-order="12999939868" transform="translate(305.999755859375, 516.6865234375)"><g id="sy_6_cu_2_1lt1p7u17mncb2-stroke" fill="none" stroke-linecap="round" stroke-linejoin="round" stroke-miterlimit="4" stroke="#2c2c2c" stroke-width="2"><g><path d="M 38 22L 10 10L 10 46L 38 58L 38 22Z"></path></g></g></g><g id="g-root-sy_5_cu_v6r5ka17mncb3-stroke" data-item-order="12999939872" transform="translate(389.999755859375, 444.6865234375)"><g id="sy_5_cu_v6r5ka17mncb3-stroke" fill="none" stroke-linecap="round" stroke-linejoin="round" stroke-miterlimit="4" stroke="#2c2c2c" stroke-width="2"><g><path d="M 10 58L 38 46L 38 10L 10 22L 10 58Z"></path></g></g></g><g id="g-root-sy_5_cu_1_dfh52i17mneo8-stroke" data-item-order="12999939874" transform="translate(333.999755859375, 456.6865234375)"><g id="sy_5_cu_1_dfh52i17mneo8-stroke" fill="none" stroke-linecap="round" stroke-linejoin="round" stroke-miterlimit="4" stroke="#2c2c2c" stroke-width="2"><g><path d="M 66 10L 10 10L 10 46L 66 46L 66 10Z"></path></g></g></g><g id="g-root-sy_5_cu_2_4n3sa17mnd3d-stroke" data-item-order="12999939876" transform="translate(305.999755859375, 444.6865234375)"><g id="sy_5_cu_2_4n3sa17mnd3d-stroke" fill="none" stroke-linecap="round" stroke-linejoin="round" stroke-miterlimit="4" stroke="#2c2c2c" stroke-width="2"><g><path d="M 38 22L 10 10L 10 46L 38 58L 38 22Z"></path></g></g></g><g id="g-root-sy_4_cu_1heh59m17mnf9e-stroke" data-item-order="12999939880" transform="translate(389.999755859375, 372.6865234375)"><g id="sy_4_cu_1heh59m17mnf9e-stroke" fill="none" stroke-linecap="round" stroke-linejoin="round" stroke-miterlimit="4" stroke="#2c2c2c" stroke-width="2"><g><path d="M 10 58L 38 46L 38 10L 10 22L 10 58Z"></path></g></g></g><g id="g-root-sy_4_cu_1_1d2ehnu17mndab-stroke" data-item-order="12999939882" transform="translate(333.999755859375, 384.6865234375)"><g id="sy_4_cu_1_1d2ehnu17mndab-stroke" fill="none" stroke-linecap="round" stroke-linejoin="round" stroke-miterlimit="4" stroke="#2c2c2c" stroke-width="2"><g><path d="M 66 10L 10 10L 10 46L 66 46L 66 10Z"></path></g></g></g><g id="g-root-sy_4_cu_2_mg3y0a17mndac-stroke" data-item-order="12999939884" transform="translate(305.999755859375, 372.6865234375)"><g id="sy_4_cu_2_mg3y0a17mndac-stroke" fill="none" stroke-linecap="round" stroke-linejoin="round" stroke-miterlimit="4" stroke="#2c2c2c" stroke-width="2"><g><path d="M 38 22L 10 10L 10 46L 38 58L 38 22Z"></path></g></g></g><g id="g-root-sy_3_cu_94nfmy17mnev9-stroke" data-item-order="12999939888" transform="translate(389.999755859375, 300.6865234375)"><g id="sy_3_cu_94nfmy17mnev9-stroke" fill="none" stroke-linecap="round" stroke-linejoin="round" stroke-miterlimit="4" stroke="#2c2c2c" stroke-width="2"><g><path d="M 10 58L 38 46L 38 10L 10 22L 10 58Z"></path></g></g></g><g id="g-root-sy_3_cu_1_1lzag2y17mndvy-stroke" data-item-order="12999939890" transform="translate(333.999755859375, 312.6865234375)"><g id="sy_3_cu_1_1lzag2y17mndvy-stroke" fill="none" stroke-linecap="round" stroke-linejoin="round" stroke-miterlimit="4" stroke="#2c2c2c" stroke-width="2"><g><path d="M 66 10L 10 10L 10 46L 66 46L 66 10Z"></path></g></g></g><g id="g-root-sy_3_cu_2_18egtey17moqvj-stroke" data-item-order="12999939892" transform="translate(305.999755859375, 300.6865234375)"><g id="sy_3_cu_2_18egtey17moqvj-stroke" fill="none" stroke-linecap="round" stroke-linejoin="round" stroke-miterlimit="4" stroke="#2c2c2c" stroke-width="2"><g><path d="M 38 22L 10 10L 10 46L 38 58L 38 22Z"></path></g></g></g><g id="g-root-sy_2_cu_qn6sx617mot8o-stroke" data-item-order="12999939896" transform="translate(389.999755859375, 228.6865234375)"><g id="sy_2_cu_qn6sx617mot8o-stroke" fill="none" stroke-linecap="round" stroke-linejoin="round" stroke-miterlimit="4" stroke="#2c2c2c" stroke-width="2"><g><path d="M 10 58L 38 46L 38 10L 10 22L 10 58Z"></path></g></g></g><g id="g-root-sy_2_cu_1_dccrmy17mornt-stroke" data-item-order="12999939898" transform="translate(333.999755859375, 240.6865234375)"><g id="sy_2_cu_1_dccrmy17mornt-stroke" fill="none" stroke-linecap="round" stroke-linejoin="round" stroke-miterlimit="4" stroke="#2c2c2c" stroke-width="2"><g><path d="M 66 10L 10 10L 10 46L 66 46L 66 10Z"></path></g></g></g><g id="g-root-sy_2_cu_2_1lr69yi17morgq-stroke" data-item-order="12999939900" transform="translate(305.999755859375, 228.6865234375)"><g id="sy_2_cu_2_1lr69yi17morgq-stroke" fill="none" stroke-linecap="round" stroke-linejoin="round" stroke-miterlimit="4" stroke="#2c2c2c" stroke-width="2"><g><path d="M 38 22L 10 10L 10 46L 38 58L 38 22Z"></path></g></g></g><g id="g-root-sy_1_cu_13zw9gq17mottv-stroke" data-item-order="12999939904" transform="translate(390, 156.6865234375)"><g id="sy_1_cu_13zw9gq17mottv-stroke" fill="none" stroke-linecap="round" stroke-linejoin="round" stroke-miterlimit="4" stroke="#2c2c2c" stroke-width="2"><g><path d="M 10 58L 38 46L 38 10L 10 22L 10 58Z"></path></g></g></g><g id="g-root-sy_1_cu_1_qp286i17mos90-stroke" data-item-order="12999939906" transform="translate(334, 168.6865234375)"><g id="sy_1_cu_1_qp286i17mos90-stroke" fill="none" stroke-linecap="round" stroke-linejoin="round" stroke-miterlimit="4" stroke="#2c2c2c" stroke-width="2"><g><path d="M 66 10L 10 10L 10 46L 66 46L 66 10Z"></path></g></g></g><g id="g-root-sy_1_cu_2_ddlpt617mottx-stroke" data-item-order="12999939908" transform="translate(306, 156.6865234375)"><g id="sy_1_cu_2_ddlpt617mottx-stroke" fill="none" stroke-linecap="round" stroke-linejoin="round" stroke-miterlimit="4" stroke="#2c2c2c" stroke-width="2"><g><path d="M 38 22L 10 10L 10 46L 38 58L 38 22Z"></path></g></g></g><g id="g-root-sy_1_cu_3_1q88q9617mosum-stroke" data-item-order="12999939910" transform="translate(305.99981689453125, 96.6865234375)"><g id="sy_1_cu_3_1q88q9617mosum-stroke" fill="none" stroke-linecap="round" stroke-linejoin="round" stroke-miterlimit="4" stroke="#2c2c2c" stroke-width="2"><g><path d="M 38.000169 50L 94.000169 50L 122.000169 38C 122.000169 38 122.530169 10 66.000169 10C 9.470169 10 10.000169 38 10.000169 38L 38.000169 50Z"></path></g></g></g><g id="g-root-tx_compatib_18mkzje17morgs-stroke" data-item-order="13000000000" transform="translate(505.999755859375, 354.6865234375)"></g><g id="g-root-tx_integras_4otxii17mot1p-stroke" data-item-order="13000000000" transform="translate(13.999755859375, 342.6865234375)"></g><g id="g-root-tx_podeseru_v64oh617motmv-stroke" data-item-order="13000000000" transform="translate(505.999755859375, 558.6865234375)"></g><g id="g-root-tx_aumentaa_1hbbgfe17w39xr-stroke" data-item-order="13000000000" transform="translate(505.999755859375, 270.6865234375)"></g><g id="g-root-ic_node_1d3mh2i17wd632-stroke" data-item-order="13000000000" transform="translate(445.999755859375, 366.6865234375)"><g id="ic_node_1d3mh2i17wd632-stroke" fill="none" stroke-linecap="round" stroke-linejoin="round" stroke-miterlimit="4" stroke="#ffe711" stroke-width="2"><g><path d="M 26.9 53.080002L 32.900002 56.720001C 33.518803 57.077267 34.281197 57.077267 34.900002 56.720001L 53.16 45.759998C 53.781269 45.401318 54.162849 44.73737 54.16 44.02L 54.16 24C 54.162849 23.282631 53.781269 22.618683 53.16 22.26L 35.040001 11.28C 34.421196 10.922734 33.658802 10.922734 33.040001 11.28L 14.7 22.24C 14.078732 22.598682 13.697152 23.26263 13.7 23.98L 13.7 44C 13.697152 44.717369 14.078732 45.381317 14.7 45.740002L 20.18 49.02C 21.550299 49.840054 23.255424 49.861053 24.645504 49.074997C 26.035582 48.28894 26.896448 46.816933 26.9 45.220001L 26.9 25.880001M 33 38C 32.996193 39.95676 34.45718 41.606812 36.400002 41.839996C 38.12677 42.053387 39.873238 42.053387 41.600002 41.840004C 43.54282 41.606812 45.003803 39.95676 45 38C 44.992313 36.255989 43.722317 34.774323 42 34.5L 39 34L 36 33.5C 34.277679 33.225674 33.007683 31.744011 33 30C 32.996193 28.04324 34.45718 26.393185 36.400002 26.16C 38.12677 25.946617 39.873238 25.946617 41.600002 26.160002C 43.54282 26.393185 45.003803 28.04324 45 30"></path></g></g></g><g id="g-root-tx_compatib_1d0j2ei17mosg2-stroke" data-item-order="13000000000" transform="translate(13.999755859375, 426.6865234375)"></g><g id="g-root-tx_funciona_dilii217mot8r-stroke" data-item-order="13000000000" transform="translate(505.999755859375, 414.6865234375)"></g><g id="g-root-ic_fsx_zk1fxm17wd6hb-stroke" data-item-order="13000000000" transform="translate(229.999755859375, 438.6865234375)"><g id="ic_fsx_zk1fxm17wd6hb-stroke" fill="none" stroke-linecap="round" stroke-linejoin="round" stroke-miterlimit="4" stroke="#f79438" stroke-width="2"><g><path d="M 50.599998 20.29882C 52.799999 23.498821 54 27.29882 54 31.4988M 34.000198 34.5C 35.656998 34.5 37.000198 33.156799 37.000198 31.5C 37.000198 29.84314 35.656998 28.5 34.000198 28.5C 32.343201 28.5 31.0002 29.84314 31.0002 31.5C 31.0002 33.156799 32.343201 34.5 34.000198 34.5ZM 10 10M 35.799999 29.10022L 47.375 13.6875M 14.00012 31.5C 14.00012 20.5 23.00012 11.5 34.000198 11.5C 38.4002 11.5 42.631199 13.06874 46.0312 15.46876M 39.607002 42.7654C 39.437798 42.2864 39.176399 41.8508 38.844398 41.479797C 38.138397 40.6908 37.112 40.194401 35.969803 40.194401L 32.9846 40.194401C 31.083401 40.194401 29.54212 41.7356 29.54212 43.637001C 29.54212 45.254799 30.6686 46.654202 32.249001 47L 36.793999 47.994202C 38.564598 48.381401 39.826599 49.950401 39.826599 51.762798C 39.826599 53.892799 38.0998 55.620998 35.969803 55.620998L 33.3988 55.620998C 31.719601 55.620998 30.291 54.547798 29.76156 53.049801M 10 10M 46.529202 44.8428L 54.1632 55.620201M 10 10M 53.714001 44.8428L 46.080002 55.620201M 13.83716 55.620998L 13.83716 40.194401L 24.121559 40.194401M 10 10M 13.83716 47.264599L 22.836 47.264599"></path></g></g></g><g id="g-root-tx_compatib_v2yzmy17w3ax2-stroke" data-item-order="13000000000" transform="translate(13.999755859375, 282.6865234375)"></g><g id="g-root-ic_clos_1q5qh9m17wbrim-stroke" data-item-order="13000000000" transform="translate(445.999755859375, 222.6865234375)"><g id="ic_clos_1q5qh9m17wbrim-stroke" fill="none" stroke-linecap="round" stroke-linejoin="round" stroke-miterlimit="4" stroke="#43dd93" stroke-width="2"><g><path d="M 34 25.024L 54 15.024L 54 44.787998C 53.999596 45.54533 53.571461 46.237473 52.894001 46.576L 34 56.023998L 15.106 46.576C 14.428541 46.237473 14.000404 45.54533 14 44.787998L 14 15.024ZM 49.998001 11.976L 33.998001 20.071999L 17.998001 11.976M 34 25.024L 34 56.023998"></path></g></g></g><g id="g-root-tx_legibili_htdwiy17w3bi8-stroke" data-item-order="13000000000" transform="translate(505.999755859375, 210.6865234375)"></g><g id="g-root-tx_suportao_mcd3hm17motft-stroke" data-item-order="13000000000" transform="translate(13.999755859375, 486.6865234375)"></g><g id="g-root-tx_melhoraa_1hckelm17w3c3t-stroke" data-item-order="13000000000" transform="translate(49.999755859375, 198.6865234375)"></g><g id="g-root-ic_add_18istm217w3bwr-stroke" data-item-order="13000000000" transform="translate(445.999755859375, 510.6865234375)"><g id="ic_add_18istm217w3bwr-stroke" fill="none" stroke-linecap="round" stroke-linejoin="round" stroke-miterlimit="4" stroke="#fb6762" stroke-width="2"><g><path d="M 34 12L 34 56M 56 34L 12 34"></path></g></g></g><g id="g-root-ic_lock_4ikx6217w3axb-stroke" data-item-order="13000000000" transform="translate(229.999755859375, 150.6865234375)"><g id="ic_lock_4ikx6217w3axb-stroke" fill="none" stroke-linecap="round" stroke-linejoin="round" stroke-miterlimit="4" stroke="#1ac3fb" stroke-width="2"><g><path d="M 35.526001 45.495998L 15.378 45.495998C 13.069907 45.493793 11.199999 43.622093 11.2 41.314003L 11.2 15.182C 11.199999 12.873906 13.069907 11.002208 15.378 11L 46.737999 11C 49.046875 11.001104 50.918003 12.873126 50.918003 15.182L 50.917999 27.854M 11.196 19.166L 50.917999 19.166M 11.196 36.515999L 35.526001 36.515999M 11.196 27.854L 50.917999 27.854M 27.42 19.166L 27.42 45.495998M 39.052002 19.166L 39.052002 33.206001M 39.672001 45.104C 39.671997 43.461506 41.003502 42.130001 42.646 42.130001L 53.830002 42.130001C 55.470932 42.132206 56.799999 43.463066 56.799999 45.104L 56.799999 54.026001C 56.799999 55.666935 55.470932 56.997791 53.829998 57L 42.646 57C 41.003502 57 39.671997 55.668495 39.671997 54.026001ZM 48.237999 33.200001L 48.237999 33.200001C 45.019161 33.266701 42.463272 35.929119 42.528 39.147999L 42.528 42.124001L 53.948002 42.124001L 53.948002 39.153999C 54.01609 35.9328 51.459229 33.266678 48.237999 33.199997ZM 48.237999 47.481998C 47.359489 47.446079 46.547329 47.94772 46.186138 48.749352C 45.824951 49.550987 45.987244 50.49168 46.596161 51.125946C 47.205082 51.760212 48.138378 51.960716 48.954067 51.6325C 49.76976 51.304287 50.304085 50.513248 50.304001 49.634003C 50.327431 48.469349 49.40263 47.506054 48.237999 47.481998L 48.237999 47.481998"></path></g></g></g><g id="g-root-tx_segurana_8zmbje17w3bb6-stroke" data-item-order="13000000000" transform="translate(13.999755859375, 162.6865234375)"></g><g id="g-root-tx_aplicaes_1qa45ii17moruw-stroke" data-item-order="13000000000" transform="translate(505.999755859375, 522.6865234375)"></g><g id="g-root-ic_pent_1hapuy217weioc-stroke" data-item-order="13000000000" transform="translate(229.999755859375, 294.6865234375)"><g id="ic_pent_1hapuy217weioc-stroke" fill="none" stroke-linecap="round" stroke-linejoin="round" stroke-miterlimit="4" stroke="#a6da37" stroke-width="2"><g><path d="M 32.820602 13.01816C 33.5214 12.50888 34.4706 12.50888 35.1716 13.01816L 55.649601 27.896259C 56.350601 28.40554 56.643799 29.308281 56.376202 30.132401L 48.554199 54.205601C 48.286598 55.029598 47.5186 55.587601 46.652199 55.587601L 21.34004 55.587601C 20.473579 55.587601 19.705681 55.029598 19.43792 54.205601L 11.61605 30.132401C 11.348302 29.308281 11.641618 28.40554 12.3426 27.896259L 32.820602 13.01816ZM 43.404598 38.497002C 42.996201 40.154999 42.1446 41.725998 40.849197 43.0214C 37.0662 46.804199 30.933001 46.804199 27.150221 43.0214C 23.36738 39.2384 23.36738 33.105202 27.150221 29.322439C 30.933001 25.539581 37.0662 25.539581 40.849197 29.322439L 42.813202 31.2864M 37.3204 31.296801L 42.8214 31.296801L 42.8214 25.795761"></path></g></g></g></g></g></svg>