<?xml version="1.0" encoding="utf-8" standalone="yes"?>
<!DOCTYPE svg PUBLIC "-//W3C//DTD SVG 1.1//EN" "http://www.w3.org/Graphics/SVG/1.1/DTD/svg11.dtd">
<svg width="1056" height="492" viewBox="0 0 1056 492" style="fill:none;stroke:none;fill-rule:evenodd;clip-rule:evenodd;stroke-linecap:round;stroke-linejoin:round;stroke-miterlimit:1.5;" version="1.1" xmlns="http://www.w3.org/2000/svg" xmlns:xlink="http://www.w3.org/1999/xlink"><style class="text-font-style fontImports" data-font-family="Roboto">@import url('https://fonts.googleapis.com/css2?family=Roboto:wght@400;700&amp;display=block');</style><g id="items" style="isolation: isolate"><g id="blend" style="mix-blend-mode: normal"><g id="g-root-cp_2_g-2_1hd7ksr14kjgg2-fill" data-item-order="-399158" transform="translate(50, 266)"><g id="cp_2_g-2_1hd7ksr14kjgg2-fill" stroke="none" fill="#43dd93"><g><path d="M 730 10L 634 130L 634 58L 526 58L 406 119L 10 119L 10 10L 730 10Z"></path></g></g></g><g id="g-root-cp_1_g-1_4kfzm314kjfnw-fill" data-item-order="-399154" transform="translate(50, 146)"><g id="cp_1_g-1_4kfzm314kjfnw-fill" stroke="none" fill="#fb6762"><g><path d="M 730 130L 634 10L 634 82L 526 82L 406 22L 10 22L 10 130L 730 130Z"></path></g></g></g><g id="g-root-tx_sinergia_924wzv14kjdvy-fill" data-item-order="0" transform="translate(416, 38)"><g id="tx_sinergia_924wzv14kjdvy-fill" stroke="none" fill="#f4f4f4"><g><text style="font: bold 25px Roboto, sans-serif; white-space: pre;" font-weight="bold" font-size="25px" font-family="Roboto, sans-serif"><tspan x="13.53" y="43" dominant-baseline="ideographic">Sinergia GraphQL</tspan></text></g></g></g><g id="g-root-ic_sync_hx5jbf14k86py-fill" data-item-order="0" transform="translate(74, 176)"></g><g id="g-root-tx_apollose_1hd7nyj14k86x0-fill" data-item-order="0" transform="translate(134, 176)"><g id="tx_apollose_1hd7nyj14k86x0-fill" stroke="none" fill="#2c2c2c"><g><text style="font: bold 20px Roboto, sans-serif; white-space: pre;" font-weight="bold" font-size="20px" font-family="Roboto, sans-serif"><tspan x="12" y="33.75" dominant-baseline="ideographic">Apollo Server</tspan></text></g></g></g><g id="g-root-tx_servidor_dg330r14k85c5-fill" data-item-order="0" transform="translate(134, 212)"><g id="tx_servidor_dg330r14k85c5-fill" stroke="none" fill="#2c2c2c"><g><text style="font: 15px Roboto, sans-serif; white-space: pre;" font-size="15px" font-family="Roboto, sans-serif"><tspan x="12" y="27.5" dominant-baseline="ideographic">Servidor backend para gestão de dados </tspan><tspan x="12" y="45.5" dominant-baseline="ideographic">GraphQL.</tspan></text></g></g></g><g id="g-root-tx_comunica_1cw57nv14kf8xt-fill" data-item-order="0" transform="translate(794, 212)"><g id="tx_comunica_1cw57nv14kf8xt-fill" stroke="none" fill="#ebf2ff"><g><text style="font: bold 30px Roboto, sans-serif; white-space: pre;" font-weight="bold" font-size="30px" font-family="Roboto, sans-serif"><tspan x="12" y="45" dominant-baseline="ideographic">Comunicação </tspan><tspan x="12" y="81" dominant-baseline="ideographic">Eficiente de </tspan><tspan x="12" y="117" dominant-baseline="ideographic">Dados</tspan></text></g></g></g><g id="g-root-ic_soft_1uuwu1714kjgg1-fill" data-item-order="0" transform="translate(74, 290)"></g><g id="g-root-tx_apollocl_zpoetn14kjg1z-fill" data-item-order="0" transform="translate(134, 290)"><g id="tx_apollocl_zpoetn14kjg1z-fill" stroke="none" fill="#2c2c2c"><g><text style="font: bold 20px Roboto, sans-serif; white-space: pre;" font-weight="bold" font-size="20px" font-family="Roboto, sans-serif"><tspan x="12" y="33.75" dominant-baseline="ideographic">Apollo Client</tspan></text></g></g></g><g id="g-root-tx_clientef_147dc7f14kjea0-fill" data-item-order="0" transform="translate(134, 326)"><g id="tx_clientef_147dc7f14kjea0-fill" stroke="none" fill="#2c2c2c"><g><text style="font: 15px Roboto, sans-serif; white-space: pre;" font-size="15px" font-family="Roboto, sans-serif"><tspan x="12" y="27.5" dominant-baseline="ideographic">Cliente frontend para consumo de dados </tspan><tspan x="12" y="45.5" dominant-baseline="ideographic">GraphQL.</tspan></text></g></g></g><g id="g-root-cp_2_g-2_1hd7ksr14kjgg2-stroke" data-item-order="-399158" transform="translate(50, 266)"><g id="cp_2_g-2_1hd7ksr14kjgg2-stroke" fill="none" stroke-linecap="round" stroke-linejoin="round" stroke-miterlimit="4" stroke="#2c2c2c" stroke-width="2"><g><path d="M 730 10L 634 130L 634 58L 526 58L 406 119L 10 119L 10 10L 730 10Z"></path></g></g></g><g id="g-root-cp_1_g-1_4kfzm314kjfnw-stroke" data-item-order="-399154" transform="translate(50, 146)"><g id="cp_1_g-1_4kfzm314kjfnw-stroke" fill="none" stroke-linecap="round" stroke-linejoin="round" stroke-miterlimit="4" stroke="#2c2c2c" stroke-width="2"><g><path d="M 730 130L 634 10L 634 82L 526 82L 406 22L 10 22L 10 130L 730 130Z"></path></g></g></g><g id="g-root-tx_sinergia_924wzv14kjdvy-stroke" data-item-order="0" transform="translate(416, 38)"></g><g id="g-root-ic_sync_hx5jbf14k86py-stroke" data-item-order="0" transform="translate(74, 176)"><g id="ic_sync_hx5jbf14k86py-stroke" fill="none" stroke-linecap="round" stroke-linejoin="round" stroke-miterlimit="4" stroke="#2c2c2c" stroke-width="2"><g><path d="M 22 30L 22 25.501999C 21.997789 21.358625 25.356625 17.998894 29.5 18L 33 18M 26 26.002001L 22 30.002001L 18 26.002001M 30 15.002L 33 18.001999L 30 21.001999M 16 57.001999L 30 57.001999M 23 53.001999L 23 57.001999M 11 47.001999L 35 47.001999M 32 37C 33.656853 37 35 38.343147 35 40L 35 49.824001C 35.04818 51.529293 33.705269 52.950989 31.999998 52.999996L 14 53C 12.296018 52.949898 10.954054 51.530102 11 49.826L 11 40C 11 38.343147 12.343145 37 14 37ZM 41 15.002C 41 17.21114 44.581722 19.001999 49 19.001999C 53.418278 19.001999 57 17.21114 57 15.002C 57 12.792861 53.418278 11.002 49 11.002C 44.581722 11.002 41 12.792861 41 15.002ZM 41 25C 41 27.200001 44.582001 29 49 29C 53.417999 29 57 27.200001 57 25M 41 20C 41 22.200001 44.582001 24 49 24C 53.417999 24 57 22.200001 57 20M 57 15L 57 30C 57 32.200001 53.417999 34 49 34C 44.582001 34 41 32.200001 41 30L 41 15"></path></g></g></g><g id="g-root-tx_apollose_1hd7nyj14k86x0-stroke" data-item-order="0" transform="translate(134, 176)"></g><g id="g-root-tx_servidor_dg330r14k85c5-stroke" data-item-order="0" transform="translate(134, 212)"></g><g id="g-root-tx_comunica_1cw57nv14kf8xt-stroke" data-item-order="0" transform="translate(794, 212)"></g><g id="g-root-ic_soft_1uuwu1714kjgg1-stroke" data-item-order="0" transform="translate(74, 290)"><g id="ic_soft_1uuwu1714kjgg1-stroke" fill="none" stroke-linecap="round" stroke-linejoin="round" stroke-miterlimit="4" stroke="#2c2c2c" stroke-width="2"><g><path d="M 56 44L 37.419998 25.42C 36.515137 24.508869 35.284111 23.996469 34 23.996469C 32.715889 23.996469 31.484863 24.508869 30.580002 25.420002L 12 44C 10.585938 45.413757 10.585938 47.706238 12 49.119999L 18.939999 56C 20.346632 57.374516 22.593369 57.374516 24 55.999996L 34 46L 44 56C 45.413757 57.414059 47.706238 57.414059 49.119999 55.999996L 56 49.060001C 57.374516 47.653366 57.374516 45.406631 55.999996 44ZM 55 37L 56 36C 57.414059 34.586239 57.414059 32.293762 55.999996 30.879999L 37.419998 12.42C 36.515137 11.508868 35.284111 10.996469 34 10.996469C 32.715889 10.996469 31.484863 11.508868 30.580002 12.42L 12 30.940001C 10.625483 32.346634 10.625483 34.593369 12 36L 12.940001 36.940002"></path></g></g></g><g id="g-root-tx_apollocl_zpoetn14kjg1z-stroke" data-item-order="0" transform="translate(134, 290)"></g><g id="g-root-tx_clientef_147dc7f14kjea0-stroke" data-item-order="0" transform="translate(134, 326)"></g></g></g></svg>