<?xml version="1.0" encoding="utf-8" standalone="yes"?>
<!DOCTYPE svg PUBLIC "-//W3C//DTD SVG 1.1//EN" "http://www.w3.org/Graphics/SVG/1.1/DTD/svg11.dtd">
<svg width="747" height="503" viewBox="0 0 747 503" style="fill:none;stroke:none;fill-rule:evenodd;clip-rule:evenodd;stroke-linecap:round;stroke-linejoin:round;stroke-miterlimit:1.5;" version="1.1" xmlns="http://www.w3.org/2000/svg" xmlns:xlink="http://www.w3.org/1999/xlink"><style class="text-font-style fontImports" data-font-family="Roboto">@import url('https://fonts.googleapis.com/css2?family=Roboto:wght@400;700&amp;display=block');</style><g id="items" style="isolation: isolate"><g id="blend" style="mix-blend-mode: normal"><g id="g-root-cp_0_g-0_1qegi7f17m6iof-fill" data-item-order="14999745274" transform="translate(47.000030517578125, 98)"><g id="cp_0_g-0_1qegi7f17m6iof-fill" stroke="none" fill="url(#gradient-8a8a8a-330675446)"><g><path d="M 48.5 83.5L 10 124.5L 27.5 156.5L 37 151L 23.5 125.5L 48.5 99L 48.5 83.5Z"></path></g></g><g id="cp_0_g-0_1qegi7f17m6iof-fill" stroke="none" fill="url(#gradient-8a8a8a-330675446)"><g><path d="M 96.5 83.5L 135 124.5L 117.5 156.5L 108 151L 121.5 125.5L 96.5 99L 96.5 83.5Z"></path></g></g><g id="cp_0_g-0_1qegi7f17m6iof-fill" stroke="none" fill="url(#gradient-8a8a8a-330675446)"><g><path d="M 59.5 106C 59.5 113.1797 65.3203 119 72.5 119C 79.6797 119 85.5 113.1797 85.5 106L 78.5 106C 78.5 109.3137 75.8137 112 72.5 112C 69.1863 112 66.5 109.3137 66.5 106L 59.5 106Z"></path></g></g><g id="cp_0_g-0_1qegi7f17m6iof-fill" stroke="none" fill="url(#gradient-8a8a8a-330675446)"><g><path d="M 216 83.5L 177.5 124.5L 195 156.5L 204.5 151L 191 125.5L 216 99L 216 83.5Z"></path></g></g><g id="cp_0_g-0_1qegi7f17m6iof-fill" stroke="none" fill="url(#gradient-8a8a8a-330675446)"><g><path d="M 264 83.5L 302.5 124.5L 285 156.5L 275.5 151L 289 125.5L 264 99L 264 83.5Z"></path></g></g><g id="cp_0_g-0_1qegi7f17m6iof-fill" stroke="none" fill="url(#gradient-8a8a8a-330675446)"><g><path d="M 227 106C 227 113.1797 232.8203 119 240 119C 247.1797 119 253 113.1797 253 106L 246 106C 246 109.3137 243.3137 112 240 112C 236.6863 112 234 109.3137 234 106L 227 106Z"></path></g></g><g id="cp_0_g-0_1qegi7f17m6iof-fill" stroke="none" fill="url(#gradient-8a8a8a-330675446)"><g><path d="M 383.5 83.5L 345 124.5L 362.5 156.5L 372 151L 358.5 125.5L 383.5 99L 383.5 83.5Z"></path></g></g><g id="cp_0_g-0_1qegi7f17m6iof-fill" stroke="none" fill="url(#gradient-8a8a8a-330675446)"><g><path d="M 431.5 83.5L 470 124.5L 452.5 156.5L 443 151L 456.5 125.5L 431.5 99L 431.5 83.5Z"></path></g></g><g id="cp_0_g-0_1qegi7f17m6iof-fill" stroke="none" fill="url(#gradient-8a8a8a-330675446)"><g><path d="M 394.5 106C 394.5 113.1797 400.3203 119 407.5 119C 414.6797 119 420.5 113.1797 420.5 106L 413.5 106C 413.5 109.3137 410.8137 112 407.5 112C 404.1863 112 401.5 109.3137 401.5 106L 394.5 106Z"></path></g></g><g id="cp_0_g-0_1qegi7f17m6iof-fill" stroke="none" fill="url(#gradient-8a8a8a-330675446)"><g><path d="M 551 83.5L 512.5 124.5L 530 156.5L 539.5 151L 526 125.5L 551 99L 551 83.5Z"></path></g></g><g id="cp_0_g-0_1qegi7f17m6iof-fill" stroke="none" fill="url(#gradient-8a8a8a-330675446)"><g><path d="M 599 83.5L 637.5 124.5L 620 156.5L 610.5 151L 624 125.5L 599 99L 599 83.5Z"></path></g></g><g id="cp_0_g-0_1qegi7f17m6iof-fill" stroke="none" fill="url(#gradient-8a8a8a-330675446)"><g><path d="M 562 106C 562 113.1797 567.8203 119 575 119C 582.1797 119 588 113.1797 588 106L 581 106C 581 109.3137 578.3137 112 575 112C 571.6863 112 569 109.3137 569 106L 562 106Z"></path></g></g></g><g id="g-root-cp_1_g-1_1d1r1nv17m7w98-fill" data-item-order="14999745308" transform="translate(73.50003051757812, 122)"><g id="cp_1_g-1_1d1r1nv17m7w98-fill" stroke="none" fill="url(#gradient-4f83d8-135982273)"><g><path d="M 22 10L 70 10L 70 82L 22 82ZM 10 136C 10 155.882251 26.117749 172 46 172C 65.882251 172 82 155.882251 82 136C 82 116.117749 65.882251 100 46 100C 26.117749 100 10 116.117749 10 136"></path></g></g><g id="cp_1_g-1_1d1r1nv17m7w98-fill" stroke="none" fill="url(#gradient-4f83d8-135982273)"><g><path d="M 40 82C 40 85.3137 42.6863 88 46 88C 49.3137 88 52 85.3137 52 82L 40 82Z"></path></g></g></g><g id="g-root-cp_2_g-2_1hithyj17m7xn2-fill" data-item-order="14999745316" transform="translate(241, 122)"><g id="cp_2_g-2_1hithyj17m7xn2-fill" stroke="none" fill="url(#gradient-40ae79-389135447)"><g><path d="M 22 10L 70 10L 70 82L 22 82ZM 10 136C 10 155.882251 26.117749 172 46 172C 65.882251 172 82 155.882251 82 136C 82 116.117749 65.882251 100 46 100C 26.117749 100 10 116.117749 10 136"></path></g></g><g id="cp_2_g-2_1hithyj17m7xn2-fill" stroke="none" fill="url(#gradient-40ae79-389135447)"><g><path d="M 40 82C 40 85.3137 42.6863 88 46 88C 49.3137 88 52 85.3137 52 82L 40 82Z"></path></g></g></g><g id="g-root-cp_3_g-3_1uljd4b17m9cso-fill" data-item-order="14999745324" transform="translate(408.5000305175781, 122)"><g id="cp_3_g-3_1uljd4b17m9cso-fill" stroke="none" fill="url(#gradient-c3b321-14556876)"><g><path d="M 22 10L 70 10L 70 82L 22 82ZM 10 136C 10 155.882251 26.117749 172 46 172C 65.882251 172 82 155.882251 82 136C 82 116.117749 65.882251 100 46 100C 26.117749 100 10 116.117749 10 136"></path></g></g><g id="cp_3_g-3_1uljd4b17m9cso-fill" stroke="none" fill="url(#gradient-c3b321-14556876)"><g><path d="M 40 82C 40 85.3137 42.6863 88 46 88C 49.3137 88 52 85.3137 52 82L 40 82Z"></path></g></g></g><g id="g-root-cp_4_g-4_zjfbcb17m9dky-fill" data-item-order="14999745332" transform="translate(576, 122)"><g id="cp_4_g-4_zjfbcb17m9dky-fill" stroke="none" fill="url(#gradient-c67b35-424552419)"><g><path d="M 22 10L 70 10L 70 82L 22 82ZM 10 136C 10 155.882251 26.117749 172 46 172C 65.882251 172 82 155.882251 82 136C 82 116.117749 65.882251 100 46 100C 26.117749 100 10 116.117749 10 136"></path></g></g><g id="cp_4_g-4_zjfbcb17m9dky-fill" stroke="none" fill="url(#gradient-c67b35-424552419)"><g><path d="M 40 82C 40 85.3137 42.6863 88 46 88C 49.3137 88 52 85.3137 52 82L 40 82Z"></path></g></g></g><g id="g-root-ro_hssawr17w4poj-fill" data-item-order="14999989920" transform="translate(28.212432861328125, 372.328125)"><g id="ro_hssawr17w4poj-fill" stroke="none" fill="url(#gradient-8a8a8a-330675446)"><g><path d="M 22 10L 166 10C 166 10 178 10 178 22L 178 58C 178 58 178 70 166 70L 22 70C 22 70 10 70 10 58L 10 22C 10 22 10 10 22 10"></path></g></g></g><g id="g-root-ro_1czvz23186l5og-fill" data-item-order="14999990640" transform="translate(202.21243286132812, 372.328125)"><g id="ro_1czvz23186l5og-fill" stroke="none" fill="url(#gradient-8a8a8a-330675446)"><g><path d="M 22 10L 154 10C 154 10 166 10 166 22L 166 58C 166 58 166 70 154 70L 22 70C 22 70 10 70 10 58L 10 22C 10 22 10 10 22 10"></path></g></g></g><g id="g-root-ro_m9uhqj154a7tb-fill" data-item-order="14999991360" transform="translate(544.21240234375, 372.328125)"><g id="ro_m9uhqj154a7tb-fill" stroke="none" fill="url(#gradient-8a8a8a-330675446)"><g><path d="M 22 10L 142 10C 142 10 154 10 154 22L 154 58C 154 58 154 70 142 70L 22 70C 22 70 10 70 10 58L 10 22C 10 22 10 10 22 10"></path></g></g></g><g id="g-root-ro_1q87xor140ln2n-fill" data-item-order="14999993088" transform="translate(376.2124328613281, 348.328125)"><defs><linearGradient id="gradient-8a8a8a-330675446" x2="0" y2="1"><stop offset="0" stop-color="#959595"></stop><stop offset="1" stop-color="#7f7f7f"></stop></linearGradient><linearGradient id="gradient-4f83d8-135982273" x2="0" y2="1"><stop offset="0" stop-color="#4e88e6"></stop><stop offset="1" stop-color="#4f7eca"></stop></linearGradient><linearGradient id="gradient-40ae79-389135447" x2="0" y2="1"><stop offset="0" stop-color="#3bc482"></stop><stop offset="1" stop-color="#449870"></stop></linearGradient><linearGradient id="gradient-c3b321-14556876" x2="0" y2="1"><stop offset="0" stop-color="#ddc916"></stop><stop offset="1" stop-color="#a99c2c"></stop></linearGradient><linearGradient id="gradient-c67b35-424552419" x2="0" y2="1"><stop offset="0" stop-color="#dc8331"></stop><stop offset="1" stop-color="#b07239"></stop></linearGradient></defs><g id="ro_1q87xor140ln2n-fill" stroke="none" fill="url(#gradient-8a8a8a-330675446)"><g><path d="M 22 10L 142 10C 142 10 154 10 154 22L 154 46C 154 46 154 58 142 58L 22 58C 22 58 10 58 10 46L 10 22C 10 22 10 10 22 10"></path></g></g></g><g id="g-root-ic_clou_1cz98h717mj5zc-fill" data-item-order="14999997696" transform="translate(589.5, 224)"><g id="ic_clou_1cz98h717mj5zc-fill" stroke="none" fill="#fff0e2"><g><path d="M 28 44L 14 44C 11.790861 44 10 45.790859 10 48L 10 54C 10 56.209141 11.790861 58 14 58L 28 58C 30.209139 58 32 56.209141 32 54L 32 48C 32 45.790859 30.209139 44 28 44ZM 17 53.259998C 16.084103 53.259964 15.258788 52.707146 14.910187 51.860184C 14.561586 51.013222 14.758636 50.039604 15.409145 49.394852C 16.059654 48.750099 17.034983 48.56171 17.878813 48.917828C 18.722643 49.273941 19.268105 50.104137 19.26 51.02C 19.260025 51.617565 19.021282 52.190372 18.596863 52.611031C 18.172447 53.031693 17.597542 53.265335 17 53.259998ZM 26 52.5L 24 52.5C 23.171574 52.5 22.5 51.82843 22.5 51C 22.5 50.171574 23.171574 49.5 24 49.5L 26 49.5C 26.828428 49.5 27.5 50.171574 27.5 51C 27.5 51.82843 26.828428 52.5 26 52.5ZM 54 44L 40 44C 37.790863 44 36 45.790859 36 48L 36 54C 36 56.209141 37.790863 58 40 58L 54 58C 56.209141 58 58 56.209141 58 54L 58 48C 58 45.790859 56.209141 44 54 44ZM 40.760002 51.02C 40.679348 50.165504 41.089691 49.339069 41.819168 48.886818C 42.548649 48.43457 43.471352 48.43457 44.200829 48.886818C 44.930309 49.339069 45.340652 50.165504 45.260002 51.02C 45.260002 52.262642 44.25264 53.27 43.010002 53.27C 41.767357 53.27 40.760002 52.262642 40.760002 51.02ZM 52 52.5L 50 52.5C 49.171574 52.5 48.5 51.82843 48.5 51C 48.5 50.171574 49.171574 49.5 50 49.5L 52 49.5C 52.82843 49.5 53.5 50.171574 53.5 51C 53.5 51.82843 52.82843 52.5 52 52.5ZM 31.639999 26.16C 30.895206 25.846806 30.035122 26.01251 29.459999 26.58L 25.76 30.299999C 25.189247 30.78878 24.940636 31.556236 25.116379 32.286839C 25.292124 33.017441 25.86256 33.587875 26.593163 33.763618C 27.323763 33.939362 28.091221 33.69075 28.58 33.120003L 28.879999 32.82L 28.879999 39.299999C 28.879999 40.404572 29.775431 41.299999 30.879999 41.299999C 31.98457 41.299999 32.879997 40.404572 32.879997 39.299999L 32.879997 28C 32.875969 27.192596 32.386848 26.466806 31.639999 26.16ZM 42.919998 34.260002C 42.544468 33.881374 42.033276 33.668404 41.5 33.668404C 40.966724 33.668404 40.455536 33.881374 40.080002 34.260002L 39.879997 34.48L 39.879997 28C 39.879997 26.89543 38.98457 26 37.879997 26C 36.775429 26 35.879997 26.89543 35.879997 28L 35.879997 39.299999C 35.883324 40.103779 36.367512 40.827477 37.109211 41.137241C 37.850906 41.44701 38.705986 41.282658 39.279999 40.720001L 42.919998 37.099998C 43.298626 36.724464 43.511597 36.213276 43.511597 35.68C 43.511597 35.146725 43.298626 34.635532 42.919998 34.260002ZM 44 30.639999C 44.061417 31.270042 44.41748 31.833811 44.959999 32.16C 45.503605 32.490234 46.171871 32.542213 46.759998 32.299999C 50.108986 31.068501 52.325233 27.868145 52.299999 24.299999C 52.312298 21.920555 51.342739 19.641367 49.620003 18C 48.206062 16.639568 46.387882 15.776108 44.439999 15.54C 44.25901 15.532618 44.093777 15.43498 44 15.280001C 41.756851 11.961269 38.005661 9.980641 34 10C 28.719988 9.964145 24.061104 13.446049 22.599998 18.52C 22.540733 18.710688 22.377508 18.850595 22.18 18.879999C 20.815353 19.057077 19.527115 19.61116 18.459999 20.48C 16.844671 21.851242 15.939663 23.881992 16 26C 15.960449 27.845486 16.684046 29.62553 18 30.919998C 18.869534 31.751123 19.925751 32.361534 21.08 32.699997C 21.681225 32.881935 22.332996 32.770836 22.84 32.400002C 23.351158 32.026505 23.6553 31.433054 23.66 30.799999C 23.696552 29.881659 23.102518 29.056612 22.220001 28.799999C 21.660011 28.665482 21.143679 28.390106 20.720001 28.000002C 20.226439 27.453892 19.967777 26.735392 20 26C 19.99958 25.096237 20.412067 24.241798 21.120001 23.68C 21.724335 23.187441 22.480366 22.918945 23.260002 22.920002C 23.492916 22.900238 23.727085 22.900238 23.959999 22.92C 24.520275 23.034237 25.10265 22.903202 25.560001 22.560001C 26.018644 22.208813 26.303045 21.676472 26.34 21.1C 26.656446 17.044563 30.072758 13.934844 34.139999 14C 37.127666 14.001251 39.865673 15.667194 41.239998 18.32C 41.585758 19.026663 42.313683 19.464981 43.099998 19.439999C 44.485508 19.376545 45.836723 19.882345 46.84 20.84C 47.771973 21.717106 48.300293 22.940197 48.299999 24.219999C 48.335197 26.194479 47.09 27.965248 45.220001 28.6C 44.409527 28.938366 43.914639 29.765888 44 30.639999Z"></path></g></g></g><g id="g-root-tx_tecnolog_14148q317m9bt0-fill" data-item-order="15000000000" transform="translate(212.00003051757812, 38)"><g id="tx_tecnolog_14148q317m9bt0-fill" stroke="none" fill="#f4f4f4"><g><text style="font: bold 25px Roboto, sans-serif; white-space: pre;" font-weight="bold" font-size="25px" font-family="Roboto, sans-serif"><tspan x="17.29" y="43" dominant-baseline="ideographic">Tecnologias do App ToDo</tspan></text></g></g></g><g id="g-root-ic_1_1cy075717m9cel-fill" data-item-order="15000000000" transform="translate(85.50003051757812, 224)"></g><g id="g-root-ic_chai_1d3mk2z17mc55a-fill" data-item-order="15000000000" transform="translate(253.50003051757812, 224)"></g><g id="g-root-ic_1_1ha2xwr17mhsen-fill" data-item-order="15000000000" transform="translate(421.5000305175781, 224)"></g><g id="g-root-tx_tecnolog_1ur5q2317mlzpl-fill" data-item-order="15000000000" transform="translate(38.000030517578125, 296)"><g id="tx_tecnolog_1ur5q2317mlzpl-fill" stroke="none" fill="#4f91fc"><g><text style="font: bold 20px Roboto, sans-serif; white-space: pre;" font-weight="bold" font-size="20px" font-family="Roboto, sans-serif"><tspan x="12.37" y="33.75" dominant-baseline="ideographic">Tecnologias de </tspan><tspan x="40.48" y="57.75" dominant-baseline="ideographic">Frontend</tspan></text></g></g></g><g id="g-root-tx_tecnolog_1d3mk2z17mlzbf-fill" data-item-order="15000000000" transform="translate(206.00003051757812, 296)"><g id="tx_tecnolog_1d3mk2z17mlzbf-fill" stroke="none" fill="#43dd93"><g><text style="font: bold 20px Roboto, sans-serif; white-space: pre;" font-weight="bold" font-size="20px" font-family="Roboto, sans-serif"><tspan x="12.37" y="33.75" dominant-baseline="ideographic">Tecnologias de </tspan><tspan x="41.8" y="57.75" dominant-baseline="ideographic">Backend</tspan></text></g></g></g><g id="g-root-tx_autentic_1uo1cmj17mncp1-fill" data-item-order="15000000000" transform="translate(380.0000305175781, 296)"><g id="tx_autentic_1uo1cmj17mncp1-fill" stroke="none" fill="#ffe711"><g><text style="font: bold 20px Roboto, sans-serif; white-space: pre;" font-weight="bold" font-size="20px" font-family="Roboto, sans-serif"><tspan x="16.55" y="33.75" dominant-baseline="ideographic">Autenticação</tspan></text></g></g></g><g id="g-root-tx_platafor_mcc7qj17mndan-fill" data-item-order="15000000000" transform="translate(542, 296)"><g id="tx_platafor_mcc7qj17mndan-fill" stroke="none" fill="#f79438"><g><text style="font: bold 20px Roboto, sans-serif; white-space: pre;" font-weight="bold" font-size="20px" font-family="Roboto, sans-serif"><tspan x="11.88" y="33.75" dominant-baseline="ideographic">Plataformas de </tspan><tspan x="49.83" y="57.75" dominant-baseline="ideographic">Deploy</tspan></text></g></g></g><g id="g-root-tx_vercelra_me7mzv17mncaw-fill" data-item-order="16000000000" transform="translate(556.21240234375, 384.328125)"><g id="tx_vercelra_me7mzv17mncaw-fill" stroke="none" fill="#fff0e2"><g><text style="font: 15px Roboto, sans-serif; white-space: pre;" font-size="15px" font-family="Roboto, sans-serif"><tspan x="17.96" y="27.5" dominant-baseline="ideographic">Vercel, Railway, </tspan><tspan x="16.77" y="45.5" dominant-baseline="ideographic">MongoDB Atlas</tspan></text></g></g></g><g id="g-root-tx_reacttai_1hhkmy317mm0aq-fill" data-item-order="16000000000" transform="translate(40.212432861328125, 384.328125)"><g id="tx_reacttai_1hhkmy317mm0aq-fill" stroke="none" fill="#ebf2ff"><g><text style="font: 15px Roboto, sans-serif; white-space: pre;" font-size="15px" font-family="Roboto, sans-serif"><tspan x="30.66" y="27.5" dominant-baseline="ideographic">React, Tailwind, </tspan><tspan x="17.15" y="45.5" dominant-baseline="ideographic">Axios, React Router</tspan></text></g></g></g><g id="g-root-tx_tokenweb_qqaaln17mne9y-fill" data-item-order="16000000000" transform="translate(388.2124328613281, 360.328125)"><g id="tx_tokenweb_qqaaln17mne9y-fill" stroke="none" fill="#fffbd5"><g><text style="font: 15px Roboto, sans-serif; white-space: pre;" font-size="15px" font-family="Roboto, sans-serif"><tspan x="12.21" y="30.5" dominant-baseline="ideographic">Token Web JSON</tspan></text></g></g></g><g id="g-root-tx_nodejsex_1um5xd717mndos-fill" data-item-order="16000000000" transform="translate(214.21243286132812, 384.328125)"><g id="tx_nodejsex_1um5xd717mndos-fill" stroke="none" fill="#dffff0"><g><text style="font: 15px Roboto, sans-serif; white-space: pre;" font-size="15px" font-family="Roboto, sans-serif"><tspan x="17.46" y="27.5" dominant-baseline="ideographic">Node.js, Express, </tspan><tspan x="20.7" y="45.5" dominant-baseline="ideographic">JWT, Mongoose</tspan></text></g></g></g><g id="g-root-cp_0_g-0_1qegi7f17m6iof-stroke" data-item-order="14999745274" transform="translate(47.000030517578125, 98)"><g id="cp_0_g-0_1qegi7f17m6iof-stroke" fill="none" stroke-linecap="round" stroke-linejoin="round" stroke-miterlimit="4" stroke="#f4f4f4" stroke-width="2"><g><path d="M 48.5 83.5L 10 124.5L 27.5 156.5L 37 151L 23.5 125.5L 48.5 99L 48.5 83.5Z"></path></g></g><g id="cp_0_g-0_1qegi7f17m6iof-stroke" fill="none" stroke-linecap="round" stroke-linejoin="round" stroke-miterlimit="4" stroke="#f4f4f4" stroke-width="2"><g><path d="M 96.5 83.5L 135 124.5L 117.5 156.5L 108 151L 121.5 125.5L 96.5 99L 96.5 83.5Z"></path></g></g><g id="cp_0_g-0_1qegi7f17m6iof-stroke" fill="none" stroke-linecap="round" stroke-linejoin="round" stroke-miterlimit="4" stroke="#f4f4f4" stroke-width="2"><g><path d="M 59.5 106C 59.5 113.1797 65.3203 119 72.5 119C 79.6797 119 85.5 113.1797 85.5 106L 78.5 106C 78.5 109.3137 75.8137 112 72.5 112C 69.1863 112 66.5 109.3137 66.5 106L 59.5 106ZM 72.5 34L 72.5 10"></path></g></g><g id="cp_0_g-0_1qegi7f17m6iof-stroke" fill="none" stroke-linecap="round" stroke-linejoin="round" stroke-miterlimit="4" stroke="#f4f4f4" stroke-width="2"><g><path d="M 216 83.5L 177.5 124.5L 195 156.5L 204.5 151L 191 125.5L 216 99L 216 83.5Z"></path></g></g><g id="cp_0_g-0_1qegi7f17m6iof-stroke" fill="none" stroke-linecap="round" stroke-linejoin="round" stroke-miterlimit="4" stroke="#f4f4f4" stroke-width="2"><g><path d="M 264 83.5L 302.5 124.5L 285 156.5L 275.5 151L 289 125.5L 264 99L 264 83.5Z"></path></g></g><g id="cp_0_g-0_1qegi7f17m6iof-stroke" fill="none" stroke-linecap="round" stroke-linejoin="round" stroke-miterlimit="4" stroke="#f4f4f4" stroke-width="2"><g><path d="M 227 106C 227 113.1797 232.8203 119 240 119C 247.1797 119 253 113.1797 253 106L 246 106C 246 109.3137 243.3137 112 240 112C 236.6863 112 234 109.3137 234 106L 227 106ZM 240 34L 240 10"></path></g></g><g id="cp_0_g-0_1qegi7f17m6iof-stroke" fill="none" stroke-linecap="round" stroke-linejoin="round" stroke-miterlimit="4" stroke="#f4f4f4" stroke-width="2"><g><path d="M 383.5 83.5L 345 124.5L 362.5 156.5L 372 151L 358.5 125.5L 383.5 99L 383.5 83.5Z"></path></g></g><g id="cp_0_g-0_1qegi7f17m6iof-stroke" fill="none" stroke-linecap="round" stroke-linejoin="round" stroke-miterlimit="4" stroke="#f4f4f4" stroke-width="2"><g><path d="M 431.5 83.5L 470 124.5L 452.5 156.5L 443 151L 456.5 125.5L 431.5 99L 431.5 83.5Z"></path></g></g><g id="cp_0_g-0_1qegi7f17m6iof-stroke" fill="none" stroke-linecap="round" stroke-linejoin="round" stroke-miterlimit="4" stroke="#f4f4f4" stroke-width="2"><g><path d="M 394.5 106C 394.5 113.1797 400.3203 119 407.5 119C 414.6797 119 420.5 113.1797 420.5 106L 413.5 106C 413.5 109.3137 410.8137 112 407.5 112C 404.1863 112 401.5 109.3137 401.5 106L 394.5 106Z"></path></g></g><g id="cp_0_g-0_1qegi7f17m6iof-stroke" fill="none" stroke-linecap="round" stroke-linejoin="round" stroke-miterlimit="4" stroke="#f4f4f4" stroke-width="2"><g><path d="M 551 83.5L 512.5 124.5L 530 156.5L 539.5 151L 526 125.5L 551 99L 551 83.5Z"></path></g></g><g id="cp_0_g-0_1qegi7f17m6iof-stroke" fill="none" stroke-linecap="round" stroke-linejoin="round" stroke-miterlimit="4" stroke="#f4f4f4" stroke-width="2"><g><path d="M 599 83.5L 637.5 124.5L 620 156.5L 610.5 151L 624 125.5L 599 99L 599 83.5Z"></path></g></g><g id="cp_0_g-0_1qegi7f17m6iof-stroke" fill="none" stroke-linecap="round" stroke-linejoin="round" stroke-miterlimit="4" stroke="#f4f4f4" stroke-width="2"><g><path d="M 562 106C 562 113.1797 567.8203 119 575 119C 582.1797 119 588 113.1797 588 106L 581 106C 581 109.3137 578.3137 112 575 112C 571.6863 112 569 109.3137 569 106L 562 106ZM 407.5 34L 407.5 10M 575 34L 575 10"></path></g></g></g><g id="g-root-cp_1_g-1_1d1r1nv17m7w98-stroke" data-item-order="14999745308" transform="translate(73.50003051757812, 122)"><g id="cp_1_g-1_1d1r1nv17m7w98-stroke" fill="none" stroke-linecap="round" stroke-linejoin="round" stroke-miterlimit="4" stroke="#f4f4f4" stroke-width="2"><g><path d="M 22 10L 70 10L 70 82L 22 82ZM 10 136C 10 155.882251 26.117749 172 46 172C 65.882251 172 82 155.882251 82 136C 82 116.117749 65.882251 100 46 100C 26.117749 100 10 116.117749 10 136"></path></g></g><g id="cp_1_g-1_1d1r1nv17m7w98-stroke" fill="none" stroke-linecap="round" stroke-linejoin="round" stroke-miterlimit="4" stroke="#f4f4f4" stroke-width="2"><g><path d="M 40 82C 40 85.3137 42.6863 88 46 88C 49.3137 88 52 85.3137 52 82L 40 82Z"></path></g></g></g><g id="g-root-cp_2_g-2_1hithyj17m7xn2-stroke" data-item-order="14999745316" transform="translate(241, 122)"><g id="cp_2_g-2_1hithyj17m7xn2-stroke" fill="none" stroke-linecap="round" stroke-linejoin="round" stroke-miterlimit="4" stroke="#f4f4f4" stroke-width="2"><g><path d="M 22 10L 70 10L 70 82L 22 82ZM 10 136C 10 155.882251 26.117749 172 46 172C 65.882251 172 82 155.882251 82 136C 82 116.117749 65.882251 100 46 100C 26.117749 100 10 116.117749 10 136"></path></g></g><g id="cp_2_g-2_1hithyj17m7xn2-stroke" fill="none" stroke-linecap="round" stroke-linejoin="round" stroke-miterlimit="4" stroke="#f4f4f4" stroke-width="2"><g><path d="M 40 82C 40 85.3137 42.6863 88 46 88C 49.3137 88 52 85.3137 52 82L 40 82Z"></path></g></g></g><g id="g-root-cp_3_g-3_1uljd4b17m9cso-stroke" data-item-order="14999745324" transform="translate(408.5000305175781, 122)"><g id="cp_3_g-3_1uljd4b17m9cso-stroke" fill="none" stroke-linecap="round" stroke-linejoin="round" stroke-miterlimit="4" stroke="#f4f4f4" stroke-width="2"><g><path d="M 22 10L 70 10L 70 82L 22 82ZM 10 136C 10 155.882251 26.117749 172 46 172C 65.882251 172 82 155.882251 82 136C 82 116.117749 65.882251 100 46 100C 26.117749 100 10 116.117749 10 136"></path></g></g><g id="cp_3_g-3_1uljd4b17m9cso-stroke" fill="none" stroke-linecap="round" stroke-linejoin="round" stroke-miterlimit="4" stroke="#f4f4f4" stroke-width="2"><g><path d="M 40 82C 40 85.3137 42.6863 88 46 88C 49.3137 88 52 85.3137 52 82L 40 82Z"></path></g></g></g><g id="g-root-cp_4_g-4_zjfbcb17m9dky-stroke" data-item-order="14999745332" transform="translate(576, 122)"><g id="cp_4_g-4_zjfbcb17m9dky-stroke" fill="none" stroke-linecap="round" stroke-linejoin="round" stroke-miterlimit="4" stroke="#f4f4f4" stroke-width="2"><g><path d="M 22 10L 70 10L 70 82L 22 82ZM 10 136C 10 155.882251 26.117749 172 46 172C 65.882251 172 82 155.882251 82 136C 82 116.117749 65.882251 100 46 100C 26.117749 100 10 116.117749 10 136"></path></g></g><g id="cp_4_g-4_zjfbcb17m9dky-stroke" fill="none" stroke-linecap="round" stroke-linejoin="round" stroke-miterlimit="4" stroke="#f4f4f4" stroke-width="2"><g><path d="M 40 82C 40 85.3137 42.6863 88 46 88C 49.3137 88 52 85.3137 52 82L 40 82Z"></path></g></g></g><g id="g-root-ro_hssawr17w4poj-stroke" data-item-order="14999989920" transform="translate(28.212432861328125, 372.328125)"><g id="ro_hssawr17w4poj-stroke" fill="none" stroke-linecap="round" stroke-linejoin="round" stroke-miterlimit="4" stroke="#b7b7b7" stroke-width="2"><g><path d="M 22 10L 166 10C 166 10 178 10 178 22L 178 58C 178 58 178 70 166 70L 22 70C 22 70 10 70 10 58L 10 22C 10 22 10 10 22 10"></path></g></g></g><g id="g-root-ro_1czvz23186l5og-stroke" data-item-order="14999990640" transform="translate(202.21243286132812, 372.328125)"><g id="ro_1czvz23186l5og-stroke" fill="none" stroke-linecap="round" stroke-linejoin="round" stroke-miterlimit="4" stroke="#b7b7b7" stroke-width="2"><g><path d="M 22 10L 154 10C 154 10 166 10 166 22L 166 58C 166 58 166 70 154 70L 22 70C 22 70 10 70 10 58L 10 22C 10 22 10 10 22 10"></path></g></g></g><g id="g-root-ro_m9uhqj154a7tb-stroke" data-item-order="14999991360" transform="translate(544.21240234375, 372.328125)"><g id="ro_m9uhqj154a7tb-stroke" fill="none" stroke-linecap="round" stroke-linejoin="round" stroke-miterlimit="4" stroke="#b7b7b7" stroke-width="2"><g><path d="M 22 10L 142 10C 142 10 154 10 154 22L 154 58C 154 58 154 70 142 70L 22 70C 22 70 10 70 10 58L 10 22C 10 22 10 10 22 10"></path></g></g></g><g id="g-root-ro_1q87xor140ln2n-stroke" data-item-order="14999993088" transform="translate(376.2124328613281, 348.328125)"><g id="ro_1q87xor140ln2n-stroke" fill="none" stroke-linecap="round" stroke-linejoin="round" stroke-miterlimit="4" stroke="#b7b7b7" stroke-width="2"><g><path d="M 22 10L 142 10C 142 10 154 10 154 22L 154 46C 154 46 154 58 142 58L 22 58C 22 58 10 58 10 46L 10 22C 10 22 10 10 22 10"></path></g></g></g><g id="g-root-ic_clou_1cz98h717mj5zc-stroke" data-item-order="14999997696" transform="translate(589.5, 224)"></g><g id="g-root-tx_tecnolog_14148q317m9bt0-stroke" data-item-order="15000000000" transform="translate(212.00003051757812, 38)"></g><g id="g-root-ic_1_1cy075717m9cel-stroke" data-item-order="15000000000" transform="translate(85.50003051757812, 224)"><g id="ic_1_1cy075717m9cel-stroke" fill="none" stroke-linecap="round" stroke-linejoin="round" stroke-miterlimit="4" stroke="#f4f4f4" stroke-width="2"><g><path d="M 17 55L 12.98 50C 11.693836 48.408497 10.9884 46.426224 10.98 44.380001L 10.98 34C 10.979982 33.200874 11.298797 32.434765 11.865739 31.871578C 12.432681 31.30839 13.200891 30.994673 14 31L 14 31C 15.656855 31 17 32.343147 17 34L 17 41.739998M 26 55L 26 48.720001C 26.003548 46.945229 25.47401 45.210293 24.48 43.739998L 22.200001 40.299999C 21.800718 39.636154 21.145927 39.165794 20.389343 38.999344C 19.632763 38.832893 18.841024 38.98502 18.200001 39.419998L 18.200001 39.419998C 17.030144 40.206558 16.62746 41.740185 17.26 43L 20 47.5M 51 55L 55 49.959999C 56.286163 48.3685 56.9916 46.386223 57 44.34L 57 34C 57 32.343147 55.656857 31 54 31L 54 31C 52.343147 31 51 32.343147 51 34L 51 41.739998M 42 55L 42 48.720001C 41.996452 46.945229 42.52599 45.210293 43.52 43.739998L 45.799999 40.299999C 46.199284 39.636154 46.854073 39.165794 47.610657 38.999344C 48.367237 38.832893 49.158974 38.98502 49.799999 39.419998L 49.799999 39.419998C 50.969856 40.206558 51.37254 41.740185 50.740002 43L 48 47.5M 43 14L 51 22L 43 30M 27 14L 19 22L 27 30M 37 13L 33 31"></path></g></g></g><g id="g-root-ic_chai_1d3mk2z17mc55a-stroke" data-item-order="15000000000" transform="translate(253.50003051757812, 224)"><g id="ic_chai_1d3mk2z17mc55a-stroke" fill="none" stroke-linecap="round" stroke-linejoin="round" stroke-miterlimit="4" stroke="#f4f4f4" stroke-width="2"><g><path d="M 37.5 54.5C 37.5 55.700001 36.700001 56.5 35.5 56.5L 26.5 56.5C 25.299999 56.5 24.5 55.700001 24.5 54.5L 24.5 45.5C 24.5 44.299999 25.299999 43.5 26.5 43.5L 35.5 43.5C 36.700001 43.5 37.5 44.299999 37.5 45.5L 37.5 54.5ZM 56.5 54.5C 56.5 55.700001 55.700001 56.5 54.5 56.5L 45.5 56.5C 44.299999 56.5 43.5 55.700001 43.5 54.5L 43.5 45.5C 43.5 44.299999 44.299999 43.5 45.5 43.5L 54.5 43.5C 55.700001 43.5 56.5 44.299999 56.5 45.5L 56.5 54.5ZM 37.5 50.099998L 43.5 50.099998M 27.099979 25.1C 35.715599 25.1 42.700001 22.05554 42.700001 18.299999C 42.700001 14.54446 35.715599 11.5 27.099979 11.5C 18.484341 11.5 11.5 14.54446 11.5 18.299999C 11.5 22.05554 18.484341 25.1 27.099979 25.1ZM 11.5 18.299801L 11.5 28.6998C 11.5 32.499802 18.499981 35.499802 27.099979 35.499802C 35.700001 35.499802 42.700001 32.499802 42.700001 28.6998L 42.700001 18.299801M 42.700001 37.5L 42.700001 28.699961M 11.5 28.699961L 11.5 39.099998C 11.5 41.5 14.09996 43.5 17.89996 44.700001"></path></g></g></g><g id="g-root-ic_1_1ha2xwr17mhsen-stroke" data-item-order="15000000000" transform="translate(421.5000305175781, 224)"><g id="ic_1_1ha2xwr17mhsen-stroke" fill="none" stroke-linecap="round" stroke-linejoin="round" stroke-miterlimit="4" stroke="#f4f4f4" stroke-width="2"><g><path d="M 31.5 51.5L 15.344 51.5C 14.324345 51.500534 13.3463 51.095711 12.625296 50.374706C 11.90429 49.653702 11.499469 48.675655 11.5 47.656002L 11.5 15.344C 11.499469 14.324345 11.90429 13.3463 12.625296 12.625296C 13.3463 11.90429 14.324345 11.499469 15.344 11.5L 31.656 11.5C 32.675655 11.499469 33.653702 11.90429 34.374706 12.625296C 35.095711 13.3463 35.500534 14.324345 35.5 15.344L 35.5 31.5M 11.5 42.596001L 31.5 42.596001M 17.5 35.5L 17.5 35.5C 17.5 32.186295 20.186291 29.5 23.5 29.5L 23.5 29.5C 26.813709 29.5 29.5 32.186295 29.5 35.5L 29.5 35.5M 19 25C 19 27.485281 21.014719 29.5 23.5 29.5C 25.985283 29.5 28 27.485281 28 25C 28 22.514719 25.985283 20.5 23.5 20.5C 21.014719 20.5 19 22.514719 19 25M 40.5 41.5L 53.5 41.5C 53.5 41.5 56.5 41.5 56.5 44.5L 56.5 53.5C 56.5 53.5 56.5 56.5 53.5 56.5L 40.5 56.5C 40.5 56.5 37.5 56.5 37.5 53.5L 37.5 44.5C 37.5 44.5 37.5 41.5 40.5 41.5M 40 41.542L 40 38.5C 40 34.63401 43.134007 31.500002 47 31.500002C 50.865993 31.500002 54 34.63401 54 38.5L 54 41.542M 44 49L 46 51L 50 47"></path></g></g></g><g id="g-root-tx_tecnolog_1ur5q2317mlzpl-stroke" data-item-order="15000000000" transform="translate(38.000030517578125, 296)"></g><g id="g-root-tx_tecnolog_1d3mk2z17mlzbf-stroke" data-item-order="15000000000" transform="translate(206.00003051757812, 296)"></g><g id="g-root-tx_autentic_1uo1cmj17mncp1-stroke" data-item-order="15000000000" transform="translate(380.0000305175781, 296)"></g><g id="g-root-tx_platafor_mcc7qj17mndan-stroke" data-item-order="15000000000" transform="translate(542, 296)"></g><g id="g-root-tx_vercelra_me7mzv17mncaw-stroke" data-item-order="16000000000" transform="translate(556.21240234375, 384.328125)"></g><g id="g-root-tx_reacttai_1hhkmy317mm0aq-stroke" data-item-order="16000000000" transform="translate(40.212432861328125, 384.328125)"></g><g id="g-root-tx_tokenweb_qqaaln17mne9y-stroke" data-item-order="16000000000" transform="translate(388.2124328613281, 360.328125)"></g><g id="g-root-tx_nodejsex_1um5xd717mndos-stroke" data-item-order="16000000000" transform="translate(214.21243286132812, 384.328125)"></g></g></g></svg>