<?xml version="1.0" encoding="utf-8" standalone="yes"?>
<!DOCTYPE svg PUBLIC "-//W3C//DTD SVG 1.1//EN" "http://www.w3.org/Graphics/SVG/1.1/DTD/svg11.dtd">
<svg width="950" height="985" viewBox="0 0 950 985" style="fill:none;stroke:none;fill-rule:evenodd;clip-rule:evenodd;stroke-linecap:round;stroke-linejoin:round;stroke-miterlimit:1.5;" version="1.1" xmlns="http://www.w3.org/2000/svg" xmlns:xlink="http://www.w3.org/1999/xlink"><style class="text-font-style fontImports" data-font-family="Roboto">@import url('https://fonts.googleapis.com/css2?family=Roboto:wght@400;700&amp;display=block');</style><g id="items" style="isolation: isolate"><g id="blend" style="mix-blend-mode: normal"><g id="g-root-cp_8_lines-8_1hjfvx7140bsb3-fill" data-item-order="13999199034" transform="translate(842, 241.9990234375)"><g id="cp_8_lines-8_1hjfvx7140bsb3-fill" stroke="none" fill="url(#gradient-ce519c-514854702)"><g><path d="M 46 106L 10 106L 10 34L 46 34L 46 106ZM 10 106L 10 574L 46 550L 46 106L 10 106ZM 46 10L 46 34L 10 34L 46 10Z"></path></g></g></g><g id="g-root-cp_8_lines-8_1_hriqmz140d8g1-fill" data-item-order="13999199048" transform="translate(134, 193.9990234375)"><g id="cp_8_lines-8_1_hriqmz140d8g1-fill" stroke="none" fill="url(#gradient-ce519c-514854702)"><g><path d="M 10 40L 561.9818 40L 561.9818 34L 598 10L 10 10L 10 40ZM 10 64L 562 64L 562 40L 10 40L 10 64ZM 10 64L 562 64L 562 94L 10 94Z"></path></g></g></g><g id="g-root-cp_8_lines-8_2_1q6c8yj140d88y-fill" data-item-order="13999199056" transform="translate(686, 193.9990234375)"><g id="cp_8_lines-8_2_1q6c8yj140d88y-fill" stroke="none" fill="url(#gradient-ce519c-514854702)"><g><path d="M 10 82L 10 34L 46 10L 202 58L 166 82L 10 82ZM 166 94L 10 94L 10 82L 166 82L 166 94ZM 166 142L 10 94L 166 94L 166 142Z"></path></g></g></g><g id="g-root-cp_7_lines-7_m97o0r140d6o4-fill" data-item-order="13999199082" transform="translate(806, 325.9990234375)"><g id="cp_7_lines-7_m97o0r140d6o4-fill" stroke="none" fill="url(#gradient-d5514c-497200298)"><g><path d="M 46 106L 10 106L 10 34L 46 34L 46 106ZM 10 106L 10 514L 46 490L 46 106L 10 106ZM 46 10L 46 34L 10 34L 46 10Z"></path></g></g></g><g id="g-root-cp_7_lines-7_1_1uo16cb140d6h2-fill" data-item-order="13999199096" transform="translate(134, 277.9990234375)"><g id="cp_7_lines-7_1_1uo16cb140d6h2-fill" stroke="none" fill="url(#gradient-d5514c-497200298)"><g><path d="M 10 40L 525.9818 40L 525.9818 34L 562 10L 10 10L 10 40ZM 10 64L 526 64L 526 40L 10 40L 10 64ZM 10 64L 526 64L 526 94L 10 94Z"></path></g></g></g><g id="g-root-cp_7_lines-7_2_v63mfv140d79r-fill" data-item-order="13999199104" transform="translate(650, 277.9990234375)"><g id="cp_7_lines-7_2_v63mfv140d79r-fill" stroke="none" fill="url(#gradient-d5514c-497200298)"><g><path d="M 10 82L 10 34L 46 10L 202 58L 166 82L 10 82ZM 166 94L 10 94L 10 82L 166 82L 166 94ZM 166 142L 10 94L 166 94L 166 142Z"></path></g></g></g><g id="g-root-cp_6_lines-6_1lu9lcr140d6a1-fill" data-item-order="13999199130" transform="translate(770, 409.9990234375)"><g id="cp_6_lines-6_1lu9lcr140d6a1-fill" stroke="none" fill="url(#gradient-c67b35-424552419)"><g><path d="M 46 106L 10 106L 10 34L 46 34L 46 106ZM 10 106L 10 454L 46 430L 46 106L 10 106ZM 46 10L 46 34L 10 34L 46 10Z"></path></g></g></g><g id="g-root-cp_6_lines-6_1_qs5jkr140d72b-fill" data-item-order="13999199144" transform="translate(134, 361.9990234375)"><g id="cp_6_lines-6_1_qs5jkr140d72b-fill" stroke="none" fill="url(#gradient-c67b35-424552419)"><g><path d="M 10 40L 489.9818 40L 489.9818 34L 526 10L 10 10L 10 40ZM 10 64L 490 64L 490 40L 10 40L 10 64ZM 10 64L 490 64L 490 94L 10 94Z"></path></g></g></g><g id="g-root-cp_6_lines-6_2_5uzx7140d72c-fill" data-item-order="13999199152" transform="translate(614, 361.9990234375)"><g id="cp_6_lines-6_2_5uzx7140d72c-fill" stroke="none" fill="url(#gradient-c67b35-424552419)"><g><path d="M 10 82L 10 34L 46 10L 202 58L 166 82L 10 82ZM 166 94L 10 94L 10 82L 166 82L 166 94ZM 166 142L 10 94L 166 94L 166 142Z"></path></g></g></g><g id="g-root-cp_5_lines-5_v97zvf140d8g6-fill" data-item-order="13999199178" transform="translate(734, 493.9990234375)"><g id="cp_5_lines-5_v97zvf140d8g6-fill" stroke="none" fill="url(#gradient-c3b321-14556876)"><g><path d="M 46 106L 10 106L 10 34L 46 34L 46 106ZM 10 106L 10 394L 46 370L 46 106L 10 106ZM 46 10L 46 34L 10 34L 46 10Z"></path></g></g></g><g id="g-root-cp_5_lines-5_1_7qf6j140d62o-fill" data-item-order="13999199192" transform="translate(134, 445.9990234375)"><g id="cp_5_lines-5_1_7qf6j140d62o-fill" stroke="none" fill="url(#gradient-c3b321-14556876)"><g><path d="M 10 40L 453.9818 40L 453.9818 34L 490 10L 10 10L 10 40ZM 10 76L 454 76L 454 40L 10 40L 10 76ZM 11 76L 454 76L 454 106L 11 106Z"></path></g></g></g><g id="g-root-cp_5_lines-5_2_zqwx97140d6o9-fill" data-item-order="13999199200" transform="translate(578, 445.9990234375)"><g id="cp_5_lines-5_2_zqwx97140d6o9-fill" stroke="none" fill="url(#gradient-c3b321-14556876)"><g><path d="M 10 82L 10 34L 46 10L 202 58L 166 82L 10 82ZM 166 106L 10 106L 10 82L 166 82L 166 106ZM 166 154L 10 106L 166 106L 166 154Z"></path></g></g></g><g id="g-root-cp_4_lines-4_4osvh7140d7gj-fill" data-item-order="13999199226" transform="translate(698, 589.9990234375)"><g id="cp_4_lines-4_4osvh7140d7gj-fill" stroke="none" fill="url(#gradient-87aa3f-469929121)"><g><path d="M 46 94L 10 94L 10 34L 46 34L 46 94ZM 10 94L 10 322L 46 298L 46 94L 10 94ZM 46 10L 46 34L 10 34L 46 10Z"></path></g></g></g><g id="g-root-cp_4_lines-4_1_147zdjv140d825-fill" data-item-order="13999199240" transform="translate(134, 541.9990234375)"><g id="cp_4_lines-4_1_147zdjv140d825-fill" stroke="none" fill="url(#gradient-87aa3f-469929121)"><g><path d="M 10 40L 417.9818 40L 417.9818 34L 454 10L 10 10L 10 40ZM 10 76L 418 76L 418 40L 10 40L 10 76ZM 10 76L 418 76L 418 106L 10 106Z"></path></g></g></g><g id="g-root-cp_4_lines-4_2_8vvqe3140eneu-fill" data-item-order="13999199248" transform="translate(542, 541.9990234375)"><g id="cp_4_lines-4_2_8vvqe3140eneu-fill" stroke="none" fill="url(#gradient-87aa3f-469929121)"><g><path d="M 10 82L 10 34L 46 10L 202 58L 166 82L 10 82ZM 166 106L 10 106L 10 82L 166 82L 166 106ZM 166 154L 10 106L 166 106L 166 154Z"></path></g></g></g><g id="g-root-cp_3_lines-3_13zv7ff140elmw-fill" data-item-order="13999199274" transform="translate(662, 685.9990234375)"><g id="cp_3_lines-3_13zv7ff140elmw-fill" stroke="none" fill="url(#gradient-40ae79-389135447)"><g><path d="M 46 82L 10 82L 10 34L 46 34L 46 82ZM 10 82L 10 250L 46 226L 46 82L 10 82ZM 46 10L 46 34L 10 34L 46 10Z"></path></g></g></g><g id="g-root-cp_3_lines-3_1_m97o0r140ekua-fill" data-item-order="13999199288" transform="translate(134, 637.9990234375)"><g id="cp_3_lines-3_1_m97o0r140ekua-fill" stroke="none" fill="url(#gradient-40ae79-389135447)"><g><path d="M 10 40L 381.9818 40L 381.9818 34L 418 10L 10 10L 10 40ZM 10 76L 382 76L 382 40L 10 40L 10 76ZM 10 76L 382 76L 382 106L 10 106Z"></path></g></g></g><g id="g-root-cp_3_lines-3_2_1lse63f140elfv-fill" data-item-order="13999199296" transform="translate(506, 637.9990234375)"><g id="cp_3_lines-3_2_1lse63f140elfv-fill" stroke="none" fill="url(#gradient-40ae79-389135447)"><g><path d="M 10 82L 10 34L 46 10L 202 58L 166 82L 10 82ZM 166 106L 10 106L 10 82L 166 82L 166 106ZM 166 154L 10 106L 166 106L 166 154Z"></path></g></g></g><g id="g-root-cp_2_lines-2_qqa4bf140em85-fill" data-item-order="13999199322" transform="translate(626, 781.9990234375)"><g id="cp_2_lines-2_qqa4bf140em85-fill" stroke="none" fill="url(#gradient-2898bd-56937253)"><g><path d="M 46 70L 10 70L 10 34L 46 34L 46 70ZM 10 70L 10 178L 46 154L 46 70L 10 70ZM 46 10L 46 34L 10 34L 46 10Z"></path></g></g></g><g id="g-root-cp_2_lines-2_1_4jt2sb140elfz-fill" data-item-order="13999199336" transform="translate(134, 733.9990234375)"><g id="cp_2_lines-2_1_4jt2sb140elfz-fill" stroke="none" fill="url(#gradient-2898bd-56937253)"><g><path d="M 10 40L 345.9818 40L 345.9818 34L 382 10L 10 10L 10 40ZM 10 76L 346 76L 346 40L 10 40L 10 76ZM 10 76L 346 76L 346 106L 10 106Z"></path></g></g></g><g id="g-root-cp_2_lines-2_2_1ltn49n140enm0-fill" data-item-order="13999199344" transform="translate(470, 733.9990234375)"><g id="cp_2_lines-2_2_1ltn49n140enm0-fill" stroke="none" fill="url(#gradient-2898bd-56937253)"><g><path d="M 10 82L 10 34L 46 10L 202 58L 166 82L 10 82ZM 166 106L 10 106L 10 82L 166 82L 166 106ZM 166 154L 10 106L 166 106L 166 154Z"></path></g></g></g><g id="g-root-cp_1_lines-1_qs5jkr140el8i-fill" data-item-order="13999199370" transform="translate(134, 829.9990234375)"><g id="cp_1_lines-1_qs5jkr140el8i-fill" stroke="none" fill="url(#gradient-4f83d8-135982273)"><g><path d="M 10 40L 310.02 40L 310.02 34L 346.02 10L 10 10L 10 40ZM 10 76L 310 76L 310 40L 10 40L 10 76ZM 10 76L 310 76L 310 106L 10 106Z"></path></g></g></g><g id="g-root-cp_1_lines-1_1qbc1nf140elu3-fill" data-item-order="13999199378" transform="translate(590, 877.9990234375)"><g id="cp_1_lines-1_1qbc1nf140elu3-fill" stroke="none" fill="url(#gradient-4f83d8-135982273)"><g><path d="M 46 58L 10 58L 10 34L 46 34L 46 58ZM 10 58L 10 106L 46 82L 46 58L 10 58ZM 46 10L 46 34L 10 34L 46 10Z"></path></g></g></g><g id="g-root-cp_1_lines-1_1_v97zvf140emmd-fill" data-item-order="13999199392" transform="translate(434, 829.9990234375)"><defs><linearGradient id="gradient-ce519c-514854702" x2="0" y2="1"><stop offset="0" stop-color="#dd57a8"></stop><stop offset="1" stop-color="#bf4a90"></stop></linearGradient><linearGradient id="gradient-d5514c-497200298" x2="0" y2="1"><stop offset="0" stop-color="#e45752"></stop><stop offset="1" stop-color="#c54a46"></stop></linearGradient><linearGradient id="gradient-c67b35-424552419" x2="0" y2="1"><stop offset="0" stop-color="#dc8331"></stop><stop offset="1" stop-color="#b07239"></stop></linearGradient><linearGradient id="gradient-c3b321-14556876" x2="0" y2="1"><stop offset="0" stop-color="#ddc916"></stop><stop offset="1" stop-color="#a99c2c"></stop></linearGradient><linearGradient id="gradient-87aa3f-469929121" x2="0" y2="1"><stop offset="0" stop-color="#91bb39"></stop><stop offset="1" stop-color="#7d9844"></stop></linearGradient><linearGradient id="gradient-40ae79-389135447" x2="0" y2="1"><stop offset="0" stop-color="#3bc482"></stop><stop offset="1" stop-color="#449870"></stop></linearGradient><linearGradient id="gradient-2898bd-56937253" x2="0" y2="1"><stop offset="0" stop-color="#1fa9d7"></stop><stop offset="1" stop-color="#3187a3"></stop></linearGradient><linearGradient id="gradient-4f83d8-135982273" x2="0" y2="1"><stop offset="0" stop-color="#4e88e6"></stop><stop offset="1" stop-color="#4f7eca"></stop></linearGradient></defs><g id="cp_1_lines-1_1_v97zvf140emmd-fill" stroke="none" fill="url(#gradient-4f83d8-135982273)"><g><path d="M 202 58L 46 10L 10 34L 10 82L 166 82L 202 58ZM 166 106L 10 106L 10 82L 166 82L 166 106ZM 10 106L 166 154L 166 106L 10 106Z"></path></g></g></g><g id="g-root-tx_5_4gosij140bsay-fill" data-item-order="14000000000" transform="translate(638, 511.9990234375)"><g id="tx_5_4gosij140bsay-fill" stroke="none" fill="#fff7ad"><g><text style="font: bold 30px Roboto, sans-serif; white-space: pre;" font-weight="bold" font-size="30px" font-family="Roboto, sans-serif"><tspan x="13.39" y="45" dominant-baseline="ideographic">5</tspan></text></g></g></g><g id="g-root-tx_implemen_146qijf140adxl-fill" data-item-order="14000000000" transform="translate(146, 475.9990234375)"><g id="tx_implemen_146qijf140adxl-fill" stroke="none" fill="#f4f4f4"><g><text style="font: 15px Roboto, sans-serif; white-space: pre;" font-size="15px" font-family="Roboto, sans-serif"><tspan x="12" y="27.5" dominant-baseline="ideographic">Implemente Jest e React Testing Library para garantir a </tspan><tspan x="12" y="45.5" dominant-baseline="ideographic">qualidade do código.</tspan></text></g></g></g><g id="g-root-ic_refr_i09h0b140hgjy-fill" data-item-order="14000000000" transform="translate(50, 559.9990234375)"></g><g id="g-root-ic_sear_hte923140bsw3-fill" data-item-order="14000000000" transform="translate(50, 463.9990234375)"></g><g id="g-root-tx_gerencie_v8lly3140hekk-fill" data-item-order="14000000000" transform="translate(146, 571.9990234375)"><g id="tx_gerencie_v8lly3140hekk-fill" stroke="none" fill="#f4f4f4"><g><text style="font: 15px Roboto, sans-serif; white-space: pre;" font-size="15px" font-family="Roboto, sans-serif"><tspan x="12" y="27.5" dominant-baseline="ideographic">Gerencie dados usando PostgreSQL, MySQL ou </tspan><tspan x="12" y="45.5" dominant-baseline="ideographic">MongoDB.</tspan></text></g></g></g><g id="g-root-tx_6_1463yaj140r85r-fill" data-item-order="14000000000" transform="translate(674, 421.9990234375)"><g id="tx_6_1463yaj140r85r-fill" stroke="none" fill="#ffdebf"><g><text style="font: bold 30px Roboto, sans-serif; white-space: pre;" font-weight="bold" font-size="30px" font-family="Roboto, sans-serif"><tspan x="13.39" y="45" dominant-baseline="ideographic">6</tspan></text></g></g></g><g id="g-root-tx_4_93dil7140hfyd-fill" data-item-order="14000000000" transform="translate(602, 607.9990234375)"><g id="tx_4_93dil7140hfyd-fill" stroke="none" fill="#e4ffac"><g><text style="font: bold 30px Roboto, sans-serif; white-space: pre;" font-weight="bold" font-size="30px" font-family="Roboto, sans-serif"><tspan x="13.39" y="45" dominant-baseline="ideographic">4</tspan></text></g></g></g><g id="g-root-tx_usegiteg_1czvja3140r8cu-fill" data-item-order="14000000000" transform="translate(146, 391.9990234375)"><g id="tx_usegiteg_1czvja3140r8cu-fill" stroke="none" fill="#f4f4f4"><g><text style="font: 15px Roboto, sans-serif; white-space: pre;" font-size="15px" font-family="Roboto, sans-serif"><tspan x="12" y="30.5" dominant-baseline="ideographic">Use Git e GitHub para gerenciar e rastrear mudanças no código.</tspan></text></g></g></g><g id="g-root-ic_6_4o6ee3140r9q8-fill" data-item-order="14000000000" transform="translate(50, 373.9990234375)"></g><g id="g-root-tx_7_1uo16cb140lo24-fill" data-item-order="14000000000" transform="translate(710, 337.9990234375)"><g id="tx_7_1uo16cb140lo24-fill" stroke="none" fill="#ffd0ce"><g><text style="font: bold 30px Roboto, sans-serif; white-space: pre;" font-weight="bold" font-size="30px" font-family="Roboto, sans-serif"><tspan x="13.39" y="45" dominant-baseline="ideographic">7</tspan></text></g></g></g><g id="g-root-ic_hand_hvw5ej140r85l-fill" data-item-order="14000000000" transform="translate(50, 655.9990234375)"></g><g id="g-root-tx_utilizen_958xuj140puz3-fill" data-item-order="14000000000" transform="translate(146, 667.9990234375)"><g id="tx_utilizen_958xuj140puz3-fill" stroke="none" fill="#f4f4f4"><g><text style="font: 15px Roboto, sans-serif; white-space: pre;" font-size="15px" font-family="Roboto, sans-serif"><tspan x="12" y="27.5" dominant-baseline="ideographic">Utilize Node.js e Express para desenvolver lógica </tspan><tspan x="12" y="45.5" dominant-baseline="ideographic">do lado do servidor.</tspan></text></g></g></g><g id="g-root-tx_3_m9u89n140r94w-fill" data-item-order="14000000000" transform="translate(566, 703.9990234375)"><g id="tx_3_m9u89n140r94w-fill" stroke="none" fill="#bbffde"><g><text style="font: bold 30px Roboto, sans-serif; white-space: pre;" font-weight="bold" font-size="30px" font-family="Roboto, sans-serif"><tspan x="13.39" y="45" dominant-baseline="ideographic">3</tspan></text></g></g></g><g id="g-root-tx_implante_1cvi7ob140lo97-fill" data-item-order="14000000000" transform="translate(146, 307.9990234375)"><g id="tx_implante_1cvi7ob140lo97-fill" stroke="none" fill="#f4f4f4"><g><text style="font: 15px Roboto, sans-serif; white-space: pre;" font-size="15px" font-family="Roboto, sans-serif"><tspan x="12" y="30.5" dominant-baseline="ideographic">Implante aplicações web usando Vercel e Railway.</tspan></text></g></g></g><g id="g-root-ic_1_dfg317140lo25-fill" data-item-order="14000000000" transform="translate(50, 289.9990234375)"></g><g id="g-root-tx_8_m7c8rf140g001-fill" data-item-order="14000000000" transform="translate(734, 253.9990234375)"><g id="tx_8_m7c8rf140g001-fill" stroke="none" fill="#ffcdeb"><g><text style="font: bold 30px Roboto, sans-serif; white-space: pre;" font-weight="bold" font-size="30px" font-family="Roboto, sans-serif"><tspan x="13.39" y="45" dominant-baseline="ideographic">8</tspan></text></g></g></g><g id="g-root-ic_code_m8ld97140btac-fill" data-item-order="14000000000" transform="translate(50, 751.9990234375)"></g><g id="g-root-tx_explorer_qva3bv140adj6-fill" data-item-order="14000000000" transform="translate(146, 763.9990234375)"><g id="tx_explorer_qva3bv140adj6-fill" stroke="none" fill="#f4f4f4"><g><text style="font: 15px Roboto, sans-serif; white-space: pre;" font-size="15px" font-family="Roboto, sans-serif"><tspan x="12" y="27.5" dominant-baseline="ideographic">Explore React e Tailwind para criar </tspan><tspan x="12" y="45.5" dominant-baseline="ideographic">interfaces web dinâmicas e responsivas.</tspan></text></g></g></g><g id="g-root-tx_2_8vvwpn140bsp7-fill" data-item-order="14000000000" transform="translate(530, 799.9990234375)"><g id="tx_2_8vvwpn140bsp7-fill" stroke="none" fill="#c2f0ff"><g><text style="font: bold 30px Roboto, sans-serif; white-space: pre;" font-weight="bold" font-size="30px" font-family="Roboto, sans-serif"><tspan x="13.39" y="45" dominant-baseline="ideographic">2</tspan></text></g></g></g><g id="g-root-tx_apliquej_4osvh7140elmo-fill" data-item-order="14000000000" transform="translate(146, 223.9990234375)"><g id="tx_apliquej_4osvh7140elmo-fill" stroke="none" fill="#f4f4f4"><g><text style="font: 15px Roboto, sans-serif; white-space: pre;" font-size="15px" font-family="Roboto, sans-serif"><tspan x="12" y="30.5" dominant-baseline="ideographic">Aplique JWT e OAuth2 para proteger aplicações web.</tspan></text></g></g></g><g id="g-root-ic_key_1hap8pn140g1du-fill" data-item-order="14000000000" transform="translate(50, 205.9990234375)"></g><g id="g-root-ic_empl_18kookb140isy6-fill" data-item-order="14000000000" transform="translate(50, 847.9990234375)"></g><g id="g-root-tx_aprendah_142zr6j140iuq5-fill" data-item-order="14000000000" transform="translate(146, 859.9990234375)"><g id="tx_aprendah_142zr6j140iuq5-fill" stroke="none" fill="#f4f4f4"><g><text style="font: 15px Roboto, sans-serif; white-space: pre;" font-size="15px" font-family="Roboto, sans-serif"><tspan x="12" y="27.5" dominant-baseline="ideographic">Aprenda HTML, CSS e JavaScript para </tspan><tspan x="12" y="45.5" dominant-baseline="ideographic">construir interfaces web básicas.</tspan></text></g></g></g><g id="g-root-tx_1_m97ucb140pw5r-fill" data-item-order="14000000000" transform="translate(494, 895.9990234375)"><g id="tx_1_m97ucb140pw5r-fill" stroke="none" fill="#d0e2ff"><g><text style="font: bold 30px Roboto, sans-serif; white-space: pre;" font-weight="bold" font-size="30px" font-family="Roboto, sans-serif"><tspan x="13.39" y="45" dominant-baseline="ideographic">1</tspan></text></g></g></g><g id="g-root-tx_dominand_1usehy3140en7z-fill" data-item-order="14000000000" transform="translate(261, 85.9990234375)"><g id="tx_dominand_1usehy3140en7z-fill" stroke="none" fill="#f4f4f4"><g><text style="font: bold 25px Roboto, sans-serif; white-space: pre;" font-weight="bold" font-size="25px" font-family="Roboto, sans-serif"><tspan x="11.98" y="43" dominant-baseline="ideographic">Dominando o Desenvolvimento Web</tspan></text></g></g></g><g id="g-root-cp_8_lines-8_1hjfvx7140bsb3-stroke" data-item-order="13999199034" transform="translate(842, 241.9990234375)"><g id="cp_8_lines-8_1hjfvx7140bsb3-stroke" fill="none" stroke-linecap="round" stroke-linejoin="round" stroke-miterlimit="4" stroke="#f4f4f4" stroke-width="2"><g><path d="M 46 550L 46 10M 10 574L 46 550"></path></g></g></g><g id="g-root-cp_8_lines-8_1_hriqmz140d8g1-stroke" data-item-order="13999199048" transform="translate(134, 193.9990234375)"></g><g id="g-root-cp_8_lines-8_2_1q6c8yj140d88y-stroke" data-item-order="13999199056" transform="translate(686, 193.9990234375)"><g id="cp_8_lines-8_2_1q6c8yj140d88y-stroke" fill="none" stroke-linecap="round" stroke-linejoin="round" stroke-miterlimit="4" stroke="#f4f4f4" stroke-width="2"><g><path d="M 202 58L 46 10L 10 34L 166 82L 202 58ZM 10 94L 10 34M 166 142L 166 82"></path></g></g></g><g id="g-root-cp_7_lines-7_m97o0r140d6o4-stroke" data-item-order="13999199082" transform="translate(806, 325.9990234375)"><g id="cp_7_lines-7_m97o0r140d6o4-stroke" fill="none" stroke-linecap="round" stroke-linejoin="round" stroke-miterlimit="4" stroke="#f4f4f4" stroke-width="2"><g><path d="M 46.000061 490L 46.000061 9.999985M 10 514L 46 490"></path></g></g></g><g id="g-root-cp_7_lines-7_1_1uo16cb140d6h2-stroke" data-item-order="13999199096" transform="translate(134, 277.9990234375)"></g><g id="g-root-cp_7_lines-7_2_v63mfv140d79r-stroke" data-item-order="13999199104" transform="translate(650, 277.9990234375)"><g id="cp_7_lines-7_2_v63mfv140d79r-stroke" fill="none" stroke-linecap="round" stroke-linejoin="round" stroke-miterlimit="4" stroke="#f4f4f4" stroke-width="2"><g><path d="M 202 58L 46 10L 10 34L 166 82L 202 58ZM 10 94L 10 34M 166 142L 166 82"></path></g></g></g><g id="g-root-cp_6_lines-6_1lu9lcr140d6a1-stroke" data-item-order="13999199130" transform="translate(770, 409.9990234375)"><g id="cp_6_lines-6_1lu9lcr140d6a1-stroke" fill="none" stroke-linecap="round" stroke-linejoin="round" stroke-miterlimit="4" stroke="#f4f4f4" stroke-width="2"><g><path d="M 46 430L 46 10M 10 454L 46 430"></path></g></g></g><g id="g-root-cp_6_lines-6_1_qs5jkr140d72b-stroke" data-item-order="13999199144" transform="translate(134, 361.9990234375)"></g><g id="g-root-cp_6_lines-6_2_5uzx7140d72c-stroke" data-item-order="13999199152" transform="translate(614, 361.9990234375)"><g id="cp_6_lines-6_2_5uzx7140d72c-stroke" fill="none" stroke-linecap="round" stroke-linejoin="round" stroke-miterlimit="4" stroke="#f4f4f4" stroke-width="2"><g><path d="M 202 58L 46 10L 10 34L 166 82L 202 58ZM 10 94L 10 34M 166 142L 166 82"></path></g></g></g><g id="g-root-cp_5_lines-5_v97zvf140d8g6-stroke" data-item-order="13999199178" transform="translate(734, 493.9990234375)"><g id="cp_5_lines-5_v97zvf140d8g6-stroke" fill="none" stroke-linecap="round" stroke-linejoin="round" stroke-miterlimit="4" stroke="#f4f4f4" stroke-width="2"><g><path d="M 46 370L 46 10M 10 394L 46 370"></path></g></g></g><g id="g-root-cp_5_lines-5_1_7qf6j140d62o-stroke" data-item-order="13999199192" transform="translate(134, 445.9990234375)"></g><g id="g-root-cp_5_lines-5_2_zqwx97140d6o9-stroke" data-item-order="13999199200" transform="translate(578, 445.9990234375)"><g id="cp_5_lines-5_2_zqwx97140d6o9-stroke" fill="none" stroke-linecap="round" stroke-linejoin="round" stroke-miterlimit="4" stroke="#f4f4f4" stroke-width="2"><g><path d="M 202 58L 46 10L 10 34L 166 82L 202 58ZM 10.000031 106L 10.000031 34M 166.000031 154L 166.000031 82"></path></g></g></g><g id="g-root-cp_4_lines-4_4osvh7140d7gj-stroke" data-item-order="13999199226" transform="translate(698, 589.9990234375)"><g id="cp_4_lines-4_4osvh7140d7gj-stroke" fill="none" stroke-linecap="round" stroke-linejoin="round" stroke-miterlimit="4" stroke="#f4f4f4" stroke-width="2"><g><path d="M 46 298L 46 10M 10 322L 46 298"></path></g></g></g><g id="g-root-cp_4_lines-4_1_147zdjv140d825-stroke" data-item-order="13999199240" transform="translate(134, 541.9990234375)"></g><g id="g-root-cp_4_lines-4_2_8vvqe3140eneu-stroke" data-item-order="13999199248" transform="translate(542, 541.9990234375)"><g id="cp_4_lines-4_2_8vvqe3140eneu-stroke" fill="none" stroke-linecap="round" stroke-linejoin="round" stroke-miterlimit="4" stroke="#f4f4f4" stroke-width="2"><g><path d="M 202 58L 46 10L 10 34L 166 82L 202 58ZM 10.000031 106L 10.000031 34M 166.000031 154L 166.000031 82"></path></g></g></g><g id="g-root-cp_3_lines-3_13zv7ff140elmw-stroke" data-item-order="13999199274" transform="translate(662, 685.9990234375)"><g id="cp_3_lines-3_13zv7ff140elmw-stroke" fill="none" stroke-linecap="round" stroke-linejoin="round" stroke-miterlimit="4" stroke="#f4f4f4" stroke-width="2"><g><path d="M 46 226L 46 10M 10 250L 46 226"></path></g></g></g><g id="g-root-cp_3_lines-3_1_m97o0r140ekua-stroke" data-item-order="13999199288" transform="translate(134, 637.9990234375)"></g><g id="g-root-cp_3_lines-3_2_1lse63f140elfv-stroke" data-item-order="13999199296" transform="translate(506, 637.9990234375)"><g id="cp_3_lines-3_2_1lse63f140elfv-stroke" fill="none" stroke-linecap="round" stroke-linejoin="round" stroke-miterlimit="4" stroke="#f4f4f4" stroke-width="2"><g><path d="M 202 58L 46 10L 10 34L 166 82L 202 58ZM 10.000031 106L 10.000031 34M 166 154L 166 82"></path></g></g></g><g id="g-root-cp_2_lines-2_qqa4bf140em85-stroke" data-item-order="13999199322" transform="translate(626, 781.9990234375)"><g id="cp_2_lines-2_qqa4bf140em85-stroke" fill="none" stroke-linecap="round" stroke-linejoin="round" stroke-miterlimit="4" stroke="#f4f4f4" stroke-width="2"><g><path d="M 46 154L 46 10M 10 178L 46 154"></path></g></g></g><g id="g-root-cp_2_lines-2_1_4jt2sb140elfz-stroke" data-item-order="13999199336" transform="translate(134, 733.9990234375)"></g><g id="g-root-cp_2_lines-2_2_1ltn49n140enm0-stroke" data-item-order="13999199344" transform="translate(470, 733.9990234375)"><g id="cp_2_lines-2_2_1ltn49n140enm0-stroke" fill="none" stroke-linecap="round" stroke-linejoin="round" stroke-miterlimit="4" stroke="#f4f4f4" stroke-width="2"><g><path d="M 202 58L 46 10L 10 34L 166 82L 202 58ZM 10.000031 106L 10.000031 34M 166.000031 154L 166.000031 82"></path></g></g></g><g id="g-root-cp_1_lines-1_qs5jkr140el8i-stroke" data-item-order="13999199370" transform="translate(134, 829.9990234375)"></g><g id="g-root-cp_1_lines-1_1qbc1nf140elu3-stroke" data-item-order="13999199378" transform="translate(590, 877.9990234375)"><g id="cp_1_lines-1_1qbc1nf140elu3-stroke" fill="none" stroke-linecap="round" stroke-linejoin="round" stroke-miterlimit="4" stroke="#f4f4f4" stroke-width="2"><g><path d="M 46 82L 46 10M 10 106L 46 82"></path></g></g></g><g id="g-root-cp_1_lines-1_1_v97zvf140emmd-stroke" data-item-order="13999199392" transform="translate(434, 829.9990234375)"><g id="cp_1_lines-1_1_v97zvf140emmd-stroke" fill="none" stroke-linecap="round" stroke-linejoin="round" stroke-miterlimit="4" stroke="#f4f4f4" stroke-width="2"><g><path d="M 202 58L 46 10L 10 34L 166 82L 202 58ZM 10 106L 10 34M 166.000031 82L 166.000031 154M 10 106L 166 154"></path></g></g></g><g id="g-root-tx_5_4gosij140bsay-stroke" data-item-order="14000000000" transform="translate(638, 511.9990234375)"></g><g id="g-root-tx_implemen_146qijf140adxl-stroke" data-item-order="14000000000" transform="translate(146, 475.9990234375)"></g><g id="g-root-ic_refr_i09h0b140hgjy-stroke" data-item-order="14000000000" transform="translate(50, 559.9990234375)"><g id="ic_refr_i09h0b140hgjy-stroke" fill="none" stroke-linecap="round" stroke-linejoin="round" stroke-miterlimit="4" stroke="#f4f4f4" stroke-width="2"><g><path d="M 11.3025 21.252501C 11.3025 26.775347 21.935738 31.252501 35.052498 31.252501C 48.169262 31.252501 58.802498 26.775347 58.802498 21.252501C 58.802498 15.729652 48.169262 11.2525 35.052498 11.2525C 21.935738 11.2525 11.3025 15.729652 11.3025 21.252501ZM 35.052498 41.25C 21.9375 41.25 11.3025 36.775002 11.3025 31.25M 32.552498 52.447502C 20.612499 51.922497 11.3025 47.669998 11.3025 42.5M 32.552498 63.697502C 20.612499 63.172497 11.3025 58.920002 11.3025 53.752499L 11.3025 21.25M 58.802498 21.252501L 58.802498 33.752502M 57.550003 48.752502L 68.800003 48.752502L 68.800003 37.502502M 67.945 48.75C 65.667488 42.304157 59.319702 38.213707 52.508781 38.803047C 45.697861 39.392387 40.147045 44.512405 39.01059 51.253654C 37.874134 57.994904 41.439575 64.651764 47.680847 67.441475C 53.922119 70.231178 61.260109 68.447906 65.525002 63.105003"></path></g></g></g><g id="g-root-ic_sear_hte923140bsw3-stroke" data-item-order="14000000000" transform="translate(50, 463.9990234375)"><g id="ic_sear_hte923140bsw3-stroke" fill="none" stroke-linecap="round" stroke-linejoin="round" stroke-miterlimit="4" stroke="#f4f4f4" stroke-width="2"><g><path d="M 53.9575 53.862499L 68.847496 68.75M 11.25 36.212498C 11.25 50.019615 22.442883 61.212502 36.25 61.212502C 50.057121 61.212502 61.25 50.019615 61.25 36.212502C 61.25 22.40538 50.057121 11.212501 36.25 11.212501C 22.442883 11.212501 11.25 22.40538 11.25 36.212502ZM 45 28.75L 52.5 36.25L 45 43.75M 27.5 28.75L 20 36.25L 27.5 43.75M 40 26.25L 32.5 46.25"></path></g></g></g><g id="g-root-tx_gerencie_v8lly3140hekk-stroke" data-item-order="14000000000" transform="translate(146, 571.9990234375)"></g><g id="g-root-tx_6_1463yaj140r85r-stroke" data-item-order="14000000000" transform="translate(674, 421.9990234375)"></g><g id="g-root-tx_4_93dil7140hfyd-stroke" data-item-order="14000000000" transform="translate(602, 607.9990234375)"></g><g id="g-root-tx_usegiteg_1czvja3140r8cu-stroke" data-item-order="14000000000" transform="translate(146, 391.9990234375)"></g><g id="g-root-ic_6_4o6ee3140r9q8-stroke" data-item-order="14000000000" transform="translate(50, 373.9990234375)"><g id="ic_6_4o6ee3140r9q8-stroke" fill="none" stroke-linecap="round" stroke-linejoin="round" stroke-miterlimit="4" stroke="#f4f4f4" stroke-width="2"><g><path d="M 13.75 46.247498L 31.25 46.247498C 31.25 46.247498 33.75 46.247498 33.75 48.747498L 33.75 66.247498C 33.75 66.247498 33.75 68.747498 31.25 68.747498L 13.75 68.747498C 13.75 68.747498 11.25 68.747498 11.25 66.247498L 11.25 48.747498C 11.25 48.747498 11.25 46.247498 13.75 46.247498M 48.75 46.247498L 66.25 46.247498C 66.25 46.247498 68.75 46.247498 68.75 48.747498L 68.75 66.247498C 68.75 66.247498 68.75 68.747498 66.25 68.747498L 48.75 68.747498C 48.75 68.747498 46.25 68.747498 46.25 66.247498L 46.25 48.747498C 46.25 48.747498 46.25 46.247498 48.75 46.247498M 33.75 11.2475L 51.25 11.2475C 51.25 11.2475 53.75 11.2475 53.75 13.7475L 53.75 31.247499C 53.75 31.247499 53.75 33.747498 51.25 33.747498L 33.75 33.747498C 33.75 33.747498 31.25 33.747498 31.25 31.247499L 31.25 13.7475C 31.25 13.7475 31.25 11.2475 33.75 11.2475M 61.25 46.25L 61.25 41.25C 61.25 39.869286 60.130711 38.75 58.75 38.75L 21.25 38.75C 19.869287 38.75 18.75 39.869286 18.75 41.25L 18.75 46.25M 43.75 33.747498L 43.75 38.747498M 36.25 18.747499L 48.75 18.747499M 51.25 53.747501L 63.75 53.747501M 16.25 53.747501L 28.75 53.747501"></path></g></g></g><g id="g-root-tx_7_1uo16cb140lo24-stroke" data-item-order="14000000000" transform="translate(710, 337.9990234375)"></g><g id="g-root-ic_hand_hvw5ej140r85l-stroke" data-item-order="14000000000" transform="translate(50, 655.9990234375)"><g id="ic_hand_hvw5ej140r85l-stroke" fill="none" stroke-linecap="round" stroke-linejoin="round" stroke-miterlimit="4" stroke="#f4f4f4" stroke-width="2"><g><path d="M 11.25 68.75L 11.25 43.75M 11.25 48.75L 28.75 48.75C 32.892136 48.75 36.25 52.107864 36.25 56.25L 51.25 56.25C 55.392136 56.25 58.75 59.607864 58.75 63.75L 11.25 63.75ZM 36.25 56.25L 28.75 56.25M 45.625 29.375C 45.279823 29.375 45 29.654823 45 30C 45 30.345177 45.279823 30.625 45.625 30.625C 45.970177 30.625 46.25 30.345177 46.25 30C 46.25 29.654823 45.970177 29.375 45.625 29.375L 45.625 29.375M 68.75 30C 68.75 26.548222 65.951782 23.75 62.5 23.75L 42.5 23.75C 39.048222 23.75 36.25 26.548222 36.25 30C 36.25 33.451778 39.048222 36.25 42.5 36.25L 62.5 36.25C 65.951782 36.25 68.75 33.451778 68.75 30ZM 45.625 41.875C 45.279823 41.875 45 42.154823 45 42.5C 45 42.845177 45.279823 43.125 45.625 43.125C 45.970177 43.125 46.25 42.845177 46.25 42.5C 46.25 42.154823 45.970177 41.875 45.625 41.875L 45.625 41.875M 68.75 42.5C 68.75 39.048222 65.951782 36.25 62.5 36.25L 42.5 36.25C 39.048222 36.25 36.25 39.048222 36.25 42.5C 36.25 45.951782 39.048222 48.75 42.5 48.75L 62.5 48.75C 65.951782 48.75 68.75 45.951782 68.75 42.5ZM 45.625 16.875C 45.279823 16.875 45 17.154821 45 17.5C 45 17.845179 45.279823 18.125 45.625 18.125C 45.970177 18.125 46.25 17.845179 46.25 17.5C 46.25 17.154821 45.970177 16.875 45.625 16.875L 45.625 16.875M 68.75 17.5C 68.75 14.048221 65.951782 11.25 62.5 11.25L 42.5 11.25C 39.048222 11.25 36.25 14.048221 36.25 17.5C 36.25 20.95178 39.048222 23.75 42.5 23.75L 62.5 23.75C 65.951782 23.75 68.75 20.95178 68.75 17.5Z"></path></g></g></g><g id="g-root-tx_utilizen_958xuj140puz3-stroke" data-item-order="14000000000" transform="translate(146, 667.9990234375)"></g><g id="g-root-tx_3_m9u89n140r94w-stroke" data-item-order="14000000000" transform="translate(566, 703.9990234375)"></g><g id="g-root-tx_implante_1cvi7ob140lo97-stroke" data-item-order="14000000000" transform="translate(146, 307.9990234375)"></g><g id="g-root-ic_1_dfg317140lo25-stroke" data-item-order="14000000000" transform="translate(50, 289.9990234375)"><g id="ic_1_dfg317140lo25-stroke" fill="none" stroke-linecap="round" stroke-linejoin="round" stroke-miterlimit="4" stroke="#f4f4f4" stroke-width="2"><g><path d="M 11.25 40C 11.250001 55.878185 24.121815 68.75 40 68.75C 55.878185 68.75 68.75 55.878185 68.75 40C 68.75 24.121815 55.878185 11.250001 40 11.250001C 24.121815 11.250001 11.250001 24.121815 11.250001 40M 46.199997 48.599998C 47.07626 45.817993 47.514824 42.916702 47.5 40C 47.747833 32.973427 45.025375 26.167292 40 21.25C 34.974625 26.167292 32.252167 32.973427 32.5 40C 32.485176 42.916702 32.92374 45.817993 33.799999 48.599998C 31.637436 51.510323 30.736475 55.168224 31.299999 58.75C 32.671139 56.902924 34.365074 55.319096 36.300003 54.075005C 37.286076 55.813999 38.534031 57.390804 40 58.75C 41.483727 57.394489 42.748703 55.817486 43.75 54.074997C 45.684925 55.319096 47.37886 56.902924 48.75 58.75C 49.299328 55.161423 48.380177 51.502838 46.199997 48.599998ZM 37.5 36.25C 37.5 37.630714 38.619286 38.75 40 38.75C 41.380714 38.75 42.5 37.630714 42.5 36.25C 42.5 34.869286 41.380714 33.75 40 33.75C 38.619286 33.75 37.5 34.869286 37.5 36.25"></path></g></g></g><g id="g-root-tx_8_m7c8rf140g001-stroke" data-item-order="14000000000" transform="translate(734, 253.9990234375)"></g><g id="g-root-ic_code_m8ld97140btac-stroke" data-item-order="14000000000" transform="translate(50, 751.9990234375)"><g id="ic_code_m8ld97140btac-stroke" fill="none" stroke-linecap="round" stroke-linejoin="round" stroke-miterlimit="4" stroke="#f4f4f4" stroke-width="2"><g><path d="M 32.87505 20.218775L 32.87505 14.468775C 32.87505 12.968775 33.87505 11.968765 35.375 11.968765L 59.375 11.968765C 59.875 11.968765 60.625 12.218765 60.875 12.468765L 66.875 17.468775C 67.375 17.968775 67.875 18.718775 67.875 19.468775L 67.875 50.71875C 67.875 52.21875 66.875 53.21875 65.375 53.21875L 46.625 53.21875M 10 10M 42.875 22.468725L 39.125 26.218725L 42.875 29.968725M 10 10M 57.875 22.468725L 61.625 26.218725L 57.875 29.968725M 10 10M 47.875 31.2188L 52.875 19.9688M 43.875 68.03125C 41.625 61.53125 35.375 56.78125 28.12495 56.78125C 20.87495 56.78125 14.37495 61.53125 12.12494 68.03125M 27.875 34.281227L 27.875 26.781225M 14.12475 41.53125L 41.624752 41.53125M 17.62475 44.28125C 17.87475 49.78125 22.37475 54.28125 27.87475 54.28125C 33.624748 54.28125 38.124748 49.78125 38.124748 44.03125L 38.124748 39.53125C 38.124748 33.781227 33.624748 29.281225 27.87475 29.281225C 22.37475 29.281225 17.87475 33.781227 17.62475 39.28125L 17.62475 44.28125Z"></path></g></g></g><g id="g-root-tx_explorer_qva3bv140adj6-stroke" data-item-order="14000000000" transform="translate(146, 763.9990234375)"></g><g id="g-root-tx_2_8vvwpn140bsp7-stroke" data-item-order="14000000000" transform="translate(530, 799.9990234375)"></g><g id="g-root-tx_apliquej_4osvh7140elmo-stroke" data-item-order="14000000000" transform="translate(146, 223.9990234375)"></g><g id="g-root-ic_key_1hap8pn140g1du-stroke" data-item-order="14000000000" transform="translate(50, 205.9990234375)"><g id="ic_key_1hap8pn140g1du-stroke" fill="none" stroke-linecap="round" stroke-linejoin="round" stroke-miterlimit="4" stroke="#f4f4f4" stroke-width="2"><g><path d="M 13.75 19.4375L 13.75 38.529999C 13.900469 51.45285 22.108257 62.905212 34.297501 67.199997L 37.099998 68.235001C 38.972206 68.922539 41.02779 68.922539 42.900002 68.235001L 45.702499 67.199997C 57.891739 62.905212 66.099533 51.45285 66.249992 38.529999L 66.25 19.4375C 66.244865 17.904238 65.326385 16.521597 63.915001 15.9225C 56.341988 12.761635 48.205826 11.171996 40 11.25C 31.794176 11.171996 23.658016 12.761635 16.084999 15.9225C 14.673617 16.521597 13.755135 17.904238 13.75 19.4375ZM 56.25 23.75L 51.25 23.75L 40.364998 34.635002C 35.963001 32.647865 30.769814 34.090858 28.023977 38.064106C 25.278145 42.037354 25.764418 47.405312 29.179554 50.820446C 32.594688 54.23558 37.962646 54.721855 41.935894 51.976021C 45.909142 49.230186 47.352135 44.036999 45.364998 39.635002L 56.25 28.75ZM 33.125 43.75C 33.125 45.475891 34.524109 46.875 36.25 46.875C 37.975891 46.875 39.375 45.475891 39.375 43.75C 39.375 42.024113 37.975891 40.625 36.25 40.625C 34.524109 40.625 33.125 42.024113 33.125 43.75Z"></path></g></g></g><g id="g-root-ic_empl_18kookb140isy6-stroke" data-item-order="14000000000" transform="translate(50, 847.9990234375)"><g id="ic_empl_18kookb140isy6-stroke" fill="none" stroke-linecap="round" stroke-linejoin="round" stroke-miterlimit="4" stroke="#f4f4f4" stroke-width="2"><g><path d="M 56.25 67.5L 23.75 67.5L 19.525 50.599998C 19.342218 49.848442 19.517601 49.0546 20 48.450001C 20.471619 47.853157 21.18932 47.503506 21.950001 47.5L 58.049999 47.5C 58.81945 47.495857 59.547943 47.846268 60.025002 48.450001C 60.498672 49.058857 60.664742 49.852287 60.475002 50.599998ZM 12.5 67.5L 67.5 67.5M 40 40L 40 43.75M 32.5 16.825001C 35.233139 19.649788 38.994419 21.246302 42.924999 21.25C 44.90609 21.223074 46.86153 20.797979 48.674999 20M 31.25 21.25C 31.250002 26.082493 35.167511 30 40.000004 30C 44.832493 30 48.750004 26.082493 48.750004 21.25C 48.750004 16.417509 44.832493 12.500001 40.000004 12.500001C 35.167511 12.500001 31.250002 16.417509 31.250002 21.25M 36.875 56.875C 36.875 58.600887 38.274113 60 40 60C 41.725891 60 43.125 58.600887 43.125 56.875C 43.125 55.149113 41.725891 53.75 40 53.75C 38.274113 53.75 36.875 55.149113 36.875 56.875M 51.875 42.5C 50.188957 37.370319 45.399666 33.903126 40 33.903126C 34.600334 33.903126 29.811045 37.370319 28.125 42.5"></path></g></g></g><g id="g-root-tx_aprendah_142zr6j140iuq5-stroke" data-item-order="14000000000" transform="translate(146, 859.9990234375)"></g><g id="g-root-tx_1_m97ucb140pw5r-stroke" data-item-order="14000000000" transform="translate(494, 895.9990234375)"></g><g id="g-root-tx_dominand_1usehy3140en7z-stroke" data-item-order="14000000000" transform="translate(261, 85.9990234375)"></g></g></g></svg>