<?xml version="1.0" encoding="utf-8" standalone="yes"?>
<!DOCTYPE svg PUBLIC "-//W3C//DTD SVG 1.1//EN" "http://www.w3.org/Graphics/SVG/1.1/DTD/svg11.dtd">
<svg width="624" height="468" viewBox="0 0 624 468" style="fill:none;stroke:none;fill-rule:evenodd;clip-rule:evenodd;stroke-linecap:round;stroke-linejoin:round;stroke-miterlimit:1.5;" version="1.1" xmlns="http://www.w3.org/2000/svg" xmlns:xlink="http://www.w3.org/1999/xlink"><style class="text-font-style fontImports" data-font-family="Roboto">@import url('https://fonts.googleapis.com/css2?family=Roboto:wght@400;700&amp;display=block');</style><g id="items" style="isolation: isolate"><g id="blend" style="mix-blend-mode: normal"><g id="g-root-cp_3_border-3_59hug3y9fke-fill" data-item-order="-214262" transform="translate(62, 122)"><g id="cp_3_border-3_59hug3y9fke-fill" stroke="none" fill="url(#gradient-c3b321-14556876)"><g><path d="M 10 57C 10 31.0426 30.2333 10 55.1923 10L 106 10L 106 57L 10 57ZM 10 57L 106 57L 106 59L 10 59L 10 57ZM 106.000293 10L 537.999993 10L 537.999993 106L 105.999893 106L 106.000293 10ZM 10 59.01L 106 59L 106 106.0004L 57 106.0104C 31 106.0104 10 84.9676 10 59.01Z"></path></g></g></g><g id="g-root-cp_3_icon_qtfgrc3y9eko-fill" data-item-order="-214239" transform="translate(138.65234375, 122)"></g><g id="g-root-cp_2_border-2_1usfgyg3y9f5u-fill" data-item-order="-214218" transform="translate(38, 218)"><g id="cp_2_border-2_1usfgyg3y9f5u-fill" stroke="none" fill="url(#gradient-40ae79-389135447)"><g><path d="M 10 57C 10 31.0426 30.2333 10 55.1923 10L 106 10L 106 57L 10 57ZM 10 57L 106 57L 106 59L 10 59L 10 57ZM 106.000293 10L 561.999993 10L 561.999993 106L 105.999893 106L 106.000293 10ZM 10 59.01L 106 59L 106 106.0004L 57 106.0104C 31 106.0104 10 84.9676 10 59.01Z"></path></g></g></g><g id="g-root-cp_2_icon_3_vahx203y9fyk-fill" data-item-order="-214195" transform="translate(114.65234375, 218)"></g><g id="g-root-cp_1_border-1_1lynvyw3y9eyu-fill" data-item-order="-214174" transform="translate(14, 314)"><defs><linearGradient id="gradient-c3b321-14556876" x2="0" y2="1"><stop offset="0" stop-color="#ddc916"></stop><stop offset="1" stop-color="#a99c2c"></stop></linearGradient><linearGradient id="gradient-40ae79-389135447" x2="0" y2="1"><stop offset="0" stop-color="#3bc482"></stop><stop offset="1" stop-color="#449870"></stop></linearGradient><linearGradient id="gradient-4f83d8-135982273" x2="0" y2="1"><stop offset="0" stop-color="#4e88e6"></stop><stop offset="1" stop-color="#4f7eca"></stop></linearGradient></defs><g id="cp_1_border-1_1lynvyw3y9eyu-fill" stroke="none" fill="url(#gradient-4f83d8-135982273)"><g><path d="M 10 57C 10 31.0426 29.424 10 53.3846 10L 586 10L 586 57L 10 57ZM 10 56.980469L 586 56.980469L 586 58.999969L 10 58.999969L 10 56.980469ZM 10 59L 586 59C 586 84.9576 566.5759 106.0004 542.6151 106.0004L 53.3849 106.0004C 29.4241 106.0004 10 84.9576 10 59Z"></path></g></g></g><g id="g-root-cp_1_icon_6_qwju6w3y9fr4-fill" data-item-order="-214153" transform="translate(110, 314)"></g><g id="g-root-tx_dominand_9p5k3yaubm-fill" data-item-order="0" transform="translate(68, 38)"><g id="tx_dominand_9p5k3yaubm-fill" stroke="none" fill="#f4f4f4"><g><text style="font: bold 25px Roboto, sans-serif; white-space: pre;" font-weight="bold" font-size="25px" font-family="Roboto, sans-serif"><tspan x="16.34" y="43" dominant-baseline="ideographic">Dominando o Desenvolvimento Frontend</tspan></text></g></g></g><g id="g-root-tx_3_8x5nko3yaux7-fill" data-item-order="0" transform="translate(98, 152)"><g id="tx_3_8x5nko3yaux7-fill" stroke="none" fill="#fff7ad"><g><text style="font: bold 30px Roboto, sans-serif; white-space: pre;" font-weight="bold" font-size="30px" font-family="Roboto, sans-serif"><tspan x="13.39" y="46" dominant-baseline="ideographic">3</tspan></text></g></g></g><g id="g-root-ic_robo_zlbmhk3yatxg-fill" data-item-order="0" transform="translate(182, 146)"></g><g id="g-root-tx_javascri_mgqf883xvfgt-fill" data-item-order="0" transform="translate(278, 134)"><g id="tx_javascri_mgqf883xvfgt-fill" stroke="none" fill="#fff7ad"><g><text style="font: bold 20px Roboto, sans-serif; white-space: pre;" font-weight="bold" font-size="20px" font-family="Roboto, sans-serif"><tspan x="12" y="34" dominant-baseline="ideographic">JavaScript</tspan></text></g></g></g><g id="g-root-tx_adicione_13z9sig3xwtu6-fill" data-item-order="0" transform="translate(278, 170)"><g id="tx_adicione_13z9sig3xwtu6-fill" stroke="none" fill="#f4f4f4"><g><text style="font: 15px Roboto, sans-serif; white-space: pre;" font-size="15px" font-family="Roboto, sans-serif"><tspan x="12" y="28" dominant-baseline="ideographic">Adicione interatividade e dinamismo com </tspan><tspan x="12" y="46" dominant-baseline="ideographic">JavaScript.</tspan></text></g></g></g><g id="g-root-tx_2_v5i7iw3xwtn3-fill" data-item-order="0" transform="translate(74, 248)"><g id="tx_2_v5i7iw3xwtn3-fill" stroke="none" fill="#bbffde"><g><text style="font: bold 30px Roboto, sans-serif; white-space: pre;" font-weight="bold" font-size="30px" font-family="Roboto, sans-serif"><tspan x="13.39" y="46" dominant-baseline="ideographic">2</tspan></text></g></g></g><g id="g-root-ic_1_18i7o2g3xwu88-fill" data-item-order="0" transform="translate(158, 242)"></g><g id="g-root-tx_css_90fiw3y3u2t-fill" data-item-order="0" transform="translate(254, 236)"><g id="tx_css_90fiw3y3u2t-fill" stroke="none" fill="#bbffde"><g><text style="font: bold 20px Roboto, sans-serif; white-space: pre;" font-weight="bold" font-size="20px" font-family="Roboto, sans-serif"><tspan x="12" y="34" dominant-baseline="ideographic">CSS</tspan></text></g></g></g><g id="g-root-tx_domineoe_zs6xlk3y3uoe-fill" data-item-order="0" transform="translate(254, 272)"><g id="tx_domineoe_zs6xlk3y3uoe-fill" stroke="none" fill="#f4f4f4"><g><text style="font: 15px Roboto, sans-serif; white-space: pre;" font-size="15px" font-family="Roboto, sans-serif"><tspan x="12" y="31" dominant-baseline="ideographic">Domine o estilo e o layout com CSS.</tspan></text></g></g></g><g id="g-root-tx_1_4hypp43y591c-fill" data-item-order="0" transform="translate(50, 344)"><g id="tx_1_4hypp43y591c-fill" stroke="none" fill="#d0e2ff"><g><text style="font: bold 30px Roboto, sans-serif; white-space: pre;" font-weight="bold" font-size="30px" font-family="Roboto, sans-serif"><tspan x="13.39" y="46" dominant-baseline="ideographic">1</tspan></text></g></g></g><g id="g-root-ic_1_dgq3dk3y58n7-fill" data-item-order="0" transform="translate(134, 338)"></g><g id="g-root-tx_html_1q7m9aw3y6nt1-fill" data-item-order="0" transform="translate(230, 332)"><g id="tx_html_1q7m9aw3y6nt1-fill" stroke="none" fill="#d0e2ff"><g><text style="font: bold 20px Roboto, sans-serif; white-space: pre;" font-weight="bold" font-size="20px" font-family="Roboto, sans-serif"><tspan x="12" y="34" dominant-baseline="ideographic">HTML</tspan></text></g></g></g><g id="g-root-tx_aprendaa_1upb6oo3y6m12-fill" data-item-order="0" transform="translate(230, 368)"><g id="tx_aprendaa_1upb6oo3y6m12-fill" stroke="none" fill="#f4f4f4"><g><text style="font: 15px Roboto, sans-serif; white-space: pre;" font-size="15px" font-family="Roboto, sans-serif"><tspan x="12" y="31" dominant-baseline="ideographic">Aprenda a estruturar conteúdo web com HTML.</tspan></text></g></g></g><g id="g-root-cp_3_border-3_59hug3y9fke-stroke" data-item-order="-214262" transform="translate(62, 122)"><g id="cp_3_border-3_59hug3y9fke-stroke" fill="none" stroke-linecap="round" stroke-linejoin="round" stroke-miterlimit="4" stroke="#f4f4f4" stroke-width="2"><g><path d="M 10 57C 10 31.0426 31.0426 10 57 10L 206.5 10M 10 58.999969L 10 56.980469M 10 59C 10 84.9576 31 106.0004 57 106.0004L 86.5 106.0004M 207 106.0004L 183 106.0004M 206.642944 10L 538.000244 10L 538.000244 106L 206.643144 106"></path></g></g></g><g id="g-root-cp_3_icon_qtfgrc3y9eko-stroke" data-item-order="-214239" transform="translate(138.65234375, 122)"><g id="cp_3_icon_qtfgrc3y9eko-stroke" fill="none" stroke-linecap="round" stroke-linejoin="round" stroke-miterlimit="4" stroke="#f4f4f4" stroke-width="2"><g><path d="M 29.347656 23.4164C 29.347656 18.4588 31.036556 13.7576 33.989656 10M 129.989656 10C 127.036556 13.7576 125.347656 18.4587 125.347656 23.4164M 125.347656 23L 125.347656 83M 29.347656 83L 29.347656 23M 125.3474 82.871094C 125.3474 90.341794 120.7018 97.170994 113.3474 100.511994C 110.4109 101.845994 107.9063 103.736094 105.9568 106.001194M 29.3474 82.871094C 29.3474 90.341794 24.7018 97.170994 17.3474 100.511994C 14.4326 101.836194 11.9432 103.708294 10 105.951194"></path></g></g></g><g id="g-root-cp_2_border-2_1usfgyg3y9f5u-stroke" data-item-order="-214218" transform="translate(38, 218)"><g id="cp_2_border-2_1usfgyg3y9f5u-stroke" fill="none" stroke-linecap="round" stroke-linejoin="round" stroke-miterlimit="4" stroke="#f4f4f4" stroke-width="2"><g><path d="M 10 57C 10 31.0426 31.0426 10 57 10L 110.5 10M 10 58.999969L 10 56.980469M 10 59C 10 84.9576 31 106.0004 57 106.0004L 86.5 106.0004M 207 106.0004L 183 106.0004M 206.64296 10L 562.00026 10L 562.00026 106L 206.64316 106"></path></g></g></g><g id="g-root-cp_2_icon_3_vahx203y9fyk-stroke" data-item-order="-214195" transform="translate(114.65234375, 218)"><g id="cp_2_icon_3_vahx203y9fyk-stroke" fill="none" stroke-linecap="round" stroke-linejoin="round" stroke-miterlimit="4" stroke="#f4f4f4" stroke-width="2"><g><path d="M 29.347656 23.4164C 29.347656 18.4588 31.036556 13.7576 33.989656 10M 129.989656 10C 127.036556 13.7576 125.347656 18.4587 125.347656 23.4164M 125.347656 23L 125.347656 83M 29.347656 83L 29.347656 23M 125.3474 82.871094C 125.3474 90.341794 120.7018 97.170994 113.3474 100.511994C 110.4109 101.845994 107.9063 103.736094 105.9568 106.001194M 29.3474 82.871094C 29.3474 90.341794 24.7018 97.170994 17.3474 100.511994C 14.4326 101.836194 11.9432 103.708294 10 105.951194"></path></g></g></g><g id="g-root-cp_1_border-1_1lynvyw3y9eyu-stroke" data-item-order="-214174" transform="translate(14, 314)"><g id="cp_1_border-1_1lynvyw3y9eyu-stroke" fill="none" stroke-linecap="round" stroke-linejoin="round" stroke-miterlimit="4" stroke="#f4f4f4" stroke-width="2"><g><path d="M 10 57C 10 31.0426 31.0426 10 57 10L 110.5 10M 586.00029 57L 586.00029 10L 206.64299 10M 586 56.980469L 586 58.999969M 10 58.999969L 10 56.980469M 10 59C 10 84.9576 29.4241 106.0004 53.3849 106.0004L 542.6151 106.0004C 566.5759 106.0004 586 84.9576 586 59"></path></g></g></g><g id="g-root-cp_1_icon_6_qwju6w3y9fr4-stroke" data-item-order="-214153" transform="translate(110, 314)"><g id="cp_1_icon_6_qwju6w3y9fr4-stroke" fill="none" stroke-linecap="round" stroke-linejoin="round" stroke-miterlimit="4" stroke="#f4f4f4" stroke-width="2"><g><path d="M 10 23.4164C 10 18.4588 11.6889 13.7576 14.642 10M 110.642 10C 107.6889 13.7576 106 18.4587 106 23.4164M 106 23L 106 60M 10 60L 10 23M 10 59.75C 10 85.2927 30.7065 105.9992 56.2492 105.9992L 59.7508 105.9992C 85.2935 105.9992 106 85.2927 106 59.75"></path></g></g></g><g id="g-root-tx_dominand_9p5k3yaubm-stroke" data-item-order="0" transform="translate(68, 38)"></g><g id="g-root-tx_3_8x5nko3yaux7-stroke" data-item-order="0" transform="translate(98, 152)"></g><g id="g-root-ic_robo_zlbmhk3yatxg-stroke" data-item-order="0" transform="translate(182, 146)"><g id="ic_robo_zlbmhk3yatxg-stroke" fill="none" stroke-linecap="round" stroke-linejoin="round" stroke-miterlimit="4" stroke="#f4f4f4" stroke-width="2"><g><path d="M 35.8116 34.850403C 33.629799 37.0322 32.417603 40.1838 32.417603 43.3354L 32.417603 47.4566C 32.417603 50.123199 30.2358 52.305199 27.569059 52.305199L 25.144779 52.305199C 22.478081 52.305199 20.29624 50.123199 20.29624 47.4566L 20.29624 43.3354C 20.29624 40.1838 19.084099 37.0322 16.90226 34.850403C 14.478001 32.668602 13.023439 29.274561 13.023439 25.638161C 13.023439 18.36536 19.084099 12.30468 26.35692 12.30468C 29.00374 12.30468 31.49 13.1074 33.582001 14.479139M 26.359381 52.3046L 26.359381 55.698601M 20.296879 42.609402L 32.418198 42.609402M 42.203999 17.454L 50.976002 17.454C 50.976002 17.454 54.976002 17.454 54.976002 21.454L 54.976002 26.502001C 54.976002 26.502001 54.976002 30.502001 50.976002 30.502001L 42.203999 30.502001C 42.203999 30.502001 38.204002 30.502001 38.204002 26.502001L 38.204002 21.454C 38.204002 21.454 38.204002 17.454 42.203999 17.454M 10 10M 46.591801 12.30678L 46.591801 17.453121M 10 10M 43.841801 22.81702L 43.841801 25.140621M 10 10M 49.341801 22.81702L 49.341801 25.140621"></path></g></g></g><g id="g-root-tx_javascri_mgqf883xvfgt-stroke" data-item-order="0" transform="translate(278, 134)"></g><g id="g-root-tx_adicione_13z9sig3xwtu6-stroke" data-item-order="0" transform="translate(278, 170)"></g><g id="g-root-tx_2_v5i7iw3xwtn3-stroke" data-item-order="0" transform="translate(74, 248)"></g><g id="g-root-ic_1_18i7o2g3xwu88-stroke" data-item-order="0" transform="translate(158, 242)"><g id="ic_1_18i7o2g3xwu88-stroke" fill="none" stroke-linecap="round" stroke-linejoin="round" stroke-miterlimit="4" stroke="#f4f4f4" stroke-width="2"><g><path d="M 32.118 30.823999C 29.44397 31.97307 27.40062 34.226593 26.518 37L 13 37C 11.895431 37 11 37.895432 11 39L 11 55C 11 56.104568 11.895431 57 13 57L 40 57C 41.104568 57 42 56.104568 42 55L 42 47.956001C 44.173504 46.330025 45.591625 43.889465 45.927998 41.195999M 45.495998 31.096001L 56.627998 14.162001C 57.065399 13.58161 57.153538 12.809624 56.858219 12.145578C 56.562897 11.481532 55.930599 11.029946 55.206661 10.966039C 54.482719 10.902131 53.78109 11.235961 53.374001 11.838L 40.856003 28M 32.620003 38.265999C 32.223152 38.432976 31.975016 38.832359 32.001114 39.262112C 32.027214 39.691864 32.321861 40.058281 32.736 40.176003C 39.514 42.125999 44.736 37.734001 45.689999 34.346001C 46.432823 31.686197 44.878803 28.927824 42.219002 28.185001C 39.559196 27.442177 36.800823 28.996197 36.057999 31.656C 35.188 34.774002 35.599998 37 32.620003 38.265999Z"></path></g></g></g><g id="g-root-tx_css_90fiw3y3u2t-stroke" data-item-order="0" transform="translate(254, 236)"></g><g id="g-root-tx_domineoe_zs6xlk3y3uoe-stroke" data-item-order="0" transform="translate(254, 272)"></g><g id="g-root-tx_1_4hypp43y591c-stroke" data-item-order="0" transform="translate(50, 344)"></g><g id="g-root-ic_1_dgq3dk3y58n7-stroke" data-item-order="0" transform="translate(134, 338)"><g id="ic_1_dgq3dk3y58n7-stroke" fill="none" stroke-linecap="round" stroke-linejoin="round" stroke-miterlimit="4" stroke="#f4f4f4" stroke-width="2"><g><path d="M 49 35L 49 22.956001C 49.003315 16.353855 43.652145 10.999999 37.049999 11L 13 11C 11.895431 11 11 11.895431 11 13L 11 35M 39 11.168L 39 19C 39 20.104568 39.895432 21 41 21L 48.84 21M 25 41.007999L 33 41.007999M 21 41.007999L 21 57.007999M 13 57.007999L 13 41.007999M 13 49.007999L 21 49.007999M 29 41.007999L 29 57.007999M 37 57.007999L 37 41.007999L 41 49.007999L 45 41.007999L 45 57.007999M 49 41L 49 54C 49 55.656857 50.343147 57 52 57L 57 57"></path></g></g></g><g id="g-root-tx_html_1q7m9aw3y6nt1-stroke" data-item-order="0" transform="translate(230, 332)"></g><g id="g-root-tx_aprendaa_1upb6oo3y6m12-stroke" data-item-order="0" transform="translate(230, 368)"></g></g></g></svg>