<?xml version="1.0" encoding="utf-8" standalone="yes"?>
<!DOCTYPE svg PUBLIC "-//W3C//DTD SVG 1.1//EN" "http://www.w3.org/Graphics/SVG/1.1/DTD/svg11.dtd">
<svg width="732" height="906" viewBox="0 0 732 906" style="fill:none;stroke:none;fill-rule:evenodd;clip-rule:evenodd;stroke-linecap:round;stroke-linejoin:round;stroke-miterlimit:1.5;" version="1.1" xmlns="http://www.w3.org/2000/svg" xmlns:xlink="http://www.w3.org/1999/xlink"><style class="text-font-style fontImports" data-font-family="Roboto">@import url('https://fonts.googleapis.com/css2?family=Roboto:wght@400;700&amp;display=block');</style><g id="items" style="isolation: isolate"><g id="blend" style="mix-blend-mode: normal"><g id="g-root-cp_5_shape-5_58sds1ay7air-fill" data-item-order="-554028" transform="translate(344.302734375, 116)"><g id="cp_5_shape-5_58sds1ay7air-fill" stroke="none" fill="#cb68f9"><g><path d="M 27.697266 292L 15.697266 292L 15.697266 160L 27.697266 160L 27.697266 292ZM 32.2969 28.191L 27.6969 28.191L 27.6969 160L 15.6969 160L 15.6969 28.1909L 11.0169 28.1909C 10.2369 28.1909 9.7469 27.3409 10.1369 26.6609L 20.8599 10.4483C 21.2561 9.8494 22.1356 9.8508 22.5298 10.451L 33.1769 26.6609C 33.5769 27.341 33.0869 28.191 32.2969 28.191Z"></path></g></g></g><g id="g-root-cp_1_shape-1_1hgy94g1ay7ax9-fill" data-item-order="-554014" transform="translate(62.499969482421875, 115.81640625)"><g id="cp_1_shape-1_1hgy94g1ay7ax9-fill" stroke="none" fill="#fb6762"><g><path d="M 214.000203 328.183594L 45.999903 328.183494C 26.117703 328.183494 10.000003 312.081294 10.000003 292.199194L 10.000003 292.183594L 250.000203 292.183594C 250.000203 312.065794 233.882203 328.183594 214.000203 328.183594ZM 254.600031 28.374594L 250.000031 28.374594L 250.000031 160.183594L 10.000031 160.183594C 10.000052 140.301594 26.117731 124.504594 45.999931 124.504594L 172.000031 124.504594C 213.070031 124.504594 238.000031 94.374494 238.000031 55.034494L 238.000031 28.374494L 233.320031 28.374494C 232.540031 28.374494 232.050031 27.524494 232.440031 26.844494L 243.163031 10.631894C 243.559031 10.032994 244.439031 10.034394 244.833031 10.634594L 255.480031 26.844494C 255.880031 27.524594 255.390031 28.374594 254.600031 28.374594ZM 250.000031 160.183594L 250.000031 292.183594L 10.000031 292.183594L 10.000059 160.183594L 250.000031 160.183594Z"></path></g></g></g><g id="g-root-cp_3_shape-3_djto6o1ay79cf-fill" data-item-order="-553992" transform="translate(62, 398)"><g id="cp_3_shape-3_djto6o1ay79cf-fill" stroke="none" fill="#ffe711"><g><path d="M 214 64.3209C 244 64.3209 268 46 268 10L 280 10L 280 100.3055L 10 100.3055C 10.000022 80.4233 26.1177 64.3209 45.9999 64.3209L 214 64.3209Z"></path></g></g></g><g id="g-root-cp_3_shape-3_1_1qegomo1ay794x-fill" data-item-order="-553986" transform="translate(314.302734375, 116)"><g id="cp_3_shape-3_1_1qegomo1ay794x-fill" stroke="none" fill="#ffe711"><g><path d="M 27.697266 292L 15.697266 292L 15.697266 160L 27.697266 160L 27.697266 292ZM 32.2969 28.191L 27.6969 28.191L 27.6969 160L 15.6969 160L 15.6969 28.1909L 11.0169 28.1909C 10.2369 28.1909 9.7469 27.3409 10.1369 26.6609L 20.8599 10.4483C 21.2561 9.8494 22.1356 9.8508 22.5298 10.451L 33.1769 26.6609C 33.5769 27.341 33.0869 28.191 32.2969 28.191Z"></path></g></g></g><g id="g-root-cp_2_shape-2_1lpwjao1ay8pvv-fill" data-item-order="-553972" transform="translate(404.876953125, 115.81640625)"><g id="cp_2_shape-2_1lpwjao1ay8pvv-fill" stroke="none" fill="#f79438"><g><path d="M 51.623043 328.183655L 219.623043 328.183555C 239.505043 328.183555 255.623043 312.081355 255.623043 292.199255L 255.623043 292.183655L 15.623043 292.183655C 15.623043 312.065855 31.740743 328.183655 51.623043 328.183655ZM 11.0224 28.374594L 15.6224 28.374594L 15.6224 160.183594L 255.622 160.183594C 255.622 140.301594 239.505 124.504594 219.623 124.504594L 93.6224 124.504594C 52.5524 124.504594 27.6224 94.374494 27.6224 55.034494L 27.6224 28.374494L 32.3024 28.374494C 33.0824 28.374494 33.5724 27.524494 33.1824 26.844494L 22.4594 10.631894C 22.0632 10.032994 21.1837 10.034394 20.7895 10.634594L 10.1424 26.844494C 9.7424 27.524594 10.2324 28.374594 11.0224 28.374594ZM 15.62294 160.183594L 15.62294 292.183594L 255.62294 292.183594L 255.62294 160.183594L 15.62294 160.183594Z"></path></g></g></g><g id="g-root-cp_4_shape-4_v3lzn41ay8pvx-fill" data-item-order="-553952" transform="translate(380, 398)"><g id="cp_4_shape-4_v3lzn41ay8pvx-fill" stroke="none" fill="#43dd93"><g><path d="M 76 64.3209C 46 64.3209 22 46 22 10L 10 10L 10 100.3055L 280 100.3055C 280 80.4233 263.882 64.3209 244 64.3209L 76 64.3209Z"></path></g></g></g><g id="g-root-cp_4_shape-4_1_v5hewg1ay8ow7-fill" data-item-order="-553946" transform="translate(374.3828125, 116)"><g id="cp_4_shape-4_1_v5hewg1ay8ow7-fill" stroke="none" fill="#43dd93"><g><path d="M 15.623047 292L 27.623047 292L 27.623047 160L 15.623047 160L 15.623047 292ZM 11.022399 28.191L 15.6224 28.191L 15.6224 160L 27.6224 160L 27.6224 28.1909L 32.3024 28.1909C 33.0824 28.1909 33.572401 27.3409 33.182401 26.6609L 22.459401 10.4483C 22.063201 9.8494 21.1837 9.8508 20.7895 10.451L 10.1424 26.6609C 9.7424 27.341 10.2324 28.191 11.022399 28.191Z"></path></g></g></g><g id="g-root-cp_5_shape-5_1_3dd4g1ay8poh-fill" data-item-order="-553930" transform="translate(350, 398)"><g id="cp_5_shape-5_1_3dd4g1ay8poh-fill" stroke="none" fill="#cb68f9"><g><path d="M 22 208L 10 208L 10 10.000004L 22 10.000004L 22 208Z"></path></g></g></g><g id="g-root-cp_5_shape-5_2_90vsmo1ay8n4b-fill" data-item-order="-553924" transform="translate(62, 596)"><g id="cp_5_shape-5_2_90vsmo1ay8n4b-fill" stroke="none" fill="#cb68f9"><g><path d="M 298 10.0994C 297.956 46.0337 273.972 64.3209 244 64.3209L 45.9999 64.3209C 26.1177 64.3209 10.000022 80.4233 10 100.3055L 598 100.3055C 598 80.4233 581.882 64.3209 562 64.3209L 365 64.3209C 335.027 64.3209 310.045 46.033 310 10.0974M 310 10L 298 10Z"></path></g></g></g><g id="g-root-cp_3_shape-3_2_1hfpay81ay8mx9-fill" data-item-order="-553914" transform="translate(62, 488)"><g id="cp_3_shape-3_2_1hfpay81ay8mx9-fill" stroke="none" fill="#ffe711"><g><path d="M 280 10L 280 117.982445L 10 117.982445L 10.000031 10L 280 10ZM 244 154.007813L 45.9999 154.007713C 26.1177 154.007713 10.000032 137.905513 10 118.023413L 10 118.007813L 280 118.007813C 280 137.890013 263.882 154.007813 244 154.007813Z"></path></g></g></g><g id="g-root-cp_4_shape-4_2_mdl9681ay8npj-fill" data-item-order="-553892" transform="translate(380, 488)"><g id="cp_4_shape-4_2_mdl9681ay8npj-fill" stroke="none" fill="#43dd93"><g><path d="M 10 10L 10 118L 280 118L 280 10L 10 10ZM 46 154L 244 153.9999C 263.882 153.9999 280 137.8977 280 118.0156L 280 118L 10 118C 10 137.8822 26.1177 154 46 154Z"></path></g></g></g><g id="g-root-cp_5_shape-5_3_qunpgw1ay8p3d-fill" data-item-order="-553870" transform="translate(62, 686)"><g id="cp_5_shape-5_3_qunpgw1ay8p3d-fill" stroke="none" fill="#cb68f9"><g><path d="M 598 10L 598 105.9844L 10 105.9844L 10.000067 10L 598 10ZM 562 142.007813L 45.9999 142.007713C 26.1177 142.007713 10.000032 125.905513 10 106.023413L 10 106.007813L 598 106.007813C 598 125.890013 581.882 142.007813 562 142.007813Z"></path></g></g></g><g id="g-root-tx_iniciali_1hbygfk1aya32l-fill" data-item-order="0" transform="translate(92.5, 374)"><g id="tx_iniciali_1hbygfk1aya32l-fill" stroke="none" fill="#2c2c2c"><g><text style="font: 15px Roboto, sans-serif; white-space: pre;" font-size="15px" font-family="Roboto, sans-serif"><tspan x="12.65" y="28" dominant-baseline="ideographic">Inicialização rápida e fácil </tspan><tspan x="38.62" y="46" dominant-baseline="ideographic">de projetos React.</tspan></text></g></g></g><g id="g-root-tx_navegaof_1lvigfk1b843k7-fill" data-item-order="0" transform="translate(452, 350)"><g id="tx_navegaof_1lvigfk1b843k7-fill" stroke="none" fill="#2c2c2c"><g><text style="font: 15px Roboto, sans-serif; white-space: pre;" font-size="15px" font-family="Roboto, sans-serif"><tspan x="15.83" y="31" dominant-baseline="ideographic">Navegação fluida em </tspan><tspan x="15.66" y="49" dominant-baseline="ideographic">aplicações de página </tspan><tspan x="66.05" y="67" dominant-baseline="ideographic">única.</tspan></text></g></g></g><g id="g-root-tx_reactrou_1lu9i9c1b841e6-fill" data-item-order="0" transform="translate(440, 314)"><g id="tx_reactrou_1lu9i9c1b841e6-fill" stroke="none" fill="#2c2c2c"><g><text style="font: bold 20px Roboto, sans-serif; white-space: pre;" font-weight="bold" font-size="20px" font-family="Roboto, sans-serif"><tspan x="17.03" y="34" dominant-baseline="ideographic">React Router DOM</tspan></text></g></g></g><g id="g-root-tx_vitecrea_1cuw04w1aya1os-fill" data-item-order="0" transform="translate(98.5, 314)"><g id="tx_vitecrea_1cuw04w1aya1os-fill" stroke="none" fill="#2c2c2c"><g><text style="font: bold 20px Roboto, sans-serif; white-space: pre;" font-weight="bold" font-size="20px" font-family="Roboto, sans-serif"><tspan x="11.95" y="34" dominant-baseline="ideographic">Vite/Create React </tspan><tspan x="73.7" y="58" dominant-baseline="ideographic">App</tspan></text></g></g></g><g id="g-root-ic_fire_8xrc1c1b8gpai-fill" data-item-order="0" transform="translate(173, 476)"></g><g id="g-root-ic_1_94mai81b841s8-fill" data-item-order="0" transform="translate(506, 254)"></g><g id="g-root-ic_down_13z931s1b85g5f-fill" data-item-order="0" transform="translate(491, 476)"></g><g id="g-root-tx_tailwind_zlxay81b8faww-fill" data-item-order="0" transform="translate(131, 536)"><g id="tx_tailwind_zlxay81b8faww-fill" stroke="none" fill="#2c2c2c"><g><text style="font: bold 20px Roboto, sans-serif; white-space: pre;" font-weight="bold" font-size="20px" font-family="Roboto, sans-serif"><tspan x="17.32" y="34" dominant-baseline="ideographic">Tailwind CSS</tspan></text></g></g></g><g id="g-root-tx_reduxzus_4mbbu81b842yx-fill" data-item-order="0" transform="translate(443, 536)"><g id="tx_reduxzus_4mbbu81b842yx-fill" stroke="none" fill="#2c2c2c"><g><text style="font: bold 20px Roboto, sans-serif; white-space: pre;" font-weight="bold" font-size="20px" font-family="Roboto, sans-serif"><tspan x="13.48" y="34" dominant-baseline="ideographic">Redux/Zustand</tspan></text></g></g></g><g id="g-root-tx_estiliza_v7z8341b8f9xl-fill" data-item-order="0" transform="translate(89, 572)"><g id="tx_estiliza_v7z8341b8f9xl-fill" stroke="none" fill="#2c2c2c"><g><text style="font: 15px Roboto, sans-serif; white-space: pre;" font-size="15px" font-family="Roboto, sans-serif"><tspan x="14.09" y="28" dominant-baseline="ideographic">Estilização rápida e responsiva </tspan><tspan x="51.54" y="46" dominant-baseline="ideographic">com utilitários CSS.</tspan></text></g></g></g><g id="g-root-tx_requisie_1qegrsg1b8b3ls-fill" data-item-order="0" transform="translate(200, 770)"><g id="tx_requisie_1qegrsg1b8b3ls-fill" stroke="none" fill="#2c2c2c"><g><text style="font: 15px Roboto, sans-serif; white-space: pre;" font-size="15px" font-family="Roboto, sans-serif"><tspan x="14.8" y="31" dominant-baseline="ideographic">Requisições HTTP simplificadas e confiáveis.</tspan></text></g></g></g><g id="g-root-ic_box_1hdtvow1aya22u-fill" data-item-order="0" transform="translate(159, 254)"></g><g id="g-root-tx_ferramen_1utnpo01ay8poj-fill" data-item-order="0" transform="translate(152, 38)"><g id="tx_ferramen_1utnpo01ay8poj-fill" stroke="none" fill="#f4f4f4"><g><text style="font: bold 25px Roboto, sans-serif; white-space: pre;" font-weight="bold" font-size="25px" font-family="Roboto, sans-serif"><tspan x="16.78" y="43" dominant-baseline="ideographic">Ferramentas Essenciais para React</tspan></text></g></g></g><g id="g-root-ic_mq_8vw33k1b8ci69-fill" data-item-order="0" transform="translate(332, 674)"></g><g id="g-root-tx_axios_4mxsxc1b8b37r-fill" data-item-order="0" transform="translate(326, 734)"><g id="tx_axios_4mxsxc1b8b37r-fill" stroke="none" fill="#2c2c2c"><g><text style="font: bold 20px Roboto, sans-serif; white-space: pre;" font-weight="bold" font-size="20px" font-family="Roboto, sans-serif"><tspan x="14.77" y="34" dominant-baseline="ideographic">Axios</tspan></text></g></g></g><g id="g-root-tx_gerencia_1d309f41b841s2-fill" data-item-order="0" transform="translate(425, 572)"><g id="tx_gerencia_1d309f41b841s2-fill" stroke="none" fill="#2c2c2c"><g><text style="font: 15px Roboto, sans-serif; white-space: pre;" font-size="15px" font-family="Roboto, sans-serif"><tspan x="12.45" y="28" dominant-baseline="ideographic">Gerenciamento de estado </tspan><tspan x="28.94" y="46" dominant-baseline="ideographic">eficiente e escalável.</tspan></text></g></g></g><g id="g-root-cp_5_shape-5_58sds1ay7air-stroke" data-item-order="-554028" transform="translate(344.302734375, 116)"><g id="cp_5_shape-5_58sds1ay7air-stroke" fill="none" stroke-linecap="round" stroke-linejoin="round" stroke-miterlimit="4" stroke="#2c2c2c" stroke-width="2"><g><path d="M 15.697266 160L 15.697266 292M 27.697266 292L 27.697266 160M 15.6969 160L 15.6969 28.1909L 11.0169 28.1909C 10.2369 28.1909 9.7469 27.3409 10.1369 26.6609L 20.8599 10.4483C 21.2561 9.8494 22.1356 9.8508 22.5298 10.451L 33.1769 26.6609C 33.5769 27.341 33.0869 28.191 32.2969 28.191L 27.6969 28.191L 27.6969 160"></path></g></g></g><g id="g-root-cp_1_shape-1_1hgy94g1ay7ax9-stroke" data-item-order="-554014" transform="translate(62.499969482421875, 115.81640625)"><g id="cp_1_shape-1_1hgy94g1ay7ax9-stroke" fill="none" stroke-linecap="round" stroke-linejoin="round" stroke-miterlimit="4" stroke="#2c2c2c" stroke-width="2"><g><path d="M 10.000031 160.1836C 10.000031 140.3014 26.117731 124.3209 45.999931 124.3209L 172.000031 124.3209C 213.070031 124.3209 238.000031 94.1909 238.000031 54.8509L 238.000031 28.1909L 233.320031 28.1909C 232.540031 28.1909 232.050031 27.3409 232.440031 26.6609L 243.163131 10.4483C 243.559231 9.8494 244.438731 9.8508 244.833031 10.451L 255.480031 26.6609C 255.880031 27.341 255.390031 28.191 254.600031 28.191L 250.000031 28.191L 250.000031 160.1836M 250.000131 292.183594C 250.000131 312.065794 233.882331 328.191394 214.000131 328.191394L 45.999931 328.191294C 26.117731 328.191294 10.000031 312.081294 10.000031 292.199194L 10.000031 292.183594M 250.000138 292.183594L 250.000138 160.183594M 10.000031 160.183594L 10.000031 292.183594"></path></g></g></g><g id="g-root-cp_3_shape-3_djto6o1ay79cf-stroke" data-item-order="-553992" transform="translate(62, 398)"><g id="cp_3_shape-3_djto6o1ay79cf-stroke" fill="none" stroke-linecap="round" stroke-linejoin="round" stroke-miterlimit="4" stroke="#2c2c2c" stroke-width="2"><g><path d="M 268 10C 268 46 244 64.3209 214 64.3209L 45.9999 64.3209C 26.1177 64.3209 10 80.4233 10 100.3055M 280 100.3055L 280 10"></path></g></g></g><g id="g-root-cp_3_shape-3_1_1qegomo1ay794x-stroke" data-item-order="-553986" transform="translate(314.302734375, 116)"><g id="cp_3_shape-3_1_1qegomo1ay794x-stroke" fill="none" stroke-linecap="round" stroke-linejoin="round" stroke-miterlimit="4" stroke="#2c2c2c" stroke-width="2"><g><path d="M 15.697266 160L 15.697266 292M 27.697266 292L 27.697266 160M 15.6969 160L 15.6969 28.1909L 11.0169 28.1909C 10.2369 28.1909 9.7469 27.3409 10.1369 26.6609L 20.8599 10.4483C 21.2561 9.8494 22.1356 9.8508 22.5298 10.451L 33.1769 26.6609C 33.5769 27.341 33.0869 28.191 32.2969 28.191L 27.6969 28.191L 27.6969 160"></path></g></g></g><g id="g-root-cp_2_shape-2_1lpwjao1ay8pvv-stroke" data-item-order="-553972" transform="translate(404.876953125, 115.81640625)"><g id="cp_2_shape-2_1lpwjao1ay8pvv-stroke" fill="none" stroke-linecap="round" stroke-linejoin="round" stroke-miterlimit="4" stroke="#2c2c2c" stroke-width="2"><g><path d="M 255.6224 160.1836C 255.6224 140.3014 239.5047 124.3209 219.6226 124.3209L 93.6224 124.3209C 52.5524 124.3209 27.6224 94.1909 27.6224 54.8509L 27.6224 28.1909L 32.3024 28.1909C 33.0824 28.1909 33.5724 27.3409 33.1824 26.6609L 22.4594 10.4483C 22.0632 9.8494 21.1837 9.8508 20.7895 10.451L 10.1424 26.6609C 9.7424 27.341 10.2324 28.191 11.0224 28.191L 15.6224 28.191L 15.6224 160.1836M 15.623047 292.183594C 15.623047 312.065794 31.740747 328.183594 51.623047 328.183594L 219.623247 328.183494C 239.505347 328.183494 255.623047 312.081294 255.623047 292.199194L 255.623047 292.183594M 15.62294 292.183594L 15.62294 160.183594M 255.62294 160.183594L 255.62294 292.183594"></path></g></g></g><g id="g-root-cp_4_shape-4_v3lzn41ay8pvx-stroke" data-item-order="-553952" transform="translate(380, 398)"><g id="cp_4_shape-4_v3lzn41ay8pvx-stroke" fill="none" stroke-linecap="round" stroke-linejoin="round" stroke-miterlimit="4" stroke="#2c2c2c" stroke-width="2"><g><path d="M 22 10C 22 46 46 64.3209 76 64.3209L 244.0002 64.3209C 263.8824 64.3209 280 80.4233 280 100.3055M 10 100.3055L 10 10"></path></g></g></g><g id="g-root-cp_4_shape-4_1_v5hewg1ay8ow7-stroke" data-item-order="-553946" transform="translate(374.3828125, 116)"><g id="cp_4_shape-4_1_v5hewg1ay8ow7-stroke" fill="none" stroke-linecap="round" stroke-linejoin="round" stroke-miterlimit="4" stroke="#2c2c2c" stroke-width="2"><g><path d="M 27.621094 160L 27.621094 292M 15.621094 292L 15.621094 160M 27.6224 160L 27.6224 28.1909L 32.3024 28.1909C 33.0824 28.1909 33.572401 27.3409 33.182401 26.6609L 22.459401 10.4483C 22.063201 9.8494 21.1837 9.8508 20.7895 10.451L 10.1424 26.6609C 9.7424 27.341 10.2324 28.191 11.022399 28.191L 15.6224 28.191L 15.6224 160"></path></g></g></g><g id="g-root-cp_5_shape-5_1_3dd4g1ay8poh-stroke" data-item-order="-553930" transform="translate(350, 398)"><g id="cp_5_shape-5_1_3dd4g1ay8poh-stroke" fill="none" stroke-linecap="round" stroke-linejoin="round" stroke-miterlimit="4" stroke="#2c2c2c" stroke-width="2"><g><path d="M 10 10.000004L 10 208M 22 208L 22 10.000004"></path></g></g></g><g id="g-root-cp_5_shape-5_2_90vsmo1ay8n4b-stroke" data-item-order="-553924" transform="translate(62, 596)"><g id="cp_5_shape-5_2_90vsmo1ay8n4b-stroke" fill="none" stroke-linecap="round" stroke-linejoin="round" stroke-miterlimit="4" stroke="#2c2c2c" stroke-width="2"><g><path d="M 298 10C 298 46 274 64.3209 244 64.3209L 45.9999 64.3209C 26.1177 64.3209 10 80.4233 10 100.3055M 310 10C 310 46 334 64.3209 364 64.3209L 562.0001 64.3209C 581.8823 64.3209 598 80.4233 598 100.3055"></path></g></g></g><g id="g-root-cp_3_shape-3_2_1hfpay81ay8mx9-stroke" data-item-order="-553914" transform="translate(62, 488)"><g id="cp_3_shape-3_2_1hfpay81ay8mx9-stroke" fill="none" stroke-linecap="round" stroke-linejoin="round" stroke-miterlimit="4" stroke="#2c2c2c" stroke-width="2"><g><path d="M 280 117.982445L 280 10M 10 10L 10 118M 280.0001 118.007813C 280.0001 137.890013 263.8823 154.007813 244.0001 154.007813L 45.9999 154.007713C 26.1177 154.007713 10 137.905513 10 118.023413L 10 118.007813"></path></g></g></g><g id="g-root-cp_4_shape-4_2_mdl9681ay8npj-stroke" data-item-order="-553892" transform="translate(380, 488)"><g id="cp_4_shape-4_2_mdl9681ay8npj-stroke" fill="none" stroke-linecap="round" stroke-linejoin="round" stroke-miterlimit="4" stroke="#2c2c2c" stroke-width="2"><g><path d="M 10 118L 10 10M 280 10L 280 118M 10 118C 10 137.8822 26.1177 154.0078 45.9999 154.0078L 244.0001 154.0077C 263.8823 154.0077 280 137.8977 280.0001 118.0156L 280.0001 118"></path></g></g></g><g id="g-root-cp_5_shape-5_3_qunpgw1ay8p3d-stroke" data-item-order="-553870" transform="translate(62, 686)"><g id="cp_5_shape-5_3_qunpgw1ay8p3d-stroke" fill="none" stroke-linecap="round" stroke-linejoin="round" stroke-miterlimit="4" stroke="#2c2c2c" stroke-width="2"><g><path d="M 598 105.9844L 598 10M 10.0001 10L 10 106M 598.0001 106.007813C 598.0001 125.890013 581.8823 142.007813 562.0001 142.007813L 45.9999 142.007713C 26.1177 142.007713 10 125.905513 10 106.023413L 10 106.007813"></path></g></g></g><g id="g-root-tx_iniciali_1hbygfk1aya32l-stroke" data-item-order="0" transform="translate(92.5, 374)"></g><g id="g-root-tx_navegaof_1lvigfk1b843k7-stroke" data-item-order="0" transform="translate(452, 350)"></g><g id="g-root-tx_reactrou_1lu9i9c1b841e6-stroke" data-item-order="0" transform="translate(440, 314)"></g><g id="g-root-tx_vitecrea_1cuw04w1aya1os-stroke" data-item-order="0" transform="translate(98.5, 314)"></g><g id="g-root-ic_fire_8xrc1c1b8gpai-stroke" data-item-order="0" transform="translate(173, 476)"><g id="ic_fire_8xrc1c1b8gpai-stroke" fill="none" stroke-linecap="round" stroke-linejoin="round" stroke-miterlimit="4" stroke="#2c2c2c" stroke-width="2"><g><path d="M 30.128 13.926001C 30.362865 13.862209 30.610909 13.96722 30.728577 14.180258C 30.846247 14.393295 30.803055 14.659165 30.624001 14.823999C 28.381577 16.746378 27.01889 19.499191 26.85 22.448C 26.84458 25.439156 28.070629 28.300661 30.24 30.360001C 31.902523 28.6866 33.039204 26.563406 33.510002 24.251999C 33.544044 24.090137 33.652241 23.953716 33.802097 23.883705C 33.95195 23.813694 34.126011 23.818249 34.272003 23.896C 39.484089 26.796638 42.703239 32.305218 42.672001 38.269997C 42.670273 47.007027 35.587029 54.088875 26.849998 54.088875C 18.11297 54.088875 11.029726 47.007027 11.028 38.269997C 11.305316 26.822495 19.075275 16.919254 30.128 13.926001ZM 25.9 39.356003C 24.45071 40.162254 23.61158 41.745857 23.758289 43.397816C 23.904999 45.049774 25.010075 46.460712 26.578768 46.998943C 28.147461 47.537178 29.885988 47.101902 31.015999 45.887997L 34.458 42.124001L 30.378 36.912003ZM 32.253998 39.307999L 57.028 18.92"></path></g></g></g><g id="g-root-ic_1_94mai81b841s8-stroke" data-item-order="0" transform="translate(506, 254)"><g id="ic_1_94mai81b841s8-stroke" fill="none" stroke-linecap="round" stroke-linejoin="round" stroke-miterlimit="4" stroke="#2c2c2c" stroke-width="2"><g><path d="M 15 11L 53 11C 53 11 57 11 57 15L 57 53C 57 53 57 57 53 57L 15 57C 15 57 11 57 11 53L 11 15C 11 15 11 11 15 11M 11 26L 17.992001 26M 11 45L 21 45M 42 11L 42 20M 44 32L 44 41M 26 11L 26 20M 21 45C 21 47.761425 23.238577 50 26 50C 28.761423 50 31 47.761425 31 45C 31 42.238575 28.761423 40 26 40C 23.238577 40 21 42.238575 21 45M 46 32L 26 32L 17.992001 26L 26 20L 46 20L 46 32ZM 39.5 41L 47.5 41L 47.5 49L 39.5 49ZM 31 45L 39.5 45M 47.5 45L 57 45M 44 49L 44 57M 26 32L 26 40M 26 50L 26 57M 46 26L 57 26"></path></g></g></g><g id="g-root-ic_down_13z931s1b85g5f-stroke" data-item-order="0" transform="translate(491, 476)"><g id="ic_down_13z931s1b85g5f-stroke" fill="none" stroke-linecap="round" stroke-linejoin="round" stroke-miterlimit="4" stroke="#2c2c2c" stroke-width="2"><g><path d="M 10 10M 27 51L 33 57L 39 51M 11 11L 11 25C 11 26.10457 11.895431 27 13 27L 55 27C 56.104568 27 57 26.10457 57 25L 57 11M 33 27L 33 56"></path></g></g></g><g id="g-root-tx_tailwind_zlxay81b8faww-stroke" data-item-order="0" transform="translate(131, 536)"></g><g id="g-root-tx_reduxzus_4mbbu81b842yx-stroke" data-item-order="0" transform="translate(443, 536)"></g><g id="g-root-tx_estiliza_v7z8341b8f9xl-stroke" data-item-order="0" transform="translate(89, 572)"></g><g id="g-root-tx_requisie_1qegrsg1b8b3ls-stroke" data-item-order="0" transform="translate(200, 770)"></g><g id="g-root-ic_box_1hdtvow1aya22u-stroke" data-item-order="0" transform="translate(159, 254)"><g id="ic_box_1hdtvow1aya22u-stroke" fill="none" stroke-linecap="round" stroke-linejoin="round" stroke-miterlimit="4" stroke="#2c2c2c" stroke-width="2"><g><path d="M 12 46.254002L 34 52.254002M 34 52.254002L 56 46.254002M 12 46.254002L 22.986 43.375999M 12 55.375999L 12 46.504002M 56 46.504002L 56 55.375999M 34 56.375999L 34 52.254002M 41 22.124001C 41 25.99 39.834 36.124001 34 36.124001C 28.166 36.124001 27 26 27 22.124001C 27 15.124001 34 11.624 34 11.624C 34 11.624 41 15.124001 41 22.124001ZM 31.254 21.874001C 31.253672 23.390806 32.483192 24.620596 34 24.620596C 35.516808 24.620596 36.74633 23.390806 36.746002 21.874001C 36.74633 20.357193 35.516808 19.127403 34 19.127403C 32.483192 19.127403 31.253672 20.357193 31.254 21.874001M 29.365999 34.321999L 27.75 35.132C 26.836292 35.616997 25.999254 36.234329 25.265999 36.963997C 24.907139 37.3489 24.352325 37.48082 23.858627 37.29863C 23.364929 37.11644 23.028809 36.655746 23.006001 36.129997C 22.653862 33.051666 24.375515 30.11027 27.232 28.910002M 38.634003 34.321999L 40.25 35.132C 41.163704 35.616997 42.000744 36.234329 42.733997 36.963997C 43.092861 37.3489 43.647675 37.48082 44.141369 37.29863C 44.635067 37.11644 44.971191 36.655746 44.993999 36.129997C 45.346142 33.051666 43.624489 30.11027 40.768002 28.910002M 56 46.254002L 45.014 43.375999M 36.799999 42.014C 36.799999 43.560001 35.545998 47.299999 34 47.299999C 32.454002 47.299999 31.200001 43.560001 31.200001 42.014C 31.200001 40.467606 32.453606 39.214001 34 39.214001C 35.546398 39.214001 36.799999 40.467606 36.799999 42.014Z"></path></g></g></g><g id="g-root-tx_ferramen_1utnpo01ay8poj-stroke" data-item-order="0" transform="translate(152, 38)"></g><g id="g-root-ic_mq_8vw33k1b8ci69-stroke" data-item-order="0" transform="translate(332, 674)"><g id="ic_mq_8vw33k1b8ci69-stroke" fill="none" stroke-linecap="round" stroke-linejoin="round" stroke-miterlimit="4" stroke="#2c2c2c" stroke-width="2"><g><path d="M 15.5 38.200199C 17.709141 38.200199 19.5 36.409401 19.5 34.200199C 19.5 31.990999 17.709141 30.200199 15.5 30.200199C 13.29086 30.200199 11.5 31.990999 11.5 34.200199C 11.5 36.409401 13.29086 38.200199 15.5 38.200199ZM 52.5 38.200199C 54.709202 38.200199 56.5 36.409401 56.5 34.200199C 56.5 31.990999 54.709202 30.200199 52.5 30.200199C 50.290798 30.200199 48.5 31.990999 48.5 34.200199C 48.5 36.409401 50.290798 38.200199 52.5 38.200199ZM 15.86718 30.2188C 16.667179 26.41876 18.6999 22.7999 21.499901 20.3999M 52.104801 38.181602C 51.304798 41.981598 49.259399 45.426601 46.4594 47.826599M 39.099998 34.1996C 39.099998 36.599602 39.700001 38.799599 40.700001 40.799599C 38.700001 39.799599 36.5 39.1996 34.099998 39.1996C 31.700001 39.1996 29.5 39.799599 27.5 40.799599C 28.5 38.799599 29.1 36.599602 29.1 34.1996C 29.1 31.799601 28.5 29.5996 27.5 27.5996C 29.5 28.5996 31.700001 29.199619 34.099998 29.199619C 36.5 29.199619 38.700001 28.5996 40.700001 27.5996C 39.700001 29.399599 39.099998 31.799601 39.099998 34.1996ZM 10 10M 19.5 34.200199L 29.099859 34.200199M 39.0998 34.200199L 48.5 34.200199M 15.5 38.200199C 17.709141 38.200199 19.5 36.409401 19.5 34.200199C 19.5 31.990999 17.709141 30.200199 15.5 30.200199C 13.29086 30.200199 11.5 31.990999 11.5 34.200199C 11.5 36.409401 13.29086 38.200199 15.5 38.200199ZM 52.5 38.200199C 54.709202 38.200199 56.5 36.409401 56.5 34.200199C 56.5 31.990999 54.709202 30.200199 52.5 30.200199C 50.290798 30.200199 48.5 31.990999 48.5 34.200199C 48.5 36.409401 50.290798 38.200199 52.5 38.200199ZM 24.8999 54C 27.109039 54 28.8999 52.209202 28.8999 50C 28.8999 47.790798 27.109039 46 24.8999 46C 22.69076 46 20.8999 47.790798 20.8999 50C 20.8999 52.209202 22.69076 54 24.8999 54ZM 43.299999 22C 45.509201 22 47.299999 20.209141 47.299999 18C 47.299999 15.79086 45.509201 14 43.299999 14C 41.091 14 39.299999 15.79086 39.299999 18C 39.299999 20.209141 41.091 22 43.299999 22ZM 43.0998 54C 45.308998 54 47.0998 52.209202 47.0998 50C 47.0998 47.790798 45.308998 46 43.0998 46C 40.8908 46 39.0998 47.790798 39.0998 50C 39.0998 52.209202 40.8908 54 43.0998 54ZM 24.699959 22C 26.9091 22 28.699961 20.209141 28.699961 18C 28.699961 15.79086 26.9091 14 24.699959 14C 22.49082 14 20.699959 15.79086 20.699959 18C 20.699959 20.209141 22.49082 22 24.699959 22ZM 28.36718 16.399601C 30.177799 15.799601 32.1894 15.5996 34 15.5996C 36.011803 15.5996 37.822201 15.799601 39.632797 16.399601M 39.6394 51.999802C 37.826599 52.5998 36.014 52.799801 34 52.799801C 31.986 52.799801 30.173401 52.5998 28.36072 51.999802M 46.700001 20.3999C 49.5 22.999901 51.5 26.1999 52.299999 29.999901M 21.53124 47.828201C 18.73126 45.228199 16.682819 41.979599 15.88282 38.1796"></path></g></g></g><g id="g-root-tx_axios_4mxsxc1b8b37r-stroke" data-item-order="0" transform="translate(326, 734)"></g><g id="g-root-tx_gerencia_1d309f41b841s2-stroke" data-item-order="0" transform="translate(425, 572)"></g></g></g></svg>