<?xml version="1.0" encoding="utf-8" standalone="yes"?>
<!DOCTYPE svg PUBLIC "-//W3C//DTD SVG 1.1//EN" "http://www.w3.org/Graphics/SVG/1.1/DTD/svg11.dtd">
<svg width="654" height="672" viewBox="0 0 654 672" style="fill:none;stroke:none;fill-rule:evenodd;clip-rule:evenodd;stroke-linecap:round;stroke-linejoin:round;stroke-miterlimit:1.5;" version="1.1" xmlns="http://www.w3.org/2000/svg" xmlns:xlink="http://www.w3.org/1999/xlink"><style class="text-font-style fontImports" data-font-family="Roboto">@import url('https://fonts.googleapis.com/css2?family=Roboto:wght@400;700&amp;display=block');</style><g id="items" style="isolation: isolate"><g id="blend" style="mix-blend-mode: normal"><g id="g-root-cr_4_cr-small-4_dl26rc3nq6fa-fill" data-item-order="-129445" transform="translate(146, 338)"><g id="cr_4_cr-small-4_dl26rc3nq6fa-fill" stroke="none" fill="url(#gradient-7b63dc-211830244)"><g><path d="M 10 46C 10 65.882251 26.117749 82 46 82C 65.882251 82 82 65.882251 82 46C 82 26.117749 65.882251 10 46 10C 26.117749 10 10 26.117749 10 46"></path></g></g></g><g id="g-root-sy_4_line_1q5pltk3nrk0f-fill" data-item-order="-129440" transform="translate(192.68096923828125, 433.72509765625)"></g><g id="g-root-cr_3_cr-small-3_v3lk1k3nrkso-fill" data-item-order="-129437" transform="translate(290, 482)"><g id="cr_3_cr-small-3_v3lk1k3nrkso-fill" stroke="none" fill="url(#gradient-2898bd-56937253)"><g><path d="M 10 46C 10 65.882251 26.117749 82 46 82C 65.882251 82 82 65.882251 82 46C 82 26.117749 65.882251 10 46 10C 26.117749 10 10 26.117749 10 46"></path></g></g></g><g id="g-root-sy_3_line_dcy0mw3nrk01-fill" data-item-order="-129432" transform="translate(385.5244140625, 431.2138671875)"></g><g id="g-root-cr_2_cr-small-2_1hi9k3nrlky-fill" data-item-order="-129429" transform="translate(433.5849609375, 338)"><g id="cr_2_cr-small-2_1hi9k3nrlky-fill" stroke="none" fill="url(#gradient-87aa3f-469929121)"><g><path d="M 10 46C 10 65.882251 26.117749 82 46 82C 65.882251 82 82 65.882251 82 46C 82 26.117749 65.882251 10 46 10C 26.117749 10 10 26.117749 10 46"></path></g></g></g><g id="g-root-sy_2_line_1lrriyg3nrjsz-fill" data-item-order="-129424" transform="translate(382.9990234375, 239.11572265625)"></g><g id="g-root-cr_1_cr-small-1_18gb0l43nrldw-fill" data-item-order="-129421" transform="translate(290, 194)"><g id="cr_1_cr-small-1_18gb0l43nrldw-fill" stroke="none" fill="url(#gradient-40ae79-389135447)"><g><path d="M 10 46C 10 65.882251 26.117749 82 46 82C 65.882251 82 82 65.882251 82 46C 82 26.117749 65.882251 10 46 10C 26.117749 10 10 26.117749 10 46"></path></g></g></g><g id="g-root-sy_1_line_m9tz203nrklp-fill" data-item-order="-129416" transform="translate(191.62109375, 240.6142578125)"></g><g id="g-root-cr_0_cr-big_1uonhdk3nrkem-fill" data-item-order="-129379" transform="translate(242, 290)"><defs><linearGradient id="gradient-7b63dc-211830244" x2="0" y2="1"><stop offset="0" stop-color="#7f64e9"></stop><stop offset="1" stop-color="#7761cf"></stop></linearGradient><linearGradient id="gradient-2898bd-56937253" x2="0" y2="1"><stop offset="0" stop-color="#1fa9d7"></stop><stop offset="1" stop-color="#3187a3"></stop></linearGradient><linearGradient id="gradient-87aa3f-469929121" x2="0" y2="1"><stop offset="0" stop-color="#91bb39"></stop><stop offset="1" stop-color="#7d9844"></stop></linearGradient><linearGradient id="gradient-40ae79-389135447" x2="0" y2="1"><stop offset="0" stop-color="#3bc482"></stop><stop offset="1" stop-color="#449870"></stop></linearGradient><linearGradient id="gradient-8a8a8a-330675446" x2="0" y2="1"><stop offset="0" stop-color="#959595"></stop><stop offset="1" stop-color="#7f7f7f"></stop></linearGradient></defs><g id="cr_0_cr-big_1uonhdk3nrkem-fill" stroke="none" fill="url(#gradient-8a8a8a-330675446)"><g><path d="M 10 94C 10.000002 140.391921 47.608083 178.000002 94.000002 178.000002C 140.391921 178.000002 178.000002 140.391921 178.000002 94.000002C 178.000002 47.608083 140.391921 10.000002 94.000002 10.000002C 47.608083 10.000002 10.000002 47.608083 10.000002 94.000002"></path></g></g></g><g id="g-root-tx_configur_1cxzxyw3nyn0m-fill" data-item-order="0" transform="translate(272, 134)"><g id="tx_configur_1cxzxyw3nyn0m-fill" stroke="none" fill="#f4f4f4"><g><text style="font: 20px Roboto, sans-serif; white-space: pre;" font-size="20px" font-family="Roboto, sans-serif"><tspan x="15.09" y="34" dominant-baseline="ideographic">Configurar </tspan><tspan x="27.54" y="58" dominant-baseline="ideographic">Node.js</tspan></text></g></g></g><g id="g-root-ic_next_1d1qshk3nvthm-fill" data-item-order="0" transform="translate(302, 206)"></g><g id="g-root-ic_node_djt8l43nyltt-fill" data-item-order="0" transform="translate(296, 314)"></g><g id="g-root-ic_1_zmjflk3nrl6v-fill" data-item-order="0" transform="translate(158, 350)"></g><g id="g-root-tx_implemen_147z7i03nx6ob-fill" data-item-order="0" transform="translate(14, 362)"><g id="tx_implemen_147z7i03nx6ob-fill" stroke="none" fill="#f4f4f4"><g><text style="font: 20px Roboto, sans-serif; white-space: pre;" font-size="20px" font-family="Roboto, sans-serif"><tspan x="14.92" y="34" dominant-baseline="ideographic">Implementar</tspan></text></g></g></g><g id="g-root-ic_open_i097so3nudq9-fill" data-item-order="0" transform="translate(446, 350)"></g><g id="g-root-tx_gerencia_magg543nykul-fill" data-item-order="0" transform="translate(518, 350)"><g id="tx_gerencia_magg543nykul-fill" stroke="none" fill="#f4f4f4"><g><text style="font: 20px Roboto, sans-serif; white-space: pre;" font-size="20px" font-family="Roboto, sans-serif"><tspan x="12" y="34" dominant-baseline="ideographic">Gerenciar </tspan><tspan x="12" y="58" dominant-baseline="ideographic">Pacotes</tspan></text></g></g></g><g id="g-root-tx_desenvol_73s1k3nyl8o-fill" data-item-order="0" transform="translate(242.0009765625, 386.009765625)"><g id="tx_desenvol_73s1k3nyl8o-fill" stroke="none" fill="#f4f4f4"><g><text style="font: 20px Roboto, sans-serif; white-space: pre;" font-size="20px" font-family="Roboto, sans-serif"><tspan x="16.24" y="34" dominant-baseline="ideographic">Desenvolvimento </tspan><tspan x="40.99" y="58" dominant-baseline="ideographic">de Backend</tspan></text></g></g></g><g id="g-root-ic_devi_qsrum03nsydk-fill" data-item-order="0" transform="translate(302, 494)"></g><g id="g-root-tx_desenvol_dcy0mw3nynes-fill" data-item-order="0" transform="translate(266, 566)"><g id="tx_desenvol_dcy0mw3nynes-fill" stroke="none" fill="#f4f4f4"><g><text style="font: 20px Roboto, sans-serif; white-space: pre;" font-size="20px" font-family="Roboto, sans-serif"><tspan x="13.28" y="34" dominant-baseline="ideographic">Desenvolver </tspan><tspan x="29.17" y="58" dominant-baseline="ideographic">Backend</tspan></text></g></g></g><g id="g-root-cr_4_cr-small-4_dl26rc3nq6fa-stroke" data-item-order="-129445" transform="translate(146, 338)"><g id="cr_4_cr-small-4_dl26rc3nq6fa-stroke" fill="none" stroke-linecap="round" stroke-linejoin="round" stroke-miterlimit="4" stroke="#f4f4f4" stroke-width="2"><g><path d="M 10 46C 10 65.882251 26.117749 82 46 82C 65.882251 82 82 65.882251 82 46C 82 26.117749 65.882251 10 46 10C 26.117749 10 10 26.117749 10 46"></path></g></g></g><g id="g-root-sy_4_line_1q5pltk3nrk0f-stroke" data-item-order="-129440" transform="translate(192.68096923828125, 433.72509765625)"><g id="sy_4_line_1q5pltk3nrk0f-stroke" fill="none" stroke-linecap="round" stroke-linejoin="round" stroke-miterlimit="4" stroke="#f4f4f4" stroke-width="2"><g><path d="M 10.819031 11.804688C 25.939031 44.314688 52.639031 70.344687 85.639031 84.584688"></path><path d="M 19.419031 14.204688L 10.719031 11.304688L 7.719031 20.104688" stroke-dasharray="none"></path></g></g></g><g id="g-root-cr_3_cr-small-3_v3lk1k3nrkso-stroke" data-item-order="-129437" transform="translate(290, 482)"><g id="cr_3_cr-small-3_v3lk1k3nrkso-stroke" fill="none" stroke-linecap="round" stroke-linejoin="round" stroke-miterlimit="4" stroke="#f4f4f4" stroke-width="2"><g><path d="M 10 46C 10 65.882251 26.117749 82 46 82C 65.882251 82 82 65.882251 82 46C 82 26.117749 65.882251 10 46 10C 26.117749 10 10 26.117749 10 46"></path></g></g></g><g id="g-root-sy_3_line_dcy0mw3nrk01-stroke" data-item-order="-129432" transform="translate(385.5244140625, 431.2138671875)"><g id="sy_3_line_dcy0mw3nrk01-stroke" fill="none" stroke-linecap="round" stroke-linejoin="round" stroke-miterlimit="4" stroke="#f4f4f4" stroke-width="2"><g><path d="M 11.825562 85.676094C 44.765562 70.506094 71.105562 43.446094 85.345562 9.996094"></path><path d="M 14.325562 77.096094L 11.325562 85.796094L 20.025562 88.796094" stroke-dasharray="none"></path></g></g></g><g id="g-root-cr_2_cr-small-2_1hi9k3nrlky-stroke" data-item-order="-129429" transform="translate(433.5849609375, 338)"><g id="cr_2_cr-small-2_1hi9k3nrlky-stroke" fill="none" stroke-linecap="round" stroke-linejoin="round" stroke-miterlimit="4" stroke="#f4f4f4" stroke-width="2"><g><path d="M 10 46C 10 65.882251 26.117749 82 46 82C 65.882251 82 82 65.882251 82 46C 82 26.117749 65.882251 10 46 10C 26.117749 10 10 26.117749 10 46"></path></g></g></g><g id="g-root-sy_2_line_1lrriyg3nrjsz-stroke" data-item-order="-129424" transform="translate(382.9990234375, 239.11572265625)"><g id="sy_2_line_1lrriyg3nrjsz-stroke" fill="none" stroke-linecap="round" stroke-linejoin="round" stroke-miterlimit="4" stroke="#f4f4f4" stroke-width="2"><g><path d="M 85.730977 82.814395C 70.410977 50.144395 43.360977 24.064395 10.000977 10.004395"></path><path d="M 77.200977 80.404395L 85.900977 83.304395L 88.800977 74.604395" stroke-dasharray="none"></path></g></g></g><g id="g-root-cr_1_cr-small-1_18gb0l43nrldw-stroke" data-item-order="-129421" transform="translate(290, 194)"><g id="cr_1_cr-small-1_18gb0l43nrldw-stroke" fill="none" stroke-linecap="round" stroke-linejoin="round" stroke-miterlimit="4" stroke="#f4f4f4" stroke-width="2"><g><path d="M 10 46C 10 65.882251 26.117749 82 46 82C 65.882251 82 82 65.882251 82 46C 82 26.117749 65.882251 10 46 10C 26.117749 10 10 26.117749 10 46"></path></g></g></g><g id="g-root-sy_1_line_m9tz203nrklp-stroke" data-item-order="-129416" transform="translate(191.62109375, 240.6142578125)"><g id="sy_1_line_m9tz203nrklp-stroke" fill="none" stroke-linecap="round" stroke-linejoin="round" stroke-miterlimit="4" stroke="#f4f4f4" stroke-width="2"><g><path d="M 82.588901 10.825684C 50.098901 26.065684 24.128901 52.895684 9.998901 85.995684"></path><path d="M 80.198901 19.425684L 83.098901 10.725684L 74.298901 7.825684" stroke-dasharray="none"></path></g></g></g><g id="g-root-cr_0_cr-big_1uonhdk3nrkem-stroke" data-item-order="-129379" transform="translate(242, 290)"><g id="cr_0_cr-big_1uonhdk3nrkem-stroke" fill="none" stroke-linecap="round" stroke-linejoin="round" stroke-miterlimit="4" stroke="#f4f4f4" stroke-width="2"><g><path d="M 10 94C 10.000002 140.391921 47.608083 178.000002 94.000002 178.000002C 140.391921 178.000002 178.000002 140.391921 178.000002 94.000002C 178.000002 47.608083 140.391921 10.000002 94.000002 10.000002C 47.608083 10.000002 10.000002 47.608083 10.000002 94.000002"></path></g></g></g><g id="g-root-tx_configur_1cxzxyw3nyn0m-stroke" data-item-order="0" transform="translate(272, 134)"></g><g id="g-root-ic_next_1d1qshk3nvthm-stroke" data-item-order="0" transform="translate(302, 206)"><g id="ic_next_1d1qshk3nvthm-stroke" fill="none" stroke-linecap="round" stroke-linejoin="round" stroke-miterlimit="4" stroke="#f4f4f4" stroke-width="2"><g><path d="M 11 34C 11 46.702549 21.297451 57 34 57C 46.702549 57 57 46.702549 57 34C 57 21.297451 46.702549 11 34 11C 21.297451 11 11 21.297451 11 34M 26 44L 26 26L 28 26L 46.98 52.98M 41 26L 41 38"></path></g></g></g><g id="g-root-ic_node_djt8l43nyltt-stroke" data-item-order="0" transform="translate(296, 314)"><g id="ic_node_djt8l43nyltt-stroke" fill="none" stroke-linecap="round" stroke-linejoin="round" stroke-miterlimit="4" stroke="#f4f4f4" stroke-width="2"><g><path d="M 31.125 63.850002L 38.625 68.400002C 39.398502 68.846581 40.351498 68.846581 41.125 68.400002L 63.950001 54.699997C 64.726585 54.251648 65.20356 53.421711 65.199997 52.525002L 65.199997 27.5C 65.20356 26.603289 64.726585 25.773352 63.950001 25.325001L 41.300003 11.6C 40.526497 11.153418 39.573502 11.153418 38.800003 11.6L 15.875 25.299999C 15.098414 25.748352 14.62144 26.578289 14.625 27.474998L 14.625 52.5C 14.62144 53.396713 15.098414 54.226646 15.875 54.675003L 22.725 58.775002C 24.437874 59.800068 26.569283 59.826317 28.306879 58.843746C 30.044477 57.861176 31.12056 56.021164 31.125 54.025002L 31.125 29.85M 38.75 45C 38.745243 47.44595 40.571476 49.508518 43 49.799999C 45.158459 50.066734 47.341545 50.066734 49.500004 49.800003C 51.928524 49.508518 53.754753 47.44595 53.75 45C 53.740391 42.819984 52.152897 40.967907 49.999996 40.624996L 46.25 40L 42.5 39.375C 40.347099 39.032093 38.759605 37.180016 38.749996 35C 38.745243 32.55405 40.571476 30.491482 43 30.200001C 45.158459 29.933271 47.341545 29.933271 49.500004 30.200003C 51.928524 30.491482 53.754753 32.55405 53.75 35"></path></g></g></g><g id="g-root-ic_1_zmjflk3nrl6v-stroke" data-item-order="0" transform="translate(158, 350)"><g id="ic_1_zmjflk3nrl6v-stroke" fill="none" stroke-linecap="round" stroke-linejoin="round" stroke-miterlimit="4" stroke="#f4f4f4" stroke-width="2"><g><path d="M 57 53C 57 55.209141 55.209141 57 53 57L 15 57C 12.790861 57 11 55.209141 11 53L 11 45C 11 42.790859 12.790861 41 15 41L 53 41C 55.209141 41 57 42.790859 57 45ZM 17 51L 51 51M 43.624001 46.5C 43.347858 46.5 43.124001 46.723858 43.124001 47C 43.124001 47.276142 43.347858 47.5 43.624001 47.5C 43.900143 47.5 44.124001 47.276142 44.124001 47C 44.124001 46.723858 43.900143 46.5 43.624001 46.5L 43.624001 46.5M 49.542 46.5C 49.265858 46.5 49.042 46.723858 49.042 47C 49.042 47.276142 49.265858 47.5 49.542 47.5C 49.818142 47.5 50.042 47.276142 50.042 47C 50.042534 46.867229 49.990025 46.739738 49.896141 46.645855C 49.802258 46.551971 49.67477 46.499466 49.542 46.5L 49.542 46.5M 33 11L 33 35M 22 22L 33 11L 44 22"></path></g></g></g><g id="g-root-tx_implemen_147z7i03nx6ob-stroke" data-item-order="0" transform="translate(14, 362)"></g><g id="g-root-ic_open_i097so3nudq9-stroke" data-item-order="0" transform="translate(446, 350)"><g id="ic_open_i097so3nudq9-stroke" fill="none" stroke-linecap="round" stroke-linejoin="round" stroke-miterlimit="4" stroke="#f4f4f4" stroke-width="2"><g><path d="M 17.704 20L 35.704002 20L 35.704002 20L 35.704002 48L 35.704002 48L 19.704 48C 18.59943 48 17.704 47.104568 17.704 46L 17.704 20L 17.704 20ZM 35.704002 20L 51.703999 20M 51.703999 32L 51.703999 46C 51.703999 47.104568 50.808571 48 49.703999 48L 35.704002 48M 35.704002 20L 40.200001 30.77C 40.510757 31.51494 41.238838 32.000069 42.046001 32L 55.200001 32C 55.53447 31.999826 55.846706 31.832451 56.032001 31.554001C 56.216667 31.275949 56.250427 30.924091 56.122002 30.615999L 51.703999 20M 17.704 20L 11.958 30.290001C 11.747983 30.638678 11.742108 31.07346 11.942629 31.427685C 12.143149 31.78191 12.518958 32.000626 12.926 32L 17.704 32"></path></g></g></g><g id="g-root-tx_gerencia_magg543nykul-stroke" data-item-order="0" transform="translate(518, 350)"></g><g id="g-root-tx_desenvol_73s1k3nyl8o-stroke" data-item-order="0" transform="translate(242.0009765625, 386.009765625)"></g><g id="g-root-ic_devi_qsrum03nsydk-stroke" data-item-order="0" transform="translate(302, 494)"><g id="ic_devi_qsrum03nsydk-stroke" fill="none" stroke-linecap="round" stroke-linejoin="round" stroke-miterlimit="4" stroke="#f4f4f4" stroke-width="2"><g><path d="M 52 46L 34 57L 16 46L 12 11L 56 11L 52 46ZM 29 25L 21 31L 29 37L 39 25L 47 31L 39 37"></path></g></g></g><g id="g-root-tx_desenvol_dcy0mw3nynes-stroke" data-item-order="0" transform="translate(266, 566)"></g></g></g></svg>