<?xml version="1.0" encoding="utf-8" standalone="yes"?>
<!DOCTYPE svg PUBLIC "-//W3C//DTD SVG 1.1//EN" "http://www.w3.org/Graphics/SVG/1.1/DTD/svg11.dtd">
<svg width="1002" height="834" viewBox="0 0 1002 834" style="fill:none;stroke:none;fill-rule:evenodd;clip-rule:evenodd;stroke-linecap:round;stroke-linejoin:round;stroke-miterlimit:1.5;" version="1.1" xmlns="http://www.w3.org/2000/svg" xmlns:xlink="http://www.w3.org/1999/xlink"><style class="text-font-style fontImports" data-font-family="Roboto">@import url('https://fonts.googleapis.com/css2?family=Roboto:wght@400;700&amp;display=block');</style><g id="items" style="isolation: isolate"><g id="blend" style="mix-blend-mode: normal"><g id="g-root-cp_0b_g-0b_13yn7zu154plae-fill" data-item-order="-617750" transform="translate(32, 318)"><g id="cp_0b_g-0b_13yn7zu154plae-fill" stroke="none" fill="#e8e8e8"><g><path d="M 902.63 73.6L 830.63 19.6C 822.68 13.64 811.4 15.25 805.43 23.2C 799.47 31.15 801.08 42.44 809.03 48.4L 837.83 70L 754 70C 720.92 70 694 96.92 694 130L 694 190C 694 203.23 683.23 214 670 214C 656.77 214 646 203.23 646 190L 646 70C 646 36.92 619.08 10 586 10C 552.92 10 526 36.92 526 70L 526 214C 526 227.23 515.23 238 502 238C 488.77 238 478 227.23 478 214L 478 94C 478 60.92 451.08 34 418 34C 384.92 34 358 60.92 358 94L 358 238C 358 251.23 347.23 262 334 262C 320.77 262 310 251.23 310 238L 310 118C 310 84.92 283.08 58 250 58C 216.92 58 190 84.92 190 118L 190 166C 190 179.23 179.23 190 166 190L 10 190L 10 226L 166 226C 199.08 226 226 199.08 226 166L 226 118C 226 104.77 236.77 94 250 94C 263.23 94 274 104.77 274 118L 274 238C 274 271.08 300.92 298 334 298C 367.08 298 394 271.08 394 238L 394 94C 394 80.77 404.77 70 418 70C 431.23 70 442 80.77 442 94L 442 214C 442 247.08 468.92 274 502 274C 535.08 274 562 247.08 562 214L 562 70C 562 56.77 572.77 46 586 46C 599.23 46 610 56.77 610 70L 610 190C 610 223.08 636.92 250 670 250C 703.08 250 730 223.08 730 190L 730 130C 730 116.77 740.77 106 754 106L 837.83 106L 809.03 127.6C 801.08 133.56 799.47 144.85 805.43 152.8C 811.4033 160.7645 822.6765 162.3651 830.63 156.4L 902.63 102.4C 907.16 99 909.83 93.67 909.83 88C 909.83 82.33 907.16 77 902.63 73.6Z"></path></g></g></g><g id="g-root-cp_0a_g-0a_8wj67u154pm2o-fill" data-item-order="-617745" transform="translate(32, 336)"></g><g id="g-root-cp_6_g-6_4hym9m154po96-fill" data-item-order="-617742" transform="translate(675, 475)"><g id="cp_6_g-6_4hym9m154po96-fill" stroke="none" fill="#fb6762"><g><path d="M 26.95 21.34C 23.86 21.34 21.35 23.85 21.35 26.95C 21.35 30.05 23.86 32.56 26.95 32.56C 30.04 32.56 32.56 30.05 32.56 26.95C 32.56 23.85 30.05 21.34 26.95 21.34ZM 43.91 26.95C 43.91 17.59 36.32 10 26.95 10C 17.58 10 10 17.59 10 26.95C 10 33.93 14.22 39.92 20.24 42.52L 26.96 54.79L 33.68 42.51C 39.7 39.91 43.92 33.92 43.92 26.94L 43.91 26.95ZM 26.95 37.49C 21.14 37.49 16.42 32.77 16.42 26.95C 16.42 21.13 21.14 16.42 26.95 16.42C 32.76 16.42 37.49 21.13 37.49 26.95C 37.49 32.77 32.77 37.49 26.95 37.49Z"></path></g></g></g><g id="g-root-cp_5_g-5_18hl3ju154plok-fill" data-item-order="-617738" transform="translate(591, 271)"><g id="cp_5_g-5_18hl3ju154plok-fill" stroke="none" fill="#f79438"><g><path d="M 26.950001 21.64635C 23.86 21.64635 21.35 24.224157 21.35 27.407904C 21.35 30.59165 23.86 33.169456 26.950001 33.169456C 30.040001 33.169456 32.559999 30.59165 32.559999 27.407904C 32.559999 24.224157 30.049999 21.64635 26.950001 21.64635ZM 43.91 27.407904C 43.91 17.795044 36.32 10 26.950001 10C 17.58 10 10 17.795044 10 27.407904C 10 34.576469 14.22 40.728289 20.24 43.398529L 26.959999 56L 33.68 43.388256C 39.700001 40.718018 43.919998 34.566198 43.919998 27.397635L 43.91 27.407904ZM 26.950001 38.232641C 21.14 38.232641 16.42 33.385132 16.42 27.407904C 16.42 21.430676 21.14 16.593436 26.950001 16.593436C 32.76 16.593436 37.49 21.430676 37.49 27.407904C 37.49 33.385132 32.77 38.232641 26.950001 38.232641Z"></path></g></g></g><g id="g-root-cp_4_g-4_1upb396154pnv2-fill" data-item-order="-617734" transform="translate(507, 499)"><g id="cp_4_g-4_1upb396154pnv2-fill" stroke="none" fill="#ffe711"><g><path d="M 26.95 21.34C 23.86 21.34 21.35 23.85 21.35 26.95C 21.35 30.05 23.86 32.56 26.95 32.56C 30.04 32.56 32.56 30.05 32.56 26.95C 32.56 23.85 30.05 21.34 26.95 21.34ZM 43.91 26.95C 43.91 17.59 36.32 10 26.95 10C 17.58 10 10 17.59 10 26.95C 10 33.93 14.22 39.92 20.24 42.52L 26.96 54.79L 33.68 42.51C 39.7 39.91 43.92 33.92 43.92 26.94L 43.91 26.95ZM 26.95 37.49C 21.14 37.49 16.42 32.77 16.42 26.95C 16.42 21.13 21.14 16.42 26.95 16.42C 32.76 16.42 37.49 21.13 37.49 26.95C 37.49 32.77 32.77 37.49 26.95 37.49Z"></path></g></g></g><g id="g-root-cp_3_g-3_zntika154plhk-fill" data-item-order="-617730" transform="translate(423, 295)"><g id="cp_3_g-3_zntika154plhk-fill" stroke="none" fill="#a6da37"><g><path d="M 26.95 21.34C 23.86 21.34 21.35 23.85 21.35 26.95C 21.35 30.05 23.86 32.56 26.95 32.56C 30.04 32.56 32.56 30.05 32.56 26.95C 32.56 23.85 30.05 21.34 26.95 21.34ZM 43.91 26.95C 43.91 17.59 36.32 10 26.95 10C 17.58 10 10 17.59 10 26.95C 10 33.93 14.22 39.92 20.24 42.52L 26.96 54.79L 33.68 42.51C 39.7 39.91 43.92 33.92 43.92 26.94L 43.91 26.95ZM 26.95 37.49C 21.14 37.49 16.42 32.77 16.42 26.95C 16.42 21.13 21.14 16.42 26.95 16.42C 32.76 16.42 37.49 21.13 37.49 26.95C 37.49 32.77 32.77 37.49 26.95 37.49Z"></path></g></g></g><g id="g-root-cp_2_g-2_91iywq154plhm-fill" data-item-order="-617726" transform="translate(339, 523)"><g id="cp_2_g-2_91iywq154plhm-fill" stroke="none" fill="#43dd93"><g><path d="M 26.95 21.34C 23.86 21.34 21.35 23.85 21.35 26.95C 21.35 30.05 23.86 32.56 26.95 32.56C 30.04 32.56 32.56 30.05 32.56 26.95C 32.56 23.85 30.05 21.34 26.95 21.34ZM 43.91 26.95C 43.91 17.59 36.32 10 26.95 10C 17.58 10 10 17.59 10 26.95C 10 33.93 14.22 39.92 20.24 42.52L 26.96 54.79L 33.68 42.51C 39.7 39.91 43.92 33.92 43.92 26.94L 43.91 26.95ZM 26.95 37.49C 21.14 37.49 16.42 32.77 16.42 26.95C 16.42 21.13 21.14 16.42 26.95 16.42C 32.76 16.42 37.49 21.13 37.49 26.95C 37.49 32.77 32.77 37.49 26.95 37.49Z"></path></g></g></g><g id="g-root-cp_1_g-1_1hgch8a154plak-fill" data-item-order="-617722" transform="translate(255, 319)"><g id="cp_1_g-1_1hgch8a154plak-fill" stroke="none" fill="#4f91fc"><g><path d="M 26.95 21.34C 23.86 21.34 21.35 23.85 21.35 26.95C 21.35 30.05 23.86 32.56 26.95 32.56C 30.04 32.56 32.56 30.05 32.56 26.95C 32.56 23.85 30.05 21.34 26.95 21.34ZM 43.91 26.95C 43.91 17.59 36.32 10 26.95 10C 17.58 10 10 17.59 10 26.95C 10 33.93 14.22 39.92 20.24 42.52L 26.96 54.79L 33.68 42.51C 39.7 39.91 43.92 33.92 43.92 26.94L 43.91 26.95ZM 26.95 37.49C 21.14 37.49 16.42 32.77 16.42 26.95C 16.42 21.13 21.14 16.42 26.95 16.42C 32.76 16.42 37.49 21.13 37.49 26.95C 37.49 32.77 32.77 37.49 26.95 37.49Z"></path></g></g></g><g id="g-root-tx_construi_1lxexiy154pmoe-fill" data-item-order="0" transform="translate(243, 56)"><g id="tx_construi_1lxexiy154pmoe-fill" stroke="none" fill="#f4f4f4"><g><text style="font: bold 25px Roboto, sans-serif; white-space: pre;" font-weight="bold" font-size="25px" font-family="Roboto, sans-serif"><tspan x="14.73" y="43" dominant-baseline="ideographic">Construindo APIs RESTful com Express.js</tspan></text></g></g></g><g id="g-root-tx_testaren_v495x6154r2f5-fill" data-item-order="0" transform="translate(560, 126)"><g id="tx_testaren_v495x6154r2f5-fill" stroke="none" fill="#f79438"><g><text style="font: bold 20px Roboto, sans-serif; white-space: pre;" font-weight="bold" font-size="20px" font-family="Roboto, sans-serif"><tspan x="29.33" y="33.34" dominant-baseline="ideographic">Testar </tspan><tspan x="13.1" y="57.33" dominant-baseline="ideographic">Endpoints</tspan></text></g></g></g><g id="g-root-tx_configur_1hdukvu154sgzt-fill" data-item-order="0" transform="translate(218, 162)"><g id="tx_configur_1hdukvu154sgzt-fill" stroke="none" fill="#4f91fc"><g><text style="font: bold 20px Roboto, sans-serif; white-space: pre;" font-weight="bold" font-size="20px" font-family="Roboto, sans-serif"><tspan x="13.78" y="33.34" dominant-baseline="ideographic">Configurar </tspan><tspan x="18.21" y="57.33" dominant-baseline="ideographic">Ambiente</tspan></text></g></g></g><g id="g-root-tx_definirr_92rx2y154r11p-fill" data-item-order="0" transform="translate(374, 174)"><g id="tx_definirr_92rx2y154r11p-fill" stroke="none" fill="#a6da37"><g><text style="font: bold 20px Roboto, sans-serif; white-space: pre;" font-weight="bold" font-size="20px" font-family="Roboto, sans-serif"><tspan x="17.68" y="33.33" dominant-baseline="ideographic">Definir Rotas</tspan></text></g></g></g><g id="g-root-tx_testaros_zly3ay154r0n6-fill" data-item-order="0" transform="translate(536, 186)"><g id="tx_testaros_zly3ay154r0n6-fill" stroke="none" fill="#fff0e2"><g><text style="font: 15px Roboto, sans-serif; white-space: pre;" font-size="15px" font-family="Roboto, sans-serif"><tspan x="14.1" y="30.77" dominant-baseline="ideographic">Testar os endpoints </tspan><tspan x="14.08" y="48.78" dominant-baseline="ideographic">da API para garantir </tspan><tspan x="22.92" y="66.78" dominant-baseline="ideographic">a funcionalidade.</tspan></text></g></g></g><g id="g-root-tx_configur_1lvji9m154sf7u-fill" data-item-order="0" transform="translate(206, 222)"><g id="tx_configur_1lvji9m154sf7u-fill" stroke="none" fill="#ebf2ff"><g><text style="font: 15px Roboto, sans-serif; white-space: pre;" font-size="15px" font-family="Roboto, sans-serif"><tspan x="33.17" y="27.77" dominant-baseline="ideographic">Configurar o </tspan><tspan x="32.82" y="45.78" dominant-baseline="ideographic">ambiente de </tspan><tspan x="17.44" y="63.78" dominant-baseline="ideographic">desenvolvimento </tspan><tspan x="21.5" y="81.78" dominant-baseline="ideographic">para Express.js.</tspan></text></g></g></g><g id="g-root-tx_definirr_djuddm154r2fi-fill" data-item-order="0" transform="translate(368, 210)"><g id="tx_definirr_djuddm154r2fi-fill" stroke="none" fill="#f2ffd7"><g><text style="font: 15px Roboto, sans-serif; white-space: pre;" font-size="15px" font-family="Roboto, sans-serif"><tspan x="23.76" y="30.77" dominant-baseline="ideographic">Definir rotas para </tspan><tspan x="12.53" y="48.78" dominant-baseline="ideographic">diferentes endpoints </tspan><tspan x="57.15" y="66.78" dominant-baseline="ideographic">da API.</tspan></text></g></g></g><g id="g-root-tx_implanta_1qehdtm154po27-fill" data-item-order="0" transform="translate(626, 582)"><g id="tx_implanta_1qehdtm154po27-fill" stroke="none" fill="#fb6762"><g><text style="font: bold 20px Roboto, sans-serif; white-space: pre;" font-weight="bold" font-size="20px" font-family="Roboto, sans-serif"><tspan x="14.21" y="33.33" dominant-baseline="ideographic">Implantar API</tspan></text></g></g></g><g id="g-root-tx_implemen_1lto30a154r2tn-fill" data-item-order="0" transform="translate(458, 606)"><g id="tx_implemen_1lto30a154r2tn-fill" stroke="none" fill="#ffe711"><g><text style="font: bold 20px Roboto, sans-serif; white-space: pre;" font-weight="bold" font-size="20px" font-family="Roboto, sans-serif"><tspan x="16.18" y="33.34" dominant-baseline="ideographic">Implementar </tspan><tspan x="43.53" y="57.33" dominant-baseline="ideographic">Lógica</tspan></text></g></g></g><g id="g-root-tx_criarser_w5yy154sefb-fill" data-item-order="0" transform="translate(290, 630)"><g id="tx_criarser_w5yy154sefb-fill" stroke="none" fill="#43dd93"><g><text style="font: bold 20px Roboto, sans-serif; white-space: pre;" font-weight="bold" font-size="20px" font-family="Roboto, sans-serif"><tspan x="13.69" y="33.33" dominant-baseline="ideographic">Criar Servidor</tspan></text></g></g></g><g id="g-root-tx_implanta_dbq796154r2m8-fill" data-item-order="0" transform="translate(620, 618)"><g id="tx_implanta_dbq796154r2m8-fill" stroke="none" fill="#ffe9e8"><g><text style="font: 15px Roboto, sans-serif; white-space: pre;" font-size="15px" font-family="Roboto, sans-serif"><tspan x="12.97" y="30.77" dominant-baseline="ideographic">Implantar a API para </tspan><tspan x="27.14" y="48.78" dominant-baseline="ideographic">um ambiente de </tspan><tspan x="47.43" y="66.78" dominant-baseline="ideographic">produção.</tspan></text></g></g></g><g id="g-root-tx_iniciali_v495x6154sft4-fill" data-item-order="0" transform="translate(284, 666)"><g id="tx_iniciali_v495x6154sft4-fill" stroke="none" fill="#dffff0"><g><text style="font: 15px Roboto, sans-serif; white-space: pre;" font-size="15px" font-family="Roboto, sans-serif"><tspan x="35.73" y="27.77" dominant-baseline="ideographic">Inicializar um </tspan><tspan x="17.28" y="45.78" dominant-baseline="ideographic">servidor Express.js </tspan><tspan x="32.36" y="63.78" dominant-baseline="ideographic">para lidar com </tspan><tspan x="38.02" y="81.78" dominant-baseline="ideographic">solicitações.</tspan></text></g></g></g><g id="g-root-tx_escrever_1lvji9m154r1tw-fill" data-item-order="0" transform="translate(452, 666)"><g id="tx_escrever_1lvji9m154r1tw-fill" stroke="none" fill="#fffbd5"><g><text style="font: 15px Roboto, sans-serif; white-space: pre;" font-size="15px" font-family="Roboto, sans-serif"><tspan x="13.71" y="30.77" dominant-baseline="ideographic">Escrever a lógica de </tspan><tspan x="14.98" y="48.78" dominant-baseline="ideographic">negócios para cada </tspan><tspan x="65.03" y="66.78" dominant-baseline="ideographic">rota.</tspan></text></g></g></g><g id="g-root-cp_0b_g-0b_13yn7zu154plae-stroke" data-item-order="-617750" transform="translate(32, 318)"><g id="cp_0b_g-0b_13yn7zu154plae-stroke" fill="none" stroke-linecap="round" stroke-linejoin="round" stroke-miterlimit="4" stroke="#2c2c2c" stroke-width="2"><g><path d="M 902.63 73.6L 830.63 19.6C 822.68 13.64 811.4 15.25 805.43 23.2C 799.47 31.15 801.08 42.44 809.03 48.4L 837.83 70L 754 70C 720.92 70 694 96.92 694 130L 694 190C 694 203.23 683.23 214 670 214C 656.77 214 646 203.23 646 190L 646 70C 646 36.92 619.08 10 586 10C 552.92 10 526 36.92 526 70L 526 214C 526 227.23 515.23 238 502 238C 488.77 238 478 227.23 478 214L 478 94C 478 60.92 451.08 34 418 34C 384.92 34 358 60.92 358 94L 358 238C 358 251.23 347.23 262 334 262C 320.77 262 310 251.23 310 238L 310 118C 310 84.92 283.08 58 250 58C 216.92 58 190 84.92 190 118L 190 166C 190 179.23 179.23 190 166 190L 10 190L 10 226L 166 226C 199.08 226 226 199.08 226 166L 226 118C 226 104.77 236.77 94 250 94C 263.23 94 274 104.77 274 118L 274 238C 274 271.08 300.92 298 334 298C 367.08 298 394 271.08 394 238L 394 94C 394 80.77 404.77 70 418 70C 431.23 70 442 80.77 442 94L 442 214C 442 247.08 468.92 274 502 274C 535.08 274 562 247.08 562 214L 562 70C 562 56.77 572.77 46 586 46C 599.23 46 610 56.77 610 70L 610 190C 610 223.08 636.92 250 670 250C 703.08 250 730 223.08 730 190L 730 130C 730 116.77 740.77 106 754 106L 837.83 106L 809.03 127.6C 801.08 133.56 799.47 144.85 805.43 152.8C 811.4033 160.7645 822.6765 162.3651 830.63 156.4L 902.63 102.4C 907.16 99 909.83 93.67 909.83 88C 909.83 82.33 907.16 77 902.63 73.6Z"></path></g></g></g><g id="g-root-cp_0a_g-0a_8wj67u154pm2o-stroke" data-item-order="-617745" transform="translate(32, 336)"><g id="cp_0a_g-0a_8wj67u154pm2o-stroke" fill="none" stroke-linecap="round" stroke-linejoin="round" stroke-miterlimit="4" stroke="#f4f4f4" stroke-width="2" stroke-dasharray="5.0, 7.0"><g><path d="M 838 70L 754 70C 730.804 70 712 88.804 712 112L 712 172C 712 195.196 693.196 214 670 214C 646.804 214 628 195.196 628 172L 628 52C 628 28.804 609.196 10 586 10C 562.804 10 544 28.804 544 52L 544 196C 544 219.196 525.196 238 502 238C 478.804 238 460 219.196 460 196L 460 76C 460 52.804 441.196 34 418 34C 394.804 34 376 52.804 376 76L 376 220C 376 243.196 357.196 262 334 262C 310.804 262 292 243.196 292 220L 292 100C 292 76.804 273.196 58 250 58C 226.804 58 208 76.804 208 100L 208 148C 208 171.196 189.196 190 166 190L 10 190"></path></g></g></g><g id="g-root-cp_6_g-6_4hym9m154po96-stroke" data-item-order="-617742" transform="translate(675, 475)"><g id="cp_6_g-6_4hym9m154po96-stroke" fill="none" stroke-linecap="round" stroke-linejoin="round" stroke-miterlimit="4" stroke="#2c2c2c" stroke-width="2"><g><path d="M 26.95 21.34C 23.86 21.34 21.35 23.85 21.35 26.95C 21.35 30.05 23.86 32.56 26.95 32.56C 30.04 32.56 32.56 30.05 32.56 26.95C 32.56 23.85 30.05 21.34 26.95 21.34ZM 43.91 26.95C 43.91 17.59 36.32 10 26.95 10C 17.58 10 10 17.59 10 26.95C 10 33.93 14.22 39.92 20.24 42.52L 26.96 54.79L 33.68 42.51C 39.7 39.91 43.92 33.92 43.92 26.94L 43.91 26.95ZM 26.95 37.49C 21.14 37.49 16.42 32.77 16.42 26.95C 16.42 21.13 21.14 16.42 26.95 16.42C 32.76 16.42 37.49 21.13 37.49 26.95C 37.49 32.77 32.77 37.49 26.95 37.49Z"></path></g></g></g><g id="g-root-cp_5_g-5_18hl3ju154plok-stroke" data-item-order="-617738" transform="translate(591, 271)"><g id="cp_5_g-5_18hl3ju154plok-stroke" fill="none" stroke-linecap="round" stroke-linejoin="round" stroke-miterlimit="4" stroke="#2c2c2c" stroke-width="2"><g><path d="M 26.950001 21.64635C 23.86 21.64635 21.35 24.224157 21.35 27.407904C 21.35 30.59165 23.86 33.169456 26.950001 33.169456C 30.040001 33.169456 32.559999 30.59165 32.559999 27.407904C 32.559999 24.224157 30.049999 21.64635 26.950001 21.64635ZM 43.91 27.407904C 43.91 17.795044 36.32 10 26.950001 10C 17.58 10 10 17.795044 10 27.407904C 10 34.576469 14.22 40.728289 20.24 43.398529L 26.959999 56L 33.68 43.388256C 39.700001 40.718018 43.919998 34.566198 43.919998 27.397635L 43.91 27.407904ZM 26.950001 38.232641C 21.14 38.232641 16.42 33.385132 16.42 27.407904C 16.42 21.430676 21.14 16.593436 26.950001 16.593436C 32.76 16.593436 37.49 21.430676 37.49 27.407904C 37.49 33.385132 32.77 38.232641 26.950001 38.232641Z"></path></g></g></g><g id="g-root-cp_4_g-4_1upb396154pnv2-stroke" data-item-order="-617734" transform="translate(507, 499)"><g id="cp_4_g-4_1upb396154pnv2-stroke" fill="none" stroke-linecap="round" stroke-linejoin="round" stroke-miterlimit="4" stroke="#2c2c2c" stroke-width="2"><g><path d="M 26.95 21.34C 23.86 21.34 21.35 23.85 21.35 26.95C 21.35 30.05 23.86 32.56 26.95 32.56C 30.04 32.56 32.56 30.05 32.56 26.95C 32.56 23.85 30.05 21.34 26.95 21.34ZM 43.91 26.95C 43.91 17.59 36.32 10 26.95 10C 17.58 10 10 17.59 10 26.95C 10 33.93 14.22 39.92 20.24 42.52L 26.96 54.79L 33.68 42.51C 39.7 39.91 43.92 33.92 43.92 26.94L 43.91 26.95ZM 26.95 37.49C 21.14 37.49 16.42 32.77 16.42 26.95C 16.42 21.13 21.14 16.42 26.95 16.42C 32.76 16.42 37.49 21.13 37.49 26.95C 37.49 32.77 32.77 37.49 26.95 37.49Z"></path></g></g></g><g id="g-root-cp_3_g-3_zntika154plhk-stroke" data-item-order="-617730" transform="translate(423, 295)"><g id="cp_3_g-3_zntika154plhk-stroke" fill="none" stroke-linecap="round" stroke-linejoin="round" stroke-miterlimit="4" stroke="#2c2c2c" stroke-width="2"><g><path d="M 26.95 21.34C 23.86 21.34 21.35 23.85 21.35 26.95C 21.35 30.05 23.86 32.56 26.95 32.56C 30.04 32.56 32.56 30.05 32.56 26.95C 32.56 23.85 30.05 21.34 26.95 21.34ZM 43.91 26.95C 43.91 17.59 36.32 10 26.95 10C 17.58 10 10 17.59 10 26.95C 10 33.93 14.22 39.92 20.24 42.52L 26.96 54.79L 33.68 42.51C 39.7 39.91 43.92 33.92 43.92 26.94L 43.91 26.95ZM 26.95 37.49C 21.14 37.49 16.42 32.77 16.42 26.95C 16.42 21.13 21.14 16.42 26.95 16.42C 32.76 16.42 37.49 21.13 37.49 26.95C 37.49 32.77 32.77 37.49 26.95 37.49Z"></path></g></g></g><g id="g-root-cp_2_g-2_91iywq154plhm-stroke" data-item-order="-617726" transform="translate(339, 523)"><g id="cp_2_g-2_91iywq154plhm-stroke" fill="none" stroke-linecap="round" stroke-linejoin="round" stroke-miterlimit="4" stroke="#2c2c2c" stroke-width="2"><g><path d="M 26.95 21.34C 23.86 21.34 21.35 23.85 21.35 26.95C 21.35 30.05 23.86 32.56 26.95 32.56C 30.04 32.56 32.56 30.05 32.56 26.95C 32.56 23.85 30.05 21.34 26.95 21.34ZM 43.91 26.95C 43.91 17.59 36.32 10 26.95 10C 17.58 10 10 17.59 10 26.95C 10 33.93 14.22 39.92 20.24 42.52L 26.96 54.79L 33.68 42.51C 39.7 39.91 43.92 33.92 43.92 26.94L 43.91 26.95ZM 26.95 37.49C 21.14 37.49 16.42 32.77 16.42 26.95C 16.42 21.13 21.14 16.42 26.95 16.42C 32.76 16.42 37.49 21.13 37.49 26.95C 37.49 32.77 32.77 37.49 26.95 37.49Z"></path></g></g></g><g id="g-root-cp_1_g-1_1hgch8a154plak-stroke" data-item-order="-617722" transform="translate(255, 319)"><g id="cp_1_g-1_1hgch8a154plak-stroke" fill="none" stroke-linecap="round" stroke-linejoin="round" stroke-miterlimit="4" stroke="#2c2c2c" stroke-width="2"><g><path d="M 26.95 21.34C 23.86 21.34 21.35 23.85 21.35 26.95C 21.35 30.05 23.86 32.56 26.95 32.56C 30.04 32.56 32.56 30.05 32.56 26.95C 32.56 23.85 30.05 21.34 26.95 21.34ZM 43.91 26.95C 43.91 17.59 36.32 10 26.95 10C 17.58 10 10 17.59 10 26.95C 10 33.93 14.22 39.92 20.24 42.52L 26.96 54.79L 33.68 42.51C 39.7 39.91 43.92 33.92 43.92 26.94L 43.91 26.95ZM 26.95 37.49C 21.14 37.49 16.42 32.77 16.42 26.95C 16.42 21.13 21.14 16.42 26.95 16.42C 32.76 16.42 37.49 21.13 37.49 26.95C 37.49 32.77 32.77 37.49 26.95 37.49Z"></path></g></g></g><g id="g-root-tx_construi_1lxexiy154pmoe-stroke" data-item-order="0" transform="translate(243, 56)"></g><g id="g-root-tx_testaren_v495x6154r2f5-stroke" data-item-order="0" transform="translate(560, 126)"></g><g id="g-root-tx_configur_1hdukvu154sgzt-stroke" data-item-order="0" transform="translate(218, 162)"></g><g id="g-root-tx_definirr_92rx2y154r11p-stroke" data-item-order="0" transform="translate(374, 174)"></g><g id="g-root-tx_testaros_zly3ay154r0n6-stroke" data-item-order="0" transform="translate(536, 186)"></g><g id="g-root-tx_configur_1lvji9m154sf7u-stroke" data-item-order="0" transform="translate(206, 222)"></g><g id="g-root-tx_definirr_djuddm154r2fi-stroke" data-item-order="0" transform="translate(368, 210)"></g><g id="g-root-tx_implanta_1qehdtm154po27-stroke" data-item-order="0" transform="translate(626, 582)"></g><g id="g-root-tx_implemen_1lto30a154r2tn-stroke" data-item-order="0" transform="translate(458, 606)"></g><g id="g-root-tx_criarser_w5yy154sefb-stroke" data-item-order="0" transform="translate(290, 630)"></g><g id="g-root-tx_implanta_dbq796154r2m8-stroke" data-item-order="0" transform="translate(620, 618)"></g><g id="g-root-tx_iniciali_v495x6154sft4-stroke" data-item-order="0" transform="translate(284, 666)"></g><g id="g-root-tx_escrever_1lvji9m154r1tw-stroke" data-item-order="0" transform="translate(452, 666)"></g></g></g></svg>