<?xml version="1.0" encoding="utf-8" standalone="yes"?>
<!DOCTYPE svg PUBLIC "-//W3C//DTD SVG 1.1//EN" "http://www.w3.org/Graphics/SVG/1.1/DTD/svg11.dtd">
<svg width="876" height="571" viewBox="0 0 876 571" style="fill:none;stroke:none;fill-rule:evenodd;clip-rule:evenodd;stroke-linecap:round;stroke-linejoin:round;stroke-miterlimit:1.5;" version="1.1" xmlns="http://www.w3.org/2000/svg" xmlns:xlink="http://www.w3.org/1999/xlink"><style class="text-font-style fontImports" data-font-family="Roboto">@import url('https://fonts.googleapis.com/css2?family=Roboto:wght@400;700&amp;display=block');</style><g id="items" style="isolation: isolate"><g id="blend" style="mix-blend-mode: normal"><g id="g-root-sy_5_cu_vector_1hgckey14un9jj-fill" data-item-order="-106377" transform="translate(336.1015625, 193)"><g id="sy_5_cu_vector_1hgckey14un9jj-fill" stroke="none" fill="url(#gradient-c3b321-14556876)"><g><path d="M 10 10L 108.000001 10L 108.000001 155L 10 123L 10 10Z"></path></g></g></g><g id="g-root-sy_4_cu_vector_zpp10a14un8qw-fill" data-item-order="-106373" transform="translate(266, 293.0625)"><g id="sy_4_cu_vector_zpp10a14un8qw-fill" stroke="none" fill="url(#gradient-d5514c-497200298)"><g><path d="M 10 102.7715L 40.24 10L 178.101 54.9376L 117.581 138.285L 63.7182 120.282L 10 102.7715Z"></path></g></g></g><g id="g-root-sy_3_cu_vector_93ehcq14un8qx-fill" data-item-order="-106369" transform="translate(348.88671875, 338)"><g id="sy_3_cu_vector_93ehcq14un8qx-fill" stroke="none" fill="url(#gradient-40ae79-389135447)"><g><path d="M 88.9477 184.662L 10 127.319L 95.2143 10L 155.87 93.2495L 122.152 138.949L 88.9477 184.662Z"></path></g></g></g><g id="g-root-sy_2_cu_vector_mg3xwa14un9c2-fill" data-item-order="-106365" transform="translate(434.1015625, 305.96044921875)"><g id="sy_2_cu_vector_mg3xwa14un9c2-fill" stroke="none" fill="url(#gradient-c67b35-424552419)"><g><path d="M 174.71 101.1978L 95.618301 159.064L 10 42.0397L 107.9872 10L 174.71 101.1978Z"></path></g></g></g><g id="g-root-sy_1_cu_vector_18egtay14uomx7-fill" data-item-order="-106361" transform="translate(434.1015625, 199.9248046875)"><defs><linearGradient id="gradient-c3b321-14556876" x2="0" y2="1"><stop offset="0" stop-color="#ddc916"></stop><stop offset="1" stop-color="#a99c2c"></stop></linearGradient><linearGradient id="gradient-d5514c-497200298" x2="0" y2="1"><stop offset="0" stop-color="#e45752"></stop><stop offset="1" stop-color="#c54a46"></stop></linearGradient><linearGradient id="gradient-40ae79-389135447" x2="0" y2="1"><stop offset="0" stop-color="#3bc482"></stop><stop offset="1" stop-color="#449870"></stop></linearGradient><linearGradient id="gradient-c67b35-424552419" x2="0" y2="1"><stop offset="0" stop-color="#dc8331"></stop><stop offset="1" stop-color="#b07239"></stop></linearGradient><linearGradient id="gradient-4f83d8-135982273" x2="0" y2="1"><stop offset="0" stop-color="#4e88e6"></stop><stop offset="1" stop-color="#4f7eca"></stop></linearGradient></defs><g id="sy_1_cu_vector_18egtay14uomx7-fill" stroke="none" fill="url(#gradient-4f83d8-135982273)"><g><path d="M 117.539001 10L 147.877001 103.1857L 10 148.074L 10.0899 44.9822L 117.539001 10Z"></path></g></g></g><g id="g-root-tx_bibliote_dccriy14uonpg-fill" data-item-order="0" transform="translate(302, 50)"><g id="tx_bibliote_dccriy14uonpg-fill" stroke="none" fill="#e8e8e8"><g><text style="font: bold 25px Roboto, sans-serif; white-space: pre;" font-weight="bold" font-size="25px" font-family="Roboto, sans-serif"><tspan x="14.36" y="43" dominant-baseline="ideographic">Bibliotecas Auxiliares</tspan></text></g></g></g><g id="g-root-tx_variveis_13z8qca154bk00-fill" data-item-order="0" transform="translate(50, 146)"><g id="tx_variveis_13z8qca154bk00-fill" stroke="none" fill="#ffe711"><g><text style="font: bold 20px Roboto, sans-serif; white-space: pre;" font-weight="bold" font-size="20px" font-family="Roboto, sans-serif"><tspan x="18.1" y="33.34" dominant-baseline="ideographic">Variáveis de </tspan><tspan x="41.42" y="57.33" dominant-baseline="ideographic">Ambiente</tspan></text></g></g></g><g id="g-root-ic_1_1cxeouy14uonb9-fill" data-item-order="0" transform="translate(194, 170)"></g><g id="g-root-tx_variveis_m8l6xm154a51n-fill" data-item-order="0" transform="translate(14, 206)"><g id="tx_variveis_m8l6xm154a51n-fill" stroke="none" fill="#f4f4f4"><g><text style="font: 15px Roboto, sans-serif; white-space: pre;" font-size="15px" font-family="Roboto, sans-serif"><tspan x="16.99" y="27.78" dominant-baseline="ideographic">Variáveis de ambiente </tspan><tspan x="83.9" y="45.78" dominant-baseline="ideographic">com Dotenv</tspan></text></g></g></g><g id="g-root-tx_autentic_143m1y2154bmkk-fill" data-item-order="0" transform="translate(686, 206)"><g id="tx_autentic_143m1y2154bmkk-fill" stroke="none" fill="#4f91fc"><g><text style="font: bold 20px Roboto, sans-serif; white-space: pre;" font-weight="bold" font-size="20px" font-family="Roboto, sans-serif"><tspan x="12" y="33.34" dominant-baseline="ideographic">Autenticação </tspan><tspan x="12" y="57.33" dominant-baseline="ideographic">JWT</tspan></text></g></g></g><g id="g-root-ic_thro_1uuwb4q154o8w2-fill" data-item-order="0" transform="translate(614, 230)"></g><g id="g-root-tx_autentic_i0vuxm154a5n3-fill" data-item-order="0" transform="translate(686, 266)"><g id="tx_autentic_i0vuxm154a5n3-fill" stroke="none" fill="#f4f4f4"><g><text style="font: 15px Roboto, sans-serif; white-space: pre;" font-size="15px" font-family="Roboto, sans-serif"><tspan x="12" y="27.78" dominant-baseline="ideographic">Autenticação usando </tspan><tspan x="12" y="45.78" dominant-baseline="ideographic">Tokens Web JSON</tspan></text></g></g></g><g id="g-root-tx_enviodee_1cw4ore154bkll-fill" data-item-order="0" transform="translate(14, 302)"><g id="tx_enviodee_1cw4ore154bkll-fill" stroke="none" fill="#fb6762"><g><text style="font: bold 20px Roboto, sans-serif; white-space: pre;" font-weight="bold" font-size="20px" font-family="Roboto, sans-serif"><tspan x="22.68" y="33.33" dominant-baseline="ideographic">Envio de Emails</tspan></text></g></g></g><g id="g-root-ic_fron_w95m14ustfq-fill" data-item-order="0" transform="translate(194, 302)"></g><g id="g-root-tx_enviando_1hdtm56154a5fo-fill" data-item-order="0" transform="translate(14, 338)"><g id="tx_enviando_1hdtm56154a5fo-fill" stroke="none" fill="#f4f4f4"><g><text style="font: 15px Roboto, sans-serif; white-space: pre;" font-size="15px" font-family="Roboto, sans-serif"><tspan x="21.5" y="27.78" dominant-baseline="ideographic">Enviando emails com </tspan><tspan x="86.67" y="45.78" dominant-baseline="ideographic">Nodemailer</tspan></text></g></g></g><g id="g-root-ic_unlo_18f25ay154lfd5-fill" data-item-order="0" transform="translate(614, 362)"></g><g id="g-root-tx_hashdese_dg2k4a154bkej-fill" data-item-order="0" transform="translate(686, 362)"><g id="tx_hashdese_dg2k4a154bkej-fill" stroke="none" fill="#f79438"><g><text style="font: bold 20px Roboto, sans-serif; white-space: pre;" font-weight="bold" font-size="20px" font-family="Roboto, sans-serif"><tspan x="12" y="33.33" dominant-baseline="ideographic">Hash de Senhas</tspan></text></g></g></g><g id="g-root-tx_controle_4j6lp6154bjsy-fill" data-item-order="0" transform="translate(62, 410)"><g id="tx_controle_4j6lp6154bjsy-fill" stroke="none" fill="#43dd93"><g><text style="font: bold 20px Roboto, sans-serif; white-space: pre;" font-weight="bold" font-size="20px" font-family="Roboto, sans-serif"><tspan x="12.2" y="33.34" dominant-baseline="ideographic">Controle de </tspan><tspan x="49.49" y="57.33" dominant-baseline="ideographic">Acesso</tspan></text></g></g></g><g id="g-root-tx_hashdese_dj6xju154a7f2-fill" data-item-order="0" transform="translate(686, 398)"><g id="tx_hashdese_dj6xju154a7f2-fill" stroke="none" fill="#f4f4f4"><g><text style="font: 15px Roboto, sans-serif; white-space: pre;" font-size="15px" font-family="Roboto, sans-serif"><tspan x="12" y="27.78" dominant-baseline="ideographic">Hash de senhas com </tspan><tspan x="12" y="45.78" dominant-baseline="ideographic">bcrypt</tspan></text></g></g></g><g id="g-root-ic_sign_1hdtftm154frpk-fill" data-item-order="0" transform="translate(194, 434)"></g><g id="g-root-tx_controle_hxrhi2154a58l-fill" data-item-order="0" transform="translate(38, 470)"><g id="tx_controle_hxrhi2154a58l-fill" stroke="none" fill="#f4f4f4"><g><text style="font: 15px Roboto, sans-serif; white-space: pre;" font-size="15px" font-family="Roboto, sans-serif"><tspan x="11.53" y="27.78" dominant-baseline="ideographic">Controle de acesso </tspan><tspan x="40.12" y="45.78" dominant-baseline="ideographic">entre domínios</tspan></text></g></g></g><g id="g-root-sy_5_cu_vector_1hgckey14un9jj-stroke" data-item-order="-106377" transform="translate(336.1015625, 193)"><g id="sy_5_cu_vector_1hgckey14un9jj-stroke" fill="none" stroke-linecap="round" stroke-linejoin="round" stroke-miterlimit="4" stroke="#f4f4f4" stroke-width="2"><g><path d="M 10 10L 108.000001 10L 108.000001 155.0005L 10 123L 10 10Z"></path></g></g></g><g id="g-root-sy_4_cu_vector_zpp10a14un8qw-stroke" data-item-order="-106373" transform="translate(266, 293.0625)"><g id="sy_4_cu_vector_zpp10a14un8qw-stroke" fill="none" stroke-linecap="round" stroke-linejoin="round" stroke-miterlimit="4" stroke="#f4f4f4" stroke-width="2"><g><path d="M 10 102.7715L 40.24 10L 178.1014 54.9376L 117.5807 138.2851L 63.7182 120.2816L 10 102.7715Z"></path></g></g></g><g id="g-root-sy_3_cu_vector_93ehcq14un8qx-stroke" data-item-order="-106369" transform="translate(348.88671875, 338)"><g id="sy_3_cu_vector_93ehcq14un8qx-stroke" fill="none" stroke-linecap="round" stroke-linejoin="round" stroke-miterlimit="4" stroke="#f4f4f4" stroke-width="2"><g><path d="M 88.9477 184.6622L 10 127.3187L 95.2143 10L 155.8696 93.2495L 122.1517 138.9485L 88.9477 184.6622Z"></path></g></g></g><g id="g-root-sy_2_cu_vector_mg3xwa14un9c2-stroke" data-item-order="-106365" transform="translate(434.1015625, 305.96044921875)"><g id="sy_2_cu_vector_mg3xwa14un9c2-stroke" fill="none" stroke-linecap="round" stroke-linejoin="round" stroke-miterlimit="4" stroke="#f4f4f4" stroke-width="2"><g><path d="M 174.710201 101.1978L 95.618301 159.0638L 10 42.0397L 107.9872 10L 174.710201 101.1978Z"></path></g></g></g><g id="g-root-sy_1_cu_vector_18egtay14uomx7-stroke" data-item-order="-106361" transform="translate(434.1015625, 199.9248046875)"><g id="sy_1_cu_vector_18egtay14uomx7-stroke" fill="none" stroke-linecap="round" stroke-linejoin="round" stroke-miterlimit="4" stroke="#f4f4f4" stroke-width="2"><g><path d="M 117.538701 10L 147.8772 103.1857L 10 148.0745L 10.0899 44.9822L 117.538701 10Z"></path></g></g></g><g id="g-root-tx_bibliote_dccriy14uonpg-stroke" data-item-order="0" transform="translate(302, 50)"></g><g id="g-root-tx_variveis_13z8qca154bk00-stroke" data-item-order="0" transform="translate(50, 146)"></g><g id="g-root-ic_1_1cxeouy14uonb9-stroke" data-item-order="0" transform="translate(194, 170)"><g id="ic_1_1cxeouy14uonb9-stroke" fill="none" stroke-linecap="round" stroke-linejoin="round" stroke-miterlimit="4" stroke="#f4f4f4" stroke-width="2"><g><path d="M 49 35L 49 22.950001C 49 16.350197 43.649803 11 37.049999 11L 13 11C 11.895431 11 11 11.895431 11 13L 11 55C 11 56.104568 11.895431 57 13 57L 17 57M 39 11.16L 39 19C 39 20.104568 39.895432 21 41 21L 48.84 21M 23 57L 23 41L 27 49L 31 41L 31 57M 45 57L 45 41C 39.477154 41 35 45.477154 35 51L 35 53L 45 53M 57 41L 57 45.599998C 56.99976 49.743946 55.589069 53.764408 52.999996 56.999996C 50.410927 53.764408 49.000237 49.743946 48.999996 45.599998L 49 41"></path></g></g></g><g id="g-root-tx_variveis_m8l6xm154a51n-stroke" data-item-order="0" transform="translate(14, 206)"></g><g id="g-root-tx_autentic_143m1y2154bmkk-stroke" data-item-order="0" transform="translate(686, 206)"></g><g id="g-root-ic_thro_1uuwb4q154o8w2-stroke" data-item-order="0" transform="translate(614, 230)"><g id="ic_thro_1uuwb4q154o8w2-stroke" fill="none" stroke-linecap="round" stroke-linejoin="round" stroke-miterlimit="4" stroke="#f4f4f4" stroke-width="2"><g><path d="M 21.836781 25.78124L 15.121099 25.78124C 14.01652 25.78124 13.121099 24.88582 13.121099 23.78124L 13.121099 15.67188C 13.121099 14.5673 14.01652 13.67188 15.121099 13.67188L 39.236401 13.67188C 40.340797 13.67188 41.236401 14.5673 41.236401 15.67188L 41.236401 17.3806M 19.56912 20.114861C 19.300079 20.114861 19.082039 19.89682 19.082039 19.627781C 19.082039 19.35874 19.300079 19.140621 19.56912 19.140621M 19.5676 20.114861C 19.836639 20.114861 20.05468 19.89682 20.05468 19.627781C 20.05468 19.35874 19.836639 19.140621 19.5676 19.140621M 25.233181 20.114861C 24.96414 20.114861 24.746101 19.89682 24.746101 19.627781C 24.746101 19.35874 24.96414 19.140621 25.233181 19.140621M 25.231659 20.114861C 25.5007 20.114861 25.71876 19.89682 25.71876 19.627781C 25.71876 19.35874 25.5007 19.140621 25.231659 19.140621M 10 10M 54.879002 45.234402L 32.2714 45.234402M 25.230461 45.234402L 13.12076 45.234402M 10 10M 17.02734 41.328201L 13.11972 45.237202L 17.02734 49.144798M 47.701199 50.589802C 47.701199 52.5872 45.9534 54.334999 43.956001 54.334999L 28.97558 54.334999C 26.978201 54.334999 25.230461 52.837002 25.230461 50.589802L 25.230461 39.354401C 25.230461 37.357002 26.978201 35.609398 28.97558 35.609398L 43.956001 35.609398C 45.9534 35.609398 47.701199 37.357002 47.701199 39.354401M 36.466801 24.375C 32.222401 24.375 28.976561 27.62076 28.976561 31.8652L 28.976561 35.610397L 43.957001 35.610397L 43.957001 31.8652C 43.957001 27.87044 40.711201 24.375 36.466801 24.375Z"></path></g></g></g><g id="g-root-tx_autentic_i0vuxm154a5n3-stroke" data-item-order="0" transform="translate(686, 266)"></g><g id="g-root-tx_enviodee_1cw4ore154bkll-stroke" data-item-order="0" transform="translate(14, 302)"></g><g id="g-root-ic_fron_w95m14ustfq-stroke" data-item-order="0" transform="translate(194, 302)"><g id="ic_fron_w95m14ustfq-stroke" fill="none" stroke-linecap="round" stroke-linejoin="round" stroke-miterlimit="4" stroke="#f4f4f4" stroke-width="2"><g><path d="M 15 35L 13 35C 11.895431 35 11 34.104568 11 33L 11 13C 11 11.895431 11.895431 11 13 11L 43 11C 44.104568 11 45 11.895431 45 13L 45 29M 19 33L 57 33L 57 33L 57 55C 57 56.104568 56.104568 57 55 57L 21 57C 19.895432 57 19 56.104568 19 55L 19 33L 19 33ZM 11 15L 26.986 24.4C 27.611877 24.768143 28.388123 24.768143 29.014 24.4L 45 15M 19 33L 23.428001 40.984001C 23.780697 41.619957 24.45079 42.014355 25.178001 42.014L 50.824001 42C 51.550072 42.000031 52.219128 41.606556 52.571999 40.972L 57 33"></path></g></g></g><g id="g-root-tx_enviando_1hdtm56154a5fo-stroke" data-item-order="0" transform="translate(14, 338)"></g><g id="g-root-ic_unlo_18f25ay154lfd5-stroke" data-item-order="0" transform="translate(614, 362)"><g id="ic_unlo_18f25ay154lfd5-stroke" fill="none" stroke-linecap="round" stroke-linejoin="round" stroke-miterlimit="4" stroke="#f4f4f4" stroke-width="2"><g><path d="M 31.288 42.363998C 30.138285 40.671585 27.834148 40.231888 26.142 41.382L 13.118 50.23C 11.471788 51.397003 11.0618 53.666584 12.195663 55.335793C 13.329528 57.005001 15.590461 57.460274 17.282 56.360001L 30.306 47.512001C 31.998663 46.361534 32.438305 44.056774 31.288 42.364002ZM 31.288 42.363998L 37.496002 38L 37.496002 34L 43.495998 34M 43.484001 30C 43.760139 29.998898 43.98489 30.221859 43.985992 30.497997C 43.987095 30.774136 43.764137 30.998886 43.487999 30.999992C 43.211857 31.001097 42.987106 30.778139 42.986 30.502001C 42.984932 30.36923 43.03693 30.241531 43.13044 30.147272C 43.223946 30.053011 43.351227 29.999994 43.483997 30M 43.486 31L 43.495998 36M 30.496 33.057999L 30.496 27C 30.496 25.895432 31.39143 25 32.496002 25L 54.506001 25.02C 55.610569 25.02 56.506001 25.91543 56.506001 27.02L 56.487999 42.959999C 56.493538 44.064575 55.602573 44.964493 54.498001 44.970001L 38.498001 44.970001M 34.517998 25L 34.496002 20.040001C 34.473907 15.069437 38.485435 11.022092 43.456001 11C 48.426563 10.977909 52.473907 14.989437 52.495998 19.959999"></path></g></g></g><g id="g-root-tx_hashdese_dg2k4a154bkej-stroke" data-item-order="0" transform="translate(686, 362)"></g><g id="g-root-tx_controle_4j6lp6154bjsy-stroke" data-item-order="0" transform="translate(62, 410)"></g><g id="g-root-tx_hashdese_dj6xju154a7f2-stroke" data-item-order="0" transform="translate(686, 398)"></g><g id="g-root-ic_sign_1hdtftm154frpk-stroke" data-item-order="0" transform="translate(194, 434)"><g id="ic_sign_1hdtftm154frpk-stroke" fill="none" stroke-linecap="round" stroke-linejoin="round" stroke-miterlimit="4" stroke="#f4f4f4" stroke-width="2"><g><path d="M 25 57C 21 54 19 48 19 43C 19 38 21 32 25 29M 25 57C 29 54 31 48 31 43C 31 38 29 32 25 29M 12.348 37L 37.652 37M 12.348 49L 37.652 49M 11 43L 39 43M 11 43C 11.000001 50.731987 17.268013 57 25 57C 32.731987 57 39 50.731987 39 43C 39 35.268013 32.731987 29.000002 25 29.000002C 17.268013 29.000002 11.000001 35.268013 11.000001 43ZM 45.588001 32.054001C 45.484814 26.772203 41.227798 22.515188 35.945999 22.412001M 51.293999 32.134003C 51.130131 23.682159 44.317841 16.869869 35.865997 16.705999M 57 32.214001C 56.774422 20.592552 47.407448 11.225578 35.785999 11"></path></g></g></g><g id="g-root-tx_controle_hxrhi2154a58l-stroke" data-item-order="0" transform="translate(38, 470)"></g></g></g></svg>