<?xml version="1.0" encoding="utf-8" standalone="yes"?>
<!DOCTYPE svg PUBLIC "-//W3C//DTD SVG 1.1//EN" "http://www.w3.org/Graphics/SVG/1.1/DTD/svg11.dtd">
<svg width="900" height="948" viewBox="0 0 900 948" style="fill:none;stroke:none;fill-rule:evenodd;clip-rule:evenodd;stroke-linecap:round;stroke-linejoin:round;stroke-miterlimit:1.5;" version="1.1" xmlns="http://www.w3.org/2000/svg" xmlns:xlink="http://www.w3.org/1999/xlink"><style class="text-font-style fontImports" data-font-family="Roboto">@import url('https://fonts.googleapis.com/css2?family=Roboto:wght@400;700&amp;display=block');</style><g id="items" style="isolation: isolate"><g id="blend" style="mix-blend-mode: normal"><g id="g-root-cp_0c_g-0c_htev6p19khr7t-fill" data-item-order="-725894" transform="translate(566.1099853515625, 170.2099609375)"><g id="cp_0c_g-0c_htev6p19khr7t-fill" stroke="none" fill="#e8e8e8"><g><path d="M 53.72 19.02L 47 29.46L 46.97 29.46L 46.96 29.45L 10 20.44L 16.72 10L 53.72 19.02ZM 114.27 57.9805L 107.55 68.4205L 107.54 68.4205L 47 29.46L 53.72 19.02L 114.27 57.9805ZM 137.82 87.9105L 131.11 98.3505L 131.1 98.3505L 107.54 68.4305L 107.54 68.4205L 107.55 68.4205L 114.27 57.9805L 137.8 87.8805L 137.8 87.8905L 137.82 87.9105Z"></path></g></g></g><g id="g-root-cp_0b_g-0b_2rbs119khqf7-fill" data-item-order="-725890" transform="translate(206.52999877929688, 742.4599609375)"><g id="cp_0b_g-0b_2rbs119khqf7-fill" stroke="none" fill="#e8e8e8"><g><path d="M 131.3 87.61L 62.24 115.22C 54.96 96.99 37.11 84.14 16.29 84.21C 15.48 84.21 14.68 84.23 13.88 84.28L 10 10L 47.02 18.93L 107.67 57.73L 131.3 87.61Z"></path></g></g></g><g id="g-root-cp_0a_g-0a_1cxec8119khpfx-fill" data-item-order="-725886" transform="translate(210.41000366210938, 149.1181640625)"><g id="cp_0a_g-0a_1cxec8119khpfx-fill" stroke="none" fill="#e8e8e8"><g><path d="M 58.36 708.562L 12.57 726.862L 10 677.622C 10.8 677.572 11.6 677.552 12.41 677.552C 33.23 677.482 51.08 690.332 58.36 708.562ZM 493.52 108.9917L 498.47 101.2617C 505.55 90.1917 504.49 75.7817 495.86 65.8617C 473.21 39.8517 443.58 20.8817 410.48 11.2117L 410.41 11.1917C 397.79 7.5017 384.25 12.5817 377.17 23.6517L 372.42 31.0817L 409.42 40.1017L 469.97 79.0617L 493.52 108.9817L 493.52 108.9917Z"></path></g></g></g><g id="g-root-cp_1_g-1_zlxtup19khr0v-fill" data-item-order="-725882" transform="translate(206.52999877929688, 672.25)"><g id="cp_1_g-1_zlxtup19khr0v-fill" stroke="none" fill="#1ac3fb"><g><path d="M 176.22 87.6005L 131.3 157.82L 107.6699 127.94L 152.59 57.7305L 176.22 87.6005ZM 91.95 18.93L 47.02 89.14L 10 80.21L 54.92 10L 91.95 18.93ZM 152.59 57.7305L 107.6699 127.94L 47.02 89.14L 91.95 18.93L 152.59 57.7305Z"></path></g></g></g><g id="g-root-cp_2_g-2_4jts2p19khrt5-fill" data-item-order="-725878" transform="translate(251.45001220703125, 602.0400390625)"><g id="cp_2_g-2_4jts2p19khrt5-fill" stroke="none" fill="#43dd93"><g><path d="M 91.95 18.93L 47.03 89.14L 10 80.21L 54.92 10L 91.95 18.93ZM 176.22 87.5995L 131.3 157.809L 107.6702 127.939L 152.6 57.7295L 176.22 87.5995ZM 152.6 57.7295L 107.6702 127.939L 47.03 89.14L 91.95 18.93L 152.6 57.7295Z"></path></g></g></g><g id="g-root-cp_3_g-3_1luaan519khqtf-fill" data-item-order="-725874" transform="translate(296.3699951171875, 531.8203125)"><g id="cp_3_g-3_1luaan519khqtf-fill" stroke="none" fill="#a6da37"><g><path d="M 91.95 18.93L 47.03 89.15L 10 80.22L 54.92 10L 54.93 10L 91.95 18.93ZM 176.22 87.6093L 131.3 157.819L 107.6799 127.949L 152.6 57.7393L 176.22 87.6093ZM 152.6 57.7393L 107.6799 127.949L 47.03 89.15L 91.95 18.93L 152.6 57.7393Z"></path></g></g></g><g id="g-root-cp_4_g-4_18jg9cx19khp8l-fill" data-item-order="-725870" transform="translate(341.29998779296875, 461.6103515625)"><g id="cp_4_g-4_18jg9cx19khp8l-fill" stroke="none" fill="#ffe711"><g><path d="M 176.21 87.6095L 131.29 157.819L 107.6699 127.949L 152.59 57.7295L 176.21 87.6095ZM 91.94 18.93L 47.02 89.14L 10 80.21L 54.92 10L 91.94 18.93ZM 152.59 57.7295L 107.6699 127.949L 47.02 89.14L 91.94 18.93L 152.59 57.7295Z"></path></g></g></g><g id="g-root-cp_5_g-5_mccqqp19khrm7-fill" data-item-order="-725866" transform="translate(386.2200012207031, 391.400390625)"><g id="cp_5_g-5_mccqqp19khrm7-fill" stroke="none" fill="#f79438"><g><path d="M 91.94 18.93L 47.02 89.14L 10 80.21L 54.92 10L 91.94 18.93ZM 176.22 87.5995L 131.29 157.819L 107.6702 127.939L 152.59 57.7295L 176.22 87.5995ZM 91.9427 18.9281L 47.0239 89.1387L 107.6737 127.941L 152.593 57.7302L 91.9427 18.9281Z"></path></g></g></g><g id="g-root-cp_6_g-6_dhc7kx19khq0x-fill" data-item-order="-725862" transform="translate(431.1400146484375, 321.1904296875)"><g id="cp_6_g-6_dhc7kx19khq0x-fill" stroke="none" fill="#fb6762"><g><path d="M 176.22 87.5995L 131.3 157.809L 107.6699 127.939L 152.59 57.7295L 176.22 87.5995ZM 91.94 18.93L 47.02 89.14L 10 80.21L 54.92 10L 91.94 18.93ZM 91.9388 18.932L 47.02 89.1426L 107.6698 127.945L 152.589 57.7341L 91.9388 18.932Z"></path></g></g></g><g id="g-root-cp_7_g-7_1lw5pwh19khptv-fill" data-item-order="-725858" transform="translate(476.05999755859375, 250.9697265625)"><g id="cp_7_g-7_1lw5pwh19khptv-fill" stroke="none" fill="#f366bb"><g><path d="M 176.22 87.6102L 131.3 157.82L 107.6699 127.95L 152.59 57.7402L 176.22 87.6102ZM 91.94 18.93L 47.02 89.15L 10 80.22L 54.92 10L 91.94 18.93ZM 152.49 57.7706L 107.3899 127.871L 46.8398 88.9106L 91.9398 18.8105L 152.49 57.7706Z"></path></g></g></g><g id="g-root-cp_8_g-8_zpoodd19khp1p-fill" data-item-order="-725854" transform="translate(521.010009765625, 180.650390625)"><g id="cp_8_g-8_zpoodd19khp1p-fill" stroke="none" fill="#cb68f9"><g><path d="M 92.09 19.03L 46.99 89.13L 10 80.11L 55.09 10L 55.1 10L 92.06 19.01L 92.07 19.02L 92.08 19.02L 92.09 19.03ZM 176.2 87.9093L 131.1 158.019L 107.54 128.089L 152.64 57.9893L 176.2 87.9093ZM 152.64 57.9795L 152.64 57.9893L 107.54 128.089L 46.99 89.13L 92.09 19.03L 92.09 19.0195L 92.1 19.0195L 152.64 57.9795Z"></path></g></g></g><g id="g-root-tx_knexjs_v3mijl19klyx3-fill" data-item-order="0" transform="translate(194, 290)"><g id="tx_knexjs_v3mijl19klyx3-fill" stroke="none" fill="#fb6762"><g><text style="font: bold 20px Roboto, sans-serif; white-space: pre;" font-weight="bold" font-size="20px" font-family="Roboto, sans-serif"><tspan x="13.89" y="34" dominant-baseline="ideographic">Knex.js</tspan></text></g></g></g><g id="g-root-tx_sequeliz_1q6zlnl19k3nd6-fill" data-item-order="0" transform="translate(674, 338)"><g id="tx_sequeliz_1q6zlnl19k3nd6-fill" stroke="none" fill="#f366bb"><g><text style="font: bold 20px Roboto, sans-serif; white-space: pre;" font-weight="bold" font-size="20px" font-family="Roboto, sans-serif"><tspan x="12" y="34" dominant-baseline="ideographic">Sequelize</tspan></text></g></g></g><g id="g-root-ic_sql_zrk6sh19klypt-fill" data-item-order="0" transform="translate(500, 365)"></g><g id="g-root-tx_ormparam_1uo21y919k3oqz-fill" data-item-order="0" transform="translate(674, 374)"><g id="tx_ormparam_1uo21y919k3oqz-fill" stroke="none" fill="#ffe8f6"><g><text style="font: 15px Roboto, sans-serif; white-space: pre;" font-size="15px" font-family="Roboto, sans-serif"><tspan x="12" y="28" dominant-baseline="ideographic">ORM para modelagem de </tspan><tspan x="12" y="46" dominant-baseline="ideographic">dados rápida e produtiva</tspan></text></g></g></g><g id="g-root-tx_utilizat_13ymyjl19kj409-fill" data-item-order="0" transform="translate(398, 830)"><g id="tx_utilizat_13ymyjl19kj409-fill" stroke="none" fill="#e5f8ff"><g><text style="font: 15px Roboto, sans-serif; white-space: pre;" font-size="15px" font-family="Roboto, sans-serif"><tspan x="12" y="28" dominant-baseline="ideographic">Utiliza tabelas e SQL para </tspan><tspan x="12" y="46" dominant-baseline="ideographic">dados estruturados</tspan></text></g></g></g><g id="g-root-tx_mysqlmar_zntc9t19k6ha9-fill" data-item-order="0" transform="translate(110, 434)"><g id="tx_mysqlmar_zntc9t19k6ha9-fill" stroke="none" fill="#ffe711"><g><text style="font: bold 20px Roboto, sans-serif; white-space: pre;" font-weight="bold" font-size="20px" font-family="Roboto, sans-serif"><tspan x="14.78" y="34" dominant-baseline="ideographic">MySQL/MariaDB</tspan></text></g></g></g><g id="g-root-ic_migr_dg3ckh19kc4cu-fill" data-item-order="0" transform="translate(454, 435)"></g><g id="g-root-tx_bancoded_1hgcaxt19k6h36-fill" data-item-order="0" transform="translate(110, 470)"><g id="tx_bancoded_1hgcaxt19k6h36-fill" stroke="none" fill="#fffbd5"><g><text style="font: 15px Roboto, sans-serif; white-space: pre;" font-size="15px" font-family="Roboto, sans-serif"><tspan x="14.63" y="31" dominant-baseline="ideographic">Banco de dados leve ideal </tspan><tspan x="67.66" y="49" dominant-baseline="ideographic">para hospedagem </tspan><tspan x="91.16" y="67" dominant-baseline="ideographic">compartilhada</tspan></text></g></g></g><g id="g-root-ic_data_4l2wkh19k7vv3-fill" data-item-order="0" transform="translate(588, 225)"></g><g id="g-root-tx_mongodb_9ild19kc3d8-fill" data-item-order="0" transform="translate(578, 482)"><g id="tx_mongodb_9ild19kc3d8-fill" stroke="none" fill="#f79438"><g><text style="font: bold 20px Roboto, sans-serif; white-space: pre;" font-weight="bold" font-size="20px" font-family="Roboto, sans-serif"><tspan x="12" y="34" dominant-baseline="ideographic">MongoDB</tspan></text></g></g></g><g id="g-root-tx_bancoded_18gbz3519kc5c5-fill" data-item-order="0" transform="translate(578, 518)"><g id="tx_bancoded_18gbz3519kc5c5-fill" stroke="none" fill="#fff0e2"><g><text style="font: 15px Roboto, sans-serif; white-space: pre;" font-size="15px" font-family="Roboto, sans-serif"><tspan x="12" y="31" dominant-baseline="ideographic">Banco de dados NoSQL </tspan><tspan x="12" y="49" dominant-baseline="ideographic">escalável para aplicações </tspan><tspan x="12" y="67" dominant-baseline="ideographic">modernas</tspan></text></g></g></g><g id="g-root-tx_odmparam_1hduhr519k7wna-fill" data-item-order="0" transform="translate(290, 206)"><g id="tx_odmparam_1hduhr519k7wna-fill" stroke="none" fill="#faeeff"><g><text style="font: 15px Roboto, sans-serif; white-space: pre;" font-size="15px" font-family="Roboto, sans-serif"><tspan x="18.38" y="28" dominant-baseline="ideographic">ODM para MongoDB com </tspan><tspan x="57.69" y="46" dominant-baseline="ideographic">validação integrada</tspan></text></g></g></g><g id="g-root-tx_bancosde_mfh46919kkjkb-fill" data-item-order="0" transform="translate(14, 578)"><g id="tx_bancosde_mfh46919kkjkb-fill" stroke="none" fill="#43dd93"><g><text style="font: bold 20px Roboto, sans-serif; white-space: pre;" font-weight="bold" font-size="20px" font-family="Roboto, sans-serif"><tspan x="20.81" y="34" dominant-baseline="ideographic">Bancos de Dados </tspan><tspan x="30.83" y="58" dominant-baseline="ideographic">Não Relacionais</tspan></text></g></g></g><g id="g-root-ic_brok_1ly18bl19k2b5s-fill" data-item-order="0" transform="translate(364, 575)"></g><g id="g-root-tx_construt_vahqht19klxc0-fill" data-item-order="0" transform="translate(194, 326)"><g id="tx_construt_vahqht19klxc0-fill" stroke="none" fill="#ffe9e8"><g><text style="font: 15px Roboto, sans-serif; white-space: pre;" font-size="15px" font-family="Roboto, sans-serif"><tspan x="15.98" y="31" dominant-baseline="ideographic">Construtor de consultas </tspan><tspan x="15.08" y="49" dominant-baseline="ideographic">para controle preciso de </tspan><tspan x="148.69" y="67" dominant-baseline="ideographic">SQL</tspan></text></g></g></g><g id="g-root-tx_empregad_14802u919kkjd8-fill" data-item-order="0" transform="translate(14, 638)"><g id="tx_empregad_14802u919kkjd8-fill" stroke="none" fill="#dffff0"><g><text style="font: 15px Roboto, sans-serif; white-space: pre;" font-size="15px" font-family="Roboto, sans-serif"><tspan x="41.11" y="28" dominant-baseline="ideographic">Emprega documentos </tspan><tspan x="13.58" y="46" dominant-baseline="ideographic">JSON para dados flexíveis</tspan></text></g></g></g><g id="g-root-tx_postgres_qsst4119k2arq-fill" data-item-order="0" transform="translate(494, 626)"><g id="tx_postgres_qsst4119k2arq-fill" stroke="none" fill="#a6da37"><g><text style="font: bold 20px Roboto, sans-serif; white-space: pre;" font-weight="bold" font-size="20px" font-family="Roboto, sans-serif"><tspan x="12" y="34" dominant-baseline="ideographic">PostgreSQL</tspan></text></g></g></g><g id="g-root-ic_data_1lqjg4h19klxql-fill" data-item-order="0" transform="translate(320, 645)"></g><g id="g-root-tx_mongoose_qpoiu919k7xn1-fill" data-item-order="0" transform="translate(290, 170)"><g id="tx_mongoose_qpoiu919k7xn1-fill" stroke="none" fill="#cb68f9"><g><text style="font: bold 20px Roboto, sans-serif; white-space: pre;" font-weight="bold" font-size="20px" font-family="Roboto, sans-serif"><tspan x="20.91" y="34" dominant-baseline="ideographic">Mongoose</tspan></text></g></g></g><g id="g-root-tx_bancoded_zporj519k2bdb-fill" data-item-order="0" transform="translate(494, 662)"><g id="tx_bancoded_zporj519k2bdb-fill" stroke="none" fill="#f2ffd7"><g><text style="font: 15px Roboto, sans-serif; white-space: pre;" font-size="15px" font-family="Roboto, sans-serif"><tspan x="12" y="31" dominant-baseline="ideographic">Banco de dados robusto de </tspan><tspan x="12" y="49" dominant-baseline="ideographic">código aberto para </tspan><tspan x="12" y="67" dominant-baseline="ideographic">produção</tspan></text></g></g></g><g id="g-root-ic_serv_vwip19kj5l6-fill" data-item-order="0" transform="translate(276, 715)"></g><g id="g-root-tx_visogera_1ut1obl19khqfj-fill" data-item-order="0" transform="translate(182, 38)"><g id="tx_visogera_1ut1obl19khqfj-fill" stroke="none" fill="#f4f4f4"><g><text style="font: bold 25px Roboto, sans-serif; white-space: pre;" font-weight="bold" font-size="25px" font-family="Roboto, sans-serif"><tspan x="13.96" y="43" dominant-baseline="ideographic">Visão Geral dos Sistemas de Banco de Dados</tspan></text></g></g></g><g id="g-root-tx_bancosde_94n2w119khr7s-fill" data-item-order="0" transform="translate(398, 770)"><g id="tx_bancosde_94n2w119khr7s-fill" stroke="none" fill="#1ac3fb"><g><text style="font: bold 20px Roboto, sans-serif; white-space: pre;" font-weight="bold" font-size="20px" font-family="Roboto, sans-serif"><tspan x="12" y="34" dominant-baseline="ideographic">Bancos de Dados </tspan><tspan x="12" y="58" dominant-baseline="ideographic">Relacionais</tspan></text></g></g></g><g id="g-root-ic_1_dkgrc119k3o5o-fill" data-item-order="0" transform="translate(544, 295)"></g><g id="g-root-ic_2_vb47kx19k6igz-fill" data-item-order="0" transform="translate(410, 505)"></g><g id="g-root-cp_0c_g-0c_htev6p19khr7t-stroke" data-item-order="-725894" transform="translate(566.1099853515625, 170.2099609375)"><g id="cp_0c_g-0c_htev6p19khr7t-stroke" fill="none" stroke-linecap="round" stroke-linejoin="round" stroke-miterlimit="4" stroke="#2c2c2c" stroke-width="2"><g><path d="M 53.72 19.02L 47 29.46L 46.97 29.46L 46.96 29.45L 10 20.44L 16.72 10L 53.72 19.02ZM 114.27 57.9805L 107.55 68.4205L 107.54 68.4205L 47 29.46L 53.72 19.02L 114.27 57.9805ZM 137.82 87.9105L 131.11 98.3505L 131.1 98.3505L 107.54 68.4305L 107.54 68.4205L 107.55 68.4205L 114.27 57.9805L 137.8 87.8805L 137.8 87.8905L 137.82 87.9105Z"></path></g></g></g><g id="g-root-cp_0b_g-0b_2rbs119khqf7-stroke" data-item-order="-725890" transform="translate(206.52999877929688, 742.4599609375)"><g id="cp_0b_g-0b_2rbs119khqf7-stroke" fill="none" stroke-linecap="round" stroke-linejoin="round" stroke-miterlimit="4" stroke="#2c2c2c" stroke-width="2"><g><path d="M 131.3 87.61L 62.24 115.22C 54.96 96.99 37.11 84.14 16.29 84.21C 15.48 84.21 14.68 84.23 13.88 84.28L 10 10L 47.02 18.93L 107.67 57.73L 131.3 87.61Z"></path></g></g></g><g id="g-root-cp_0a_g-0a_1cxec8119khpfx-stroke" data-item-order="-725886" transform="translate(210.41000366210938, 149.1181640625)"><g id="cp_0a_g-0a_1cxec8119khpfx-stroke" fill="none" stroke-linecap="round" stroke-linejoin="round" stroke-miterlimit="4" stroke="#2c2c2c" stroke-width="2"><g><path d="M 58.36 708.5621L 12.57 726.8621L 10 677.6221C 10.8 677.5721 11.6 677.5521 12.41 677.5521C 33.23 677.4821 51.08 690.3321 58.36 708.5621ZM 493.5202 108.9917L 498.4702 101.2617C 505.5502 90.1917 504.4902 75.7817 495.8602 65.8617C 473.2102 39.8517 443.5802 20.8817 410.4802 11.2117L 410.4102 11.1917C 397.7902 7.5017 384.2502 12.5817 377.1702 23.6517L 372.4202 31.0817L 409.4202 40.1017L 469.9702 79.0617L 493.5202 108.9817L 493.5202 108.9917Z"></path></g></g></g><g id="g-root-cp_1_g-1_zlxtup19khr0v-stroke" data-item-order="-725882" transform="translate(206.52999877929688, 672.25)"><g id="cp_1_g-1_zlxtup19khr0v-stroke" fill="none" stroke-linecap="round" stroke-linejoin="round" stroke-miterlimit="4" stroke="#2c2c2c" stroke-width="2"><g><path d="M 176.2199 87.6005L 131.2999 157.8205L 107.6699 127.9405L 152.5899 57.7305L 176.2199 87.6005ZM 91.95 18.93L 47.02 89.14L 10 80.21L 54.92 10L 91.95 18.93ZM 152.5899 57.7305L 107.6699 127.9405L 47.02 89.14L 91.95 18.93L 152.5899 57.7305Z"></path></g></g></g><g id="g-root-cp_2_g-2_4jts2p19khrt5-stroke" data-item-order="-725878" transform="translate(251.45001220703125, 602.0400390625)"><g id="cp_2_g-2_4jts2p19khrt5-stroke" fill="none" stroke-linecap="round" stroke-linejoin="round" stroke-miterlimit="4" stroke="#2c2c2c" stroke-width="2"><g><path d="M 91.95 18.93L 47.03 89.14L 10 80.21L 54.92 10L 91.95 18.93ZM 176.2202 87.5995L 131.3002 157.8095L 107.6702 127.9395L 152.6002 57.7295L 176.2202 87.5995ZM 152.6002 57.7295L 107.6702 127.9395L 47.03 89.14L 91.95 18.93L 152.6002 57.7295Z"></path></g></g></g><g id="g-root-cp_3_g-3_1luaan519khqtf-stroke" data-item-order="-725874" transform="translate(296.3699951171875, 531.8203125)"><g id="cp_3_g-3_1luaan519khqtf-stroke" fill="none" stroke-linecap="round" stroke-linejoin="round" stroke-miterlimit="4" stroke="#2c2c2c" stroke-width="2"><g><path d="M 91.95 18.93L 47.03 89.15L 10 80.22L 54.92 10L 54.93 10L 91.95 18.93ZM 176.2199 87.6093L 131.2999 157.8193L 107.6799 127.9492L 152.5999 57.7393L 176.2199 87.6093ZM 152.5999 57.7393L 107.6799 127.9492L 47.03 89.15L 91.95 18.93L 152.5999 57.7393Z"></path></g></g></g><g id="g-root-cp_4_g-4_18jg9cx19khp8l-stroke" data-item-order="-725870" transform="translate(341.29998779296875, 461.6103515625)"><g id="cp_4_g-4_18jg9cx19khp8l-stroke" fill="none" stroke-linecap="round" stroke-linejoin="round" stroke-miterlimit="4" stroke="#2c2c2c" stroke-width="2"><g><path d="M 176.2099 87.6095L 131.2899 157.8195L 107.6699 127.9495L 152.5899 57.7295L 176.2099 87.6095ZM 91.94 18.93L 47.02 89.14L 10 80.21L 54.92 10L 91.94 18.93ZM 152.5899 57.7295L 107.6699 127.9495L 47.02 89.14L 91.94 18.93L 152.5899 57.7295Z"></path></g></g></g><g id="g-root-cp_5_g-5_mccqqp19khrm7-stroke" data-item-order="-725866" transform="translate(386.2200012207031, 391.400390625)"><g id="cp_5_g-5_mccqqp19khrm7-stroke" fill="none" stroke-linecap="round" stroke-linejoin="round" stroke-miterlimit="4" stroke="#2c2c2c" stroke-width="2"><g><path d="M 91.94 18.93L 47.02 89.14L 10 80.21L 54.92 10L 91.94 18.93ZM 176.2202 87.5995L 131.2902 157.8195L 107.6702 127.9395L 152.5901 57.7295L 176.2202 87.5995ZM 91.9427 18.9281L 47.0239 89.1387L 107.6737 127.9408L 152.5925 57.7302L 91.9427 18.9281Z"></path></g></g></g><g id="g-root-cp_6_g-6_dhc7kx19khq0x-stroke" data-item-order="-725862" transform="translate(431.1400146484375, 321.1904296875)"><g id="cp_6_g-6_dhc7kx19khq0x-stroke" fill="none" stroke-linecap="round" stroke-linejoin="round" stroke-miterlimit="4" stroke="#2c2c2c" stroke-width="2"><g><path d="M 176.2199 87.5995L 131.2999 157.8095L 107.6699 127.9395L 152.5899 57.7295L 176.2199 87.5995ZM 91.94 18.93L 47.02 89.14L 10 80.21L 54.92 10L 91.94 18.93ZM 91.9388 18.932L 47.02 89.1426L 107.6698 127.9447L 152.5886 57.7341L 91.9388 18.932Z"></path></g></g></g><g id="g-root-cp_7_g-7_1lw5pwh19khptv-stroke" data-item-order="-725858" transform="translate(476.05999755859375, 250.9697265625)"><g id="cp_7_g-7_1lw5pwh19khptv-stroke" fill="none" stroke-linecap="round" stroke-linejoin="round" stroke-miterlimit="4" stroke="#2c2c2c" stroke-width="2"><g><path d="M 176.2199 87.6102L 131.2999 157.8202L 107.6699 127.9502L 152.5899 57.7402L 176.2199 87.6102ZM 91.94 18.93L 47.02 89.15L 10 80.22L 54.92 10L 91.94 18.93ZM 152.4898 57.7706L 107.3899 127.8705L 46.8398 88.9106L 91.9398 18.8105L 152.4898 57.7706Z"></path></g></g></g><g id="g-root-cp_8_g-8_zpoodd19khp1p-stroke" data-item-order="-725854" transform="translate(521.010009765625, 180.650390625)"><g id="cp_8_g-8_zpoodd19khp1p-stroke" fill="none" stroke-linecap="round" stroke-linejoin="round" stroke-miterlimit="4" stroke="#2c2c2c" stroke-width="2"><g><path d="M 92.09 19.03L 46.99 89.13L 10 80.11L 55.09 10L 55.1 10L 92.06 19.01L 92.07 19.02L 92.08 19.02L 92.09 19.03ZM 176.2 87.9093L 131.1 158.0193L 107.54 128.0893L 152.64 57.9893L 176.2 87.9093ZM 152.64 57.9795L 152.64 57.9893L 107.54 128.0893L 46.99 89.13L 92.09 19.03L 92.09 19.0195L 92.1 19.0195L 152.64 57.9795Z"></path></g></g></g><g id="g-root-tx_knexjs_v3mijl19klyx3-stroke" data-item-order="0" transform="translate(194, 290)"></g><g id="g-root-tx_sequeliz_1q6zlnl19k3nd6-stroke" data-item-order="0" transform="translate(674, 338)"></g><g id="g-root-ic_sql_zrk6sh19klypt-stroke" data-item-order="0" transform="translate(500, 365)"><g id="ic_sql_zrk6sh19klypt-stroke" fill="none" stroke-linecap="round" stroke-linejoin="round" stroke-miterlimit="4" stroke="#2c2c2c" stroke-width="2"><g><path d="M 12.625 18.757L 49.375 18.757C 49.375 18.757 51.125 18.757 51.125 20.507L 51.125 41.507C 51.125 41.507 51.125 43.257 49.375 43.257L 12.625 43.257C 12.625 43.257 10.875 43.257 10.875 41.507L 10.875 20.507C 10.875 20.507 10.875 18.757 12.625 18.757M 24.875 25.75L 21.9 25.75C 20.888817 25.740953 19.993032 26.400442 19.701344 27.368683C 19.409657 28.336926 19.792088 29.381485 20.639999 29.932499L 23.860001 32.07975C 24.696066 32.634892 25.069601 33.672295 24.779335 34.632992C 24.489071 35.593685 23.603588 36.25069 22.6 36.25L 19.625 36.25M 33.625 32.75C 33.625 34.199749 32.449749 35.375 31 35.375C 29.550255 35.375 28.375 34.199749 28.375 32.75L 28.375 28.375C 28.375 26.925255 29.550255 25.75 31 25.75C 32.449749 25.75 33.625 26.925255 33.625 28.375ZM 33.625 38.007L 30.125 35.231499M 37.125 25.75L 37.125 34.5C 37.125 35.466499 37.908501 36.25 38.875 36.25L 42.375 36.25"></path></g></g></g><g id="g-root-tx_ormparam_1uo21y919k3oqz-stroke" data-item-order="0" transform="translate(674, 374)"></g><g id="g-root-tx_utilizat_13ymyjl19kj409-stroke" data-item-order="0" transform="translate(398, 830)"></g><g id="g-root-tx_mysqlmar_zntc9t19k6ha9-stroke" data-item-order="0" transform="translate(110, 434)"></g><g id="g-root-ic_migr_dg3ckh19kc4cu-stroke" data-item-order="0" transform="translate(454, 435)"><g id="ic_migr_dg3ckh19kc4cu-stroke" fill="none" stroke-linecap="round" stroke-linejoin="round" stroke-miterlimit="4" stroke="#2c2c2c" stroke-width="2"><g><path d="M 31 23.2125C 38.538651 23.2125 44.649998 20.548597 44.649998 17.262501C 44.649998 13.976402 38.538651 11.3125 31 11.3125C 23.461332 11.3125 17.350018 13.976402 17.350018 17.262501C 17.350018 20.548597 23.461332 23.2125 31 23.2125ZM 17.350018 17.262535L 17.350018 26.362535C 17.350018 29.6875 23.475018 32.3125 31 32.3125C 38.524998 32.3125 44.649998 29.6875 44.649998 26.362535L 44.649998 17.262535M 17.350018 26.362465L 17.350018 35.462502C 17.350018 38.787502 23.475018 41.412502 31 41.412502C 38.524998 41.412502 44.649998 38.787502 44.649998 35.462502L 44.649998 26.362465M 17.700157 43.6875L 17.700157 47.1875M 26.450157 47.712326L 26.450157 50.687325M 35.200176 47.712326L 35.200176 50.687325M 43.950176 43.6875L 43.950176 47.1875"></path></g></g></g><g id="g-root-tx_bancoded_1hgcaxt19k6h36-stroke" data-item-order="0" transform="translate(110, 470)"></g><g id="g-root-ic_data_4l2wkh19k7vv3-stroke" data-item-order="0" transform="translate(588, 225)"><g id="ic_data_4l2wkh19k7vv3-stroke" fill="none" stroke-linecap="round" stroke-linejoin="round" stroke-miterlimit="4" stroke="#2c2c2c" stroke-width="2"><g><path d="M 24.9625 23.2125C 32.501148 23.2125 38.612499 20.548597 38.612499 17.262501C 38.612499 13.976402 32.501148 11.3125 24.9625 11.3125C 17.423815 11.3125 11.3125 13.976402 11.3125 17.262501C 11.3125 20.548597 17.423815 23.2125 24.9625 23.2125ZM 38.612499 22.337536L 38.612499 17.262535M 11.3125 17.262535L 11.3125 26.362535C 11.3125 29.6875 17.437483 32.3125 24.962482 32.3125C 26.187483 32.3125 27.412483 32.3125 28.4625 32.137501M 11.3125 26.362465L 11.3125 35.462502C 11.3125 38.787502 17.437483 41.412502 24.962482 41.412502C 26.187483 41.412502 27.412483 41.412502 28.4625 41.237499M 50.6875 48.9375C 50.6875 49.987499 49.987499 50.6875 48.9375 50.6875L 34.9375 50.6875C 33.887501 50.6875 33.1875 49.987499 33.1875 48.9375L 33.1875 29.6875C 33.1875 28.637499 33.887501 27.9375 34.9375 27.9375L 44.737499 27.9375C 45.087498 27.9375 45.612499 28.112501 45.787502 28.2875L 49.987499 31.7875C 50.337498 32.137501 50.6875 32.662498 50.6875 33.1875L 50.6875 48.9375ZM 39.3125 34.9375L 44.5625 34.9375M 39.3125 40.1875L 44.5625 40.1875M 39.3125 45.4375L 41.9375 45.4375"></path></g></g></g><g id="g-root-tx_mongodb_9ild19kc3d8-stroke" data-item-order="0" transform="translate(578, 482)"></g><g id="g-root-tx_bancoded_18gbz3519kc5c5-stroke" data-item-order="0" transform="translate(578, 518)"></g><g id="g-root-tx_odmparam_1hduhr519k7wna-stroke" data-item-order="0" transform="translate(290, 206)"></g><g id="g-root-tx_bancosde_mfh46919kkjkb-stroke" data-item-order="0" transform="translate(14, 578)"></g><g id="g-root-ic_brok_1ly18bl19k2b5s-stroke" data-item-order="0" transform="translate(364, 575)"><g id="ic_brok_1ly18bl19k2b5s-stroke" fill="none" stroke-linecap="round" stroke-linejoin="round" stroke-miterlimit="4" stroke="#2c2c2c" stroke-width="2"><g><path d="M 47.625 35.375C 47.625 39.2425 40.1805 42.375 31 42.375C 21.8195 42.375 14.375 39.2425 14.375 35.375M 14.375 17.875L 14.375 44.125C 14.375 47.9925 21.8195 51.125 31 51.125C 40.1805 51.125 47.625 47.9925 47.625 44.125L 47.625 17.875M 29.25 15.25L 26.625 18.75L 38.820751 24.0525L 36.120499 33.287251L 40.637249 41.078251M 14.375 17.875C 14.375 21.740993 21.818266 24.875 31 24.875C 40.181736 24.875 47.625 21.740993 47.625 17.875C 47.625 14.009007 40.181736 10.875 31 10.875C 21.818266 10.875 14.375 14.009007 14.375 17.875M 47.625 26.625C 47.625 30.4925 40.1805 33.625 31 33.625C 21.8195 33.625 14.375 30.4925 14.375 26.625"></path></g></g></g><g id="g-root-tx_construt_vahqht19klxc0-stroke" data-item-order="0" transform="translate(194, 326)"></g><g id="g-root-tx_empregad_14802u919kkjd8-stroke" data-item-order="0" transform="translate(14, 638)"></g><g id="g-root-tx_postgres_qsst4119k2arq-stroke" data-item-order="0" transform="translate(494, 626)"></g><g id="g-root-ic_data_1lqjg4h19klxql-stroke" data-item-order="0" transform="translate(320, 645)"><g id="ic_data_1lqjg4h19klxql-stroke" fill="none" stroke-linecap="round" stroke-linejoin="round" stroke-miterlimit="4" stroke="#2c2c2c" stroke-width="2"><g><path d="M 47.1875 11.3125C 49.112499 11.3125 50.6875 12.8875 50.6875 14.8125L 50.6875 21.8125L 11.3125 21.8125L 11.3125 14.8125C 11.3125 12.8875 12.8875 11.3125 14.8125 11.3125L 47.1875 11.3125ZM 24.4375 21.8125L 24.4375 42.462498L 14.8125 42.462498C 12.8875 42.462498 11.3125 40.887501 11.3125 38.962498L 11.3125 21.8125L 24.4375 21.8125ZM 11.3125 32.3125L 24.4375 32.3125M 28.8125 42.462498L 24.4375 42.462498M 24.4375 32.3125L 28.8125 32.3125M 37.5625 21.8125L 50.6875 21.8125L 50.6875 25.3125M 42.8125 34.9375C 47.161774 34.9375 50.6875 33.762199 50.6875 32.3125C 50.6875 30.862801 47.161774 29.6875 42.8125 29.6875C 38.463226 29.6875 34.9375 30.862801 34.9375 32.3125C 34.9375 33.762199 38.463226 34.9375 42.8125 34.9375ZM 50.6875 32.3125L 50.6875 40.1875C 50.6875 41.587498 47.1875 42.8125 42.8125 42.8125C 38.4375 42.8125 34.9375 41.587498 34.9375 40.1875L 34.9375 32.3125M 50.6875 40.1875L 50.6875 48.0625C 50.6875 49.462498 47.1875 50.6875 42.8125 50.6875C 38.4375 50.6875 34.9375 49.462498 34.9375 48.0625L 34.9375 40.1875M 37.5625 21.8125L 37.5625 24.812962"></path></g></g></g><g id="g-root-tx_mongoose_qpoiu919k7xn1-stroke" data-item-order="0" transform="translate(290, 170)"></g><g id="g-root-tx_bancoded_zporj519k2bdb-stroke" data-item-order="0" transform="translate(494, 662)"></g><g id="g-root-ic_serv_vwip19kj5l6-stroke" data-item-order="0" transform="translate(276, 715)"><g id="ic_serv_vwip19kj5l6-stroke" fill="none" stroke-linecap="round" stroke-linejoin="round" stroke-miterlimit="4" stroke="#2c2c2c" stroke-width="2"><g><path d="M 30.9125 26.887535C 34.778423 26.887535 37.912498 25.320532 37.912498 23.387535C 37.912498 21.454538 34.778423 19.887535 30.9125 19.887535C 27.046417 19.887535 23.912413 21.454538 23.912413 23.387535C 23.912413 25.320532 27.046417 26.887535 30.9125 26.887535ZM 23.912413 23.387535L 23.912413 29.3375C 23.912413 31.262499 27.062412 32.837502 30.9125 32.837502C 34.762501 32.837502 37.912498 31.262499 37.912498 29.3375L 37.912498 23.387535M 23.912413 29.512499L 23.912413 35.462502C 23.912413 37.387501 27.062412 38.962498 30.9125 38.962498C 34.762501 38.962498 37.912498 37.387501 37.912498 35.462502L 37.912498 29.512499M 11.3125 16.5625L 11.3125 11.3125L 16.5625 11.3125M 10 10M 11.3125 11.3125L 17.4375 17.4375M 50.6875 16.5625L 50.6875 11.3125L 45.4375 11.3125M 10 10M 50.6875 11.3125L 44.5625 17.4375M 11.3125 45.4375L 11.3125 50.6875L 16.5625 50.6875M 10 10M 11.3125 50.6875L 17.4375 44.5625M 50.6875 45.4375L 50.6875 50.6875L 45.4375 50.6875M 10 10M 50.6875 50.6875L 44.5625 44.5625M 41.412502 39.487499C 45.612499 37.5625 48.412502 34.587502 48.412502 31.0875C 48.412502 28.2875 46.487499 25.662464 43.337498 23.737465M 18.837431 23.5625C 15.51243 25.487501 13.412413 28.112501 13.412413 31.0875C 13.412413 34.587502 16.212412 37.5625 20.412413 39.487499"></path></g></g></g><g id="g-root-tx_visogera_1ut1obl19khqfj-stroke" data-item-order="0" transform="translate(182, 38)"></g><g id="g-root-tx_bancosde_94n2w119khr7s-stroke" data-item-order="0" transform="translate(398, 770)"></g><g id="g-root-ic_1_dkgrc119k3o5o-stroke" data-item-order="0" transform="translate(544, 295)"><g id="ic_1_dkgrc119k3o5o-stroke" fill="none" stroke-linecap="round" stroke-linejoin="round" stroke-miterlimit="4" stroke="#2c2c2c" stroke-width="2"><g><path d="M 12.625 10.882L 49.375 10.882C 49.375 10.882 51.125 10.882 51.125 12.632L 51.125 49.382C 51.125 49.382 51.125 51.132 49.375 51.132L 12.625 51.132C 12.625 51.132 10.875 51.132 10.875 49.382L 10.875 12.632C 10.875 12.632 10.875 10.882 12.625 10.882M 24.875 30.109251L 21.119499 30.109251C 19.619316 30.114603 18.318422 31.147751 17.973497 32.607754C 17.628572 34.067757 18.329571 35.573849 19.668751 36.25L 23.081249 37.956249C 24.426531 38.629433 25.132641 40.139046 24.787048 41.603123C 24.441458 43.067204 23.134811 44.101707 21.630501 44.102253L 17.875 44.102249M 35.331249 39.713249C 35.331249 41.646244 33.764248 43.213249 31.831251 43.213249C 29.898254 43.213249 28.331251 41.646244 28.331251 39.713249L 28.331251 33.588249C 28.331251 31.655254 29.898254 30.088249 31.831251 30.088249C 33.764248 30.088249 35.331249 31.655254 35.331249 33.588249ZM 35.331249 45.838249L 30.0375 42.717999M 38.831249 30.088249L 38.831249 41.463249C 38.831249 42.912998 40.006504 44.088249 41.456249 44.088249L 45.831249 44.088249"></path></g></g></g><g id="g-root-ic_2_vb47kx19k6igz-stroke" data-item-order="0" transform="translate(410, 505)"><g id="ic_2_vb47kx19k6igz-stroke" fill="none" stroke-linecap="round" stroke-linejoin="round" stroke-miterlimit="4" stroke="#2c2c2c" stroke-width="2"><g><path d="M 14.37675 19.626749C 14.37675 23.492743 21.820017 26.626751 31.001751 26.626751C 40.183483 26.626751 47.626747 23.492743 47.626747 19.626749C 47.626747 15.760756 40.183483 12.62675 31.001751 12.62675C 21.820017 12.62675 14.37675 15.760756 14.37675 19.626749ZM 47.625 26.625C 47.625 30.4925 40.1805 33.625 31 33.625C 21.8195 33.625 14.375 30.4925 14.375 26.625M 47.625 34.5C 47.625 38.3675 40.1805 41.5 31 41.5C 21.8195 41.5 14.375 38.3675 14.375 34.5M 14.375 19.625L 14.375 42.375C 14.375 46.2425 21.8195 49.375 31 49.375C 40.1805 49.375 47.625 46.2425 47.625 42.375L 47.625 19.625"></path></g></g></g></g></g></svg>