<?xml version="1.0" encoding="utf-8" standalone="yes"?>
<!DOCTYPE svg PUBLIC "-//W3C//DTD SVG 1.1//EN" "http://www.w3.org/Graphics/SVG/1.1/DTD/svg11.dtd">
<svg width="720" height="598" viewBox="0 0 720 598" style="fill:none;stroke:none;fill-rule:evenodd;clip-rule:evenodd;stroke-linecap:round;stroke-linejoin:round;stroke-miterlimit:1.5;" version="1.1" xmlns="http://www.w3.org/2000/svg" xmlns:xlink="http://www.w3.org/1999/xlink"><style class="text-font-style fontImports" data-font-family="Shantell Sans">@import url('https://fonts.googleapis.com/css2?family=Shantell+Sans:wght@300..800&amp;display=block');</style><style class="text-font-style fontImports" data-font-family="Roboto">@import url('https://fonts.googleapis.com/css2?family=Roboto:wght@400;700&amp;display=block');</style><g id="items" style="isolation: isolate"><g id="blend" style="mix-blend-mode: normal"><g id="g-root-cp_1_g-1_mfh47e17c9ptx-fill" data-item-order="7999793874" transform="translate(138, 309.0458984375)"><g id="cp_1_g-1_mfh47e17c9ptx-fill" stroke="none" fill="#776f30"><g><path d="M 190 10C 196.6274 10 202 15.3726 202 22L 202 46L 190 46L 190 10ZM 10 22C 10 15.3726 15.3726 10 22 10L 190 10L 190 46L 10 46L 10 22ZM 202 130L 10 130L 10 46L 202 46L 202 130ZM 202 130L 202 178C 202 184.63 196.63 190 190 190L 139.95 190C 135.01 203.98 121.67 214 106 214C 90.33 214 76.99 203.98 72.05 190L 22 190C 15.37 190 10 184.63 10 178L 10 130L 202 130Z"></path></g></g></g><g id="g-root-cp_2_g-2_dbpxu217cb47b-fill" data-item-order="7999793902" transform="translate(354, 309.0458984375)"><g id="cp_2_g-2_dbpxu217cb47b-fill" stroke="none" fill="#815d3b"><g><path d="M 190 10C 196.6274 10 202 15.3726 202 22L 202 46L 190 46L 190 10ZM 10 22C 10 15.3726 15.3726 10 22 10L 190 10L 190 46L 10 46L 10 22ZM 202 130L 10 130L 10 46L 202 46L 202 130ZM 202 130L 202 178C 202 184.63 196.63 190 190 190L 139.95 190C 135.01 203.98 121.67 214 106 214C 90.33 214 76.99 203.98 72.05 190L 22 190C 15.37 190 10 184.63 10 178L 10 130L 202 130Z"></path></g></g></g><g id="g-root-ic_key_1hiu45m17cb4lp-fill" data-item-order="7999985600" transform="translate(174, 165.0458984375)"><g id="ic_key_1hiu45m17cb4lp-fill" stroke="none" fill="#f0d80d"><g><path d="M 127.5 10L 112.5 10C 111.836975 9.991918 111.201401 10.264308 110.75 10.75L 63.099998 58.400002C 46.597855 50.850418 27.05772 56.200489 16.703051 71.103439C 6.348382 86.006393 8.15076 106.185379 20.982695 119.017319C 33.814629 131.849243 53.993614 133.651611 68.896568 123.296959C 83.799515 112.942284 89.149582 93.402161 81.600006 76.900009L 93.199997 65.349998L 102.849998 68.599998C 104.565208 69.218719 106.481239 68.854675 107.849998 67.650002C 109.164764 66.528938 109.807556 64.808517 109.550003 63.099998L 107.550003 51L 111.149994 47.349998L 118.450005 50.700001C 120.182892 51.469616 122.202034 51.192799 123.663864 49.985203C 125.125694 48.777603 125.778671 46.847023 125.349998 45L 122.799995 35.950001L 129.25 29.450001C 129.791077 28.952978 130.068573 28.231503 130 27.5L 130 12.5C 130 11.119288 128.880707 10 127.5 10ZM 45 102.5C 45 106.642143 41.642136 110 37.5 110C 33.357864 110 30 106.642143 30 102.5C 30 98.357864 33.357864 95 37.5 95C 41.642136 95 45 98.357864 45 102.5Z"></path></g></g></g><g id="g-root-ic_auth_vcd5sa17c8buv-fill" data-item-order="7999985600" transform="translate(390, 165.0458984375)"><g id="ic_auth_vcd5sa17c8buv-fill" stroke="none" fill="#de8431"><g><path d="M 70 10C 36.862915 10.000001 10.000003 36.862915 10.000004 70C 10.000004 103.137085 36.862919 130 70.000008 130C 103.137085 130 130 103.137085 130 70C 130 36.862915 103.137093 9.999999 70 10ZM 70 91.199997L 55.849998 77.050003C 53.911381 75.099808 53.911381 71.950188 55.849998 70C 56.78883 69.053436 58.066811 68.521011 59.400002 68.521011C 60.733189 68.521011 62.011166 69.053436 62.950001 70L 77.050003 84.150002C 82.904221 90.018021 92.406982 90.029221 98.275002 84.175003C 104.143028 78.320786 104.154221 68.818024 98.300003 62.950001L 84.150002 48.800003C 83.203438 47.861168 82.671005 46.583187 82.671005 45.25C 82.671005 43.916813 83.203438 42.638832 84.150002 41.700001C 86.100189 39.761383 89.249809 39.761383 91.199997 41.700001L 105.349998 55.849998C 114.824326 65.65947 114.688835 81.252129 105.045479 90.895477C 95.40213 100.538834 79.809471 100.674324 70 91.199997ZM 70 48.800003L 84.150002 62.950001C 86.088623 64.900192 86.088623 68.049812 84.150002 70C 83.211166 70.946564 81.933189 71.478989 80.599998 71.478989C 79.266808 71.478989 77.988831 70.946564 77.050003 70L 62.950001 55.849998C 57.095787 49.981976 47.593025 49.970783 41.725002 55.825001C 35.856976 61.679222 35.845783 71.181976 41.700001 77.050003L 55.849998 91.199997C 56.796566 92.138832 57.328991 93.416817 57.328991 94.75C 57.328991 96.083183 56.796566 97.36116 55.849998 98.300003C 53.899811 100.238617 50.750191 100.238617 48.800003 98.300003L 34.649998 84.150002C 25.175682 74.34053 25.311171 58.747871 34.954521 49.104523C 44.59787 39.46117 60.190529 39.32568 70 48.800003Z"></path></g></g></g><g id="g-root-tx_mtodosde_18f2xsa17cb5l5-fill" data-item-order="8000000000" transform="translate(180, 51.76123046875)"><g id="tx_mtodosde_18f2xsa17cb5l5-fill" stroke="none" fill="#b7b7b7"><g><text style="font: bold 25px Roboto, sans-serif; white-space: pre;" font-weight="bold" font-size="25px" font-family="Roboto, sans-serif"><tspan x="16.35" y="43" dominant-baseline="ideographic">Métodos de Autenticação</tspan></text></g></g></g><g id="g-root-tx_logincom_1uqjs0a17cb5s3-fill" data-item-order="8000000000" transform="translate(180, 321.0458984375)"><g id="tx_logincom_1uqjs0a17cb5s3-fill" stroke="none" fill="#ffe711"><g><text style="font: bold 20px &quot;Shantell Sans&quot;, cursive; white-space: pre;" font-weight="bold" font-size="20px" font-family="'Shantell Sans', cursive"><tspan x="11.76" y="35" dominant-baseline="ideographic">Logincom </tspan><tspan x="37.99" y="59" dominant-baseline="ideographic">JWT</tspan></text></g></g></g><g id="g-root-tx_oauth2_1usfafe17c8c1x-fill" data-item-order="8000000000" transform="translate(408, 321.0458984375)"><g id="tx_oauth2_1usfafe17c8c1x-fill" stroke="none" fill="#f79438"><g><text style="font: bold 20px &quot;Shantell Sans&quot;, cursive; white-space: pre;" font-weight="bold" font-size="20px" font-family="'Shantell Sans', cursive"><tspan x="12.3" y="35" dominant-baseline="ideographic">OAuth2</tspan></text></g></g></g><g id="g-root-tx_logincom_hznp8q17c8b9q-fill" data-item-order="8000000000" transform="translate(378, 357.0458984375)"><g id="tx_logincom_hznp8q17c8b9q-fill" stroke="none" fill="#f79438"><g><text style="font: 15px &quot;Shantell Sans&quot;, cursive; white-space: pre;" font-size="15px" font-family="'Shantell Sans', cursive"><tspan x="13.63" y="28.75" dominant-baseline="ideographic">Login com Google, </tspan><tspan x="38.61" y="46.75" dominant-baseline="ideographic">GitHub, etc.</tspan></text></g></g></g><g id="g-root-tx_tokenweb_18ly5qi17cb404-fill" data-item-order="8000000000" transform="translate(162, 381.0458984375)"><g id="tx_tokenweb_18ly5qi17cb404-fill" stroke="none" fill="#ffe711"><g><text style="font: 15px &quot;Shantell Sans&quot;, cursive; white-space: pre;" font-size="15px" font-family="'Shantell Sans', cursive"><tspan x="20.77" y="28.75" dominant-baseline="ideographic">Token Web JSON </tspan><tspan x="14.54" y="46.75" dominant-baseline="ideographic">para autenticação.</tspan></text></g></g></g><g id="g-root-tx_1_hunte217cb4le-fill" data-item-order="8000000000" transform="translate(222, 459.0458984375)"><g id="tx_1_hunte217cb4le-fill" stroke="none" fill="#ffe711"><g><text style="font: bold 30px &quot;Shantell Sans&quot;, cursive; white-space: pre;" font-weight="bold" font-size="30px" font-family="'Shantell Sans', cursive"><tspan x="15.17" y="47.5" dominant-baseline="ideographic">1</tspan></text></g></g></g><g id="g-root-tx_2_1hfptvu17c8bgs-fill" data-item-order="8000000000" transform="translate(432, 459.0458984375)"><g id="tx_2_1hfptvu17c8bgs-fill" stroke="none" fill="#f79438"><g><text style="font: bold 30px &quot;Shantell Sans&quot;, cursive; white-space: pre;" font-weight="bold" font-size="30px" font-family="'Shantell Sans', cursive"><tspan x="17.49" y="47.5" dominant-baseline="ideographic">2</tspan></text></g></g></g><g id="g-root-cp_1_g-1_mfh47e17c9ptx-stroke" data-item-order="7999793874" transform="translate(138, 309.0458984375)"><g id="cp_1_g-1_mfh47e17c9ptx-stroke" fill="none" stroke-linecap="round" stroke-linejoin="round" stroke-miterlimit="4" stroke="#2e2e28" stroke-width="2"><g><path d="M 202 46L 202 21C 202 14.9249 197.0751 10 191 10L 190 10L 190 46M 22 46L 22 10L 21 10C 14.9249 10 10 14.9249 10 21L 10 46M 202 130L 202 46M 190 46L 190 130M 22 130L 22 46M 10 46L 10 130M 22 130L 22 166L 72.05 166C 76.99 152.02 90.33 142 106 142C 121.67 142 135.01 152.02 139.95 166L 190 166L 190 130M 10 130L 10 178C 10 184.63 15.37 190 22 190L 72.05 190C 76.99 203.98 90.33 214 106 214C 121.67 214 135.01 203.98 139.95 190L 190 190C 196.63 190 202 184.63 202 178L 202 130"></path></g></g></g><g id="g-root-cp_2_g-2_dbpxu217cb47b-stroke" data-item-order="7999793902" transform="translate(354, 309.0458984375)"><g id="cp_2_g-2_dbpxu217cb47b-stroke" fill="none" stroke-linecap="round" stroke-linejoin="round" stroke-miterlimit="4" stroke="#2f2c29" stroke-width="2"><g><path d="M 202 46L 202 21C 202 14.9249 197.0751 10 191 10L 190 10L 190 46M 22 46L 22 10L 21 10C 14.9249 10 10 14.9249 10 21L 10 46M 202 130L 202 46M 190 46L 190 130M 22 130L 22 46M 10 46L 10 130M 22 130L 22 166L 72.05 166C 76.99 152.02 90.33 142 106 142C 121.67 142 135.01 152.02 139.95 166L 190 166L 190 130M 10 130L 10 178C 10 184.63 15.37 190 22 190L 72.05 190C 76.99 203.98 90.33 214 106 214C 121.67 214 135.01 203.98 139.95 190L 190 190C 196.63 190 202 184.63 202 178L 202 130"></path></g></g></g><g id="g-root-ic_key_1hiu45m17cb4lp-stroke" data-item-order="7999985600" transform="translate(174, 165.0458984375)"></g><g id="g-root-ic_auth_vcd5sa17c8buv-stroke" data-item-order="7999985600" transform="translate(390, 165.0458984375)"></g><g id="g-root-tx_mtodosde_18f2xsa17cb5l5-stroke" data-item-order="8000000000" transform="translate(180, 51.76123046875)"></g><g id="g-root-tx_logincom_1uqjs0a17cb5s3-stroke" data-item-order="8000000000" transform="translate(180, 321.0458984375)"></g><g id="g-root-tx_oauth2_1usfafe17c8c1x-stroke" data-item-order="8000000000" transform="translate(408, 321.0458984375)"></g><g id="g-root-tx_logincom_hznp8q17c8b9q-stroke" data-item-order="8000000000" transform="translate(378, 357.0458984375)"></g><g id="g-root-tx_tokenweb_18ly5qi17cb404-stroke" data-item-order="8000000000" transform="translate(162, 381.0458984375)"></g><g id="g-root-tx_1_hunte217cb4le-stroke" data-item-order="8000000000" transform="translate(222, 459.0458984375)"></g><g id="g-root-tx_2_1hfptvu17c8bgs-stroke" data-item-order="8000000000" transform="translate(432, 459.0458984375)"></g></g></g></svg>