<?xml version="1.0" encoding="utf-8" standalone="yes"?>
<!DOCTYPE svg PUBLIC "-//W3C//DTD SVG 1.1//EN" "http://www.w3.org/Graphics/SVG/1.1/DTD/svg11.dtd">
<svg width="618" height="821" viewBox="0 0 618 821" style="fill:none;stroke:none;fill-rule:evenodd;clip-rule:evenodd;stroke-linecap:round;stroke-linejoin:round;stroke-miterlimit:1.5;" version="1.1" xmlns="http://www.w3.org/2000/svg" xmlns:xlink="http://www.w3.org/1999/xlink"><style class="text-font-style fontImports" data-font-family="Roboto">@import url('https://fonts.googleapis.com/css2?family=Roboto:wght@400;700&amp;display=block');</style><g id="items" style="isolation: isolate"><g id="blend" style="mix-blend-mode: normal"><g id="g-root-cp_0_g-0_v6q9vv140isqr-fill" data-item-order="15999715954" transform="translate(139.40679931640625, 364.3994140625)"><g id="cp_0_g-0_v6q9vv140isqr-fill" stroke="none" fill="#ffe711"><g><path d="M 362 128.4572C 313.6667 143.7336 243 218.5419 243 277L 200.4662 277C 201.0853 270.85 201.9789 261.3396 202.6441 251.6374C 203.7685 235.237 204.394 215.0775 204.3941 209.7715L 204.3942 200.3298L 204.3941 195.6827C 204.3941 195.6827 204.3352 192.9708 204.1975 188.8959C 203.977 182.3714 203.5544 172.3513 202.848 164.369C 202.4418 159.779 202.5228 155.0628 204.6414 150.9707C 206.2417 147.8796 208.6113 144.2785 211.9214 141.0226C 223.4039 129.7275 226.7013 120.8332 213.1538 110.0478L 214.8168 109L 214.8168 91L 225.848 85L 225.848 67L 238.5851 61L 238.5851 43.5L 258.3904 37L 258.3904 16L 282 10L 362 10L 362 128.4572ZM 185.171 209.7715C 185.171 209.7715 183.2703 235.0442 182.8459 251.6374C 182.5957 261.4232 182.6406 270.8842 182.7196 277L 190.5524 277C 190.6313 270.8842 190.6763 261.4232 190.426 251.6374C 190.0017 235.0442 188.101 209.7715 188.101 209.7715L 185.171 209.7715ZM 205.2944 115L 205.2944 132.0556C 216.9897 126.4691 216.5981 120.9105 208.0485 113.2647L 205.2944 115ZM 10 128.4572C 58.3333 143.7336 129 218.5419 129 277L 172.8057 277C 172.1867 270.85 171.293 261.3396 170.6279 251.6374C 169.5035 235.237 168.878 215.0775 168.8778 209.7715C 168.8777 204.4654 168.9674 200.3766 168.9673 195.6821L 168.9673 192.0298L 169.1639 185.2429C 169.4052 178.1037 169.941 165.9649 171.2346 157.2156C 168.0557 159.0343 156.4917 165.9213 155.8079 168.3576C 155.4843 170.1482 157.8132 173.3383 160.2104 176.6219C 161.4983 178.3861 162.806 180.1772 163.7326 181.7929C 164.1798 182.2833 166.0695 183.3923 167.5157 184.2411C 168.1256 184.5991 168.7908 185.0115 169.1016 185.2109L 168.9001 192.1053C 168.5633 192.4746 167.0242 194.0538 165.7561 193.5601C 165.1243 193.3141 164.0247 192.2736 162.9929 191.1872C 161.6849 189.8101 160.4856 187.3592 160.4856 187.3592C 160.4856 187.3592 144.9771 178.5483 145.9235 167.0766C 146.6095 158.7606 159.4588 149.2339 169.2969 141.9398C 170.5406 141.0177 171.7363 140.1312 172.8531 139.2874C 173.2895 138.9577 173.7406 138.6887 174.205 138.4512L 166.7317 133L 166.7317 115L 157.2091 109L 157.2091 91L 146.1303 85L 146.1303 67L 133.4149 61L 133.4149 43.5L 113.6096 37L 113.6096 16L 90 10L 10 10L 10 128.4572ZM 204.3941 209.7715C 204.3942 206.2482 204.3942 203.3128 204.3942 200.3298C 204.3941 198.8204 204.3941 197.2988 204.3941 195.6827"></path></g></g></g><g id="g-root-cp_1_g-1_mcyowb140isjp-fill" data-item-order="15999715958" transform="translate(275.288818359375, 451.3994140625)"><g id="cp_1_g-1_mcyowb140isjp-fill" stroke="none" fill="#4f91fc"><g><path d="M 46.9641 196.8902L 46.9641 201.9995C 46.9641 201.9995 42.8692 203.271 38.4075 201.9995C 35.6759 202.7246 32.3702 200.9995 32.3702 200.9995L 32.3702 199.8902C 32.3702 197.2632 34.9049 196.4532 36.6729 196.7156C 36.9965 196.7637 37.3197 196.8281 37.6448 196.8637C 37.5639 196.139 35.8438 180.6495 34.746 164.6374C 33.6216 148.237 32.9961 128.0775 32.996 122.7714C 32.9958 117.4654 33.0856 113.3766 33.0855 108.6821L 33.0855 105.0298C 33.0855 105.0298 31.3069 107.1179 29.8742 106.5601C 29.2424 106.3141 28.1429 105.2736 27.111 104.1872C 25.803 102.8101 24.6037 100.3592 24.6037 100.3592C 24.6037 100.3592 9.0952 91.5483 10.0416 80.0766C 10.7277 71.7606 23.5769 62.2339 33.415 54.9398C 34.6588 54.0177 35.8544 53.1312 36.9713 52.2874C 37.9525 51.5461 39.0085 51.1113 40.1219 50.6529C 41.2268 50.198 42.3883 49.7198 43.5893 48.8957C 44.0717 48.5302 44.2632 48.0461 44.4448 47.5868C 44.6582 47.0472 44.858 46.5419 45.5 46.3037C 45.8213 46.1844 46.2317 46.0923 46.6878 46.0212L 46.6878 40.8891C 43.7379 39.5729 41.578 36.8175 40.4815 33.3199C 40.3458 33.5458 40.1644 33.7257 39.9385 33.8445C 38.94 34.3696 37.4501 33.5012 36.6106 31.905C 35.7711 30.3087 35.9 28.589 36.8984 28.0639C 37.2511 27.8784 37.665 27.8668 38.0899 27.9996C 37.3701 26.0193 36.9714 23.7211 36.9714 22.0978C 36.9714 17.4133 39.1994 12.4679 45.0664 12.4679C 50.3785 9.2851 55.405 9.3954 59.0197 11.5766C 57.7354 11.8203 56.8077 12.6647 56.4725 13.6143C 55.9735 15.029 57.1633 16.5582 58.185 16.419C 58.6318 16.3581 58.613 15.4428 58.8723 14.9093C 59.0556 14.5323 59.4098 14.4735 59.9218 14.4735C 61.2158 16.5429 62.7805 18.4042 64.4138 20.2077C 64.7566 22.8255 64.3158 25.5245 63.4196 27.9935C 65.7309 27.2951 65.5692 30.5923 64.8788 31.905C 64.276 33.0512 62.095 35.0731 61.0199 33.3396C 59.9214 36.8283 57.7636 39.5762 54.8186 40.8897L 54.8186 46.0212C 55.275 46.0923 55.6855 46.1844 56.0068 46.3037C 57.1953 46.7447 56.8688 48.101 57.918 48.8957C 60.3293 50.5504 59.7641 46.9487 64.9916 46.9487C 81.5873 40.5034 81.7013 34.4084 71.2608 25.4728C 70.1439 24.5622 66.7943 23.0717 66.3822 21.6258C 65.8244 21.425 65.1452 20.8346 64.3967 20.082C 62.6433 18.3189 60.6771 15.5845 59.9511 14.4234C 59.439 14.4234 58.9985 14.5226 58.8152 14.8995C 58.5558 15.4331 58.631 16.3062 58.1842 16.3671C 57.1625 16.5063 56.0615 15.0195 56.5606 13.6049C 56.9627 12.4654 57.9259 11.8934 59.0708 11.6076C 60.408 11.2738 61.9928 11.3307 63.2197 11.3309C 65.2533 11.3313 66.7566 16.4717 69.1815 17.6484C 70.2569 17.9551 71.3219 18.6559 72.3268 19.4224C 72.743 19.7399 73.1659 20.0625 73.6062 20.3619C 91.304 32.3948 88.461 41.804 76.0395 54.0226C 72.7295 57.2785 70.3599 60.8796 68.7595 63.9707C 66.641 68.0628 66.56 72.7789 66.9662 77.369C 67.6726 85.3513 68.0951 95.3714 68.3156 101.8959C 68.4534 105.9708 68.5123 108.6827 68.5123 108.6827L 68.5123 113.3298L 68.5123 122.7714C 68.5121 128.0775 67.8866 148.237 66.7623 164.6374C 65.6691 180.5833 63.9586 196.011 63.8646 196.854C 64.2465 196.8057 64.626 196.7201 65.0073 196.6679C 66.7372 196.4309 69.1914 197.3325 69.1914 199.8902L 69.1914 200.9995C 69.1914 200.9995 66.0882 202.6336 63.3566 201.9995C 58.986 203.4531 54.5442 201.9995 54.5442 201.9995L 54.5442 196.8902C 54.5442 196.8902 54.9685 181.2307 54.5442 164.6374C 54.1198 148.0442 52.2191 122.7714 52.2191 122.7714L 49.2892 122.7714C 49.2892 122.7714 47.3884 148.0442 46.9641 164.6374C 46.5398 181.2307 46.9641 196.8902 46.9641 196.8902ZM 33.2821 98.2429C 33.5234 91.1037 34.0592 78.9649 35.3527 70.2156C 32.1739 72.0343 20.6098 78.9213 19.9261 81.3576C 19.6025 83.1482 21.9313 86.3383 24.3286 89.6219C 25.6165 91.3861 26.9241 93.1772 27.8508 94.7929C 28.298 95.2833 30.1877 96.3923 31.6339 97.2412C 32.4038 97.693 33.048 98.0711 33.2821 98.2429ZM 68.5123 122.7714C 68.5124 119.2482 68.5124 116.3128 68.5123 113.3298C 68.5123 111.8204 68.5123 110.2988 68.5123 108.6827M 71.2608 25.4728C 71.6847 25.8184 70.8666 25.1354 71.2608 25.4728Z"></path></g></g></g><g id="g-root-ro_hzn6az17w8ykr-fill" data-item-order="15999972784" transform="translate(14, 235.8994140625)"><g id="ro_hzn6az17w8ykr-fill" stroke="none" fill="#ababab"><g><path d="M 22 10L 250 10C 250 10 262 10 262 22L 262 106C 262 106 262 118 250 118L 22 118C 22 118 10 118 10 106L 10 22C 10 22 10 10 22 10"></path></g></g></g><g id="g-root-ro_zly6kb16sg6iz-fill" data-item-order="15999975376" transform="translate(356, 235.8994140625)"><g id="ro_zly6kb16sg6iz-fill" stroke="none" fill="#ababab"><g><path d="M 22 10L 226 10C 226 10 238 10 238 22L 238 106C 238 106 238 118 226 118L 22 118C 22 118 10 118 10 106L 10 22C 10 22 10 10 22 10"></path></g></g></g><g id="g-root-tx_qualfram_qu156z140itxj-fill" data-item-order="16000000000" transform="translate(56, 38)"><g id="tx_qualfram_qu156z140itxj-fill" stroke="none" fill="#f4f4f4"><g><text style="font: bold 25px Roboto, sans-serif; white-space: pre;" font-weight="bold" font-size="25px" font-family="Roboto, sans-serif"><tspan x="15.18" y="43" dominant-baseline="ideographic">Qual framework de teste deve ser usado </tspan><tspan x="46" y="73" dominant-baseline="ideographic">para o desenvolvimento frontend e </tspan><tspan x="187.08" y="103" dominant-baseline="ideographic">backend?</tspan></text></g></g></g><g id="g-root-tx_jestreac_1q6ywej140k740-fill" data-item-order="16000000000" transform="translate(68, 171.8994140625)"><g id="tx_jestreac_1q6ywej140k740-fill" stroke="none" fill="#3bc482"><g><text style="font: bold 20px Roboto, sans-serif; white-space: pre;" font-weight="bold" font-size="20px" font-family="Roboto, sans-serif"><tspan x="26.32" y="33.75" dominant-baseline="ideographic">Jest + React </tspan><tspan x="14.56" y="57.75" dominant-baseline="ideographic">Testing Library</tspan></text></g></g></g><g id="g-root-tx_mochacha_144v6h7140k8wa-fill" data-item-order="16000000000" transform="translate(416, 175.8994140625)"><g id="tx_mochacha_144v6h7140k8wa-fill" stroke="none" fill="#3bc482"><g><text style="font: bold 20px Roboto, sans-serif; white-space: pre;" font-weight="bold" font-size="20px" font-family="Roboto, sans-serif"><tspan x="13.92" y="33.75" dominant-baseline="ideographic">Mocha / Chai / </tspan><tspan x="35.51" y="57.75" dominant-baseline="ideographic">Supertest</tspan></text></g></g></g><g id="g-root-tx_adequado_4m83v140k6wx-fill" data-item-order="17000000000" transform="translate(26, 247.8994140625)"><g id="tx_adequado_4m83v140k6wx-fill" stroke="none" fill="#2c2c2c"><g><text style="font: 15px Roboto, sans-serif; white-space: pre;" font-size="15px" font-family="Roboto, sans-serif"><tspan x="18.8" y="33.49" dominant-baseline="ideographic">Adequado para testes frontend </tspan><tspan x="45.31" y="51.5" dominant-baseline="ideographic">com React, oferecendo </tspan><tspan x="51.03" y="69.5" dominant-baseline="ideographic">capacidades de teste </tspan><tspan x="78.61" y="87.51" dominant-baseline="ideographic">abrangentes.</tspan></text></g></g></g><g id="g-root-tx_idealpar_146qlqj140k7wj-fill" data-item-order="17000000000" transform="translate(386, 253.8994140625)"><g id="tx_idealpar_146qlqj140k7wj-fill" stroke="none" fill="#2c2c2c"><g><text style="font: 15px Roboto, sans-serif; white-space: pre;" font-size="15px" font-family="Roboto, sans-serif"><tspan x="36.89" y="27.49" dominant-baseline="ideographic">Ideal para testes </tspan><tspan x="22.73" y="45.5" dominant-baseline="ideographic">backend, oferecendo </tspan><tspan x="15.39" y="63.5" dominant-baseline="ideographic">flexibilidade e recursos </tspan><tspan x="32.01" y="81.51" dominant-baseline="ideographic">de teste robustos.</tspan></text></g></g></g><g id="g-root-cp_0_g-0_v6q9vv140isqr-stroke" data-item-order="15999715954" transform="translate(139.40679931640625, 364.3994140625)"><g id="cp_0_g-0_v6q9vv140isqr-stroke" fill="none" stroke-linecap="round" stroke-linejoin="round" stroke-miterlimit="4" stroke="#2c2c2c" stroke-width="2"><g><path d="M 362 128.4572C 313.6667 143.7336 243 218.5419 243 277L 200.4662 277C 201.0853 270.85 201.9789 261.3396 202.6441 251.6374C 203.7685 235.237 204.394 215.0775 204.3941 209.7715L 204.3942 200.3298L 204.3941 195.6827C 204.3941 195.6827 204.3352 192.9708 204.1975 188.8959C 203.977 182.3714 203.5544 172.3513 202.848 164.369C 202.4418 159.779 202.5228 155.0628 204.6414 150.9707C 206.2417 147.8796 208.6113 144.2785 211.9214 141.0226C 223.4039 129.7275 226.7013 120.8332 213.1538 110.0478L 214.8168 109L 214.8168 91L 225.848 85L 225.848 67L 238.5851 61L 238.5851 43.5L 258.3904 37L 258.3904 16L 282 10L 362 10L 362 128.4572ZM 185.171 209.7715C 185.171 209.7715 183.2703 235.0442 182.8459 251.6374C 182.5957 261.4232 182.6406 270.8842 182.7196 277L 190.5524 277C 190.6313 270.8842 190.6763 261.4232 190.426 251.6374C 190.0017 235.0442 188.101 209.7715 188.101 209.7715L 185.171 209.7715ZM 205.2944 115L 205.2944 132.0556C 216.9897 126.4691 216.5981 120.9105 208.0485 113.2647L 205.2944 115ZM 10 128.4572C 58.3333 143.7336 129 218.5419 129 277L 172.8057 277C 172.1867 270.85 171.293 261.3396 170.6279 251.6374C 169.5035 235.237 168.878 215.0775 168.8778 209.7715C 168.8777 204.4654 168.9674 200.3766 168.9673 195.6821L 168.9673 192.0298L 169.1639 185.2429C 169.4052 178.1037 169.941 165.9649 171.2346 157.2156C 168.0557 159.0343 156.4917 165.9213 155.8079 168.3576C 155.4843 170.1482 157.8132 173.3383 160.2104 176.6219C 161.4983 178.3861 162.806 180.1772 163.7326 181.7929C 164.1798 182.2833 166.0695 183.3923 167.5157 184.2411C 168.1256 184.5991 168.7908 185.0115 169.1016 185.2109L 168.9001 192.1053C 168.5633 192.4746 167.0242 194.0538 165.7561 193.5601C 165.1243 193.3141 164.0247 192.2736 162.9929 191.1872C 161.6849 189.8101 160.4856 187.3592 160.4856 187.3592C 160.4856 187.3592 144.9771 178.5483 145.9235 167.0766C 146.6095 158.7606 159.4588 149.2339 169.2969 141.9398C 170.5406 141.0177 171.7363 140.1312 172.8531 139.2874C 173.2895 138.9577 173.7406 138.6887 174.205 138.4512L 166.7317 133L 166.7317 115L 157.2091 109L 157.2091 91L 146.1303 85L 146.1303 67L 133.4149 61L 133.4149 43.5L 113.6096 37L 113.6096 16L 90 10L 10 10L 10 128.4572ZM 204.3941 209.7715C 204.3942 206.2482 204.3942 203.3128 204.3942 200.3298C 204.3941 198.8204 204.3941 197.2988 204.3941 195.6827M 113.6096 16L 33.6096 16M 113.6096 37L 33.6096 37M 133.4149 43.5L 53.4149 43.5M 90 10L 10 10M 129 277L 172.8057 277M 122 229L 169.4282 229M 116.389 205L 168.8993 205M 53.4149 61L 133.4149 61M 68.5221 67L 146.1303 67M 68.5221 85L 146.1303 85M 81.1427 91L 157.2091 91M 81.1427 109L 157.2091 109M 92 115L 166.7317 115M 92 133L 166.7317 133M 101.4098 139L 173.2592 139M 101.4098 157L 151.3749 157M 109.5228 163L 147.1277 163M 109.5228 181L 152.3232 181M 116.389 187L 159.8882 187M 122 211L 168.8859 211M 126.2459 235L 169.6896 235M 126.2459 253L 170.7228 253C 170.6907 252.5465 170.659 252.0922 170.6279 251.6374M 129 259L 171.1754 259M 258.3904 16L 338.3904 16M 258.3904 37L 338.3904 37M 238.5851 43.5L 318.5851 43.5M 282 10L 362 10M 243 277L 200.4662 277M 250 229L 203.8437 229M 255.6111 205L 204.3942 205M 318.5851 61L 238.5851 61M 303.4779 67L 225.848 67M 303.4779 85L 225.848 85M 290.8574 91L 214.8168 91M 290.8574 109L 214.8168 109M 280 115L 218.3189 115M 280 133L 218.8197 133M 270.5902 139L 213.9117 139M 270.5902 157L 202.8529 157M 262.4772 163L 202.743 163M 262.4772 181L 203.8883 181M 255.6111 187L 204.131 187M 250 211L 204.3861 211M 245.7541 235L 203.5824 235M 245.7541 253L 202.5491 253C 202.5813 252.5465 202.6129 252.0922 202.6441 251.6374M 243 259L 202.0966 259M 205.2944 115L 209.8818 115M 182.8459 251.6374C 182.8343 252.0924 182.8233 252.5467 182.8129 253L 190.459 253C 190.4486 252.5467 190.4376 252.0924 190.426 251.6374M 182.7196 277L 190.5524 277M 182.7079 259L 190.5641 259M 189.7218 235L 183.5502 235M 189.381 229L 183.891 229M 185.0805 211L 188.1915 211M 163.2572 181L 169.3235 181M 170.5256 163L 161.9251 163M 129 277L 129 259L 126.2459 253L 126.2459 235L 122 229L 122 211L 116.389 205L 116.389 187L 109.5228 181L 109.5228 163L 101.4098 157L 101.4098 139L 92 133L 92 115L 81.1427 109L 81.1427 91L 68.5221 85L 68.5221 67L 53.4149 61L 53.4149 43.5L 33.6096 37L 33.6096 16L 10 10M 243 277L 243 259L 245.7541 253L 245.7541 235L 250 229L 250 211L 255.6111 205L 255.6111 187L 262.4772 181L 262.4772 163L 270.5902 157L 270.5902 139L 280 133L 280 115L 290.8574 109L 290.8574 91L 303.4779 85L 303.4779 67L 318.5851 61L 318.5851 43.5L 338.3904 37L 338.3904 16L 362 10"></path></g></g></g><g id="g-root-cp_1_g-1_mcyowb140isjp-stroke" data-item-order="15999715958" transform="translate(275.288818359375, 451.3994140625)"><g id="cp_1_g-1_mcyowb140isjp-stroke" fill="none" stroke-linecap="round" stroke-linejoin="round" stroke-miterlimit="4" stroke="#2c2c2c" stroke-width="2"><g><path d="M 46.9641 196.8902L 46.9641 201.9995C 46.9641 201.9995 42.8692 203.271 38.4075 201.9995C 35.6759 202.7246 32.3702 200.9995 32.3702 200.9995L 32.3702 199.8902C 32.3702 197.2632 34.9049 196.4532 36.6729 196.7156C 36.9965 196.7637 37.3197 196.8281 37.6448 196.8637C 37.5639 196.139 35.8438 180.6495 34.746 164.6374C 33.6216 148.237 32.9961 128.0775 32.996 122.7714C 32.9958 117.4654 33.0856 113.3766 33.0855 108.6821L 33.0855 105.0298C 33.0855 105.0298 31.3069 107.1179 29.8742 106.5601C 29.2424 106.3141 28.1429 105.2736 27.111 104.1872C 25.803 102.8101 24.6037 100.3592 24.6037 100.3592C 24.6037 100.3592 9.0952 91.5483 10.0416 80.0766C 10.7277 71.7606 23.5769 62.2339 33.415 54.9398C 34.6588 54.0177 35.8544 53.1312 36.9713 52.2874C 37.9525 51.5461 39.0085 51.1113 40.1219 50.6529C 41.2268 50.198 42.3883 49.7198 43.5893 48.8957C 44.0717 48.5302 44.2632 48.0461 44.4448 47.5868C 44.6582 47.0472 44.858 46.5419 45.5 46.3037C 45.8213 46.1844 46.2317 46.0923 46.6878 46.0212L 46.6878 40.8891C 43.7379 39.5729 41.578 36.8175 40.4815 33.3199C 40.3458 33.5458 40.1644 33.7257 39.9385 33.8445C 38.94 34.3696 37.4501 33.5012 36.6106 31.905C 35.7711 30.3087 35.9 28.589 36.8984 28.0639C 37.2511 27.8784 37.665 27.8668 38.0899 27.9996C 37.3701 26.0193 36.9714 23.7211 36.9714 22.0978C 36.9714 17.4133 39.1994 12.4679 45.0664 12.4679C 50.3785 9.2851 55.405 9.3954 59.0197 11.5766C 57.7354 11.8203 56.8077 12.6647 56.4725 13.6143C 55.9735 15.029 57.1633 16.5582 58.185 16.419C 58.6318 16.3581 58.613 15.4428 58.8723 14.9093C 59.0556 14.5323 59.4098 14.4735 59.9218 14.4735C 61.2158 16.5429 62.7805 18.4042 64.4138 20.2077C 64.7566 22.8255 64.3158 25.5245 63.4196 27.9935C 65.7309 27.2951 65.5692 30.5923 64.8788 31.905C 64.276 33.0512 62.095 35.0731 61.0199 33.3396C 59.9214 36.8283 57.7636 39.5762 54.8186 40.8897L 54.8186 46.0212C 55.275 46.0923 55.6855 46.1844 56.0068 46.3037C 57.1953 46.7447 56.8688 48.101 57.918 48.8957C 60.3293 50.5504 59.7641 46.9487 64.9916 46.9487C 81.5873 40.5034 81.7013 34.4084 71.2608 25.4728C 70.1439 24.5622 66.7943 23.0717 66.3822 21.6258C 65.8244 21.425 65.1452 20.8346 64.3967 20.082C 62.6433 18.3189 60.6771 15.5845 59.9511 14.4234C 59.439 14.4234 58.9985 14.5226 58.8152 14.8995C 58.5558 15.4331 58.631 16.3062 58.1842 16.3671C 57.1625 16.5063 56.0615 15.0195 56.5606 13.6049C 56.9627 12.4654 57.9259 11.8934 59.0708 11.6076C 60.408 11.2738 61.9928 11.3307 63.2197 11.3309C 65.2533 11.3313 66.7566 16.4717 69.1815 17.6484C 70.2569 17.9551 71.3219 18.6559 72.3268 19.4224C 72.743 19.7399 73.1659 20.0625 73.6062 20.3619C 91.304 32.3948 88.461 41.804 76.0395 54.0226C 72.7295 57.2785 70.3599 60.8796 68.7595 63.9707C 66.641 68.0628 66.56 72.7789 66.9662 77.369C 67.6726 85.3513 68.0951 95.3714 68.3156 101.8959C 68.4534 105.9708 68.5123 108.6827 68.5123 108.6827L 68.5123 113.3298L 68.5123 122.7714C 68.5121 128.0775 67.8866 148.237 66.7623 164.6374C 65.6691 180.5833 63.9586 196.011 63.8646 196.854C 64.2465 196.8057 64.626 196.7201 65.0073 196.6679C 66.7372 196.4309 69.1914 197.3325 69.1914 199.8902L 69.1914 200.9995C 69.1914 200.9995 66.0882 202.6336 63.3566 201.9995C 58.986 203.4531 54.5442 201.9995 54.5442 201.9995L 54.5442 196.8902C 54.5442 196.8902 54.9685 181.2307 54.5442 164.6374C 54.1198 148.0442 52.2191 122.7714 52.2191 122.7714L 49.2892 122.7714C 49.2892 122.7714 47.3884 148.0442 46.9641 164.6374C 46.5398 181.2307 46.9641 196.8902 46.9641 196.8902ZM 33.2821 98.2429C 33.5234 91.1037 34.0592 78.9649 35.3527 70.2156C 32.1739 72.0343 20.6098 78.9213 19.9261 81.3576C 19.6025 83.1482 21.9313 86.3383 24.3286 89.6219C 25.6165 91.3861 26.9241 93.1772 27.8508 94.7929C 28.298 95.2833 30.1877 96.3923 31.6339 97.2412C 32.4038 97.693 33.048 98.0711 33.2821 98.2429ZM 68.5123 122.7714C 68.5124 119.2482 68.5124 116.3128 68.5123 113.3298C 68.5123 111.8204 68.5123 110.2988 68.5123 108.6827M 71.2608 25.4728C 71.6847 25.8184 70.8666 25.1354 71.2608 25.4728ZM 46.964404 196.890022L 37.648004 196.890022M 41.142804 122.771222C 46.154004 124.042022 49.289404 122.771222 49.289404 122.771222M 54.544404 196.890022L 63.860804 196.890022M 60.366004 122.771222C 55.354804 124.042022 52.219404 122.771222 52.219404 122.771222M 32.996204 108.682522L 68.512504 108.682522L 33.085704 108.681922M 43.589604 48.895422L 57.918304 48.895422M 54.818904 46.021022C 53.498604 45.815322 51.794404 45.785922 50.753304 45.785922C 49.712204 45.785922 48.008204 45.815322 46.688104 46.021022M 33.282404 98.242622C 33.144604 102.317922 33.085704 105.029622 33.085704 105.029622M 27.851004 94.792722L 24.604004 100.359022M 35.353004 70.215422L 35.757204 67.481522M 66.412904 21.610822C 67.139504 20.629922 69.181804 17.648222 69.181804 17.648222M 63.419904 27.993222C 62.908604 29.401622 62.235104 30.649722 61.427104 31.380922C 60.402404 34.571822 58.993604 37.250122 57.476704 37.845622C 55.488004 38.626222 53.195104 39.045822 50.753904 39.045822C 48.312704 39.045822 46.019804 38.626222 44.031104 37.845622C 42.514204 37.250122 41.199904 34.595222 40.080704 31.380922C 39.274004 30.650822 38.601204 29.405222 38.090204 27.999422M 64.397104 20.081822C 62.643704 18.318722 60.677104 15.584522 59.951104 14.423422C 59.439104 14.423422 58.998504 14.522622 58.815204 14.899522C 58.555804 15.433022 58.631004 16.306122 58.184204 16.367022C 57.162504 16.506322 56.061504 15.019522 56.560604 13.604822C 56.962704 12.465422 57.926204 11.893222 59.071004 11.607422"></path></g></g></g><g id="g-root-ro_hzn6az17w8ykr-stroke" data-item-order="15999972784" transform="translate(14, 235.8994140625)"><g id="ro_hzn6az17w8ykr-stroke" fill="none" stroke-linecap="round" stroke-linejoin="round" stroke-miterlimit="4" stroke="#2c2c2c" stroke-width="2"><g><path d="M 22 10L 250 10C 250 10 262 10 262 22L 262 106C 262 106 262 118 250 118L 22 118C 22 118 10 118 10 106L 10 22C 10 22 10 10 22 10"></path></g></g></g><g id="g-root-ro_zly6kb16sg6iz-stroke" data-item-order="15999975376" transform="translate(356, 235.8994140625)"><g id="ro_zly6kb16sg6iz-stroke" fill="none" stroke-linecap="round" stroke-linejoin="round" stroke-miterlimit="4" stroke="#2c2c2c" stroke-width="2"><g><path d="M 22 10L 226 10C 226 10 238 10 238 22L 238 106C 238 106 238 118 226 118L 22 118C 22 118 10 118 10 106L 10 22C 10 22 10 10 22 10"></path></g></g></g><g id="g-root-tx_qualfram_qu156z140itxj-stroke" data-item-order="16000000000" transform="translate(56, 38)"></g><g id="g-root-tx_jestreac_1q6ywej140k740-stroke" data-item-order="16000000000" transform="translate(68, 171.8994140625)"></g><g id="g-root-tx_mochacha_144v6h7140k8wa-stroke" data-item-order="16000000000" transform="translate(416, 175.8994140625)"></g><g id="g-root-tx_adequado_4m83v140k6wx-stroke" data-item-order="17000000000" transform="translate(26, 247.8994140625)"></g><g id="g-root-tx_idealpar_146qlqj140k7wj-stroke" data-item-order="17000000000" transform="translate(386, 253.8994140625)"></g></g></g></svg>